<svg id="Group_959" data-name="Group 959" xmlns="http://www.w3.org/2000/svg" xmlns:xlink="http://www.w3.org/1999/xlink" width="46" height="46" viewBox="0 0 46 46">
  <defs>
    <clipPath id="clip-path">
      <path id="Path_640" data-name="Path 640" d="M4.707-12.707a1,1,0,0,0-1.414,0,1,1,0,0,0,0,1.414l5,5a1,1,0,0,0,1.414,0l11-11a1,1,0,0,0,0-1.414,1,1,0,0,0-1.414,0L9-8.414Z" transform="translate(-3 19)" fill="none"/>
    </clipPath>
    <clipPath id="clip-path-2">
      <path id="Path_639" data-name="Path 639" d="M0-1H24V-25H0Z" transform="translate(0 25)" fill="none"/>
    </clipPath>
    <clipPath id="clip-path-3">
      <rect id="Rectangle_280" data-name="Rectangle 280" width="28" height="24" fill="none"/>
    </clipPath>
    <clipPath id="clip-path-4">
      <path id="Path_638" data-name="Path 638" d="M3-6H21V-19H3Z" transform="translate(-3 19)" fill="none"/>
    </clipPath>
  </defs>
  <circle id="Ellipse_14" data-name="Ellipse 14" cx="23" cy="23" r="23" fill="rgba(29,237,167,0.15)"/>
  <g id="Group_986" data-name="Group 986" transform="translate(14 17)">
    <g id="Group_985" data-name="Group 985" clip-path="url(#clip-path)">
      <g id="Group_984" data-name="Group 984" transform="translate(-3 -6)" clip-path="url(#clip-path-2)">
        <g id="Group_983" data-name="Group 983" transform="translate(-2)" style="isolation: isolate">
          <g id="Group_982" data-name="Group 982" clip-path="url(#clip-path-3)">
            <g id="Group_981" data-name="Group 981" transform="translate(5 6)" clip-path="url(#clip-path-4)">
              <path id="Path_636" data-name="Path 636" d="M-2-24H26V-1H-2Z" transform="translate(-3 19)"/>
              <path id="Path_637" data-name="Path 637" d="M-5-30H29V4H-5Z" transform="translate(-3 19)"/>
            </g>
          </g>
        </g>
      </g>
    </g>
  </g>
</svg>
