<svg id="Group_959" data-name="Group 959" xmlns="http://www.w3.org/2000/svg" xmlns:xlink="http://www.w3.org/1999/xlink" width="46" height="46" viewBox="0 0 46 46">
  <defs>
    <clipPath id="clip-path">
      <path id="Path_625" data-name="Path 625" d="M10.829-23a5.3,5.3,0,0,1,5.3,5.3h0v2.649h.883a2.649,2.649,0,0,1,2.649,2.649v6.18a2.649,2.649,0,0,1-2.649,2.649H4.649A2.649,2.649,0,0,1,2-6.225v-6.18a2.649,2.649,0,0,1,2.649-2.649h.883V-17.7A5.3,5.3,0,0,1,10.63-23Zm6.18,9.712H4.649a.883.883,0,0,0-.883.883v6.18a.883.883,0,0,0,.883.883h12.36a.883.883,0,0,0,.883-.883v-6.18A.883.883,0,0,0,17.009-13.288Zm-6.18-7.946A3.532,3.532,0,0,0,7.3-17.7h0v2.649H14.36V-17.7a3.532,3.532,0,0,0-3.355-3.527Z" transform="translate(-2 23)" fill="#151515" clip-rule="evenodd"/>
    </clipPath>
    <clipPath id="clip-path-2">
      <path id="Path_624" data-name="Path 624" d="M0-2.811H21.189V-24H0Z" transform="translate(0 24)" fill="#151515"/>
    </clipPath>
    <clipPath id="clip-path-3">
      <rect id="Rectangle_277" data-name="Rectangle 277" width="26.487" height="28.252" fill="#151515"/>
    </clipPath>
    <clipPath id="clip-path-4">
      <path id="Path_623" data-name="Path 623" d="M2-3.576H19.658V-23H2Z" transform="translate(-2 23)" fill="#151515"/>
    </clipPath>
  </defs>
  <circle id="Ellipse_14" data-name="Ellipse 14" cx="23" cy="23" r="23" fill="rgba(29,237,167,0.15)"/>
  <g id="Group_958" data-name="Group 958" transform="translate(14.526 12.912)">
    <g id="Group_957" data-name="Group 957" transform="translate(0)" clip-path="url(#clip-path)">
      <g id="Group_956" data-name="Group 956" transform="translate(-1.766 -0.883)" clip-path="url(#clip-path-2)">
        <g id="Group_955" data-name="Group 955" transform="translate(-2.649 -3.532)" style="isolation: isolate">
          <g id="Group_954" data-name="Group 954" clip-path="url(#clip-path-3)">
            <g id="Group_953" data-name="Group 953" transform="translate(4.414 4.414)" clip-path="url(#clip-path-4)">
              <path id="Path_621" data-name="Path 621" d="M-3-28H23.487V.252H-3Z" transform="translate(-1.414 23.586)" fill="#151515"/>
              <path id="Path_622" data-name="Path 622" d="M-5-29H25.018V1.018H-5Z" transform="translate(-1.18 23.703)" fill="#151515"/>
            </g>
          </g>
        </g>
      </g>
    </g>
  </g>
</svg>
