<svg id="Group_959" data-name="Group 959" xmlns="http://www.w3.org/2000/svg" xmlns:xlink="http://www.w3.org/1999/xlink" width="46" height="46" viewBox="0 0 46 46">
  <defs>
    <clipPath id="clip-path">
      <path id="Path_635" data-name="Path 635" d="M19.649-16a3,3,0,0,1,2.3,1.031,3,3,0,0,1,.7,2.42l-1.38,9A3,3,0,0,1,18.28-1H7A1,1,0,0,1,6-2V-13a1,1,0,0,1,.086-.406l4-9A1,1,0,0,1,11-23a4,4,0,0,1,4,4v3ZM8-3H18.291a1,1,0,0,0,1-.852l1.38-9a1,1,0,0,0-.234-.806A1.006,1.006,0,0,0,19.66-14H14a1,1,0,0,1-1-1v-4a2,2,0,0,0-1.392-1.906L8-12.788ZM6-12H4a1,1,0,0,0-1,1v7A1,1,0,0,0,4-3H6ZM7-1H4A3,3,0,0,1,1-4v-7a3,3,0,0,1,3-3H7a1,1,0,0,1,1,1V-2A1,1,0,0,1,7-1Z" transform="translate(-1 23)" fill="none"/>
    </clipPath>
    <clipPath id="clip-path-2">
      <path id="Path_634" data-name="Path 634" d="M0,0H24V-24H0Z" transform="translate(0 24)" fill="none"/>
    </clipPath>
    <clipPath id="clip-path-3">
      <rect id="Rectangle_279" data-name="Rectangle 279" width="32" height="33" fill="none"/>
    </clipPath>
    <clipPath id="clip-path-4">
      <path id="Path_633" data-name="Path 633" d="M1-1H23V-23H1Z" transform="translate(-1 23)" fill="none"/>
    </clipPath>
  </defs>
  <circle id="Ellipse_14" data-name="Ellipse 14" cx="23" cy="23" r="23" fill="rgba(29,237,167,0.15)"/>
  <g id="Group_980" data-name="Group 980" transform="translate(12 12)">
    <g id="Group_979" data-name="Group 979" clip-path="url(#clip-path)">
      <g id="Group_978" data-name="Group 978" transform="translate(-1 -1)" clip-path="url(#clip-path-2)">
        <g id="Group_977" data-name="Group 977" transform="translate(-4 -4)" style="isolation: isolate">
          <g id="Group_976" data-name="Group 976" clip-path="url(#clip-path-3)">
            <g id="Group_975" data-name="Group 975" transform="translate(5 5)" clip-path="url(#clip-path-4)">
              <path id="Path_631" data-name="Path 631" d="M-4-28H27.683V4H-4Z" transform="translate(-1 23)"/>
              <path id="Path_632" data-name="Path 632" d="M-5-29H29V5H-5Z" transform="translate(-1 23)"/>
            </g>
          </g>
        </g>
      </g>
    </g>
  </g>
</svg>
