<?xml version="1.0" standalone="no"?>
<!DOCTYPE svg PUBLIC "-//W3C//DTD SVG 20010904//EN"
 "http://www.w3.org/TR/2001/REC-SVG-20010904/DTD/svg10.dtd">
<svg version="1.0"
    xmlns="http://www.w3.org/2000/svg" width="1431.000000pt" height="246.000000pt" viewBox="0 0 1431.000000 246.000000" preserveAspectRatio="xMidYMid meet">

    <g transform="translate(0.000000,246.000000) scale(0.100000,-0.100000)" fill="#ADADAD" stroke="none">
        <path d="M1056 2449 c-456 -63 -843 -385 -990 -822 -47 -143 -60 -230 -60
-397 0 -169 10 -235 56 -380 99 -313 325 -578 613 -719 168 -83 298 -117 483
-128 267 -14 555 75 774 240 116 88 133 109 133 168 0 44 -4 54 -33 80 -52 46
-93 41 -172 -22 -216 -175 -402 -243 -660 -242 -148 1 -225 16 -366 73 -133
53 -362 223 -352 263 1 8 116 195 253 416 l250 402 6 -238 c7 -271 15 -312 77
-363 72 -59 152 -49 231 28 30 30 107 145 212 315 l164 269 6 -174 c5 -144 10
-182 28 -229 52 -135 143 -217 264 -238 119 -21 224 15 318 108 95 95 129 196
129 380 0 577 -410 1079 -975 1196 -97 20 -295 27 -389 14z m401 -244 c442
-112 756 -531 741 -990 -3 -98 -6 -115 -30 -157 -52 -88 -144 -115 -208 -61
-17 14 -37 38 -43 52 -6 15 -13 125 -17 251 -6 249 -14 284 -78 344 -43 40
-120 47 -181 17 -71 -36 -119 -99 -276 -353 l-150 -243 -5 295 c-5 322 -9 344
-65 389 -56 43 -123 39 -180 -11 -21 -18 -157 -226 -332 -506 l-297 -476 -28
64 c-16 36 -41 108 -55 160 -23 83 -26 115 -26 250 0 136 3 167 26 255 141
535 675 854 1204 720z"/>
        <path d="M3720 1740 c-255 -35 -461 -253 -485 -514 -10 -106 8 -196 59 -301
97 -198 282 -315 499 -315 136 0 265 47 361 131 49 43 61 79 41 126 -28 66
-96 72 -176 14 -77 -55 -138 -74 -235 -75 -102 0 -171 31 -238 105 -66 73 -90
142 -90 259 0 117 24 186 90 259 110 122 265 142 441 55 82 -40 109 -39 148 8
36 42 34 96 -4 137 -40 43 -145 90 -238 106 -85 16 -93 16 -173 5z"/>
        <path d="M5264 1736 c-95 -42 -108 -173 -22 -226 122 -74 254 73 166 185 -21
27 -74 55 -100 55 -7 -1 -27 -7 -44 -14z"/>
        <path d="M11960 1740 c-219 -34 -410 -205 -464 -416 -20 -77 -20 -221 -1 -294
51 -191 214 -356 400 -405 123 -32 278 -14 394 45 150 75 197 155 132 221 -44
44 -88 40 -170 -16 -123 -83 -245 -94 -369 -34 -133 65 -212 236 -183 394 24
130 91 224 193 271 54 25 75 29 148 29 81 0 91 -3 173 -43 80 -39 91 -42 122
-32 62 21 88 98 52 154 -55 83 -278 148 -427 126z"/>
        <path d="M6537 1724 c-12 -13 -8 -1023 4 -1047 33 -64 115 -77 168 -28 l31 29
0 266 c0 146 3 266 8 266 4 0 67 -65 141 -145 176 -192 156 -192 333 0 73 80
136 145 141 145 4 0 7 -115 7 -255 0 -274 3 -296 51 -321 47 -24 97 -18 130
15 l29 30 -2 523 -3 523 -27 3 c-24 3 -52 -26 -250 -248 -178 -200 -227 -250
-245 -248 -14 2 -99 90 -240 248 -162 182 -225 246 -243 248 -14 2 -29 0 -33
-4z"/>
        <path d="M9353 1710 c-21 -13 -35 -31 -42 -57 -14 -51 -15 -904 -1 -955 19
-69 92 -98 159 -64 43 23 51 54 51 196 0 72 3 130 8 129 4 0 56 -58 116 -129
168 -199 180 -210 226 -210 60 0 105 44 105 102 0 41 -7 52 -94 159 -52 62
-100 121 -107 129 -10 13 5 34 92 129 97 107 104 117 104 156 0 70 -66 121
-128 99 -14 -5 -91 -81 -171 -168 l-146 -159 -5 302 -5 303 -33 29 c-39 35
-82 38 -129 9z"/>
        <path d="M11004 1696 l-34 -34 0 -126 0 -126 -44 0 c-82 0 -136 -73 -102 -139
22 -42 54 -61 103 -61 l43 0 0 -183 c0 -264 25 -341 130 -395 36 -18 61 -22
135 -22 101 0 124 10 145 59 27 67 -22 131 -100 131 -84 0 -85 1 -88 219 l-3
191 50 0 c64 0 96 12 117 46 28 42 22 93 -15 126 -27 24 -40 28 -91 28 l-60 0
0 103 c0 130 -12 172 -53 197 -50 31 -93 26 -133 -14z"/>
        <path d="M4552 1392 c-254 -91 -356 -378 -212 -598 44 -67 90 -108 170 -150
50 -26 64 -29 160 -29 93 0 111 3 163 27 31 15 81 51 110 80 201 201 142 540
-113 656 -75 34 -202 41 -278 14z m233 -236 c150 -144 6 -419 -177 -338 -99
44 -146 174 -99 277 20 45 70 92 104 100 87 18 121 10 172 -39z"/>
        <path d="M5915 1393 c-28 -10 -67 -31 -87 -46 -36 -28 -36 -28 -43 -7 -20 64
-96 80 -139 29 l-27 -31 3 -330 3 -330 33 -29 c56 -50 133 -36 167 31 12 23
15 69 15 212 0 204 7 241 49 282 60 57 181 43 217 -26 15 -28 19 -69 24 -256
l5 -224 28 -24 c32 -28 83 -32 125 -10 51 26 54 41 50 307 -3 224 -5 248 -25
290 -30 65 -78 116 -137 146 -68 35 -187 42 -261 16z"/>
        <path d="M7978 1396 c-162 -59 -258 -204 -258 -388 0 -165 88 -312 227 -375
49 -22 65 -25 141 -21 97 5 183 36 226 83 l25 27 11 -41 c6 -22 19 -45 30 -51
33 -18 79 -12 105 15 l25 24 0 341 0 341 -25 24 c-47 48 -126 20 -139 -49 l-6
-34 -33 31 c-54 51 -132 81 -217 84 -46 2 -89 -2 -112 -11z m209 -205 c109
-50 139 -223 55 -323 -30 -35 -94 -67 -136 -68 -41 0 -101 37 -133 83 -51 74
-41 218 20 275 58 54 122 65 194 33z"/>
        <path d="M9010 1393 c-25 -8 -63 -28 -84 -44 l-40 -29 -12 29 c-23 55 -84 67
-131 27 l-28 -24 -3 -294 c-2 -161 0 -313 3 -337 12 -82 85 -124 158 -90 48
22 52 40 57 264 4 177 8 215 23 243 23 42 85 71 151 72 41 0 53 5 82 34 25 25
34 43 34 66 0 23 -9 42 -34 66 -30 30 -40 34 -82 34 -27 -1 -69 -8 -94 -17z"/>
        <path d="M10279 1397 c-177 -50 -268 -201 -256 -426 12 -238 151 -361 406
-361 121 0 189 20 243 71 46 43 49 75 12 118 -30 36 -69 40 -129 15 -62 -26
-162 -29 -220 -7 -54 20 -95 68 -95 109 l0 24 224 0 c125 0 236 4 251 10 56
21 64 118 20 243 -25 69 -101 148 -176 182 -74 33 -204 43 -280 22z m209 -214
c39 -18 62 -48 62 -80 0 -23 0 -23 -155 -23 -145 0 -155 1 -155 19 0 22 34 67
63 83 54 29 123 29 185 1z"/>
        <path d="M12790 1401 c-167 -51 -270 -201 -270 -391 0 -173 82 -311 223 -376
53 -24 68 -26 145 -22 98 5 167 30 218 79 l31 30 7 -35 c8 -40 38 -66 77 -66
87 0 89 11 89 390 0 225 -3 328 -12 343 -17 32 -39 46 -75 47 -38 0 -83 -47
-83 -87 0 -25 -1 -25 -43 14 -75 69 -213 102 -307 74z m213 -221 c71 -49 103
-145 78 -237 -24 -88 -122 -154 -206 -139 -53 10 -110 72 -130 141 -30 101 14
213 100 252 42 19 117 11 158 -17z"/>
        <path d="M13845 1401 c-52 -14 -99 -37 -132 -65 -24 -20 -33 -24 -33 -13 0 9
-12 29 -26 46 -19 23 -34 31 -59 31 -25 0 -40 -8 -59 -31 l-26 -31 0 -487 0
-488 23 -34 c43 -65 137 -62 178 5 16 27 19 52 19 182 l0 151 53 -25 c41 -20
72 -27 144 -30 83 -4 97 -2 150 22 142 65 224 204 224 382 0 165 -81 302 -217
364 -53 24 -184 36 -239 21z m122 -202 c77 -29 132 -133 118 -222 -14 -83 -51
-134 -118 -162 -48 -20 -80 -19 -126 5 -105 53 -141 180 -83 291 42 82 129
118 209 88z"/>
        <path d="M5248 1380 c-47 -36 -49 -55 -46 -389 l3 -313 33 -29 c56 -50 133
-36 167 31 22 43 22 617 0 660 -29 57 -110 77 -157 40z"/>
    </g>
</svg>
