<?xml version="1.0" standalone="no"?>
<!DOCTYPE svg PUBLIC "-//W3C//DTD SVG 20010904//EN"
 "http://www.w3.org/TR/2001/REC-SVG-20010904/DTD/svg10.dtd">
<svg version="1.0"
    xmlns="http://www.w3.org/2000/svg" width="1280.000000pt" height="363.000000pt" viewBox="0 0 1280.000000 363.000000" preserveAspectRatio="xMidYMid meet">

    <g transform="translate(0.000000,363.000000) scale(0.100000,-0.100000)" fill="#ADADAD" stroke="none">
        <path d="M2750 2318 c-459 -1262 -475 -1304 -516 -1345 l-41 -43 489 0 c531 0
515 -2 570 57 21 21 135 324 492 1303 255 701 469 1287 475 1303 l11 27 -503
0 -503 0 -474 -1302z"/>
        <path d="M1056 2710 c-45 -14 -94 -68 -117 -129 -48 -129 -922 -2528 -926
-2544 -5 -16 22 -17 497 -15 l502 3 473 1299 c261 715 482 1311 493 1325 10
14 34 36 52 49 l33 22 -489 -1 c-269 0 -502 -5 -518 -9z"/>
        <path d="M9630 2467 l0 -253 -92 9 c-112 10 -266 1 -345 -19 -140 -35 -273
-127 -348 -240 -104 -156 -142 -419 -90 -619 58 -222 213 -371 453 -437 64
-18 105 -21 247 -21 149 0 389 21 448 39 16 5 17 57 17 900 l0 894 -145 0
-145 0 0 -253z m-46 -473 l46 -7 0 -437 0 -438 -96 -7 c-222 -17 -381 56 -458
211 -39 77 -49 143 -44 278 6 136 26 205 82 279 37 48 121 102 180 116 49 11
224 14 290 5z"/>
        <path d="M2124 2661 c-23 -10 -50 -32 -61 -47 -12 -16 -100 -246 -196 -511
l-176 -482 105 -288 c61 -166 114 -298 127 -311 72 -77 195 -69 258 18 22 29
361 956 361 985 0 26 -189 541 -214 582 -21 36 -90 73 -134 73 -16 0 -47 -9
-70 -19z"/>
        <path d="M4500 1770 l0 -850 130 0 130 0 2 672 3 671 385 -671 385 -672 188 0
187 0 0 850 0 850 -135 0 -135 0 -2 -660 -3 -660 -381 657 -380 658 -187 3
-187 2 0 -850z"/>
        <path d="M6435 2215 c-55 -7 -121 -16 -147 -20 l-48 -8 0 -115 0 -114 33 6
c156 32 237 40 402 40 278 1 315 -20 330 -191 l7 -81 -238 -5 c-173 -3 -257
-9 -302 -21 -150 -38 -250 -114 -293 -222 -19 -48 -23 -78 -23 -164 0 -120 10
-163 56 -239 55 -91 153 -147 299 -170 83 -14 477 -12 644 3 l130 11 3 470 c3
500 0 551 -44 637 -45 88 -115 139 -239 174 -81 22 -429 28 -570 9z m583 -901
l2 -211 -137 -7 c-226 -11 -371 20 -421 91 -42 59 -49 159 -17 223 47 91 144
120 400 117 l170 -2 3 -211z"/>
        <path d="M7885 2216 c-227 -54 -333 -159 -343 -343 -9 -161 50 -259 201 -333
78 -38 147 -58 319 -95 91 -19 174 -59 202 -98 26 -36 26 -99 -1 -135 -70 -93
-302 -116 -593 -57 -69 14 -126 25 -128 25 -1 0 -1 -53 0 -117 l3 -118 100
-18 c144 -27 493 -29 585 -4 219 59 329 179 338 368 6 113 -13 171 -78 243
-66 71 -149 110 -324 152 -221 53 -276 72 -313 109 -55 55 -38 137 36 175 87
44 285 50 483 15 130 -23 119 -32 116 98 l-3 112 -80 12 c-128 20 -448 26
-520 9z"/>
        <path d="M10435 2215 c-55 -7 -121 -16 -147 -20 l-48 -8 0 -113 c0 -63 3 -114
8 -114 4 0 57 10 117 21 160 29 420 37 505 15 102 -26 124 -57 135 -183 l7
-81 -238 -5 c-256 -5 -314 -14 -424 -65 -75 -35 -142 -104 -171 -178 -19 -48
-23 -78 -23 -164 -1 -243 108 -369 355 -409 83 -14 477 -12 644 3 l130 11 3
470 c3 500 0 551 -44 637 -45 88 -115 139 -239 174 -81 22 -429 28 -570 9z
m583 -901 l2 -211 -137 -7 c-227 -11 -371 20 -422 92 -51 72 -49 188 5 252 59
69 147 89 379 87 l170 -2 3 -211z"/>
        <path d="M12130 2220 c-262 -23 -436 -129 -529 -322 -56 -117 -75 -220 -68
-372 14 -327 160 -526 442 -608 71 -20 101 -23 268 -23 l187 0 0 -274 c0 -243
2 -272 16 -267 8 3 73 31 145 63 l129 57 0 867 0 867 -137 6 c-280 13 -360 14
-453 6z m300 -654 c0 -326 -3 -437 -12 -442 -6 -4 -77 -8 -157 -8 -130 0 -153
3 -206 24 -119 47 -201 156 -224 300 -31 191 12 378 106 461 41 35 119 76 170
88 21 5 102 9 181 10 l142 1 0 -434z"/>
    </g>
</svg>
