<?xml version="1.0" standalone="no"?>
<!DOCTYPE svg PUBLIC "-//W3C//DTD SVG 20010904//EN"
 "http://www.w3.org/TR/2001/REC-SVG-20010904/DTD/svg10.dtd">
<svg version="1.0"
    xmlns="http://www.w3.org/2000/svg" width="545.000000pt" height="81.000000pt" viewBox="0 0 545.000000 81.000000" preserveAspectRatio="xMidYMid meet">

    <g transform="translate(0.000000,81.000000) scale(0.100000,-0.100000)" fill="#ADADAD" stroke="none">
        <path d="M180 755 l0 -45 45 0 45 0 0 45 0 45 -45 0 -45 0 0 -45z"/>
        <path d="M0 545 l0 -105 110 0 110 0 0 105 0 105 -110 0 -110 0 0 -105z"/>
        <path d="M330 325 l0 -325 110 0 110 0 2 218 3 217 108 3 107 3 0 104 0 105
-220 0 -220 0 0 -325z"/>
        <path d="M1320 245 l0 -195 35 0 35 0 0 78 c0 84 13 115 51 125 15 4 30 -2 50
-23 27 -26 29 -34 29 -104 l0 -76 36 0 36 0 -4 101 -3 101 -37 34 c-30 27 -46
34 -79 34 -22 0 -49 -5 -60 -10 -18 -10 -19 -7 -19 60 l0 70 -35 0 -35 0 0
-195z"/>
        <path d="M2690 420 c-26 -26 -10 -69 27 -70 16 0 43 28 43 45 0 15 -27 45 -41
45 -5 0 -18 -9 -29 -20z"/>
        <path d="M4356 427 c-38 -27 2 -95 42 -71 23 15 27 48 7 68 -20 19 -26 20 -49
3z"/>
        <path d="M1000 396 c0 -34 1 -35 48 -38 l47 -3 3 -153 3 -152 39 0 39 0 3 153
3 152 48 3 c46 3 47 4 47 38 l0 34 -140 0 -140 0 0 -34z"/>
        <path d="M2060 396 c0 -34 1 -35 48 -38 l47 -3 3 -153 3 -152 39 0 39 0 3 153
3 152 48 3 c46 3 47 4 47 38 l0 34 -140 0 -140 0 0 -34z"/>
        <path d="M4020 396 c0 -34 1 -35 48 -38 l47 -3 3 -153 3 -152 39 0 39 0 3 153
3 152 48 3 c46 3 47 4 47 38 l0 34 -140 0 -140 0 0 -34z"/>
        <path d="M60 300 c0 -25 4 -30 25 -30 21 0 25 5 25 30 0 25 -4 30 -25 30 -21
0 -25 -5 -25 -30z"/>
        <path d="M1683 300 c-46 -27 -66 -73 -61 -132 10 -99 111 -154 217 -117 35 12
35 13 20 40 -8 17 -17 19 -57 13 -39 -5 -52 -2 -72 15 l-25 20 91 1 c83 0 92
2 97 20 10 38 -11 94 -47 128 -30 27 -43 32 -83 32 -30 0 -60 -7 -80 -20z
m111 -61 c36 -28 25 -39 -40 -39 -60 0 -66 9 -28 39 33 26 35 26 68 0z"/>
        <path d="M2399 303 c-86 -53 -83 -201 6 -249 23 -12 43 -15 76 -10 24 4 65 7
92 6 l47 -1 0 136 0 135 -29 0 c-16 0 -31 -5 -33 -11 -3 -9 -9 -9 -25 0 -31
16 -104 13 -134 -6z m137 -78 c20 -31 11 -90 -16 -105 -72 -39 -142 40 -94
108 23 33 88 31 110 -3z"/>
        <path d="M2680 185 l0 -135 35 0 35 0 0 135 0 135 -35 0 -35 0 0 -135z"/>
        <path d="M2810 304 c0 -9 14 -62 31 -118 17 -56 33 -109 35 -119 5 -15 15 -17
57 -15 l51 3 20 69 21 69 18 -72 19 -71 51 0 52 0 38 128 c20 70 37 131 37
135 0 5 -17 7 -37 5 l-38 -3 -27 -90 c-15 -50 -27 -92 -28 -95 -1 -3 -13 38
-28 90 -27 93 -28 95 -59 98 -30 3 -33 1 -43 -40 -6 -24 -19 -68 -27 -98 -18
-62 -14 -67 -53 68 -21 71 -21 72 -55 72 -26 0 -35 -4 -35 -16z"/>
        <path d="M3336 299 c-80 -63 -73 -199 13 -244 39 -19 100 -19 129 1 12 8 22
10 22 5 0 -6 16 -11 35 -11 l36 0 -3 133 -3 132 -29 3 c-16 2 -32 -2 -36 -8
-6 -9 -13 -9 -28 -1 -35 19 -106 13 -136 -10z m139 -72 c54 -77 -47 -164 -104
-91 -27 35 -27 65 2 91 40 37 76 37 102 0z"/>
        <path d="M3620 185 l0 -135 35 0 35 0 0 83 c0 69 3 87 18 100 24 22 45 21 65
-1 13 -14 17 -38 17 -100 l0 -82 35 0 35 0 0 100 c0 76 -4 107 -16 125 -21 32
-82 49 -120 35 -19 -7 -30 -8 -38 0 -5 5 -23 10 -38 10 l-28 0 0 -135z"/>
        <path d="M4340 186 l0 -136 40 0 41 0 -3 133 -3 132 -37 3 -38 3 0 -135z"/>
        <path d="M4470 185 l0 -135 40 0 40 0 0 84 c0 64 4 88 16 100 18 19 20 19 45
6 17 -9 19 -22 19 -100 l0 -90 40 0 40 0 0 84 c0 64 4 88 16 100 19 20 29 20
48 0 12 -12 16 -36 16 -100 l0 -84 41 0 41 0 -4 105 c-3 97 -5 106 -29 131
-31 31 -86 35 -125 9 -22 -14 -28 -15 -42 -2 -25 21 -60 27 -95 15 -23 -9 -32
-8 -35 0 -2 7 -19 12 -38 12 l-34 0 0 -135z"/>
        <path d="M4973 300 c-46 -27 -66 -73 -61 -132 10 -99 111 -154 217 -117 35 12
35 13 20 40 -8 17 -17 19 -57 13 -39 -5 -52 -2 -72 15 l-25 20 92 1 c82 0 92
2 98 20 11 34 -13 97 -50 129 -29 25 -44 31 -83 31 -29 0 -59 -8 -79 -20z
m111 -61 c36 -28 25 -39 -40 -39 -60 0 -66 9 -28 39 33 26 35 26 68 0z"/>
        <path d="M5266 295 c-20 -18 -26 -34 -26 -64 0 -45 20 -65 83 -82 22 -6 37
-16 37 -25 0 -21 -28 -29 -54 -14 -19 10 -29 9 -51 -2 l-27 -15 32 -26 c83
-70 211 2 174 98 -7 18 -55 45 -82 45 -27 0 -44 20 -31 37 8 9 16 10 31 2 20
-11 78 -3 78 11 0 4 -14 20 -31 34 -41 35 -96 35 -133 1z"/>
    </g>
</svg>
