<?xml version="1.0" encoding="UTF-8" standalone="no"?>
<svg
   xmlns:dc="http://purl.org/dc/elements/1.1/"
   xmlns:cc="http://creativecommons.org/ns#"
   xmlns:rdf="http://www.w3.org/1999/02/22-rdf-syntax-ns#"
   xmlns:svg="http://www.w3.org/2000/svg"
   xmlns="http://www.w3.org/2000/svg"
   xmlns:sodipodi="http://sodipodi.sourceforge.net/DTD/sodipodi-0.dtd"
   xmlns:inkscape="http://www.inkscape.org/namespaces/inkscape"
   version="1.0"
   width="906pt"
   height="332.70004pt"
   viewBox="0 0 906 332.70004"
   preserveAspectRatio="xMidYMid meet"
   id="svg40"
   sodipodi:docname="yahoofinance.svg"
   inkscape:version="1.0.1 (c497b03c, 2020-09-10)">
  <metadata
     id="metadata46">
    <rdf:RDF>
      <cc:Work
         rdf:about="">
        <dc:format>image/svg+xml</dc:format>
        <dc:type
           rdf:resource="http://purl.org/dc/dcmitype/StillImage" />
      </cc:Work>
    </rdf:RDF>
  </metadata>
  <defs
     id="defs44" />
  <sodipodi:namedview
     pagecolor="#ffffff"
     bordercolor="#666666"
     borderopacity="1"
     objecttolerance="10"
     gridtolerance="10"
     guidetolerance="10"
     inkscape:pageopacity="0"
     inkscape:pageshadow="2"
     inkscape:window-width="1920"
     inkscape:window-height="1035"
     id="namedview42"
     showgrid="false"
     inkscape:zoom="0.51875"
     inkscape:cx="581.33333"
     inkscape:cy="222"
     inkscape:window-x="0"
     inkscape:window-y="23"
     inkscape:window-maximized="1"
     inkscape:current-layer="svg40" />
  <g
     transform="matrix(0.1,0,0,-0.1,-164,471)"
     fill="#adadad"
     stroke="none"
     id="g38">
    <path
       d="m 4902,4697 c -9,-11 -11,-258 -10,-998 l 3,-984 h 240 240 l 5,415 c 5,380 7,418 24,449 26,48 45,67 90,85 78,32 150,10 201,-62 l 30,-44 5,-421 5,-422 220,-3 c 121,-1 230,0 243,3 l 22,5 v 416 c 0,229 -5,459 -11,512 -17,160 -54,251 -134,337 -92,100 -218,143 -380,132 -100,-7 -172,-34 -247,-93 -32,-25 -63,-42 -68,-39 -7,4 -10,127 -10,357 1,193 -2,353 -5,357 -4,3 -107,7 -229,9 -182,2 -225,0 -234,-11 z"
       id="path10" />
    <path
       d="m 10127,4687 c -8,-12 -25,-47 -37,-77 -12,-30 -29,-70 -36,-87 -27,-61 -42,-98 -74,-178 -30,-75 -40,-98 -74,-177 -8,-18 -30,-73 -50,-123 -39,-94 -50,-121 -71,-170 -7,-16 -29,-70 -49,-120 -21,-49 -41,-99 -46,-110 -5,-11 -18,-42 -30,-70 -11,-27 -25,-58 -30,-67 -6,-10 -10,-27 -10,-38 0,-20 6,-20 280,-20 327,0 280,-22 360,170 28,69 57,139 65,155 7,17 29,71 49,120 39,94 50,121 71,170 7,17 29,71 50,120 38,93 60,145 75,180 5,11 19,45 30,75 11,30 25,64 30,75 5,11 18,43 30,70 11,28 25,58 30,67 6,10 10,27 10,38 0,20 -6,20 -279,20 h -279 z"
       id="path12" />
    <path
       d="m 3737,4110 c -78,-14 -205,-81 -281,-152 -157,-143 -235,-330 -236,-561 0,-338 177,-601 471,-698 93,-31 269,-31 357,0 70,24 100,41 151,84 39,33 48,28 53,-28 l 3,-40 h 230 230 l 5,675 c 3,377 1,681 -4,688 -6,9 -64,12 -231,12 -246,0 -235,3 -235,-66 0,-43 -16,-44 -60,-4 -44,39 -126,78 -191,90 -60,12 -193,11 -262,0 z m 361,-456 c 61,-32 107,-75 135,-128 18,-33 22,-58 22,-131 0,-88 -1,-91 -39,-148 -42,-63 -86,-97 -155,-122 -123,-43 -266,15 -342,140 -21,35 -24,52 -24,130 0,102 16,144 78,203 88,85 225,108 325,56 z"
       id="path14" />
    <path
       d="m 6920,4114 c -97,-13 -248,-81 -337,-153 -111,-89 -193,-216 -239,-366 -27,-90 -25,-304 3,-402 48,-162 148,-304 276,-391 49,-32 170,-92 190,-92 6,0 32,-8 57,-16 72,-26 303,-23 401,5 156,44 287,128 371,238 109,141 158,284 158,459 0,258 -114,475 -321,610 -122,80 -210,105 -384,109 -77,2 -156,1 -175,-1 z m 224,-449 c 65,-20 106,-52 152,-122 37,-56 38,-61 38,-143 0,-108 -26,-162 -109,-228 -77,-61 -207,-69 -301,-19 -83,43 -152,176 -142,269 7,60 55,154 98,189 75,62 172,82 264,54 z"
       id="path16" />
    <path
       d="m 8490,4113 c -98,-13 -283,-93 -330,-143 -3,-3 -17,-15 -32,-26 -33,-26 -117,-122 -129,-149 -5,-11 -19,-38 -32,-60 -85,-153 -103,-415 -40,-580 74,-194 185,-321 352,-403 117,-58 199,-75 356,-75 102,0 152,5 185,17 25,8 51,16 57,16 18,0 142,59 177,84 64,45 117,94 161,147 23,27 85,126 85,135 0,3 6,20 14,37 40,90 51,152 51,287 -1,101 -6,150 -19,195 -76,250 -227,405 -481,495 -47,17 -89,22 -200,25 -77,2 -156,1 -175,-2 z m 218,-447 c 96,-34 153,-91 187,-188 30,-86 9,-183 -58,-263 -68,-81 -165,-113 -269,-89 -88,21 -143,64 -190,149 -32,60 -31,182 2,249 61,121 207,184 328,142 z"
       id="path18" />
    <path
       d="m 1640,4075 c 0,-8 4,-23 10,-33 5,-9 19,-39 30,-67 26,-60 48,-113 60,-140 5,-11 18,-42 30,-70 12,-27 25,-59 30,-70 5,-11 46,-108 90,-215 45,-107 88,-210 96,-227 8,-18 21,-49 29,-68 8,-19 22,-51 30,-70 17,-42 39,-92 61,-143 71,-162 114,-270 114,-283 0,-6 -10,-33 -21,-58 -23,-49 -38,-83 -64,-146 -9,-22 -23,-53 -30,-70 -63,-139 -86,-208 -73,-216 14,-9 450,-12 483,-3 12,3 28,23 39,52 20,49 51,122 66,157 5,11 19,45 31,75 11,30 27,69 34,85 19,45 29,68 85,205 29,69 58,139 65,155 8,17 35,82 60,145 26,63 53,130 61,148 8,17 21,48 29,67 8,19 21,50 28,68 8,17 23,52 33,77 20,50 48,119 89,215 7,17 21,50 31,75 19,49 50,123 64,155 53,121 80,196 75,205 -4,6 -95,10 -254,10 h -247 l -22,-50 c -12,-28 -22,-54 -22,-59 0,-5 -6,-22 -14,-38 -8,-15 -22,-48 -31,-73 -10,-25 -21,-54 -26,-65 -4,-11 -18,-45 -29,-75 -12,-30 -36,-89 -52,-130 -17,-41 -37,-93 -45,-115 -8,-22 -21,-53 -29,-68 -8,-16 -14,-36 -14,-46 0,-23 -28,-61 -45,-61 -8,0 -17,12 -21,28 -3,15 -9,36 -14,47 -9,21 -40,99 -67,170 -9,22 -21,54 -28,70 -7,17 -20,49 -29,73 -9,23 -23,61 -32,85 -9,23 -22,56 -29,72 -7,17 -20,50 -30,75 -9,25 -23,60 -31,78 -8,18 -14,39 -14,47 0,30 -39,35 -289,35 -217,0 -251,-2 -251,-15 z"
       id="path20" />
    <path
       d="m 9630,3299 c -95,-43 -151,-108 -184,-213 -19,-61 -17,-169 4,-190 6,-6 10,-16 10,-22 0,-24 62,-105 99,-130 21,-13 64,-34 97,-45 151,-54 326,26 396,180 30,66 29,198 -1,264 -28,60 -91,125 -152,155 -63,30 -203,31 -269,1 z"
       id="path22" />
    <path
       d="m 5295,2553 c -60,-7 -138,-36 -178,-67 -64,-49 -93,-100 -114,-201 l -19,-90 -45,-5 -44,-5 -3,-90 c -4,-125 -1,-133 51,-137 l 42,-3 3,-265 c 1,-145 6,-268 11,-273 7,-7 180,-12 263,-8 16,1 18,23 20,274 l 3,272 87,3 c 104,3 100,-1 96,137 l -3,90 -90,5 c -90,5 -90,5 -93,33 -3,21 5,35 28,57 27,25 40,30 98,32 l 67,3 3,102 c 3,97 2,103 -20,116 -24,15 -113,26 -163,20 z"
       id="path24" />
    <path
       d="m 6379,2194 c -25,-7 -58,-25 -72,-38 -15,-13 -35,-27 -46,-31 -16,-5 -20,-1 -23,27 l -3,33 h -135 -135 l -3,-387 -2,-388 h 140 140 v 211 c 0,229 8,278 48,310 35,27 94,25 129,-5 l 28,-24 5,-244 5,-243 134,-3 c 101,-2 136,1 143,10 4,7 8,124 8,260 0,284 -11,355 -63,425 -69,90 -182,123 -298,87 z"
       id="path26" />
    <path
       d="m 7085,2198 c -22,-6 -64,-26 -92,-45 -113,-75 -173,-199 -173,-359 0,-206 110,-359 287,-399 60,-14 77,-14 136,-2 39,9 81,25 100,40 49,38 70,38 77,2 l 5,-29 129,-1 c 125,0 128,0 137,23 10,26 12,704 3,740 -6,22 -9,23 -138,20 -122,-3 -131,-4 -134,-23 -7,-37 -20,-39 -64,-10 -75,50 -181,66 -273,43 z m 261,-269 c 102,-63 98,-209 -7,-269 -66,-36 -137,-24 -194,34 -62,64 -55,159 17,220 37,32 48,36 96,36 38,0 65,-6 88,-21 z"
       id="path28" />
    <path
       d="m 8225,2194 c -22,-8 -51,-26 -66,-40 -34,-32 -63,-28 -67,9 l -3,27 h -135 -134 l 2,-392 3,-393 h 125 c 69,0 131,4 138,9 9,6 12,61 12,215 0,113 5,223 10,243 19,68 95,100 149,62 45,-32 51,-67 51,-304 0,-169 3,-220 13,-221 64,-4 251,-3 259,2 14,9 12,531 -2,593 -20,90 -80,159 -165,193 -41,16 -142,15 -190,-3 z"
       id="path30" />
    <path
       d="m 8979,2196 c -103,-29 -210,-112 -255,-199 -56,-110 -56,-294 0,-404 76,-146 265,-233 443,-203 110,19 112,22 114,160 1,79 -2,115 -10,118 -7,2 -27,-3 -45,-12 -44,-21 -119,-20 -162,0 -19,9 -48,33 -64,53 -56,67 -34,172 45,221 44,27 153,30 191,5 14,-9 29,-13 34,-10 15,9 13,242 -2,252 -50,31 -206,42 -289,19 z"
       id="path32" />
    <path
       d="m 9660,2199 c -89,-24 -167,-71 -220,-133 -88,-103 -120,-264 -78,-396 62,-198 268,-318 481,-280 121,21 177,49 249,125 59,62 51,79 -52,117 -124,44 -131,45 -180,9 -51,-37 -107,-41 -160,-12 -43,23 -73,62 -64,84 5,15 33,17 261,19 227,3 257,5 266,20 8,12 8,41 1,100 -23,182 -122,300 -288,344 -58,16 -164,17 -216,3 z m 202,-246 c 20,-20 29,-37 25,-47 -6,-14 -24,-16 -129,-14 -117,3 -123,4 -120,23 9,51 55,76 135,72 49,-3 63,-8 89,-34 z"
       id="path34" />
    <path
       d="m 5587,2183 c -16,-4 -17,-29 -15,-386 l 3,-382 129,-3 c 71,-1 133,1 138,6 5,5 9,177 9,382 0,299 -2,375 -13,381 -13,9 -219,10 -251,2 z"
       id="path36" />
  </g>
</svg>
