<svg id="e68myr1w6sz62" xmlns="http://www.w3.org/2000/svg" width="325.861" height="498.376" viewBox="0 0 325.861 498.376">
  <g id="e68myr1w6sz64" transform="translate(0 0)">
    <path id="e68myr1w6sz65" d="M136.561,278.309a1.556,1.556,0,0,1-1.46-1.126,1.67,1.67,0,0,1,.973-2.092l66.172-22.365a9.77,9.77,0,0,1,8.758.644,10.2,10.2,0,0,1,4.379,7.723l.649,9.01a1.754,1.754,0,0,1-1.46,1.77,1.9,1.9,0,0,1-1.784-1.448l-.649-9.01a6.34,6.34,0,0,0-2.757-5.149c-1.622-1.126-3.73-1.126-6-.322l-66.334,22.365Z" transform="translate(-100.757 -95.831)" fill="#24262d" fill-rule="evenodd"/>
    <g id="e68myr1w6sz67" transform="translate(0)">
      <path id="e68myr1w6sz68" d="M116.648,171.231a11.36,11.36,0,0,0-9.048-10.057l.646,11.193Z" transform="translate(5.15 7.806)" fill="#fff" fill-rule="evenodd"/>
      <path id="e68myr1w6sz69" d="M116.73,168.968a1.6,1.6,0,0,1-1.616-1.46,9.627,9.627,0,0,0-7.755-8.435,1.56,1.56,0,0,1,.485-3.082,12.737,12.737,0,0,1,10.5,11.517,1.731,1.731,0,0,1-1.616,1.46Z" transform="translate(5.068 7.534)" fill="#24262d" fill-rule="evenodd"/>
      <g id="e68myr1w6sz610_to" transform="translate(0 114.277)">
        <g id="e68myr1w6sz610" transform="translate(0 0)">
          <g id="e68myr1w6sz611" transform="translate(0 22.466)">
            <path id="e68myr1w6sz612" d="M8.8.308l15.672,4.7A1.763,1.763,0,0,1,25.6,6.959a1.661,1.661,0,0,1-1.939,1.135H23.5L8.318,1.93A.839.839,0,0,1,7.833.795,1.15,1.15,0,0,1,8.8.308Z" transform="translate(-0.078 -0.308)" fill="#fff" fill-rule="evenodd"/>
            <path id="e68myr1w6sz613" d="M1.43,16.2l21.488-.324A1.529,1.529,0,0,1,24.534,17.5a1.529,1.529,0,0,1-1.616,1.622h-.162l-21.488-1.3a.867.867,0,0,1-.808-.811A1.025,1.025,0,0,1,1.43,16.2Z" transform="translate(-0.461 0.507)" fill="#fff" fill-rule="evenodd"/>
            <path id="e68myr1w6sz614" d="M10.459,35.729l13.733-8.435a1.64,1.64,0,0,1,1.777,2.758h-.162L11.267,37.189a1.068,1.068,0,0,1-1.131-.324A1.078,1.078,0,0,1,10.459,35.729Z" transform="translate(0.043 1.093)" fill="#fff" fill-rule="evenodd"/>
          </g>
          <g id="e68myr1w6sz615" transform="translate(114.923)">
            <path id="e68myr1w6sz616" d="M25.612,29.367,12.525,31.152a1.63,1.63,0,0,1-.323-3.244h.162l13.248-.162a.765.765,0,0,1,.808.811C26.258,29.043,26.1,29.367,25.612,29.367Z" transform="translate(-0.135 0.885)" fill="#fff" fill-rule="evenodd"/>
            <path id="e68myr1w6sz617" d="M25.156,14.248,9.322,21.71A1.6,1.6,0,0,1,8.03,18.79h.162l16.318-5.84a.677.677,0,0,1,.969.487C25.64,13.6,25.479,14.086,25.156,14.248Z" transform="translate(-0.325 0.107)" fill="#fff" fill-rule="evenodd"/>
            <path id="e68myr1w6sz618" d="M10.952,1.756,3.681,12.624a1.585,1.585,0,0,1-2.262.487A1.6,1.6,0,0,1,.935,10.84l.162-.162L9.659.783a.779.779,0,0,1,1.131,0C11.113.945,11.113,1.432,10.952,1.756Z" transform="translate(-0.662 -0.539)" fill="#fff" fill-rule="evenodd"/>
          </g>
          <g id="e68myr1w6sz619" transform="translate(34.076 1.728)">
            <path id="e68myr1w6sz620" d="M17.094,62.491a37.487,37.487,0,0,1-8.4-27.738A38,38,0,0,1,22.264,9.123,36.98,36.98,0,0,1,30.5,3.932a34.364,34.364,0,0,0-14.218,6.975,34.663,34.663,0,0,0,4.2,56.45L21.78,67.2A32.155,32.155,0,0,1,17.094,62.491Z" transform="translate(-0.439 0.128)" fill="#ffec79" fill-rule="evenodd"/>
            <path id="e68myr1w6sz621" d="M14.583,35.408a31.2,31.2,0,0,1,11.31-21.25A31.693,31.693,0,0,1,48.835,7.021,31,31,0,0,1,70,18.376,31.993,31.993,0,0,1,77.109,41.41a34.426,34.426,0,0,1-3.716,12.166l3.878-.487a33.8,33.8,0,0,0,3.07-11.355A34.42,34.42,0,0,0,24.115,11.726,34.523,34.523,0,0,0,19.43,60.389l.162.162,3.878-.487A30.852,30.852,0,0,1,14.583,35.408Z" transform="translate(-0.028 0.121)" fill="#fbe108" fill-rule="evenodd"/>
            <path id="e68myr1w6sz622" d="M74.272,50.637l-3.878.487a29.127,29.127,0,0,1-4.685,6.326l4.847-.811A24.974,24.974,0,0,0,74.272,50.637Z" transform="translate(2.809 2.574)" fill="#f4bb06" fill-rule="evenodd"/>
            <path id="e68myr1w6sz623" d="M22.761,57.419l-3.878.487a37.9,37.9,0,0,0,6.463,6l4.847-.811A36.153,36.153,0,0,1,22.761,57.419Z" transform="translate(0.357 2.929)" fill="#f4bb06" fill-rule="evenodd"/>
            <path id="e68myr1w6sz624" d="M83.982,42.254C85.921,21.491,70.734,2.837,50.054.89A13.843,13.843,0,0,0,47.469.728L41.975.241a37.93,37.93,0,0,0-32.8,61.8A34.934,34.934,0,0,0,15.8,68.37l4.685-.649A34.909,34.909,0,0,1,3.846,34.63a33.937,33.937,0,0,1,12.44-23.358A34.364,34.364,0,0,1,30.5,4.3a36.98,36.98,0,0,0-8.24,5.191,38.078,38.078,0,0,0-5.17,53.368,42.845,42.845,0,0,0,4.685,4.7l4.362-.649a37.409,37.409,0,0,1-6.463-6l-.162-.162a35.116,35.116,0,0,1-7.755-25.305A33.937,33.937,0,0,1,24.2,12.083,34.42,34.42,0,0,1,80.428,42.092a32.8,32.8,0,0,1-3.07,11.355,34.7,34.7,0,0,1-3.716,6.164L78,58.962A36.567,36.567,0,0,0,83.982,42.254Z" transform="translate(-0.6 -0.074)" fill="#24262d" fill-rule="evenodd"/>
            <path id="e68myr1w6sz625" d="M65.245,17.853a28.117,28.117,0,0,0-2.423-2.109A19.276,19.276,0,0,0,59.267,13.8L19.037,47.051a33.935,33.935,0,0,0,3.07,6.488Z" transform="translate(0.365 0.645)" fill="#f4bb06" fill-rule="evenodd"/>
            <path id="e68myr1w6sz626" d="M54.993,12.312a26.516,26.516,0,0,0-5.17-.973A29.879,29.879,0,0,0,17.348,38.266h0a24.853,24.853,0,0,0,.485,4.866Z" transform="translate(0.277 0.508)" fill="#f4bb06" fill-rule="evenodd"/>
            <path id="e68myr1w6sz627" d="M72.89,39.86a25.471,25.471,0,0,0-1.777-12.653L30.4,61.434a28.586,28.586,0,0,0,5.009,2.433l26.5-4.055A28.829,28.829,0,0,0,72.89,39.86Z" transform="translate(0.96 1.347)" fill="#f4bb06" fill-rule="evenodd"/>
            <path id="e68myr1w6sz628" d="M59.17,13.87a18.4,18.4,0,0,0-4.2-1.46L17.809,43.23a29.684,29.684,0,0,0,1.131,4.055Z" transform="translate(0.301 0.572)" fill="#fbe108" fill-rule="evenodd"/>
            <path id="e68myr1w6sz629" d="M71.554,27.708a29.825,29.825,0,0,0-6.463-10.057L21.954,53.338A25.593,25.593,0,0,0,31,61.935Z" transform="translate(0.518 0.846)" fill="#fbe108" fill-rule="evenodd"/>
            <path id="e68myr1w6sz630" d="M60.666,15.76a23.087,23.087,0,0,0-3.231-2.271l-.323.324A15.184,15.184,0,0,1,60.666,15.76Z" transform="translate(2.359 0.628)" fill="#f4bb06" fill-rule="evenodd"/>
            <path id="e68myr1w6sz631" d="M60.666,15.76a23.087,23.087,0,0,0-3.231-2.271l-.323.324A15.184,15.184,0,0,1,60.666,15.76Z" transform="translate(2.359 0.628)" fill="#f2a908" fill-rule="evenodd" opacity="0.46"/>
            <path id="e68myr1w6sz632" d="M49.823,11.41a26.516,26.516,0,0,1,5.17.973l.646-.649A23.719,23.719,0,0,0,48.207,9.95a27.821,27.821,0,0,0-20.519,6.326A28.475,28.475,0,0,0,17.51,35.417a17.7,17.7,0,0,0-.162,2.92h0A29.993,29.993,0,0,1,49.823,11.41Z" transform="translate(0.277 0.437)" fill="#f4bb06" fill-rule="evenodd"/>
            <path id="e68myr1w6sz633" d="M49.823,11.41a26.516,26.516,0,0,1,5.17.973l.646-.649A23.719,23.719,0,0,0,48.207,9.95a27.821,27.821,0,0,0-20.519,6.326A28.475,28.475,0,0,0,17.51,35.417a17.7,17.7,0,0,0-.162,2.92h0A29.993,29.993,0,0,1,49.823,11.41Z" transform="translate(0.277 0.437)" fill="#f2a908" fill-rule="evenodd" opacity="0.46"/>
            <path id="e68myr1w6sz634" d="M57.312,13.9l.323-.324a26.239,26.239,0,0,0-3.716-1.784l-.646.649A20.2,20.2,0,0,1,57.312,13.9Z" transform="translate(2.158 0.54)" fill="#fbe108" fill-rule="evenodd"/>
            <path id="e68myr1w6sz635" d="M57.312,13.9l.323-.324a26.239,26.239,0,0,0-3.716-1.784l-.646.649A20.2,20.2,0,0,1,57.312,13.9Z" transform="translate(2.158 0.54)" fill="#f2a908" fill-rule="evenodd" opacity="0.46"/>
            <path id="e68myr1w6sz636" d="M76.811,41.258A30.608,30.608,0,0,0,69.7,18.224,31.7,31.7,0,0,0,48.537,6.869,30.526,30.526,0,0,0,25.6,14.006a31.546,31.546,0,0,0-11.31,21.25,31.959,31.959,0,0,0,8.563,24.818,27.546,27.546,0,0,0,7.27,5.677l5.816-.973a28.586,28.586,0,0,1-5.009-2.433,30.514,30.514,0,0,1-9.048-8.6,23.892,23.892,0,0,1-3.07-6.488A29.684,29.684,0,0,1,17.679,43.2a24.853,24.853,0,0,1-.485-4.866,17.7,17.7,0,0,1,.162-2.92A28.172,28.172,0,0,1,27.534,16.277,27.821,27.821,0,0,1,48.053,9.951a35.583,35.583,0,0,1,7.432,1.784A26.238,26.238,0,0,1,59.2,13.519a23.087,23.087,0,0,1,3.231,2.271c.808.649,1.616,1.46,2.423,2.109a27.558,27.558,0,0,1,6.463,10.057A30.111,30.111,0,0,1,73.1,40.609,28.814,28.814,0,0,1,62.109,60.4l5.816-.973A35.568,35.568,0,0,0,72.611,53.1,21.875,21.875,0,0,0,76.811,41.258Z" transform="translate(0.108 0.274)" fill="#24262d" fill-rule="evenodd"/>
          </g>
          <g id="e68myr1w6sz637" transform="translate(63.946 21.016)">
            <path id="e68myr1w6sz638" d="M17.174,39.4a.89.89,0,0,1-.531-.2c-.133-.065-.2-.2-.332-.393-.066-.065-.066-.2-.133-.327-.066-.327-.465-1.57-.465-1.57l-.133-.523c-.133-.327-.2-.72-.332-1.047-.066-.327-.2-.654-.265-.981-.332.131-.73.2-1.062.327l-2.456.72a8.116,8.116,0,0,1-1.195.327.853.853,0,0,1-.4.065H9.807a.97.97,0,0,1-.465-.131.947.947,0,0,1-.4-.458,4.124,4.124,0,0,1-.133-.458c0-.262-.066-.458-.066-.72s-.066-.458-.066-.72a2.747,2.747,0,0,0-.133-.72c-.066-.262-.066-.458-.133-.72v-.393a.7.7,0,0,1,.133-.393.794.794,0,0,1,.332-.327,2.222,2.222,0,0,1,.4-.2l.465-.131.4-.131.73-.2c.133-.065.265-.065.332-.131l.133-.131c0-.065.066-.131.066-.2a1.26,1.26,0,0,0-.066-.458L8.347,19.181l-1-3.337a4.467,4.467,0,0,0-.2-.523.515.515,0,0,0-.265-.262c-.066-.065-.2-.065-.332-.131H6.422a.606.606,0,0,0-.332.065l-.265.065-.465.131-.465.131-.73.2a.853.853,0,0,1-.4.065.97.97,0,0,1-.465-.131.794.794,0,0,1-.332-.327c-.066-.065-.066-.2-.133-.327l-.2-.654-.2-.654c-.066-.2-.133-.393-.2-.654l-.2-.589a.819.819,0,0,1-.066-.393,1.218,1.218,0,0,1,.133-.523.677.677,0,0,1,.4-.327c.066-.065.2-.065.332-.131.4-.131.8-.2,1.195-.327l2.389-.654c.4-.131.8-.2,1.195-.327h.066c-.066-.262-.2-.589-.265-.916L6.82,6.62c-.133-.327-.2-.654-.332-1.047a.819.819,0,0,1-.066-.393.957.957,0,0,1,.066-.458,1.174,1.174,0,0,1,.332-.458l.4-.2.531-.131.465-.131.531-.131.6-.2h.066c.066,0,.2-.065.265-.065H9.74a.89.89,0,0,1,.531.2c.133.065.2.2.332.393a2.7,2.7,0,0,1,.133.393c.066.327.2.654.265.981l.6,2.028a6.012,6.012,0,0,0,.265.85l.265-.065c.066,0,.2-.065.265-.065a2.08,2.08,0,0,0,.465-.131c-.066-.262-.2-.589-.265-.85L12,5.116a5.7,5.7,0,0,0-.332-.981.819.819,0,0,1-.066-.393.957.957,0,0,1,.066-.458A1.174,1.174,0,0,1,12,2.826l.4-.2.531-.131.465-.131.265-.065.265-.065.265-.065.332-.131a.853.853,0,0,1,.4-.065h.133a.607.607,0,0,1,.465.2.6.6,0,0,1,.265.393c.066.065.066.2.133.327.066.327.2.72.265,1.047l.6,2.093c.066.327.2.654.265.916.332-.065.664-.065,1-.131a6.531,6.531,0,0,1,1.128-.065h.066a5.441,5.441,0,0,1,1.062.065l1.195.2a5.536,5.536,0,0,1,1.46.523,3.938,3.938,0,0,1,1.195.85A7.555,7.555,0,0,1,25.072,9.5a6.735,6.735,0,0,1,.73,1.374,8.779,8.779,0,0,1,.465,1.636,6.759,6.759,0,0,1,.066,1.636,6.82,6.82,0,0,1-.4,1.57c-.133.262-.265.458-.4.72.2,0,.332.065.465.065.2.065.4.065.531.131a9.472,9.472,0,0,1,1.195.523,5.49,5.49,0,0,1,1,.72,2.9,2.9,0,0,1,.8.981,3.3,3.3,0,0,1,.6,1.178,10.46,10.46,0,0,1,.6,1.7,16.518,16.518,0,0,1,.332,1.766,7.876,7.876,0,0,1-.066,1.766,8.942,8.942,0,0,1-.531,1.766,4.967,4.967,0,0,1-.8,1.243,6.99,6.99,0,0,1-1,.981c-.332.262-.664.523-1.062.785-.332.2-.73.458-1.128.654-.2.065-.332.2-.531.262s-.332.2-.531.262a1.341,1.341,0,0,0-.531.262,4.614,4.614,0,0,0-.531.2v.065c.133.327.2.654.332,1.047.133.327.6,2.028.6,2.028a5.7,5.7,0,0,0,.332.981.819.819,0,0,1,.066.393.778.778,0,0,1-.133.523,1.74,1.74,0,0,1-.332.393c-.133.065-.2.131-.332.131l-.863.262-.531.131-.531.2a1.313,1.313,0,0,1-.465.065,1.265,1.265,0,0,1-.531-.131.673.673,0,0,1-.332-.393.7.7,0,0,1-.133-.393c-.066-.327-.2-.72-.265-1.047l-.6-2.093c-.066-.262-.2-.589-.265-.916l-.4.131-.4.131-.265.065c.066.262.531,1.9.531,1.9.133.327.2.654.332,1.047.133.327.2.654.332.981a1.839,1.839,0,0,1,0,.981.594.594,0,0,1-.4.393.718.718,0,0,1-.4.131l-.465.131-.4.131L18.568,39l-.265.065-.265.065-.265.065a1.273,1.273,0,0,1-.6.2Zm.144-15.369.981,3.206.42,1.3c.28-.068.631-.2.911-.273l1.261-.409a12.16,12.16,0,0,0,1.261-.477l1.261-.614a.247.247,0,0,0,.14-.068c.07-.068.14-.068.21-.136l.21-.2.21-.2a3.445,3.445,0,0,0,.49-.546,2.021,2.021,0,0,0,.28-.546,1.841,1.841,0,0,0,.07-.614,3.435,3.435,0,0,0-.14-.75,6.968,6.968,0,0,0-.28-.682,2.99,2.99,0,0,0-.42-.477,1.532,1.532,0,0,0-.56-.341,7.384,7.384,0,0,0-.7-.273c-.14,0-.21-.068-.35-.068a.646.646,0,0,1-.35-.068h-.7c-.28,0-.56.068-.841.068a3.6,3.6,0,0,0-.841.136,3.6,3.6,0,0,1-.841.136l-.841.2-.42.136-1.051.273Zm-1.751-5.866c.21-.068.42-.136.7-.2.35-.068.631-.2.981-.273.28-.136.631-.2.911-.341.35-.136.631-.273.911-.409l.56-.341c.07-.068.14-.068.21-.136a5.281,5.281,0,0,0,.631-.614,1.419,1.419,0,0,0,.28-.682,1.62,1.62,0,0,0,0-.818,3.775,3.775,0,0,0-.28-.818l-.42-.614a2.129,2.129,0,0,0-.49-.341l-.631-.2a2.7,2.7,0,0,0-.771-.068h-.7c-.21,0-.49.068-.7.068-.21.068-.49.068-.7.136s-.49.136-.7.2l-.42.136-.841.2Z" transform="translate(0.103 0.103)" fill="#fbe108"/>
            <path id="e68myr1w6sz639" d="M14.07,1.344h0a.252.252,0,0,1,.2.067l.136.134c0,.067.068.134.068.269a6.547,6.547,0,0,0,.34,1.075c.136.336.2.739.34,1.075s.2.739.34,1.075a6.229,6.229,0,0,1,.272,1.075c0,.067.068.2.068.269a.145.145,0,0,0,.136.134c.068,0,.068.067.136.067h.272a6.016,6.016,0,0,1,1.088-.134c.34,0,.748-.067,1.088-.067h.068a5.2,5.2,0,0,1,1.02.067,6.186,6.186,0,0,1,1.088.2,7.3,7.3,0,0,1,1.291.47,6.163,6.163,0,0,1,1.088.739,4.308,4.308,0,0,1,.884,1.008,7.628,7.628,0,0,1,.68,1.276,6.5,6.5,0,0,1,.408,1.545,5.4,5.4,0,0,1,.068,1.478,5.334,5.334,0,0,1-.34,1.411,5.1,5.1,0,0,1-.816,1.276l-.068.067a1949.633,1949.633,0,0,1-.136.134.234.234,0,0,0-.068.134h.544a1.513,1.513,0,0,1,.544.067c.2,0,.34.067.544.067a.991.991,0,0,1,.476.134,5.294,5.294,0,0,1,1.088.47,4.358,4.358,0,0,1,.884.672,4.64,4.64,0,0,1,.748.873,5.332,5.332,0,0,1,.544,1.075,12.181,12.181,0,0,1,.544,1.679,7.214,7.214,0,0,1,.272,1.679,7.092,7.092,0,0,1-.068,1.679,6.009,6.009,0,0,1-.544,1.679,6.363,6.363,0,0,1-.68,1.142,5.828,5.828,0,0,1-.884.94,9.722,9.722,0,0,1-1.02.739c-.34.2-.748.47-1.156.672-.2.067-.34.2-.544.269s-.34.2-.544.269-.34.134-.544.2-.34.134-.544.2c-.136.067-.2.067-.272.134s-.136.134-.136.2-.068.134-.068.269a.723.723,0,0,0,.068.336c.136.336.2.672.34,1.008a5.544,5.544,0,0,1,.272,1.008c.068.336.2.672.272,1.008a5.863,5.863,0,0,0,.34,1.008c0,.134.068.2.068.269v.2c0,.067-.068.067-.136.134-.068,0-.136.067-.2.067s-.136.067-.272.067c-.068,0-.136.067-.2.067s-.136.067-.2.067-.136.067-.2.067-.2.067-.272.067-.2.067-.272.067-.2.067-.272.067-.2.067-.272.067-.136.067-.2.067h0c-.068,0-.136,0-.136-.067-.068,0-.068-.067-.136-.134,0-.067-.068-.134-.068-.2-.068-.336-.2-.739-.272-1.075-.136-.336-.2-.739-.34-1.075s-.2-.739-.34-1.075a6.229,6.229,0,0,1-.272-1.075c0-.067-.068-.134-.068-.2a.145.145,0,0,0-.136-.134c-.068,0-.068-.067-.136-.067h-.2c-.068,0-.136.067-.272.067-.068,0-.136.067-.2.067s-.136.067-.2.067-.136.067-.2.067-.136,0-.136.067c-.068,0-.136,0-.136.067a.252.252,0,0,0-.2.067.252.252,0,0,0-.2.067.69.69,0,0,0-.2.067l-.136.134v.2a.245.245,0,0,0,.068.2c.136.336.2.672.34,1.075.136.336.2.672.34,1.075.136.336.2.672.34,1.075.136.336.2.672.34,1.075a.5.5,0,0,1,.068.269v.2c0,.067-.068.067-.136.134a.252.252,0,0,1-.2.067c-.068,0-.136.067-.2.067s-.136.067-.2.067-.136.067-.2.067-.136.067-.2.067c-.136,0-.2.067-.34.067-.068,0-.2.067-.272.067s-.2.067-.272.067a.518.518,0,0,0-.272.134c-.068,0-.136.067-.2.067h0c-.068,0-.136,0-.136-.067-.068,0-.068-.067-.136-.134,0-.067-.068-.134-.068-.2-.136-.336-.2-.739-.34-1.075s-.2-.739-.34-1.075-.2-.739-.34-1.075a6.229,6.229,0,0,1-.272-1.075.348.348,0,0,0-.136-.269c-.068-.067-.068-.134-.136-.134a.238.238,0,0,1-.136-.067h0a.519.519,0,0,0-.272.067c-.408.134-.816.269-1.291.4a7.238,7.238,0,0,1-1.291.336A8.3,8.3,0,0,1,10.6,34.6a8.3,8.3,0,0,1-1.224.336c-.068,0-.2.067-.272.067H8.9c-.068,0-.068-.067-.136-.134,0-.067-.068-.134-.068-.269,0-.269-.068-.47-.068-.739s-.068-.47-.068-.739a2.827,2.827,0,0,0-.136-.739c-.068-.269-.068-.47-.136-.739v-.2a.245.245,0,0,1,.068-.2c0-.067.068-.067.136-.134.068,0,.136-.067.2-.067a.252.252,0,0,0,.2-.067c.068,0,.136,0,.136-.067s.068,0,.136-.067c.068,0,.068,0,.136-.067.068,0,.2-.067.272-.067s.2-.067.272-.067.2-.067.272-.067.2-.067.272-.067a1.372,1.372,0,0,0,.544-.269c.136-.134.272-.2.34-.336a1.234,1.234,0,0,0,.136-.47,2.926,2.926,0,0,0-.136-.672l-1.02-3.426L9.244,21.9l-1.02-3.426-1.02-3.426a2.47,2.47,0,0,0-.34-.739,1.579,1.579,0,0,0-.476-.47,1.105,1.105,0,0,0-.612-.2H5.506a1.169,1.169,0,0,0-.476.067c-.068,0-.136.067-.272.067-.068,0-.136.067-.272.067-.068,0-.136.067-.272.067-.068,0-.136.067-.272.067-.068,0-.136.067-.272.067-.068,0-.136.067-.272.067-.068,0-.136.067-.272.067-.068,0-.136.067-.272.067h-.2c-.068,0-.068,0-.136-.067-.068,0-.068-.067-.068-.134s-.068-.134-.068-.2c-.068-.2-.136-.47-.2-.672s-.136-.47-.2-.672-.136-.47-.2-.672-.136-.4-.2-.672c0-.067-.068-.2-.068-.269s0-.134.068-.134c0-.067.068-.067.136-.067s.136-.067.2-.067c.408-.134.816-.2,1.224-.336s.816-.2,1.224-.336.816-.2,1.224-.336S6.389,9.4,6.8,9.27h.272a.69.69,0,0,0,.2-.067c.068,0,.068-.067.136-.134,0-.067.068-.134,0-.2A.5.5,0,0,0,7.341,8.6c-.136-.336-.2-.672-.34-1.075-.136-.336-.2-.739-.34-1.075s-.2-.739-.34-1.075-.2-.672-.34-1.075c0-.067-.068-.2-.068-.269v-.2c0-.067.068-.067.136-.134a.252.252,0,0,1,.2-.067c.068,0,.2-.067.272-.067s.2-.067.272-.067.136-.067.272-.067c.068,0,.136-.067.2-.067s.2-.067.272-.067.2-.067.272-.067.2-.067.272-.067.2-.067.272-.067h.272c.068,0,.136,0,.136.067l.136.134c.068.067.068.134.068.269.068.336.2.672.272,1.075a9.485,9.485,0,0,0,.34,1.075c.136.336.2.672.34,1.075.068.336.2.672.272,1.075,0,.067.068.134.068.2s.068.067.068.134c.068,0,.068.067.136.067h.2c.136-.067.2-.067.34-.134a.519.519,0,0,1,.272-.067c.068,0,.2-.067.272-.067s.2-.067.272-.067h.544a.69.69,0,0,0,.2-.067l.136-.134v-.2a.245.245,0,0,0-.068-.2c-.136-.336-.2-.672-.34-1.008-.068-.336-.2-.672-.272-1.008s-.2-.672-.272-1.008a5.863,5.863,0,0,0-.34-1.008c0-.067-.068-.2-.068-.269v-.2c0-.067.068-.067.136-.134a.252.252,0,0,1,.2-.067c.068,0,.2-.067.272-.067s.2-.067.272-.067.136-.067.272-.067c.068,0,.136-.067.272-.067.068,0,.2-.067.272-.067s.136-.067.272-.067c.068,0,.136-.067.272-.067.068,0,.136-.067.272-.067h0c.068-.739.136-.739.2-.739Zm-.408,16.593H13.8c.34-.067.68-.2,1.02-.269s.68-.2.952-.269c.34-.134.612-.2.952-.336a6.245,6.245,0,0,0,.952-.47c.068-.067.136-.067.2-.134s.136-.067.2-.134.136-.067.2-.134.136-.067.2-.134a2.145,2.145,0,0,0,.748-.806,2.341,2.341,0,0,0,.408-.94,2.515,2.515,0,0,0,0-1.008,9.485,9.485,0,0,0-.34-1.075,2.985,2.985,0,0,0-.544-.739,2.442,2.442,0,0,0-.68-.47,3.077,3.077,0,0,0-1.563-.336H15.77c-.272,0-.476.067-.748.067-.272.067-.476.067-.748.134s-.476.134-.748.2c-.136.067-.272.067-.408.134s-.272.067-.408.134-.272.067-.408.134-.272.067-.408.134a.238.238,0,0,0-.136.067.066.066,0,0,0-.068.067v.134c0,.067,0,.134.068.134l.408,1.411.408,1.411.408,1.411.408,1.411a.234.234,0,0,0,.068.134c0,.067.068.067.068.134Zm2.991,10.278h.136a9.142,9.142,0,0,1,1.291-.336c.408-.134.884-.269,1.291-.4a10.526,10.526,0,0,0,1.291-.537,11.861,11.861,0,0,0,1.291-.672c.068,0,.136-.067.2-.134a.937.937,0,0,1,.272-.2c.068-.067.2-.134.272-.2s.2-.134.272-.269a2.636,2.636,0,0,0,.544-.672,2.47,2.47,0,0,0,.34-.739,3.336,3.336,0,0,0,.136-.806,3.889,3.889,0,0,0-.136-.873,3.351,3.351,0,0,0-.34-.873,2.636,2.636,0,0,0-.544-.672,2.442,2.442,0,0,0-.68-.47,3.864,3.864,0,0,0-.816-.269c-.136,0-.272-.067-.408-.067s-.272-.067-.408-.067h-.748c-.272,0-.544.067-.884.067-.272.067-.544.067-.816.134l-.816.2-.816.2c-.136.067-.272.067-.408.134s-.272.067-.408.134-.272.067-.408.134-.272.067-.408.134a.238.238,0,0,0-.136.067.066.066,0,0,0-.068.067v.336c.136.537.34,1.075.476,1.612s.34,1.075.476,1.612.34,1.075.476,1.612.34,1.075.476,1.612a.234.234,0,0,0,.068.134.066.066,0,0,0,.068.067ZM14.07,0a1.708,1.708,0,0,0-.544.067h-.272c-.068,0-.136.067-.2.067s-.136.067-.2.067-.136.067-.2.067-.136.067-.2.067l-.2.067-.2.067-.272.067L11.487.6h-.068a1.288,1.288,0,0,0-.612.269,2.105,2.105,0,0,0-.612.739.986.986,0,0,0-.068.47.814.814,0,0,0-.34-.336A1.441,1.441,0,0,0,8.9,1.411H8.769a1.708,1.708,0,0,0-.544.067h-.2c-.068,0-.136.067-.272.067-.068,0-.136.067-.272.067-.068,0-.136.067-.272.067-.068,0-.136.067-.272.067l-.2.067-.2.067-.272.067-.272.067H5.914a2.049,2.049,0,0,0-.68.269,1.836,1.836,0,0,0-.612.806,1.636,1.636,0,0,0-.068.806,1.234,1.234,0,0,0,.136.47c.136.336.2.672.34,1.008s.2.672.34,1.075l.068.2c.068.269.2.6.272.873,0,.067.068.134.068.269a2,2,0,0,1-.612.134c-.408.134-.816.2-1.224.336H3.806L2.651,8.6c-.408.134-.816.2-1.224.336a1.745,1.745,0,0,0-.476.134,2.656,2.656,0,0,0-.68.537,1.529,1.529,0,0,0-.272.94,1.942,1.942,0,0,0,.136.6l.2.6.2.6c.068.2.136.4.2.672l.2.672a3.255,3.255,0,0,0,.2.47,1.593,1.593,0,0,0,.544.6,1.827,1.827,0,0,0,.816.2h0a1.513,1.513,0,0,0,.544-.067h.068l.2-.067.2-.067.2-.067.2-.067.2-.067.2-.067.2-.067.2-.067H5.1l.068.067c.068.067.068.134.136.336l1.02,3.426,1.02,3.426,1.02,3.426,1.02,3.426v.067l-.272.067-.272.067-.272.067-.272.067-.136.067H8.021l-.136.067-.136.067H7.681a1.372,1.372,0,0,0-.544.269,1.19,1.19,0,0,0-.544.6,1.342,1.342,0,0,0-.2.739v.537c.068.269.068.47.136.739s.068.47.136.739c0,.269.068.47.068.739s.068.47.068.739A1.758,1.758,0,0,0,7.613,35.6a1.827,1.827,0,0,0,.816.2h.136c.136,0,.34-.067.544-.067.408-.134.816-.269,1.291-.4A8.294,8.294,0,0,1,11.623,35l1.291-.336a4.371,4.371,0,0,1,.476-.134c0,.134.068.2.068.336.136.336.2.739.34,1.075l.2.6.136.47c.136.336.2.672.34,1.075a3.255,3.255,0,0,0,.2.47,1.19,1.19,0,0,0,.544.6,2.017,2.017,0,0,0,.884.336h.068a1.9,1.9,0,0,0,.612-.067h.068c.068,0,.2-.067.272-.067s.2-.067.272-.067.2-.067.272-.067.2-.067.272-.067l.2-.067.2-.067.136-.067h.068l.2-.067h.068a1.372,1.372,0,0,0,.544-.269,1.913,1.913,0,0,0,.612-.672,1.942,1.942,0,0,0,.136-.6,2.947,2.947,0,0,0,.476.4,1.944,1.944,0,0,0,.884.269,1.9,1.9,0,0,0,.612-.067h.068c.068,0,.2-.067.272-.067s.2-.067.272-.067.2-.067.272-.067l.272-.067.2-.067.2-.067.2-.067.272-.067a1.372,1.372,0,0,0,.544-.269,1.477,1.477,0,0,0,.612-.672,1.842,1.842,0,0,0,.2-.873,1.942,1.942,0,0,0-.136-.6,5.544,5.544,0,0,1-.272-1.008c-.068-.336-.2-.672-.272-1.008-.136-.336-.2-.672-.34-1.075-.068-.134-.068-.336-.136-.47a2.429,2.429,0,0,0,.612-.269,4.055,4.055,0,0,0,.544-.269c.2-.067.34-.2.544-.269.476-.269.884-.47,1.224-.672a8.016,8.016,0,0,0,1.224-.873,8.694,8.694,0,0,0,1.088-1.142,9.92,9.92,0,0,0,.884-1.411,8.766,8.766,0,0,0,.612-2.015,6.18,6.18,0,0,0,.068-1.948,9.128,9.128,0,0,0-.34-1.881,9.5,9.5,0,0,0-.612-1.814A5.672,5.672,0,0,0,29.5,17.6a4.93,4.93,0,0,0-.952-1.075,7.412,7.412,0,0,0-1.156-.873c-.408-.2-.884-.4-1.359-.6-.068,0-.136-.067-.272-.067a5.135,5.135,0,0,0,.476-1.747,8.109,8.109,0,0,0-.068-1.814,8.937,8.937,0,0,0-.476-1.814,6.741,6.741,0,0,0-.816-1.545,6.771,6.771,0,0,0-1.088-1.276,6.134,6.134,0,0,0-1.359-.94,5.85,5.85,0,0,0-1.631-.6c-.408-.067-.816-.134-1.291-.2a6.292,6.292,0,0,0-1.156-.067h-.136a7.474,7.474,0,0,0-1.224.067.871.871,0,0,0-.408.067c-.068-.134-.068-.269-.136-.4-.136-.336-.2-.739-.34-1.075l-.068-.269-.2-.806a4.984,4.984,0,0,1-.272-1.075,3.255,3.255,0,0,0-.2-.47,1.466,1.466,0,0,0-.476-.6A1.441,1.441,0,0,0,14,.067C14.138,0,14.07,0,14.07,0Zm-.816,12.495c.068,0,.068,0,.136-.067a.747.747,0,0,1,.34-.067,2.44,2.44,0,0,1,.68-.134c.2-.067.408-.067.68-.134.2,0,.408-.067.612-.067h.612a1.9,1.9,0,0,1,.612.067,4.372,4.372,0,0,1,.476.134c.136.067.2.134.34.2a1.4,1.4,0,0,1,.272.4,1.075,1.075,0,0,1,.2.6v.537c-.068.134-.136.336-.2.47-.136.134-.272.336-.408.47-.068,0-.068.067-.136.134s-.136.067-.2.134l-.136.134-.2.134a2.527,2.527,0,0,1-.748.336c-.272.134-.544.2-.884.336a3.932,3.932,0,0,1-.952.269h0v-.067l-.136-.47L13.8,14.443v-.067l-.408-1.411a1.693,1.693,0,0,0-.136-.47ZM16.11,22.1c.136-.067.2-.067.34-.134s.272-.067.408-.134c.272-.067.544-.134.748-.2a3.545,3.545,0,0,1,.748-.134c.272-.067.544-.067.748-.134.272,0,.476-.067.748-.067h.816a.412.412,0,0,1,.272.067c.2.067.34.134.544.2a1.959,1.959,0,0,1,.612.6,4.6,4.6,0,0,1,.2.537,1.463,1.463,0,0,1,.068.537.843.843,0,0,1-.068.4c-.068.134-.068.269-.2.4a1.786,1.786,0,0,1-.34.4l-.2.2c-.068.067-.136.134-.2.134-.068.067-.136.067-.2.134a.066.066,0,0,0-.068.067H21c-.34.2-.748.4-1.156.6-.34.134-.748.336-1.156.47q-.51.2-1.224.4c-.068,0-.136.067-.272.067l-.2-.672-.476-1.612c-.136-.537-.34-1.075-.476-1.612.2-.067.136-.269.068-.537Z" transform="translate(0)" fill="#24262d"/>
          </g>
        </g>
      </g>
      <g id="e68myr1w6sz640" transform="translate(35.361 1.888)">
        <path id="e68myr1w6sz641" d="M65.85,236.678l-23.588,3.485L13.5,244.44,8.979,177.593l68.827-9.5,4.039-.475a10.592,10.592,0,0,1,12.117,9.5l.485,5.227a22.785,22.785,0,0,1-1.454,5.7,29.9,29.9,0,0,1-8.886,12.039,45.687,45.687,0,0,1-14.541,8.4c-3.07,1.109-6.3,1.9-9.209,3.168-2.908,1.426-5.816,3.485-7.109,6.336-2.423,5.386,2.262,13.148,7.755,14.89a18.628,18.628,0,0,0,5.816.95h0c.162.792.485,1.584.646,2.376Z" transform="translate(0.068 7.873)" fill="#74cff7" fill-rule="evenodd"/>
        <path id="e68myr1w6sz642" d="M276.444,245.544s12.279-30.82-5.978-63.1c0,0-8.563-102.031-51.054-146.964l-3.07-.324c6.3-3.406,10.825-5.677,12.925-14.437,1.939-7.948-2.908-16.708-10.663-19.141a16.923,16.923,0,0,0-16.156,3.731,20.027,20.027,0,0,0-5.978,10.219c-10.825-6.651-21.973-9.895-33.929-8.6h-.485c-16.318,1.947-34.413,7.3-46.046,19.952a44.818,44.818,0,0,0-8.4,12.977,38.155,38.155,0,0,0-2.747,12.166A77.066,77.066,0,0,0,106.478,72.3l.808,1.46c-.969,1.3-1.939,2.6-2.908,4.055a12.651,12.651,0,0,0-1.293,11.517c2.423,6.326,7.755,15.9,19.711,20.276l-.162.324s17.126,47.69-4.362,85.81a26.122,26.122,0,0,1-2.747-4.542,37.865,37.865,0,0,1-1.777-4.542c-2.1-5.515-5.17-10.544-11.956-10.544-.969,0-9.371,1.46-9.209,3.082a43.245,43.245,0,0,1,0,10.219,23.787,23.787,0,0,1-1.454,5.84,30.58,30.58,0,0,1-8.886,12.328,45.441,45.441,0,0,1-14.541,8.6c-3.07,1.135-6.3,1.947-9.209,3.244-2.908,1.46-5.816,3.569-7.109,6.488-2.423,5.515,2.262,13.464,7.755,15.248a18.231,18.231,0,0,0,5.816.973h0c.162.811.485,1.622.646,2.433a12.485,12.485,0,0,0,5.009,6.488c3.716,2.271,7.917,2.109,11.794.811h0l.969.973A16.813,16.813,0,0,0,97.592,256.9v.324c-7.109,15.572-10.663,32.6-11.633,49.961a205.9,205.9,0,0,0,2.262,43.635c2.585,17.032,6.624,32.767,14.056,48.5,7.917,16.708,17.449,32.929,22.458,50.772l.162.649c-9.532,2.6-15.349,10.544-15.349,10.544A21.845,21.845,0,0,0,99.531,466.8c-7.27,7.3-3.07,14.275,5.17,17.843l1.454-.162c3.716,5.677,13.571,5.677,21.488,2.92a13.942,13.942,0,0,0,6.3,1.784,116.716,116.716,0,0,0,21.165.324c9.209-.487,15.672-1.947,21.327-4.38a21.894,21.894,0,0,0,6.463,4.542l1.454-.162c3.716,5.677,13.571,5.677,21.488,2.92a13.942,13.942,0,0,0,6.3,1.784c2.908.324,5.655.487,8.4.649a101.658,101.658,0,0,0,12.279-.324c10.663-.487,17.449-2.271,23.75-5.191,4.362-1.947,8.078-5.029,8.886-9.733,1.454-10.057-1.293-15.9-1.293-15.9-5.816-47.528,12.117-97.976,12.117-97.976C295.671,324.054,284.038,271.011,276.444,245.544ZM187.745,466.8c-.162,0-.162,0-.323.162V466.8a23.117,23.117,0,0,0-1.616-7.624c-2.585-21.088-2.1-42.662,1.131-60.181h.162c2.1,20.276,5.493,42.175,11.31,58.883l.162.162A34.051,34.051,0,0,0,187.745,466.8Z" transform="translate(2.255 -0.855)" fill="#fff"/>
        <path id="e68myr1w6sz643" d="M113.219,25.486l.485.487a44.818,44.818,0,0,0-8.4,12.977,38.155,38.155,0,0,0-2.747,12.166h-1.131c-8.886-1.784-15.833-12-11.471-21.574C94.477,19.484,106.433,19.322,113.219,25.486Z" transform="translate(4.239 0.218)" fill="#fff" fill-rule="evenodd"/>
        <path id="e68myr1w6sz644" d="M97.969,245.388v.324c-7.109,15.572-10.663,32.6-11.633,49.961a33.226,33.226,0,0,1-18.58-5.353c-4.847-3.244-8.4-7.948-11.471-12.815C48.369,264.853,43.037,252.2,40.613,237.44l-.162-.649,23.588-3.569,1.616-.162a12.485,12.485,0,0,0,5.008,6.488c3.716,2.271,7.917,2.109,11.794.811h0l.969.973A18.547,18.547,0,0,0,97.969,245.388Z" transform="translate(1.717 11.305)" fill="#fff" fill-rule="evenodd"/>
        <path id="e68myr1w6sz645" d="M9.591,175.735l4.524,68.453c-8.4,2.433-9.371-3.244-9.371-3.244L.382,172.329C2,177.357,9.591,175.735,9.591,175.735Z" transform="translate(-0.382 8.125)" fill="#74cff7" fill-rule="evenodd"/>
      </g>
      <path id="e68myr1w6sz646" d="M172.952,336.18s-3.231,48.339,14.218,95.218c0,0,9.694,7.786,5.816,21.574,0,0-2.585,7.137-14.864,8.435l-7.755-.649a10.765,10.765,0,0,1-2.585,12.977s27.3,1.947,35.706-4.542c0,0-3.07-14.437,13.087-18.33,0,0-4.685-51.421-.485-67.8l-3.554-43.8C212.7,339.424,196.379,342.019,172.952,336.18Z" transform="translate(8.301 16.971)" fill="#e1e8ea" fill-rule="evenodd"/>
      <path id="e68myr1w6sz647" d="M86.567,236.6s11.471,39.742,34.09,45.744c0,0,.646-19.141,10.5-35.362,0,0-13.733.811-15.349-5.353,0,0-12.279,5.84-15.51-7.948Z" transform="translate(4.048 11.603)" fill="#e1e8ea" fill-rule="evenodd"/>
      <path id="e68myr1w6sz648" d="M305.909,367.962s-17.934,50.448-12.117,97.976c0,0,2.747,5.84,1.293,15.9-.646,4.7-4.524,7.786-8.886,9.733-7.755,3.569-15.672,3.731-23.912,5.677-6.786,1.622-15.51.487-15.026-8.6.162-3.731,2.585-7.3,5.655-9.408,4.685-3.082,10.34-2.109,14.056-6.813,4.039-5.029-4.685-20.925-5.978-26.765a123.234,123.234,0,0,1-2.585-31.793c1.454-36.984,24.719-72.833,16.156-109.006a159.541,159.541,0,0,1-73.835,20.276c-17.287.487-37.483-3.731-45.077-19.465,8.24,9.084,22.457,10.706,34.09,6.975s21.488-11.679,31.02-19.465c10.663-8.759,21.327-17.357,31.828-26.116,10.34-8.6,21-17.357,27.789-29.036,6.624-11.679,8.563-27.089,1.131-38.444-2.262-3.406-5.17-6.164-6.786-9.895-1.777-3.731-1.939-7.948-2.262-12.166-3.878-59.532-21.811-140.313-80.621-169.673,12.117-1.3,23.1,1.784,33.929,8.6A19.393,19.393,0,0,1,231.751,6.23,17.339,17.339,0,0,1,247.907,2.5c7.755,2.433,12.6,11.193,10.663,19.141-2.1,8.6-6.786,11.03-12.925,14.437l3.07.324c42.492,44.933,51.054,146.964,51.054,146.964,18.418,32.28,5.978,63.1,5.978,63.1C313.987,272.581,325.62,325.624,305.909,367.962Z" transform="translate(7.666 -0.537)" fill="#e1e8ea" fill-rule="evenodd"/>
      <path id="e68myr1w6sz649" d="M125.692,243.967a27.77,27.77,0,0,0,17.934-17.843c3.554,6.488,2.423,15.41-2.908,20.6-.485-1.622-.969-3.082-1.454-4.7-3.231,2.109-6.463,4.055-10.34,4.866-1.777.324-7.109,1.135-8.563-.649C118.583,244.129,124.238,244.453,125.692,243.967Z" transform="translate(5.8 11.207)" fill="#e1e8ea" fill-rule="evenodd"/>
      <path id="e68myr1w6sz650" d="M105.609,225.2c6.463-2.109,12.117-5.677,17.772-9.408a20.719,20.719,0,0,1-8.24,11.03,31.408,31.408,0,0,1-12.925,4.866,20.359,20.359,0,0,1-9.371-.324c-3.393-.973-9.694-6.975-2.585-5.353A27.552,27.552,0,0,0,105.609,225.2Z" transform="translate(4.072 10.667)" fill="#e1e8ea" fill-rule="evenodd"/>
      <path id="e68myr1w6sz651" d="M117.776,237.568c5.332-2.109,10.017-5.84,14.056-10.057-.323,6.164-3.878,11.679-8.563,15.572-1.454,1.3-3.716,2.433-5.332,1.135-.646-.487-1.131-1.46-1.939-1.784a4.114,4.114,0,0,0-2.423,0c-1.616.162-11.148-.162-8.563-2.6,1.293-1.135,4.524-.324,5.978-.487A26.261,26.261,0,0,0,117.776,237.568Z" transform="translate(4.991 11.28)" fill="#e1e8ea" fill-rule="evenodd"/>
      <path id="e68myr1w6sz652" d="M143.473,179.3c-.969-2.92-1.616-6.164-3.716-8.273-3.716-3.569-7.432-.162-10.663-1.46a13.254,13.254,0,0,1,6.624,6c2.1,3.893,2.1,8.759,2.585,13.139a11.315,11.315,0,0,0,1.293,4.7,9.9,9.9,0,0,0,2.747,2.433c14.056,10.544,28.435,21.574,42.168,32.767,9.855,7.948,18.9,17.681,23.265,29.523a48.148,48.148,0,0,0-6.786-32.6c-1.454.973-2.908,2.109-4.362,3.082a104.588,104.588,0,0,0-16.964-15.735c-12.764-9.57-28.435-17.032-35.221-31.307C144.12,180.92,143.8,180.109,143.473,179.3Z" transform="translate(6.275 8.234)" fill="#e1e8ea" fill-rule="evenodd"/>
      <path id="e68myr1w6sz653" d="M209.651,65.573a2.58,2.58,0,0,0-1.454-1.135,3.911,3.911,0,0,0-3.878,1.3,14.352,14.352,0,0,0-2.262,3.731,26.973,26.973,0,0,1-10.5,10.382c-1.131.649-13.895,5.191-14.056,4.38.646,6.488-2.585,13.3-6.624,18.168-.969,1.135-4.847,6.164-6.624,6.164,3.231.324,16.8-2.109,17.287,1.46.323,3.731-6.786,5.029-9.371,5.84,18.1-.487,43.946-13.139,43.784-33.9,0-5.677-2.423-7.137-4.685-11.841C210.62,68.655,210.459,66.709,209.651,65.573Z" transform="translate(8.116 2.733)" fill="#e1e8ea" fill-rule="evenodd"/>
      <path id="e68myr1w6sz654" d="M34.37,175.412c-.323-.487,3.878,66.831,3.878,66.831s.969,4.055,4.685,3.731l-4.2-69.1S35.662,177.845,34.37,175.412Z" transform="translate(1.314 8.552)" fill="#abe9ff" fill-rule="evenodd"/>
      <path id="e68myr1w6sz655" d="M108.215,167.915s9.855.324,9.855,14.923v13.95s5.978-9.246,6.624-14.112V172.457s-4.847-7.948-15.672-5.029Z" transform="translate(5.182 8.1)" fill="#4b91bc" fill-rule="evenodd"/>
      <g id="e68myr1w6sz656" transform="translate(209.851 455.83)">
        <path id="e68myr1w6sz657" d="M60.28,41.855a95.2,95.2,0,0,1-21.488-.162h.162a15.176,15.176,0,0,1-4.847-1.135,14.83,14.83,0,0,1-4.362-2.6,12.347,12.347,0,0,1-2.908-4.217,13.265,13.265,0,0,1-.969-5.029,12.326,12.326,0,0,1,.162-2.433,12.978,12.978,0,0,1,.485-2.433,12.085,12.085,0,0,1,2.585-4.38,14.112,14.112,0,0,1,8.563-4.055.765.765,0,0,1,.808.811c0,.324-.162.811-.485.811h-.162a12.634,12.634,0,0,0-6.624,4.38,9.431,9.431,0,0,0-1.616,3.406,8.172,8.172,0,0,0-.323,1.947,7.848,7.848,0,0,0,0,1.947,9.655,9.655,0,0,0,.808,3.731,7.507,7.507,0,0,0,2.1,2.92,11.8,11.8,0,0,0,6.947,2.6h.162a127.834,127.834,0,0,0,20.842.487A1.663,1.663,0,0,1,61.9,40.07C61.734,41.043,61.088,41.855,60.28,41.855Z" transform="translate(0.953 0.158)" fill="#24262d" fill-rule="evenodd"/>
        <path id="e68myr1w6sz658" d="M34.038,39.592A31.6,31.6,0,0,1,21.759,41.7,18.636,18.636,0,0,1,15.3,40.24a11.193,11.193,0,0,1-5.17-4.7,14.18,14.18,0,0,1-1.454-6.651A15.749,15.749,0,0,1,10.126,22.4a11.926,11.926,0,0,1,4.362-5.029,11.637,11.637,0,0,1,6.139-2.109.765.765,0,0,1,.808.811.893.893,0,0,1-.485.811h-.162A17,17,0,0,0,16.1,19.64a11.365,11.365,0,0,0-3.07,4.218,14.1,14.1,0,0,0-.969,5.191A9.829,9.829,0,0,0,13.2,33.914c1.616,2.758,5.17,4.055,8.724,4.217A31.69,31.69,0,0,0,32.907,36.51h0a1.679,1.679,0,0,1,2.1.973A1.625,1.625,0,0,1,34.038,39.592Z" transform="translate(0.052 0.15)" fill="#24262d" fill-rule="evenodd"/>
        <path id="e68myr1w6sz659" d="M10.237,37.6a20.8,20.8,0,0,1-7.594-5.515,11.684,11.684,0,0,1-2.1-4.542,9.425,9.425,0,0,1,.485-5.191,14.855,14.855,0,0,1,1.131-2.271l1.454-1.947a21.625,21.625,0,0,1,3.393-3.244A26.5,26.5,0,0,1,15.407,11h0l-.808.649a24,24,0,0,1,3.878-4.218A30.062,30.062,0,0,1,23,4.023a30.1,30.1,0,0,1,5.17-2.433A21.739,21.739,0,0,1,33.826.617a.765.765,0,0,1,.808.811.893.893,0,0,1-.485.811h0c-1.616.649-3.231,1.135-4.847,1.947a28.228,28.228,0,0,0-4.362,2.6A39.343,39.343,0,0,0,20.9,10.025a36.937,36.937,0,0,0-3.554,3.569l-.162.162a.888.888,0,0,1-.808.487h0a19.972,19.972,0,0,0-7.27,3.406,15.118,15.118,0,0,0-2.908,2.6A8.91,8.91,0,0,0,5.067,21.7a7.589,7.589,0,0,0-.808,1.622A6.376,6.376,0,0,0,5.39,29.815a18,18,0,0,0,6.3,4.542h0a1.612,1.612,0,0,1,.808,2.109A1.733,1.733,0,0,1,10.237,37.6Z" transform="translate(-0.382 -0.617)" fill="#24262d" fill-rule="evenodd"/>
      </g>
      <path id="e68myr1w6sz660" d="M137.249,75.416a1.575,1.575,0,0,1-1.616-1.3c-1.939-9.246-3.393-22.71,1.293-33.416C147.1,17.02,172.955,9.071,192.827,6.8c12.279-1.46,24.073,1.46,36.029,9.084a1.64,1.64,0,0,1-1.777,2.758c-11.31-7.137-22.457-9.895-33.929-8.6C174.086,12.315,149.367,19.777,139.834,42c-4.2,10.057-2.908,22.71-1.131,31.469a1.642,1.642,0,0,1-1.293,1.947Z" transform="translate(6.521 -0.296)" fill="#24262d" fill-rule="evenodd"/>
      <path id="e68myr1w6sz661" d="M252.712,496.871H248.35a1.622,1.622,0,0,1,0-3.244c17.126.487,25.366-1.784,32.636-5.029,4.847-2.271,7.432-5.029,7.917-8.6,1.454-9.408-1.131-14.923-1.131-14.923,0-.162-.162-.324-.162-.487-5.816-47.366,11.956-98.3,12.117-98.787,19.226-41.526,8.4-92.947.323-119.874a1.377,1.377,0,0,1,0-1.135c.162-.324,11.794-30.5-5.978-61.64a.978.978,0,0,1-.162-.649c-.162-.973-9.048-101.869-50.57-145.99a1.6,1.6,0,0,1,2.262-2.271c41.037,43.473,50.893,140.8,51.539,147.613,16.964,30.171,7.755,59.369,6.139,63.587,8.24,27.576,18.741,79.484-.646,121.5-.162.324-17.611,50.286-11.956,96.84.485,1.3,2.747,7.137,1.292,16.546-.646,4.542-4.039,8.273-9.694,11.03C275.492,494.6,267.576,496.871,252.712,496.871Z" transform="translate(12.232 1.134)" fill="#24262d" fill-rule="evenodd"/>
      <path id="e68myr1w6sz662" d="M223.756,442.921a203.109,203.109,0,0,1-7.109-27.576c-1.777-9.246-3.07-18.654-4.2-28.063-.969-9.408-1.777-18.817-2.262-28.225s-.969-18.817-.162-28.387a.867.867,0,0,1,.808-.811,1.074,1.074,0,0,1,.808.649h0c.485,4.7.808,9.408,1.131,14.112s.485,9.408.808,14.112c.646,9.408,1.454,18.654,2.585,28.063,1.131,9.246,2.423,18.654,4.2,27.738a214.13,214.13,0,0,0,6.786,27.089h0a1.689,1.689,0,0,1-.969,2.109C224.887,444.219,224.08,443.895,223.756,442.921Z" transform="translate(10.49 16.64)" fill="#24262d" fill-rule="evenodd"/>
      <g id="e68myr1w6sz663" transform="translate(131.653 450.64)">
        <path id="e68myr1w6sz664" d="M60.513,41.7a95.2,95.2,0,0,1-21.488-.162h.162A15.176,15.176,0,0,1,34.339,40.4a14.83,14.83,0,0,1-4.362-2.6,12.346,12.346,0,0,1-2.908-4.217,13.265,13.265,0,0,1-.969-5.029,12.326,12.326,0,0,1,.162-2.433,12.977,12.977,0,0,1,.485-2.433,12.085,12.085,0,0,1,2.585-4.38,14.112,14.112,0,0,1,8.563-4.055.765.765,0,0,1,.808.811c0,.324-.162.811-.485.811h-.162a12.634,12.634,0,0,0-6.624,4.38,9.431,9.431,0,0,0-1.616,3.406,8.172,8.172,0,0,0-.323,1.947,7.848,7.848,0,0,0,0,1.947,9.655,9.655,0,0,0,.808,3.731,7.507,7.507,0,0,0,2.1,2.92,11.8,11.8,0,0,0,6.947,2.6h.162a127.834,127.834,0,0,0,20.842.487,1.663,1.663,0,0,1,1.777,1.622A1.766,1.766,0,0,1,60.513,41.7Z" transform="translate(0.559 0.475)" fill="#24262d" fill-rule="evenodd"/>
        <path id="e68myr1w6sz665" d="M34.424,39.437a31.6,31.6,0,0,1-12.279,2.109,18.636,18.636,0,0,1-6.463-1.46,11.193,11.193,0,0,1-5.17-4.7,14.18,14.18,0,0,1-1.454-6.651,15.749,15.749,0,0,1,1.454-6.488,11.926,11.926,0,0,1,4.362-5.029,11.637,11.637,0,0,1,6.139-2.109.765.765,0,0,1,.808.811.893.893,0,0,1-.485.811h-.162a17,17,0,0,0-4.685,2.758A11.365,11.365,0,0,0,13.42,23.7a14.1,14.1,0,0,0-.969,5.191,9.829,9.829,0,0,0,1.131,4.866c1.616,2.758,5.17,4.055,8.724,4.217a31.69,31.69,0,0,0,10.986-1.622h0a1.679,1.679,0,0,1,2.1.973A1.859,1.859,0,0,1,34.424,39.437Z" transform="translate(-0.334 0.467)" fill="#24262d" fill-rule="evenodd"/>
        <path id="e68myr1w6sz666" d="M10.623,37.293A20.8,20.8,0,0,1,3.03,31.777a11.684,11.684,0,0,1-2.1-4.542,9.425,9.425,0,0,1,.485-5.191,14.855,14.855,0,0,1,1.131-2.271L4,17.827a21.625,21.625,0,0,1,3.393-3.244,26.5,26.5,0,0,1,8.4-3.893h0l-.808.649a24,24,0,0,1,3.878-4.218,30.062,30.062,0,0,1,4.524-3.406,30.1,30.1,0,0,1,5.17-2.433A21.739,21.739,0,0,1,34.212.308a.765.765,0,0,1,.808.811.893.893,0,0,1-.485.811h0c-1.616.649-3.231,1.135-4.847,1.947a28.227,28.227,0,0,0-4.362,2.6,39.343,39.343,0,0,0-4.039,3.244,36.937,36.937,0,0,0-3.554,3.569l-.162.162a.888.888,0,0,1-.808.487h0a19.972,19.972,0,0,0-7.27,3.406,15.118,15.118,0,0,0-2.908,2.6A8.91,8.91,0,0,0,5.453,21.4a7.589,7.589,0,0,0-.808,1.622,6.376,6.376,0,0,0,1.131,6.488,18,18,0,0,0,6.3,4.542h0a1.612,1.612,0,0,1,.808,2.109c-.485,1.3-1.454,1.622-2.262,1.135Z" transform="translate(-0.768 -0.308)" fill="#24262d" fill-rule="evenodd"/>
      </g>
      <path id="e68myr1w6sz667" d="M214.39,450.381a1.6,1.6,0,0,1-1.616-1.46,21.643,21.643,0,0,0-1.454-6.975c0-.162-.162-.324-.162-.487-2.585-20.925-2.1-42.337,1.131-60.667a1.648,1.648,0,1,1,3.231.649c-3.07,17.681-3.554,39.255-1.131,59.532a27.787,27.787,0,0,1,1.616,7.948c.162.487-.485,1.3-1.616,1.46Z" transform="translate(10.486 19.237)" fill="#24262d" fill-rule="evenodd"/>
      <path id="e68myr1w6sz668" d="M178.221,469.434H173.7a1.622,1.622,0,0,1,0-3.244c13.895.324,22.942-.811,31.02-4.38a1.6,1.6,0,0,1,1.293,2.92C198.416,467.974,190.176,469.434,178.221,469.434Z" transform="translate(8.526 23.543)" fill="#24262d" fill-rule="evenodd"/>
      <path id="e68myr1w6sz669" d="M156.768,441.041a1.946,1.946,0,0,1-1.616-1.135c-3.716-12.815-9.855-24.981-15.672-36.822-2.262-4.542-4.524-9.084-6.786-13.788-6.786-14.275-11.148-29.847-14.218-48.988-3.878-25.143-5.332-61.8,9.532-94.407a1.592,1.592,0,1,1,2.908,1.3c-14.541,31.956-13.087,67.967-9.209,92.623,2.908,18.654,7.27,34.064,13.895,48.015,2.1,4.542,4.524,9.246,6.786,13.788,5.978,11.841,12.117,24.17,15.833,37.309a1.54,1.54,0,0,1-1.131,1.947A.5.5,0,0,1,156.768,441.041Z" transform="translate(5.583 12.194)" fill="#24262d" fill-rule="evenodd"/>
      <g id="e68myr1w6sz670" transform="translate(148.054 49.652)">
        <path id="e68myr1w6sz671" d="M.4,8.435c.323,4.218,2.423,6.651,5.17,6.326s5.009-3.082,4.685-7.3S7.349,5.515,0,0C1.856.649-.083,4.218.4,8.435Z" transform="translate(0)" fill="#e1e8ea" fill-rule="evenodd"/>
        <path id="e68myr1w6sz672" d="M1.767,8.882c.323,4.218,2.423,6.651,5.17,6.326s5.009-3.082,4.685-7.3S8.714.447,5.968.772,1.282,4.665,1.767,8.882Z" transform="translate(0.089 0.039)" fill="#24262d" fill-rule="evenodd"/>
        <ellipse id="e68myr1w6sz673" cx="1.777" cy="1.784" rx="1.777" ry="1.784" transform="translate(2.664 4.866)" fill="#e1e8ea"/>
      </g>
      <g id="e68myr1w6sz674" transform="translate(203.642 38.115)">
        <path id="e68myr1w6sz675" d="M.157,9.634C.642,14.5,3.065,17.583,6.135,17.42,9.2,17.1,11.79,13.527,11.3,8.661S8.074.064,5,.388C1.773.55-.328,4.768.157,9.634Z" transform="translate(-0.088 -0.369)" fill="#e1e8ea" fill-rule="evenodd"/>
        <path id="e68myr1w6sz676" d="M1.539,11.484c.485,4.866,2.908,7.948,5.978,7.786,3.07-.324,5.655-3.893,5.17-8.759s-3.231-8.6-6.3-8.273C3.154,2.4,1.054,6.618,1.539,11.484Z" transform="translate(-0.015 -0.272)" fill="#24262d" fill-rule="evenodd"/>
        <ellipse id="e68myr1w6sz677" cx="1.777" cy="1.784" rx="1.777" ry="1.784" transform="translate(3.301 6.67)" fill="#e1e8ea"/>
      </g>
      <path id="e68myr1w6sz678" d="M148.211,194.037a1.452,1.452,0,0,1-.808-.162,1.8,1.8,0,0,1-.646-2.271c21.165-36.984,4.685-84.188,4.524-84.674a1.637,1.637,0,1,1,3.07-1.135c.162.487,17.287,49.15-4.685,87.432A1.926,1.926,0,0,1,148.211,194.037Z" transform="translate(7.192 4.85)" fill="#24262d" fill-rule="evenodd"/>
      <path id="e68myr1w6sz679" d="M120.378,227.723a34.382,34.382,0,0,1-12.44,7.786,25.009,25.009,0,0,1-15.025.649,9.082,9.082,0,0,1-1.939-.649,6.668,6.668,0,0,1-1.777-1.135,15.8,15.8,0,0,1-2.908-2.758,12.067,12.067,0,0,1-2.1-3.406,13.775,13.775,0,0,1-1.293-3.893,9.288,9.288,0,0,1,0-4.218,10.71,10.71,0,0,1,1.777-3.893,16.535,16.535,0,0,1,6.139-5.029,40.291,40.291,0,0,1,6.947-2.6,44.156,44.156,0,0,0,6.463-2.433,45.664,45.664,0,0,0,11.471-7.624,27.1,27.1,0,0,0,7.594-11.03,34.211,34.211,0,0,0,1.293-13.464v-1.46c0-.162,0-.811.162-.973.323-.649.485-.973.808-1.135.162-.162.485-.324.646-.487a7.86,7.86,0,0,1,1.131-.487,32.47,32.47,0,0,1,3.716-1.135,29.714,29.714,0,0,1,3.716-.649h2.1a9.421,9.421,0,0,1,2.1.324,11.863,11.863,0,0,1,6.786,4.7,25.013,25.013,0,0,1,3.554,6.813c2.747,8.922,9.855,15.41,17.449,20.763,7.594,5.515,16.156,10.219,23.588,16.708a78.363,78.363,0,0,1,10.179,10.544,37.009,37.009,0,0,1,6.786,12.977.788.788,0,0,1-.485.973.775.775,0,0,1-.969-.324,81.7,81.7,0,0,0-17.772-21.574c-7.109-6.326-15.349-10.868-23.427-16.383a62.277,62.277,0,0,1-11.148-9.57c-.808-.811-1.616-1.947-2.423-2.92a34.749,34.749,0,0,1-2.1-3.082,51.6,51.6,0,0,1-3.07-6.813c-1.616-4.218-4.039-8.273-7.917-9.084a4.456,4.456,0,0,0-1.454-.162h-1.293a24.993,24.993,0,0,0-3.393.649c-1.131.324-2.262.649-3.07.973-.162.162-.485.162-.485.324h-.162s.162,0,.323-.487v-.487h0v1.622c.323,4.866.162,10.057-1.616,14.923a33.789,33.789,0,0,1-8.563,12.49,48.982,48.982,0,0,1-12.44,8.273c-4.524,2.109-9.532,3.082-13.41,5.029A12.914,12.914,0,0,0,87.58,218.8a6.08,6.08,0,0,0-1.131,2.6,8.855,8.855,0,0,0,0,2.92,11.648,11.648,0,0,0,2.747,5.677,9.234,9.234,0,0,0,2.262,2.109c.485.324.808.487,1.293.811a15.207,15.207,0,0,0,1.454.487,21.816,21.816,0,0,0,13.248-.487,49.422,49.422,0,0,0,12.44-6.164.85.85,0,0,1,1.131.324C120.7,227.074,120.7,227.4,120.378,227.723Z" transform="translate(3.843 8.148)" fill="#24262d" fill-rule="evenodd"/>
      <path id="e68myr1w6sz680" d="M130.177,233.353a29.212,29.212,0,0,1-7.755,6.975,26.451,26.451,0,0,1-9.855,4.055,21.983,21.983,0,0,1-5.655,0,4.7,4.7,0,0,1-1.454-.324,11.1,11.1,0,0,1-1.293-.487,20.817,20.817,0,0,1-2.585-1.46,14.98,14.98,0,0,1-5.493-9.57h0A1.779,1.779,0,0,1,97.38,230.6a1.717,1.717,0,0,1,1.939,1.3,12.849,12.849,0,0,0,4.362,7.462,12.244,12.244,0,0,0,8.4,1.784,24.759,24.759,0,0,0,8.724-3.244,64.774,64.774,0,0,0,8.078-5.515h0c.323-.324.808-.162,1.131.162A.566.566,0,0,1,130.177,233.353Z" transform="translate(4.546 11.44)" fill="#24262d" fill-rule="evenodd"/>
      <path id="e68myr1w6sz681" d="M115.563,240.784a16.192,16.192,0,0,0,6.786,4.055,16.382,16.382,0,0,0,7.917.324A17.411,17.411,0,0,0,141.9,234.783h0a.834.834,0,0,1,1.131-.487.893.893,0,0,1,.485.811,15.526,15.526,0,0,1-4.2,8.435,17.225,17.225,0,0,1-8.24,4.866,17.629,17.629,0,0,1-17.772-5.353h0a1.581,1.581,0,0,1,.162-2.271A1.374,1.374,0,0,1,115.563,240.784Z" transform="translate(5.427 11.632)" fill="#24262d" fill-rule="evenodd"/>
      <path id="e68myr1w6sz682" d="M239.352,191.98c-4.039,2.758-8.078,5.515-11.956,8.273s-7.755,5.677-11.633,8.759c-3.716,3.082-7.432,6.164-10.825,9.57a118.66,118.66,0,0,0-9.532,10.706h0a1.618,1.618,0,1,1-2.585-1.947c5.816-8.273,13.248-14.923,21-21.088a124.521,124.521,0,0,1,12.117-8.435,143.463,143.463,0,0,1,12.764-7.3,1.068,1.068,0,0,1,1.131.324,1.21,1.21,0,0,1-.485,1.135Z" transform="translate(9.598 9.34)" fill="#24262d" fill-rule="evenodd"/>
      <path id="e68myr1w6sz683" d="M140.462,240.373a115.7,115.7,0,0,0,14.218,46.555,72.883,72.883,0,0,0,6.463,10.219c2.423,3.082,5.17,6,8.725,7.786,6.786,4.055,14.864,4.866,22.781,3.569a62.362,62.362,0,0,0,11.633-3.244c3.716-1.46,7.432-3.244,10.986-5.029,7.109-3.893,14.056-8.435,20.842-12.977a321.2,321.2,0,0,0,38.129-31.307.8.8,0,0,1,1.131,1.135,231.321,231.321,0,0,1-37.321,32.767,233.355,233.355,0,0,1-21.165,13.3,124.1,124.1,0,0,1-11.471,5.353,71.992,71.992,0,0,1-12.279,3.569,49.123,49.123,0,0,1-12.925.324,32.542,32.542,0,0,1-12.279-4.217,33.1,33.1,0,0,1-9.694-8.6,91.958,91.958,0,0,1-6.786-10.706,116.491,116.491,0,0,1-14.218-48.015,1.763,1.763,0,0,1,1.454-1.784A1.362,1.362,0,0,1,140.462,240.373Z" transform="translate(6.701 11.882)" fill="#24262d" fill-rule="evenodd"/>
      <path id="e68myr1w6sz684" d="M119.928,298.547A34.318,34.318,0,0,1,100.7,292.87c-5.332-3.569-9.048-8.759-11.956-13.3-8.563-13.626-13.571-26.6-15.995-40.553a1.648,1.648,0,1,1,3.231-.649c2.262,13.626,7.27,26.116,15.51,39.417,2.747,4.38,6.139,9.246,10.986,12.328a30.947,30.947,0,0,0,17.449,5.029h.162a1.622,1.622,0,0,1,0,3.244C120.09,298.547,120.09,298.547,119.928,298.547Z" transform="translate(3.324 11.779)" fill="#24262d" fill-rule="evenodd"/>
      <path id="e68myr1w6sz685" d="M166.622,331.41c1.777.811,3.554,1.622,5.493,2.433a33.239,33.239,0,0,0,5.655,1.947,93.367,93.367,0,0,0,11.633,2.758c1.939.324,3.878.487,5.816.649a17.489,17.489,0,0,1,2.908.162h2.908l2.908-.162,2.908-.324a17.733,17.733,0,0,0,2.908-.324l2.908-.487h.162a1.772,1.772,0,0,1,1.939,1.3,1.489,1.489,0,0,1-1.293,1.784,53.4,53.4,0,0,1-12.44,1.622,64.553,64.553,0,0,1-12.44-1.135,77.209,77.209,0,0,1-11.956-3.406,53.632,53.632,0,0,1-10.986-5.515,1,1,0,0,1-.323-1.135c.485-.324.969-.487,1.293-.162Z" transform="translate(8.169 16.712)" fill="#24262d" fill-rule="evenodd"/>
      <path id="e68myr1w6sz686" d="M221.533,22.516a15.491,15.491,0,0,1,1.616-10.706,20.311,20.311,0,0,1,7.432-8.273A19.422,19.422,0,0,1,241.406.617a16.791,16.791,0,0,1,10.5,4.218,19.738,19.738,0,0,1,5.816,9.57,16.575,16.575,0,0,1,.485,5.677,13.976,13.976,0,0,1-.485,2.758c-.323.811-.485,1.784-.808,2.6a21.185,21.185,0,0,1-2.585,5.029,23,23,0,0,1-4.039,3.893,28.152,28.152,0,0,1-9.532,4.38.9.9,0,0,1-.808-1.46c2.585-2.433,5.655-3.893,8.24-5.84a14.165,14.165,0,0,0,5.332-7.3,11.983,11.983,0,0,0,.646-2.271,11,11,0,0,0,.323-2.271,14.385,14.385,0,0,0-.323-4.542,15.594,15.594,0,0,0-4.685-7.624,13.873,13.873,0,0,0-8.078-3.406,15.84,15.84,0,0,0-8.886,2.271,17.091,17.091,0,0,0-6.3,6.813c-1.454,2.758-2.1,5.84-2.908,9.246h0a.886.886,0,0,1-.969.649C221.857,23,221.533,22.84,221.533,22.516Z" transform="translate(11.098 -0.602)" fill="#24262d" fill-rule="evenodd"/>
      <path id="e68myr1w6sz687" d="M44,247.929a7.1,7.1,0,0,1-4.2-1.135,6.052,6.052,0,0,1-2.908-4.217v-.162L32.527,173.8a1.578,1.578,0,0,1,1.293-1.622,1.527,1.527,0,0,1,1.777.973c1.293,3.731,7.432,2.6,7.432,2.433a1.654,1.654,0,0,1,.646,3.244c-.323,0-4.524.973-7.755-.649l4.039,63.911a3.276,3.276,0,0,0,1.454,1.947c1.293.811,3.393.811,5.816,0a1.593,1.593,0,0,1,.808,3.082A9.008,9.008,0,0,1,44,247.929Z" transform="translate(1.219 8.381)" fill="#24262d" fill-rule="evenodd"/>
      <path id="e68myr1w6sz688" d="M47.409,247.778a2.29,2.29,0,0,1-.969-.324,1.643,1.643,0,0,1-.646-1.135l-4.362-68.453a1.737,1.737,0,0,1,1.454-1.784l72.866-10.219a12.109,12.109,0,0,1,9.371,2.6,11.42,11.42,0,0,1,4.524,8.6l.162,6.813a1.616,1.616,0,1,1-3.231,0l-.162-6.651a9.175,9.175,0,0,0-3.393-6.326,8.853,8.853,0,0,0-6.947-1.947L44.824,179l4.2,65.047,50.57-7.624a1.515,1.515,0,0,1,1.777,1.3c0,.811-.485,1.784-1.293,1.784l-52.347,7.948Z" transform="translate(1.685 8.045)" fill="#24262d" fill-rule="evenodd"/>
      <g id="e68myr1w6sz689" transform="translate(49.578 190.938)">
        <path id="e68myr1w6sz690" d="M5.076,55.578a1.6,1.6,0,0,1-1.616-1.46L3.3,52.5a1.763,1.763,0,0,1,1.454-1.784,1.9,1.9,0,0,1,1.777,1.46l.162,1.622c.162.973-.485,1.622-1.616,1.784Z" transform="translate(0.094 2.493)" fill="#24262d" fill-rule="evenodd"/>
        <path id="e68myr1w6sz691" d="M4.9,51.593a1.6,1.6,0,0,1-1.616-1.46L3.12,47.051a1.763,1.763,0,0,1,1.454-1.784,1.9,1.9,0,0,1,1.777,1.46l.162,3.082A1.766,1.766,0,0,1,4.9,51.593Zm-.485-7.786A1.6,1.6,0,0,1,2.8,42.347l-.162-3.082A1.763,1.763,0,0,1,4.09,37.481a1.76,1.76,0,0,1,1.777,1.46l.162,3.082a1.886,1.886,0,0,1-1.616,1.784Zm-.485-7.948A1.6,1.6,0,0,1,2.312,34.4l-.162-3.082A1.763,1.763,0,0,1,3.6,29.532a1.9,1.9,0,0,1,1.777,1.46l.162,3.082a1.665,1.665,0,0,1-1.616,1.784Zm-.646-7.786a1.6,1.6,0,0,1-1.616-1.46L1.5,23.53a1.763,1.763,0,0,1,1.454-1.784,1.9,1.9,0,0,1,1.777,1.46L4.9,26.288a1.5,1.5,0,0,1-1.616,1.784ZM2.8,20.286a1.6,1.6,0,0,1-1.616-1.46L1.02,15.744A1.763,1.763,0,0,1,2.474,13.96a1.9,1.9,0,0,1,1.777,1.46L4.413,18.5A1.574,1.574,0,0,1,2.8,20.286ZM2.312,12.5A1.6,1.6,0,0,1,.7,11.04L.535,7.8A1.763,1.763,0,0,1,1.989,6.011a1.9,1.9,0,0,1,1.777,1.46l.162,3.082c0,1.135-.646,1.947-1.616,1.947Z" transform="translate(-0.051 0.153)" fill="#24262d"/>
        <path id="e68myr1w6sz692" d="M1.852,5.02A1.6,1.6,0,0,1,.236,3.561L.075,1.938A1.763,1.763,0,0,1,1.529.154a1.76,1.76,0,0,1,1.777,1.46l.162,1.622A1.766,1.766,0,0,1,1.852,5.02Z" transform="translate(-0.075 -0.154)" fill="#24262d" fill-rule="evenodd"/>
      </g>
      <path id="e68myr1w6sz693" d="M247.926,15.842a8.728,8.728,0,0,1-1.454,7.137,17.022,17.022,0,0,1-5.816,4.866c-7.917,4.38-13.895-1.3-10.179-9.408,1.454-3.244,3.716-7.137,7.432-7.948C241.787,9.678,246.8,12.111,247.926,15.842Z" transform="translate(11.525 -0.092)" fill="#24262d" fill-rule="evenodd"/>
      <path id="e68myr1w6sz694" d="M142.151,32.678a20.537,20.537,0,0,0-1.939-1.622,7.418,7.418,0,0,0-4.362-1.46,6.21,6.21,0,0,0-2.908.973c-6.624,4.38-1.939,11.355,2.747,14.761C135.366,45.168,141.667,33.651,142.151,32.678Z" transform="translate(6.305 0.915)" fill="#24262d" fill-rule="evenodd"/>
      <path id="e68myr1w6sz695" d="M188.514,25a10.443,10.443,0,0,1,3.554-2.92,7.117,7.117,0,0,1,4.847-.487,8.743,8.743,0,0,1,4.039,2.6c.485.649.808,1.3,1.293,1.947a8.168,8.168,0,0,1,.808,2.109c.162.487-.162.973-.485.973a.708.708,0,0,1-.808-.162H201.6a10.482,10.482,0,0,1-1.293-1.46,9.767,9.767,0,0,1-1.292-1.3,5.707,5.707,0,0,0-2.747-1.46,6.536,6.536,0,0,0-3.07,0,29.056,29.056,0,0,0-3.393,1.3h-.162a1,1,0,0,1-1.131-.324A.726.726,0,0,1,188.514,25Z" transform="translate(9.38 0.485)" fill="#24262d" fill-rule="evenodd"/>
      <path id="e68myr1w6sz696" d="M139.994,45.027a6.967,6.967,0,0,1,.969-3.569A5.552,5.552,0,0,1,144.2,38.7a6.2,6.2,0,0,1,4.2.324,14.2,14.2,0,0,1,1.616.973l1.293,1.3a.8.8,0,0,1-.162,1.135.968.968,0,0,1-.646.162h-.162l-1.454-.487a4.978,4.978,0,0,0-1.293-.324,4.535,4.535,0,0,0-2.1,0,4.143,4.143,0,0,0-1.777,1.3,11.514,11.514,0,0,0-1.616,2.271v.162a1.068,1.068,0,0,1-1.131.324C140.156,45.514,139.994,45.352,139.994,45.027Z" transform="translate(6.846 1.38)" fill="#24262d" fill-rule="evenodd"/>
      <path id="e68myr1w6sz697" d="M163.85,52.329c-5.493,4.38-10.986,8.435-16.156,12.977a51.693,51.693,0,0,0-7.109,7.462,38.075,38.075,0,0,0-3.07,4.055,9.441,9.441,0,0,0-2.1,4.218,10.652,10.652,0,0,0-.323,4.542c.162.811.323,1.46.485,2.109.323.811.646,1.622.969,2.271a30.95,30.95,0,0,0,5.332,8.435,31.6,31.6,0,0,0,7.594,6.326,31.936,31.936,0,0,0,9.209,3.569H158.2a68.437,68.437,0,0,0,14.864-2.758,75.7,75.7,0,0,0,14.056-5.84l3.231-1.947,3.231-2.109a31.362,31.362,0,0,0,5.17-5.191c2.908-4.055,5.332-8.6,5.655-13.626h0a.867.867,0,0,1,.808-.811.765.765,0,0,1,.808.811c.162,5.515-2.262,10.706-5.17,15.248a24.292,24.292,0,0,1-5.493,6l-3.231,2.271-3.393,2.109a71.848,71.848,0,0,1-14.541,6.326,67.777,67.777,0,0,1-7.755,1.947,62.025,62.025,0,0,1-7.917,1.135H158.2a39.9,39.9,0,0,1-10.34-3.893,30.071,30.071,0,0,1-8.563-7.137,35.2,35.2,0,0,1-5.816-9.408c-.323-.811-.646-1.622-.969-2.6a18.926,18.926,0,0,1-.646-2.92,18.881,18.881,0,0,1,.485-6,14.064,14.064,0,0,1,1.131-2.758,5.7,5.7,0,0,1,.808-1.3l.808-1.135c.969-1.46,2.1-2.92,3.231-4.38a56.325,56.325,0,0,1,7.594-7.624c5.332-4.7,10.986-9.084,17.611-11.841a.834.834,0,0,1,1.131.487c-.323.324-.485.811-.808.973Z" transform="translate(6.417 2.027)" fill="#24262d" fill-rule="evenodd"/>
      <path id="e68myr1w6sz698" d="M165.45,78.414c.485,3.244-4.685,9.895-12.279,11.03s-14.379-3.893-14.864-7.137,5.655-4.055,13.087-5.191C158.826,76.143,164.965,75.17,165.45,78.414Z" transform="translate(6.756 3.356)" fill="#24262d" fill-rule="evenodd"/>
      <path id="e68myr1w6sz699" d="M153.984,89.02a5.024,5.024,0,0,0,.162,1.46c0,.487.162,1.135.162,1.622a25.274,25.274,0,0,0,.646,3.406l.969,3.406a19.378,19.378,0,0,0,1.293,3.244h0c.162.487,0,.811-.485,1.135a.775.775,0,0,1-.969-.324,30.159,30.159,0,0,1-1.777-3.082c-.485-1.135-1.131-2.109-1.616-3.406a23.212,23.212,0,0,1-1.293-3.569l-.485-1.947a9.175,9.175,0,0,1,0-2.109,1.9,1.9,0,0,1,1.777-1.46,1.74,1.74,0,0,1,1.454,1.3Z" transform="translate(7.397 3.943)" fill="#24262d" fill-rule="evenodd"/>
      <path id="e68myr1w6sz6100" d="M160.561,106.767a12.428,12.428,0,0,0,2.908,2.92l.808.649.969.487a9.861,9.861,0,0,0,1.939.811,16.879,16.879,0,0,0,8.563.649,21.627,21.627,0,0,0,4.362-1.135,32.711,32.711,0,0,0,4.2-1.784c1.293-.811,2.747-1.46,4.039-2.109l3.878-2.433h0a.85.85,0,0,1,1.131.324,1,1,0,0,1-.162,1.135l-3.878,2.92c-1.293.973-2.747,1.784-4.039,2.6-1.454.811-2.908,1.46-4.362,2.109-1.616.487-3.07,1.135-4.685,1.46a19.768,19.768,0,0,1-10.179-.324,18.442,18.442,0,0,1-4.685-2.433,12.378,12.378,0,0,1-3.554-4.055,1.751,1.751,0,0,1,.485-2.271c.646-.649,1.616-.324,2.262.487Z" transform="translate(7.767 4.85)" fill="#24262d" fill-rule="evenodd"/>
      <path id="e68myr1w6sz6101" d="M142.3,81.675c.162.649,3.878,1.947,8.4,1.3s7.917-2.6,7.917-3.406c-.162-.649-3.878-.811-8.24-.324S142.3,81.026,142.3,81.675Z" transform="translate(6.967 3.501)" fill="#e1e8ea" fill-rule="evenodd" opacity="0.5"/>
      <path id="e68myr1w6sz6102" d="M136.315,54.356h-1.454a17.444,17.444,0,0,1-12.279-9.57,16.4,16.4,0,0,1-.323-14.275,14.832,14.832,0,0,1,10.825-8.759,17.659,17.659,0,0,1,15.187,4.218l.646.487a1.6,1.6,0,1,1-2.262,2.271l-.485-.487a14.766,14.766,0,0,0-12.279-3.406c-2.747.487-6.3,2.271-8.563,6.975a13.12,13.12,0,0,0,.323,11.517,14.829,14.829,0,0,0,9.855,7.786h.969a1.529,1.529,0,0,1,1.616,1.622A1.764,1.764,0,0,1,136.315,54.356Z" transform="translate(5.84 0.487)" fill="#24262d" fill-rule="evenodd"/>
    </g>
  </g>
</svg>
