<svg xmlns="http://www.w3.org/2000/svg" width="777.729" height="706.811" viewBox="0 0 777.729 706.811">
  <g id="Desktop-Copy-4" transform="translate(-0.157 -0.137)">
    <g id="Group-3" transform="translate(0.157 0.137)">
      <g id="total">
        <g id="background-copy-2">
          <g id="Bear">
            <g id="Hole" transform="translate(0 627.063)">
              <ellipse id="Oval" cx="232.418" cy="38.666" rx="232.418" ry="38.666" transform="translate(1.213 1.074)" fill="#44becc"/>
              <path id="Path" d="M46.96,62.72C89.291,53.187,157.1,47.146,233.541,47.146s144.25,6.176,186.581,15.574c28.715-6.444,45.836-14.365,45.836-23.092C465.959,18.281,361.883.962,233.541.962S1.123,18.281,1.123,39.628C1.123,48.22,18.11,56.275,46.96,62.72Z" transform="translate(0.09 0.112)" fill="#d9fbff" fill-rule="evenodd"/>
              <path id="Path-2" data-name="Path" d="M37.89,56.477A1.312,1.312,0,0,1,36.542,55.4a1.359,1.359,0,0,1,1.079-1.611C82.109,43.856,150.19,38.083,224.606,38.083c74.147,0,142.228,5.639,186.581,15.574,28.311-6.31,44.488-14.231,44.488-21.749a1.348,1.348,0,0,1,2.7,0c0,9.264-15.773,17.453-46.915,24.435h-.539c-43.679-9.8-113.243-15.574-186.312-15.574S81.84,46.542,38.295,56.342A1.047,1.047,0,0,1,37.89,56.477Z" transform="translate(9.159 7.698)" fill="#24262d" fill-rule="evenodd"/>
              <path id="Shape" d="M2.584,39.847c0,2.014,1.348,4.028,2.966,5.639a30.252,30.252,0,0,0,5.8,4.162,81.763,81.763,0,0,0,13.616,5.907,235.364,235.364,0,0,0,28.985,7.518c19.683,3.893,39.635,6.579,59.587,8.592,39.9,4.028,80.214,5.5,120.253,5.5,40.174,0,80.349-1.477,120.253-5.5a595.031,595.031,0,0,0,59.587-8.592,235.364,235.364,0,0,0,28.985-7.518,81.763,81.763,0,0,0,13.616-5.907,26.562,26.562,0,0,0,5.8-4.162c1.618-1.611,2.966-3.625,2.966-5.639a8.087,8.087,0,0,0-2.966-5.639,30.25,30.25,0,0,0-5.8-4.162,81.763,81.763,0,0,0-13.616-5.907,235.365,235.365,0,0,0-28.985-7.518c-19.683-4.028-39.635-6.579-59.587-8.727A1200.417,1200.417,0,0,0,233.654,2.255,1202.294,1202.294,0,0,0,113.266,7.894,595.431,595.431,0,0,0,53.678,16.62a235.365,235.365,0,0,0-28.985,7.518,81.763,81.763,0,0,0-13.616,5.907,26.563,26.563,0,0,0-5.8,4.162A8.306,8.306,0,0,0,2.584,39.847Zm-2.427,0a8.692,8.692,0,0,1,1.079-4.162A11.767,11.767,0,0,1,3.8,32.463,30.37,30.37,0,0,1,10.134,27.9a76.128,76.128,0,0,1,14.021-6.042A246.589,246.589,0,0,1,53.409,14.2a603.364,603.364,0,0,1,59.722-8.592c40.039-4.028,80.349-5.5,120.523-5.5s80.483,1.477,120.523,5.5c20.087,2.014,40.039,4.7,59.722,8.592a223.205,223.205,0,0,1,29.254,7.653A80.292,80.292,0,0,1,457.174,27.9a30.371,30.371,0,0,1,6.336,4.565,15.005,15.005,0,0,1,2.561,3.222,8.57,8.57,0,0,1,0,8.324,11.766,11.766,0,0,1-2.561,3.222,26.172,26.172,0,0,1-6.336,4.565,76.127,76.127,0,0,1-14.021,6.042A246.588,246.588,0,0,1,413.9,65.49c-19.818,4.028-39.77,6.579-59.722,8.727a1204.982,1204.982,0,0,1-120.523,5.639,1204.981,1204.981,0,0,1-120.523-5.639A592.392,592.392,0,0,1,53.409,65.49a246.589,246.589,0,0,1-29.254-7.653A80.293,80.293,0,0,1,10.134,51.8,30.37,30.37,0,0,1,3.8,47.231a15.005,15.005,0,0,1-2.561-3.222A8.692,8.692,0,0,1,.157,39.847Z" transform="translate(-0.157 -0.107)" fill="#24262d"/>
            </g>
            <g id="Group" transform="translate(159.001)">
              <ellipse id="Oval-2" data-name="Oval" cx="169.044" cy="23.667" rx="169.044" ry="23.667" transform="translate(280.641 560.045)" fill="#a2dee5"/>
              <path id="Path-3" data-name="Path" d="M322.828,267.575s-3.1.4-4.307,5.648c0,0,5.653,6.589,1.75,13.044,0,0,8.21,7.4,4.307,13.447,0,0-5.249,6.051-9.96,6.589,0,0-5.249,34.425-8.748,45.183l-1.346,5.648s-1.75,6.993,4.845,9.144c0,0,7.4,1.748,9.96-6.589l12.248-58.5,1.211-19.1C332.653,282.1,334.538,260.582,322.828,267.575Z" transform="translate(77.193 68.034)" fill="#996d0b" fill-rule="evenodd"/>
              <path id="Path-4" data-name="Path" d="M401.025,207.254c7-13.851-9.96-28.239-21.8-18.288-10.767,9.01-3.1,28.1,11.44,26.222C395.238,214.65,399.006,211.423,401.025,207.254Z" transform="translate(95.093 47.402)" fill="#fff" fill-rule="evenodd"/>
              <path id="Shape-2" data-name="Shape" d="M389.044,216.956a15.7,15.7,0,0,1-14.4-9.682c-2.557-5.648-2.288-13.851,4.038-19.1,5.653-4.841,13.19-4.841,19.246-.134,5.249,4.169,8.748,11.968,4.576,20.037-2.423,4.841-6.729,8.068-11.305,8.606A5.583,5.583,0,0,1,389.044,216.956Zm-.808-29.584a11.311,11.311,0,0,0-7.672,2.958c-5.249,4.3-5.384,11.161-3.23,15.868,2.019,4.438,6.595,8.875,13.728,7.934a12.92,12.92,0,0,0,9.287-7.127,13.215,13.215,0,0,0-3.9-16.675A13.59,13.59,0,0,0,388.237,187.372Z" transform="translate(94.826 47.113)" fill="#24262d"/>
              <path id="Path-5" data-name="Path" d="M338.2,389.749s-42.4,11.7-64.2,45.183c0,0-7.806-15.733-17.362-8.741,0,0-6.191-11.161-15.074-1.614,0,0-7.268-3.362-10.633,8.068,0,0-7.268,28.643,12.113,47.6a22.351,22.351,0,0,0,10.094,2.555s38.089.807,45.087-1.076c0,0,.538-9.817,11.44-9.817a17.083,17.083,0,0,1,14-6.455s7.268-32.812,12.651-41.418C336.454,424.039,331.071,403.868,338.2,389.749Z" transform="translate(58.049 99.698)" fill="#fff" fill-rule="evenodd"/>
              <path id="Path-6" data-name="Path" d="M421.225,403.87s-39.3-22.995-77.119-12.372c0,0-30.013,26.088-33.378,74.229,0,0-9.825.807-13.728,5.379,0,0-11.709.269-12.651,8.741,0,0-.942,7.262,6.46,9.01,1.077.269,4.441,6.455,15.478,3.362a146.387,146.387,0,0,1,25.3,5.917c.808.269,18.573,0,26.649-6.993a29.163,29.163,0,0,0,1.615-5.648s4.711-30.794,28.4-37.249C388.385,448.38,432.934,449.187,421.225,403.87Z" transform="translate(72.067 99.428)" fill="#fff" fill-rule="evenodd"/>
              <path id="Path-7" data-name="Path" d="M318.871,475.582s-12.786-32.274,29.744-78.936c0,0-20.054-16.944-25.168-29.45,0,0-17.9-1.21-23.149-11.565,0,0-4.845-10.892.269-14.927,0,0-2.692-11.834,3.1-13.985,0,0,21.8,3.093,29.475-5.782l1.211-19.1s6.056,3.093,8.748-.269c0,0,21.4,27.7,47.779,30.66,0,0,9.69-34.963,7.133-61.992,0,0-16.42-12.775-11.575-26.088l8.479-9.413s-4.307-41.552,47.106-44.914c0-.134,27.725-6.724,49.26,12.1,0,0,12.517-18.154,25.841-6.32,0,0,14,17.347-8.21,27.029,0,0,20.054,36.442,8.21,116.185,0,0,23.419,32.812,1.884,79.2,0,0,16.958,86.735-37.954,117.126,0,0-32.436,24.878-75.908,8.2,0,0-38.223-4.841-46.164-14.927C358.844,528.7,319.544,512.965,318.871,475.582Z" transform="translate(75.632 48.155)" fill="#fff" fill-rule="evenodd"/>
              <path id="Path-8" data-name="Path" d="M249.067,426.123a14.442,14.442,0,0,1,5.518-6.186,9.484,9.484,0,0,0-5.787-5.782c-3.23-1.076-8.075-.672-4.845,2.824C246.644,419.937,249.067,421.686,249.067,426.123Z" transform="translate(61.453 105.817)" fill="#e1e8ea" fill-rule="evenodd"/>
              <path id="Path-9" data-name="Path" d="M397.768,476.335h-.135c-22.073-2.421-37.147-6.589-50.471-14.12a1.385,1.385,0,1,1,1.346-2.42c12.921,7.262,27.725,11.43,49.529,13.851a1.351,1.351,0,1,1-.269,2.689Z" transform="translate(87.986 117.598)" fill="#24262d" fill-rule="evenodd"/>
              <path id="Path-10" data-name="Path" d="M314.707,435.776a1.31,1.31,0,0,1-1.346-1.076c-7-31.736,11.44-57.689,30.821-81.356a1.335,1.335,0,0,1,2.019,1.748c-18.977,23.264-37.012,48.545-30.283,79.07a1.361,1.361,0,0,1-1.077,1.614Z" transform="translate(79.123 90.247)" fill="#24262d" fill-rule="evenodd"/>
              <path id="Path-11" data-name="Path" d="M362.922,340.867a1.009,1.009,0,0,1-.673-.134,1.322,1.322,0,0,1-.4-1.883,122.442,122.442,0,0,0,11.44-24.071c5.922-16.944,8.21-36.308,7.133-60.917a1.346,1.346,0,0,1,2.692,0c1.077,25.012-1.211,44.645-7.268,61.858a131.927,131.927,0,0,1-11.709,24.609A1.312,1.312,0,0,1,362.922,340.867Z" transform="translate(91.877 64.534)" fill="#24262d" fill-rule="evenodd"/>
              <path id="Path-12" data-name="Path" d="M375.584,236.02a1.348,1.348,0,0,1-1.346-1.345c-.269-7.262.269-18.019,6.729-26.76,13.728-18.423,39.435-20.978,58.681-19.9a59.679,59.679,0,0,1,33.916,13.313,1.335,1.335,0,1,1-1.75,2.017,57.435,57.435,0,0,0-32.3-12.775c-18.573-1.076-43.472,1.345-56.393,18.826-4.576,6.186-6.595,14.12-6.191,25.012a1.506,1.506,0,0,1-1.346,1.614Z" transform="translate(95.097 47.951)" fill="#24262d" fill-rule="evenodd"/>
              <path id="Path-13" data-name="Path" d="M414.9,543.209A1.431,1.431,0,0,1,413.55,542a1.336,1.336,0,0,1,1.211-1.479c40.107-4.975,69.313-35.366,74.293-77.457,2.019-17.213.673-34.829-.942-51.234a1.7,1.7,0,0,1,.135-.807c.269-.4,20.458-39.67-1.346-78.129a1.7,1.7,0,0,1-.135-.807c.269-3.5.538-6.993.807-10.354,1.75-21.381,3.365-39.67,1.211-59.706-1.75-16.809-3.768-30.794-11.575-45.721a1.294,1.294,0,0,1,2.288-1.21c7.941,15.33,10.094,30.257,11.844,46.662,2.153,20.306.538,38.728-1.211,60.244-.269,3.227-.538,6.589-.807,9.951,21,37.518,3.5,75.709,1.346,79.877,1.75,16.54,2.961,34.291.942,51.5-5.114,43.3-35.262,74.633-76.716,79.877Z" transform="translate(105.179 54.758)" fill="#24262d" fill-rule="evenodd"/>
              <path id="Path-14" data-name="Path" d="M424.995,483.712c-51.682,0-69.852-34.291-70.121-34.694a1.294,1.294,0,0,1,2.288-1.21c.135.4,18.708,35.232,72.274,33.08a1.345,1.345,0,1,1,0,2.69C428.09,483.712,426.475,483.712,424.995,483.712Z" transform="translate(90.1 114.388)" fill="#24262d" fill-rule="evenodd"/>
              <path id="Path-15" data-name="Path" d="M264.894,436.3a1.913,1.913,0,0,1-.808-.269,1.445,1.445,0,0,1-.269-1.883c20.054-26.895,46.7-39.939,65.545-45.99a1.362,1.362,0,1,1,.942,2.555c-18.439,6.051-44.549,18.692-64.2,45.049A2.42,2.42,0,0,1,264.894,436.3Z" transform="translate(66.756 99.269)" fill="#24262d" fill-rule="evenodd"/>
              <path id="Path-16" data-name="Path" d="M246.862,429.21a11.4,11.4,0,0,1,.942-6.32,10,10,0,0,1,1.75-2.824,7.813,7.813,0,0,1,2.557-2.152,10.657,10.657,0,0,1,6.46-2.152,9.835,9.835,0,0,1,6.326,2.824c3.23,3.227,4.711,7.262,5.922,11.161a26.962,26.962,0,0,1,.673,12.237c-.135.4-.4.672-.808.538a.579.579,0,0,1-.538-.538,107.332,107.332,0,0,0-2.288-11.43,30.311,30.311,0,0,0-2.019-5.244,17.466,17.466,0,0,0-3.1-4.438,6.973,6.973,0,0,0-4.307-2.152,7.812,7.812,0,0,0-4.711,1.479c-3.1,1.883-4.441,5.379-5.384,9.144a.738.738,0,0,1-.808.538C247.131,429.748,246.862,429.479,246.862,429.21Z" transform="translate(62.446 106.361)" fill="#24262d" fill-rule="evenodd"/>
              <path id="Path-17" data-name="Path" d="M237.679,428.305a9.582,9.582,0,0,1-.808-7.934,11.011,11.011,0,0,1,5.249-6.32,10.589,10.589,0,0,1,8.345-.4,11.354,11.354,0,0,1,6.191,5.244,1.36,1.36,0,0,1-.538,1.883,1.282,1.282,0,0,1-1.75-.4,10.168,10.168,0,0,0-4.98-3.9,7.874,7.874,0,0,0-6.056.269,8.009,8.009,0,0,0-4.038,4.572,12.967,12.967,0,0,0-.538,6.455.737.737,0,0,1-.538.807A1.021,1.021,0,0,1,237.679,428.305Z" transform="translate(59.786 105.652)" fill="#24262d" fill-rule="evenodd"/>
              <path id="Path-18" data-name="Path" d="M272.593,478.222a218.513,218.513,0,0,1-23.688-1.076,13,13,0,0,1-8.748-4.975c-10.767-13.985-14.536-32-9.96-47.066a14.036,14.036,0,0,1,3.23-6.051,7.139,7.139,0,0,1,7-2.286,1.321,1.321,0,1,1-.673,2.555,4.7,4.7,0,0,0-4.441,1.614,11.747,11.747,0,0,0-2.557,4.976c-4.441,14.12-.808,31.2,9.556,44.645a9.985,9.985,0,0,0,6.864,3.9c7.941.807,25.034,1.883,49.933,0a1.577,1.577,0,0,1,1.48,1.21,1.463,1.463,0,0,1-1.211,1.479C289.012,477.953,280.13,478.222,272.593,478.222Z" transform="translate(57.712 106.566)" fill="#24262d" fill-rule="evenodd"/>
              <g id="Path-19" data-name="Path" transform="translate(355.322 486.812)">
                <path id="Path_641" data-name="Path 641" d="M133.116,17.577a70.845,70.845,0,0,0-9.017-4.572c-3.1-1.479-6.326-2.555-9.421-3.765a110.745,110.745,0,0,0-19.65-4.976,101.824,101.824,0,0,0-20.188-1.21l-5.114.4a26.314,26.314,0,0,0-4.845.672A31.27,31.27,0,0,0,55.861,7.9a28.35,28.35,0,0,0-7.268,6.589,90.566,90.566,0,0,0-5.653,8.337A128.19,128.19,0,0,0,33.923,41.11,172.452,172.452,0,0,0,23.56,80.377a1.294,1.294,0,0,1-2.557-.4A171.662,171.662,0,0,1,31.635,40.034a131.992,131.992,0,0,1,9.152-18.557c1.75-2.958,3.634-5.782,5.787-8.741a30.839,30.839,0,0,1,7.941-7.127,31.849,31.849,0,0,1,9.825-4.169A35.413,35.413,0,0,1,69.59.634l5.249-.4A97.126,97.126,0,0,1,95.565,1.575a94.321,94.321,0,0,1,20.054,5.513,88.853,88.853,0,0,1,18.439,9.548c.269.269.4.672.135.941A1.476,1.476,0,0,1,133.116,17.577Z" transform="translate(4.585 -0.151)" fill="#24262d" fill-rule="evenodd"/>
                <path id="Path_642" data-name="Path 642" d="M98.954,55.437a33.372,33.372,0,0,0-8.614,5.782,47.518,47.518,0,0,0-6.864,7.8,63.021,63.021,0,0,0-8.748,19.1v-.134a8.632,8.632,0,0,1-4.711,6.051c-.269.134-.673.269-.942.4l-.808.269a7.593,7.593,0,0,0-1.615.538l-3.23.807A72.769,72.769,0,0,1,50.367,97.93a85.847,85.847,0,0,1-26.245-2.555h-.135a17.46,17.46,0,0,1-5.922-3.9,13.092,13.092,0,0,1-2.019-3.227,7.609,7.609,0,0,1-.269-3.9,9.8,9.8,0,0,1,1.211-3.5,9.206,9.206,0,0,1,2.288-2.824,8.769,8.769,0,0,1,6.729-2.017.721.721,0,0,1,.673.672.579.579,0,0,1-.538.538h-.135a9.512,9.512,0,0,0-4.98,2.689A8.342,8.342,0,0,0,18.6,84.752a5.676,5.676,0,0,0,1.615,4.707,13.654,13.654,0,0,0,4.711,3.093H24.8a80.111,80.111,0,0,0,25.3,2.286,79.757,79.757,0,0,0,12.651-1.883c1.077-.269,2.019-.538,3.1-.807.538-.134,1.077-.269,1.48-.4l.808-.269c.269-.134.4-.134.673-.269a5.452,5.452,0,0,0,3.1-3.765v-.134a74.154,74.154,0,0,1,3.9-10.354A60.808,60.808,0,0,1,81.322,67.4a43.7,43.7,0,0,1,7.537-8.2,27.786,27.786,0,0,1,9.825-5.244c.4-.134.673.134.808.538C99.492,55.033,99.357,55.3,98.954,55.437Z" transform="translate(3.215 13.628)" fill="#24262d" fill-rule="evenodd"/>
                <path id="Path_643" data-name="Path 643" d="M24.1,89.162a22.86,22.86,0,0,1-9.556.134,15.062,15.062,0,0,1-4.711-1.614,8.906,8.906,0,0,1-3.768-3.631,10.041,10.041,0,0,1-.808-5.244A12.527,12.527,0,0,1,7.009,74.1a9.028,9.028,0,0,1,3.768-3.362,9.784,9.784,0,0,1,4.845-.941.721.721,0,0,1,.673.672.579.579,0,0,1-.538.538h-.135a9.442,9.442,0,0,0-3.768,1.614A8.448,8.448,0,0,0,9.3,75.446a8.93,8.93,0,0,0-1.211,3.631,6.034,6.034,0,0,0,.538,3.5c1.211,2.017,3.768,3.227,6.46,3.765a22.476,22.476,0,0,0,8.479,0,1.261,1.261,0,0,1,1.48,1.076C25.178,88.356,24.774,89.028,24.1,89.162Z" transform="translate(0.544 17.689)" fill="#24262d" fill-rule="evenodd"/>
                <path id="Path_644" data-name="Path 644" d="M7.375,86.859A1.029,1.029,0,0,1,6.7,86.59C2.934,84.17.781,81.077.646,77.984c-.135-1.883.538-4.572,4.172-7.262a17.239,17.239,0,0,1,8.075-3.093c1.48-1.345,7.268-6.186,14.939-6.186a1.345,1.345,0,1,1,0,2.689c-7.672,0-13.324,5.648-13.324,5.782a1.164,1.164,0,0,1-.808.4,15.2,15.2,0,0,0-7.268,2.689c-2.153,1.614-3.1,3.227-3.1,4.976.135,2.152,1.884,4.438,4.845,6.32a1.322,1.322,0,0,1,.4,1.883A1.861,1.861,0,0,1,7.375,86.859Z" transform="translate(-0.63 15.555)" fill="#24262d" fill-rule="evenodd"/>
              </g>
              <ellipse id="Oval-3" data-name="Oval" cx="4.576" cy="9.816" rx="4.576" ry="9.816" transform="matrix(0.995, -0.1, 0.1, 0.995, 298.619, 553.4)" fill="#24262d"/>
              <ellipse id="Oval-4" data-name="Oval" cx="2.153" cy="4.572" rx="2.153" ry="4.572" transform="matrix(0.995, -0.1, 0.1, 0.995, 315.559, 532.693)" fill="#24262d"/>
              <ellipse id="Oval-5" data-name="Oval" cx="2.153" cy="4.572" rx="2.153" ry="4.572" transform="matrix(0.995, -0.1, 0.1, 0.995, 301.288, 529.996)" fill="#24262d"/>
              <ellipse id="Oval-6" data-name="Oval" cx="2.153" cy="4.572" rx="2.153" ry="4.572" transform="matrix(0.995, -0.1, 0.1, 0.995, 291.875, 533.085)" fill="#24262d"/>
              <path id="Path-20" data-name="Path" d="M314.331,251.084,293.2,281.609a1.96,1.96,0,0,1-1.211.807h-.269l-20.054,5.11a4.093,4.093,0,1,1-2.019-7.934c.269,0,.538-.134.808-.134l20.727-1.21-1.346.807,21.13-30.525a1.994,1.994,0,0,1,2.826-.538A2.222,2.222,0,0,1,314.331,251.084Z" transform="translate(67.521 63.278)" fill="#24262d" fill-rule="evenodd"/>
              <path id="Path-21" data-name="Path" d="M228.339,1c11.44,10.758,21.534,22.592,31.225,34.829a442.531,442.531,0,0,1,26.649,38.325A442.95,442.95,0,0,1,326.589,158.2l1.884,5.513c.673,1.883,1.346,3.631,1.884,5.513l3.5,11.161c1.077,3.765,2.153,7.531,3.1,11.3l1.48,5.648,1.346,5.648a445.606,445.606,0,0,1,8.479,45.99,481.82,481.82,0,0,1,2.557,93.459,4.655,4.655,0,0,1-9.287-.672h0a464.046,464.046,0,0,0-1.346-91.711c-2.019-15.2-4.307-30.391-7.806-45.318l-1.211-5.648-1.48-5.513c-.942-3.765-1.884-7.4-2.961-11.161l-3.365-11.027c-.538-1.883-1.077-3.631-1.75-5.513l-1.884-5.513a426.53,426.53,0,0,0-38.762-83.374,431.893,431.893,0,0,0-25.841-38.19c-4.711-6.051-9.421-12.1-14.536-17.885-4.98-5.782-10.229-11.43-15.747-16.675l-.135-.134a2.486,2.486,0,0,1-.135-3.362C225.917.19,227.4.056,228.339,1Z" transform="translate(56.609 -0.093)" fill="#24262d" fill-rule="evenodd"/>
              <path id="Path-22" data-name="Path" d="M334.8,302.125a1.348,1.348,0,0,1-1.346-1.345A440.7,440.7,0,0,0,274.368,86.026C245.835,36.943,217.3,10.048,217.033,9.779A1.332,1.332,0,0,1,218.918,7.9c.269.269,29.071,27.433,57.873,76.784a441.9,441.9,0,0,1,59.488,216.1,1.581,1.581,0,0,1-1.48,1.345Z" transform="translate(54.725 1.748)" fill="#24262d" fill-rule="evenodd"/>
              <g id="Group_1006" data-name="Group 1006" transform="translate(357.626 300.78)">
                <g id="Group_1004" data-name="Group 1004" transform="translate(0 0)">
                  <ellipse id="Oval-7" data-name="Oval" cx="16.42" cy="18.826" rx="16.42" ry="18.826" transform="translate(1.346 1.345)" fill="#a8bcc1"/>
                  <path id="Shape-3" data-name="Shape" d="M18.087,40.391C8.262,40.391.321,31.381.321,20.22S8.262.049,18.087.049,35.853,9.058,35.853,20.22,27.912,40.391,18.087,40.391Zm0-37.653c-8.345,0-15.074,7.8-15.074,17.482S9.743,37.7,18.087,37.7,33.161,29.9,33.161,20.22,26.432,2.738,18.087,2.738Z" transform="translate(-0.321 -0.049)" fill="#24262d"/>
                </g>
                <g id="Group_1005" data-name="Group 1005" transform="translate(11.978 13.716)">
                  <ellipse id="Oval-8" data-name="Oval" cx="4.441" cy="5.11" rx="4.441" ry="5.11" transform="translate(1.346 1.345)" fill="#fff"/>
                  <path id="Shape-4" data-name="Shape" d="M6,12.909c-3.23,0-5.787-2.824-5.787-6.455S2.771,0,6,0s5.787,2.824,5.787,6.455S9.1,12.909,6,12.909ZM6,2.824c-1.75,0-3.1,1.614-3.1,3.765S4.252,10.354,6,10.354,9.1,8.741,9.1,6.589,7.617,2.824,6,2.824Z" transform="translate(-0.214)" fill="#24262d"/>
                </g>
              </g>
              <path id="Path-23" data-name="Path" d="M311.743,352.58a13.272,13.272,0,0,1-2.288-.269,8.655,8.655,0,0,1-6.191-10.758c.538-2.152,1.077-3.9,1.615-5.648.673-2.286,1.346-4.3,1.884-6.858a1.322,1.322,0,0,1,2.557.672c-.673,2.555-1.211,4.707-1.884,6.993-.538,1.748-1.077,3.5-1.615,5.513a6.277,6.277,0,0,0,4.307,7.531,6.761,6.761,0,0,0,1.615.269,6.062,6.062,0,0,0,5.922-4.572c1.211-4.572,2.423-9.144,3.365-13.582a1.322,1.322,0,0,1,2.557.672c-1.077,4.438-2.153,9.01-3.5,13.582A8.643,8.643,0,0,1,311.743,352.58Z" transform="translate(76.838 83.884)" fill="#24262d" fill-rule="evenodd"/>
              <path id="Path-24" data-name="Path" d="M312.661,309.691h-.135a1.333,1.333,0,0,1-1.077-1.479c1.615-10.623,2.692-21.247,3.768-34.56a8.774,8.774,0,0,1,17.5,1.345c-.808,10.758-1.75,19.768-2.961,28.508a1.353,1.353,0,0,1-2.692-.269c1.077-8.606,2.019-17.616,2.961-28.374a6.142,6.142,0,0,0-12.248-.941c-1.077,13.447-2.288,24.071-3.768,34.829A1.337,1.337,0,0,1,312.661,309.691Z" transform="translate(79.016 67.874)" fill="#24262d" fill-rule="evenodd"/>
              <path id="Path-25" data-name="Path" d="M450.937,205.324a15.033,15.033,0,0,1,3.768-9.01,17.552,17.552,0,0,1,8.345-5.513,17.215,17.215,0,0,1,10.094,0,15.688,15.688,0,0,1,8.21,5.917,16.628,16.628,0,0,1,2.826,9.682,12.585,12.585,0,0,1-.942,4.976,11.916,11.916,0,0,1-1.077,2.286,18.835,18.835,0,0,1-1.346,2.152,17.786,17.786,0,0,1-3.365,3.765A14.3,14.3,0,0,1,473.009,222a25.242,25.242,0,0,1-9.287,1.748.635.635,0,0,1-.673-.672.739.739,0,0,1,.4-.672c2.826-1.479,5.922-2.152,8.614-3.093a12.367,12.367,0,0,0,3.634-2.152,20.271,20.271,0,0,0,2.826-3.093,8.572,8.572,0,0,0,1.077-1.883,11.335,11.335,0,0,0,.808-1.883,14.074,14.074,0,0,0,.673-4.034,13.8,13.8,0,0,0-2.423-7.934,12.218,12.218,0,0,0-6.46-4.841,14.686,14.686,0,0,0-8.344,0,16.28,16.28,0,0,0-7.133,4.572,34.167,34.167,0,0,0-4.576,7.4.578.578,0,0,1-.942.269C451.071,205.727,450.937,205.593,450.937,205.324Z" transform="translate(114.764 48.525)" fill="#24262d" fill-rule="evenodd"/>
              <path id="Path-26" data-name="Path" d="M455.934,403.487a102.374,102.374,0,0,1-19.246,1.614,131,131,0,0,1-19.246-1.345A143.449,143.449,0,0,1,380.295,393a136.151,136.151,0,0,1-32.57-20.978A149.529,149.529,0,0,1,322.556,342.7l1.077.672A37.308,37.308,0,0,1,312.6,341.36a26.035,26.035,0,0,1-9.825-5.782,20.715,20.715,0,0,1-5.518-10.086,21.668,21.668,0,0,1-.135-5.917,8.951,8.951,0,0,1,2.692-5.513l-.269,1.479a14.978,14.978,0,0,1,.673-12.641,11.319,11.319,0,0,1,2.961-3.227,1.118,1.118,0,0,1,1.077-.269h.135a68.065,68.065,0,0,0,7.537,1.614,48.791,48.791,0,0,0,7.672.269,22.137,22.137,0,0,0,7.268-1.748,13.976,13.976,0,0,0,5.384-4.707l-.135.538.673-5.782a1.464,1.464,0,0,1,1.48-1.21h.135a22.649,22.649,0,0,1,5.249,2.152,16.449,16.449,0,0,1,4.441,3.631,13,13,0,0,1,2.692,5.244,13.964,13.964,0,0,1,.135,5.782l-.135-.807a40.678,40.678,0,0,0,4.172,5.648,61.093,61.093,0,0,0,5.114,5.11,70.951,70.951,0,0,0,11.575,8.472,87.288,87.288,0,0,0,27.052,9.951,130.063,130.063,0,0,0,28.937,2.286c2.423,0,4.845-.269,7.268-.4l7.268-.672,7.268-.941,7.268-1.21a.686.686,0,1,1,.269,1.345,177.69,177.69,0,0,1-29.206,4.169c-4.98.134-9.825.269-14.8,0-2.423-.134-4.98-.4-7.4-.672-1.211-.134-2.423-.4-3.634-.538a34.465,34.465,0,0,1-3.634-.672,90.258,90.258,0,0,1-27.86-10.22,71.162,71.162,0,0,1-12.113-8.741,49.557,49.557,0,0,1-5.249-5.379,42.653,42.653,0,0,1-4.441-6.186,1.461,1.461,0,0,1-.135-.672v-.134a13.731,13.731,0,0,0-.135-4.707,10.308,10.308,0,0,0-2.153-4.169,14.054,14.054,0,0,0-3.768-3.093,17.25,17.25,0,0,0-4.576-1.883l1.615-1.21-.673,5.782c0,.134-.135.4-.135.538a15.466,15.466,0,0,1-6.46,5.782,21.692,21.692,0,0,1-8.21,2.017,33.375,33.375,0,0,1-8.21-.269,57.21,57.21,0,0,1-8.075-1.614l1.211-.269a10.391,10.391,0,0,0-2.288,2.555,8.465,8.465,0,0,0-1.211,3.227,15.222,15.222,0,0,0-.135,3.5,14.726,14.726,0,0,0,.808,3.5,1.866,1.866,0,0,1-.269,1.479c-2.019,2.152-2.423,5.782-1.884,9.01a17.449,17.449,0,0,0,4.711,8.741,22.109,22.109,0,0,0,8.748,5.11,38.129,38.129,0,0,0,10.229,1.883,1.373,1.373,0,0,1,1.077.672,144.312,144.312,0,0,0,24.9,28.643,129.947,129.947,0,0,0,31.763,20.574,137.794,137.794,0,0,0,36.339,10.758,150.832,150.832,0,0,0,18.977,1.748c3.23.134,6.326.134,9.556,0s6.326-.269,9.421-.672a.909.909,0,0,1,.807.538A.6.6,0,0,1,455.934,403.487Z" transform="translate(75.312 73.722)" fill="#24262d" fill-rule="evenodd"/>
              <path id="Path-27" data-name="Path" d="M304.664,305.123s-9.017-2.689-7.941-14.792c0,0-5.922-11.968,3.23-18.019,1.615-1.076,21.265-6.32,23.822,5.782,0,0,2.153,5.782-2.692,8.472,0,0,9.556,2.69,5.787,12.237C326.871,298.8,323.776,306.2,304.664,305.123Z" transform="translate(74.765 69.079)" fill="#fff" fill-rule="evenodd"/>
              <path id="Path-28" data-name="Path" d="M306.307,270.875c-.538.134,8.748,7.665,3.365,20.171,0,0,7.806,2.555,4.711,13.447,0,0,7.941-.807,9.69-5.648,0,0,4.711-5.11-5.384-12.641,0,0,3.768-4.3.4-11.43C318.959,274.775,312.633,269.4,306.307,270.875Z" transform="translate(77.698 69.171)" fill="#e1e8ea" fill-rule="evenodd"/>
              <path id="Shape-5" data-name="Shape" d="M308.456,306.878a32.822,32.822,0,0,1-3.634-.134h-.269c-.135,0-9.825-3.093-9.017-15.868-2.153-4.707-3.9-14.254,3.768-19.364,1.346-.941,11.978-4.034,19.381-1.076a10.542,10.542,0,0,1,6.595,7.665c.673,2.017,1.077,5.782-1.346,8.472a10.975,10.975,0,0,1,4.576,4.438c1.211,2.421,1.211,5.379,0,8.606C328.241,299.885,325.145,306.878,308.456,306.878Zm-3.365-2.689c17.5.941,20.727-5.513,20.861-5.648a7.954,7.954,0,0,0,.135-6.32c-1.48-2.958-5.114-4.034-5.114-4.034a1.141,1.141,0,0,1-.942-1.076,1.655,1.655,0,0,1,.673-1.345c3.768-2.017,2.153-6.589,2.019-6.858v-.134a7.462,7.462,0,0,0-4.711-5.648c-6.326-2.689-16.285.134-17.093.672-7.941,5.379-2.961,15.868-2.692,16.271a1.212,1.212,0,0,1,.135.672C297.42,300.961,304.015,303.785,305.092,304.188Z" transform="translate(74.472 68.804)" fill="#24262d"/>
              <path id="Path-29" data-name="Path" d="M304.35,289.923c-4.576,0-9.421-1.21-10.363-6.993a1.475,1.475,0,0,1,1.077-1.614,1.4,1.4,0,0,1,1.615,1.076c.942,5.11,6.057,5.11,12.651,4.438H310a21.617,21.617,0,0,0,10.633-4.169,1.362,1.362,0,1,1,1.48,2.286,24.777,24.777,0,0,1-11.844,4.707H309.6C307.983,289.789,306.234,289.923,304.35,289.923Z" transform="translate(74.541 71.908)" fill="#24262d" fill-rule="evenodd"/>
              <path id="Path-30" data-name="Path" d="M380.7,311.151h-.4c-31.494-8.472-46.164-30.929-46.837-31.87a1.362,1.362,0,0,1,2.288-1.479c.135.269,14.8,22.592,45.222,30.794a1.276,1.276,0,0,1,.942,1.614A1.293,1.293,0,0,1,380.7,311.151Z" transform="translate(84.602 70.851)" fill="#24262d" fill-rule="evenodd"/>
              <g id="Group_1007" data-name="Group 1007" transform="translate(366.374 300.242)">
                <ellipse id="Oval-9" data-name="Oval" cx="16.42" cy="18.826" rx="16.42" ry="18.826" transform="translate(1.346 1.345)" fill="#e1e8ea"/>
                <path id="Shape-6" data-name="Shape" d="M17.814,40.77C7.989,40.77.049,31.761.049,20.6S7.989.428,17.814.428,35.58,9.438,35.58,20.6,27.5,40.77,17.814,40.77Zm0-37.653c-8.345,0-15.074,7.8-15.074,17.482S9.47,38.081,17.814,38.081s15.074-7.8,15.074-17.482S26.024,3.118,17.814,3.118Z" transform="translate(-0.049 -0.428)" fill="#24262d"/>
              </g>
              <path id="Path-31" data-name="Path" d="M324.174,268.649c5.384-18.288,30.417-.134,13.055,13.985a8.767,8.767,0,0,1-12.517-2.017C322.828,277.793,322.828,272.952,324.174,268.649Z" transform="translate(82.038 66.691)" fill="#fff" fill-rule="evenodd"/>
              <path id="Path-32" data-name="Path" d="M332.023,260.974c4.845,4.034,6.864,12.1-1.884,19.23a8.3,8.3,0,0,1-4.98,1.748c2.961,2.824,8.21,3.362,11.44.672C348.846,272.808,340.233,260.84,332.023,260.974Z" transform="translate(82.534 66.7)" fill="#e1e8ea" fill-rule="evenodd"/>
              <path id="Shape-7" data-name="Shape" d="M332.25,285.992a7.682,7.682,0,0,1-1.75-.134,9.786,9.786,0,0,1-6.729-4.3c-2.288-3.5-1.75-9.01-.673-12.909h0c1.615-5.379,4.98-8.472,9.421-8.741a12.569,12.569,0,0,1,11.575,8.068c2.019,5.513,0,11.3-5.787,15.868A8.806,8.806,0,0,1,332.25,285.992Zm-6.595-16.675c-1.211,4.169-1.077,8.472.4,10.758a7.467,7.467,0,0,0,4.98,3.093,6.838,6.838,0,0,0,5.653-1.345c6.46-5.244,5.922-10.354,4.98-12.909-1.48-3.765-5.249-6.455-8.883-6.32C329.423,262.729,327,265.149,325.655,269.318Z" transform="translate(81.769 66.425)" fill="#24262d"/>
              <path id="Shape-8" data-name="Shape" d="M218.746,14.757a3.447,3.447,0,0,1-2.557-1.076,3.965,3.965,0,0,1-.808-3.9,11.6,11.6,0,0,1,2.961-4.438c2.423-2.421,8.614-6.858,10.9-4.572,2.288,2.421-2.288,8.472-4.711,10.892a12.7,12.7,0,0,1-4.441,2.958A4.582,4.582,0,0,1,218.746,14.757Zm8.479-11.968c-1.211.134-4.307,1.883-7,4.438a7.269,7.269,0,0,0-2.288,3.227c-.135.538-.135,1.076.135,1.21.269.269.673.269,1.211.134.673-.134,1.75-.672,3.365-2.286C225.341,7.092,227.09,4,227.225,2.789Z" transform="translate(54.358 -0.137)" fill="#24262d"/>
              <path id="Shape-9" data-name="Shape" d="M265.011,77.261a4.271,4.271,0,0,1-2.961-1.21c-1.615-1.748-1.75-5.11,2.826-9.279a29.1,29.1,0,0,1,6.46-4.438q4.441-2.219,6.056-.4c1.077,1.21.808,3.227-.942,6.051a26.525,26.525,0,0,1-4.98,6.051C268.914,76.454,266.626,77.261,265.011,77.261Zm1.75-8.606c-2.961,2.689-3.5,4.707-2.692,5.513.673.807,2.826.4,5.787-2.286,3.5-3.227,5.653-7.127,5.653-8.2C274.3,63.679,270.125,65.562,266.76,68.655Z" transform="translate(66.101 15.488)" fill="#24262d"/>
              <path id="Shape-10" data-name="Shape" d="M292.858,137.2a3.582,3.582,0,0,1-3.365-1.748c-1.211-1.883-.808-4.976,4.038-8.068h0a31.572,31.572,0,0,1,6.46-3.093c2.961-.941,4.845-.672,5.653.538,1.884,2.824-4.172,8.2-7.133,10.22a12.761,12.761,0,0,1-5.249,2.152Zm2.153-7.531c-2.961,1.883-3.768,3.631-3.23,4.438.269.4.673.538,1.346.4a8.5,8.5,0,0,0,3.9-1.614c3.365-2.152,5.922-5.244,6.191-6.32C302.144,126.439,298.376,127.514,295.011,129.666Z" transform="translate(73.247 31.531)" fill="#24262d"/>
              <path id="Shape-11" data-name="Shape" d="M310.6,216.058a3.981,3.981,0,0,1-3.634-6.186,12.4,12.4,0,0,1,4.441-4.3c3.365-2.152,11.305-5.782,13.324-2.689s-4.576,8.875-7.941,11.027C314.23,215.385,312.211,216.058,310.6,216.058Zm2.288-8.337a9.09,9.09,0,0,0-3.5,3.362,1.673,1.673,0,0,0-.135,1.748c.538.941,2.692.941,6.057-1.21,4.038-2.555,6.864-6.051,7.133-7.262C321.228,203.955,316.921,205.165,312.884,207.72Z" transform="translate(77.716 51.507)" fill="#24262d"/>
              <g id="Group_1008" data-name="Group 1008" transform="translate(378.353 313.958)">
                <ellipse id="Oval-10" data-name="Oval" cx="4.441" cy="5.11" rx="4.441" ry="5.11" transform="translate(1.346 1.345)" fill="#fff"/>
                <path id="Shape-12" data-name="Shape" d="M6.537,13.552C3.307,13.552.75,10.728.75,7.1S3.307.642,6.537.642,12.325,3.466,12.325,7.1,9.633,13.552,6.537,13.552Zm0-10.086c-1.75,0-3.1,1.614-3.1,3.765S4.788,11,6.537,11s3.1-1.614,3.1-3.765S8.152,3.466,6.537,3.466Z" transform="translate(-0.75 -0.642)" fill="#24262d"/>
              </g>
              <path id="Path-33" data-name="Path" d="M58.252,571.585a1.573,1.573,0,0,1-1.077-.668C2.532,468.442-12.542,371.308,12.088,282.184,38.871,185.551,108.453,116.121,162.02,74.731,220.027,30,272.517,7.8,273.056,7.638a1.338,1.338,0,0,1,1.75,1,1.885,1.885,0,0,1-.807,2.17c-.538.167-52.759,22.364-110.5,66.759C110.2,118.625,41.293,187.553,14.779,283.186-9.581,371.308,5.493,467.441,59.6,569.081a1.883,1.883,0,0,1-.4,2.337A6.227,6.227,0,0,0,58.252,571.585Z" transform="translate(-0.624 1.759)" fill="#24262d" fill-rule="evenodd"/>
              <g id="Path-34" data-name="Path" transform="translate(512.756 205.573)">
                <path id="Path_645" data-name="Path 645" d="M1.864,4.579l6.595,12.1a1.385,1.385,0,0,1-2.423,1.345v-.134L.653,5.252c-.135-.4,0-.672.4-.941C1.326,4.041,1.73,4.176,1.864,4.579Z" transform="translate(-0.603 1.069)" fill="#24262d" fill-rule="evenodd"/>
                <path id="Path_646" data-name="Path 646" d="M18.842.807l.135,16.944a1.346,1.346,0,0,1-2.692,0v-.134L17.5.672A.721.721,0,0,1,18.169,0,.852.852,0,0,1,18.842.807Z" transform="translate(3.416)" fill="#24262d" fill-rule="evenodd"/>
                <path id="Path_647" data-name="Path 647" d="M39.231,7.833l-9.287,11.3a1.335,1.335,0,0,1-2.019-1.748l.135-.134L38.289,6.892a.666.666,0,0,1,.942.941Z" transform="translate(6.311 1.714)" fill="#24262d" fill-rule="evenodd"/>
              </g>
              <path id="Path-35" data-name="Path" d="M395.377,215.148c-4.576,3.9-9.421,7.4-13.863,11.161-2.288,1.883-4.441,3.9-6.595,6.051l-1.615,1.614-.808.807c-.269.269-.4.538-.673.807a10.91,10.91,0,0,0-2.153,7.4,26.151,26.151,0,0,0,.942,4.169,31.409,31.409,0,0,0,3.5,7.8,28.825,28.825,0,0,0,12.921,10.758l-.4-.134a59.287,59.287,0,0,0,12.921,0,65.935,65.935,0,0,0,12.651-2.555c2.019-.672,4.038-1.345,6.056-2.152s3.9-1.883,5.787-2.824a63.811,63.811,0,0,0,10.767-7.4.665.665,0,0,1,.942.134.65.65,0,0,1,0,.941,53.657,53.657,0,0,1-10.5,8.472,59.411,59.411,0,0,1-12.248,5.648,74.373,74.373,0,0,1-13.19,2.824,57.456,57.456,0,0,1-13.593,0c-.135,0-.269,0-.269-.134a31,31,0,0,1-14.4-11.834,34.872,34.872,0,0,1-3.768-8.606,24.282,24.282,0,0,1-.942-4.707,12.342,12.342,0,0,1,.538-4.976,17.324,17.324,0,0,1,2.288-4.438c.269-.269.538-.672.808-.941l.807-.807,1.615-1.614c2.153-2.152,4.441-4.169,6.729-6.186,4.711-3.9,9.421-7.665,15.074-10.22a.773.773,0,0,1,.942.269C395.781,214.61,395.647,215.013,395.377,215.148Z" transform="translate(93.203 54.703)" fill="#24262d" fill-rule="evenodd"/>
              <path id="Path-36" data-name="Path" d="M397.841,236.6c-.135,2.958-5.922,8.068-12.786,7.8s-12.248-5.782-12.113-8.741,5.653-3.631,12.651-3.362C392.457,232.566,397.975,233.642,397.841,236.6Z" transform="translate(94.778 59.338)" fill="#24262d" fill-rule="evenodd"/>
              <path id="Path-37" data-name="Path" d="M383.267,242.6c0,.269-.135.807-.135,1.345v1.479a23.791,23.791,0,0,0,.135,3.093c.135,1.076.269,2.152.4,3.093.135,1.076.4,2.152.538,3.093.135.4-.135.672-.538.807-.269.134-.673-.134-.808-.4a28.151,28.151,0,0,1-1.077-3.093l-.808-3.227a25.079,25.079,0,0,1-.538-3.362v-1.748a4.9,4.9,0,0,1,.269-1.883,1.462,1.462,0,0,1,1.615-.941,1.294,1.294,0,0,1,.942,1.345Z" transform="translate(96.7 61.539)" fill="#24262d" fill-rule="evenodd"/>
              <path id="Path-38" data-name="Path" d="M385.666,256.58a9.212,9.212,0,0,0,2.153,3.093l.673.672.807.672a16.813,16.813,0,0,0,1.615,1.076,15.749,15.749,0,0,0,7.537,2.017,20.388,20.388,0,0,0,4.038-.269c1.346-.269,2.692-.538,4.038-.941s2.692-.807,4.038-1.345l3.9-1.614a.564.564,0,0,1,.808.4.646.646,0,0,1-.269.807l-3.9,1.883c-1.346.672-2.692,1.076-4.038,1.614-1.346.4-2.826.807-4.307,1.21-1.48.134-2.961.538-4.441.538a16,16,0,0,1-8.883-2.017,13,13,0,0,1-3.634-2.958,13.753,13.753,0,0,1-2.557-4.034,1.4,1.4,0,0,1,.808-1.748C384.59,255.37,385.263,255.773,385.666,256.58Z" transform="translate(97.396 65.312)" fill="#24262d" fill-rule="evenodd"/>
              <path id="Path-39" data-name="Path" d="M473.319,204.222a7.731,7.731,0,0,1-2.423,6.186,16.158,16.158,0,0,1-5.922,3.362c-7.806,2.555-12.248-3.5-7.537-9.951,1.884-2.689,4.441-5.782,7.941-5.782C468.877,197.767,472.915,200.591,473.319,204.222Z" transform="translate(115.934 50.569)" fill="#24262d" fill-rule="evenodd"/>
              <path id="Path-40" data-name="Path" d="M392.609,197.139a14.936,14.936,0,0,0-.942-2.152,7.154,7.154,0,0,0-3.23-3.093,5.6,5.6,0,0,0-2.961-.269c-7.672,1.076-6.326,9.144-3.768,13.985C381.438,205.208,391.667,197.677,392.609,197.139Z" transform="translate(96.51 48.91)" fill="#24262d" fill-rule="evenodd"/>
              <g id="Group_1009" data-name="Group 1009" transform="translate(479.684 258.484)">
                <path id="Path-41" data-name="Path" d="M.535,6.225C-.273,9.99.67,14.831,3.092,15.369s5.384-3.5,6.191-7.127c.808-3.765-.4-7.262-2.826-7.8S1.343,2.46.535,6.225Z" transform="translate(-0.252 -0.371)" fill="#24262d" fill-rule="evenodd"/>
                <ellipse id="Oval-11" data-name="Oval" cx="1.48" cy="1.479" rx="1.48" ry="1.479" transform="translate(1.763 3.03)" fill="#e1e8ea"/>
              </g>
              <g id="Group_1010" data-name="Group 1010" transform="translate(538.986 262.36)">
                <path id="Path-42" data-name="Path" d="M.39,7.064c-.942,4.3.135,9.951,2.826,10.489s6.057-4.034,7-8.337S9.676.878,6.985.341C4.293-.332,1.332,2.627.39,7.064Z" transform="translate(-0.055 -0.245)" fill="#24262d" fill-rule="evenodd"/>
                <ellipse id="Oval-12" data-name="Oval" cx="1.48" cy="1.479" rx="1.48" ry="1.479" transform="translate(2.623 3.86)" fill="#e1e8ea"/>
              </g>
              <path id="Path-43" data-name="Path" d="M430.421,198.494a7.578,7.578,0,0,1,3.5-2.286,7.14,7.14,0,0,1,4.441-.269,7.965,7.965,0,0,1,3.768,2.421,13.649,13.649,0,0,1,1.211,1.748,10.534,10.534,0,0,1,.673,1.883.653.653,0,0,1-.4.807.592.592,0,0,1-.673-.134l-.135-.134c-.4-.4-.808-.941-1.211-1.345l-1.211-1.21c-.269-.134-.4-.4-.673-.538s-.4-.269-.673-.4-.4-.269-.673-.4-.4-.269-.673-.269a7.9,7.9,0,0,0-3.1-.134,32.5,32.5,0,0,0-3.365,1.076h-.135a.7.7,0,0,1-.942-.4C430.152,199.032,430.152,198.629,430.421,198.494Z" transform="translate(109.438 49.976)" fill="#24262d" fill-rule="evenodd"/>
              <path id="Path-44" data-name="Path" d="M387,198.409a7.78,7.78,0,0,1,3.1-2.421,5.581,5.581,0,0,1,4.172-.134,7.62,7.62,0,0,1,3.23,2.555,7.243,7.243,0,0,1,.942,1.748c.135.538.4,1.21.538,1.748.135.4-.135.672-.538.807-.269,0-.538,0-.673-.269-.4-.4-.673-.941-1.077-1.345l-1.077-1.21a8.841,8.841,0,0,0-2.288-1.614,5.4,5.4,0,0,0-2.557-.134,17.589,17.589,0,0,0-2.826,1.076h-.135a.833.833,0,0,1-.942-.269A1.339,1.339,0,0,1,387,198.409Z" transform="translate(98.347 49.926)" fill="#24262d" fill-rule="evenodd"/>
            </g>
            <g id="Drops" transform="translate(147.214 631.928)">
              <g id="Group-2" data-name="Group" transform="translate(0 6.121)">
                <path id="Path-45" data-name="Path" d="M8.982,1.667C6.15,1,2.373,1.264,1.429,3.95c-.674,2.015.809,4.3,2.7,5.1a9.349,9.349,0,0,0,6.339-.134,15.38,15.38,0,0,1,3.372-.806c1.753,0,3.507.537,5.26.672C19.5,5.025,12.084,2.473,8.982,1.667Z" transform="translate(0.156 -0.049)" fill="#52b3c4" fill-rule="evenodd"/>
                <path id="Shape-13" data-name="Shape" d="M7.114,11.2a8.63,8.63,0,0,1-3.237-.537C1.449,9.589-.574,6.634.37,3.814,1.584.322,6.035-.215,9.541.725c1.888.537,11.6,3.223,11.194,8.6a1.371,1.371,0,0,1-1.484,1.209,11.925,11.925,0,0,1-2.293-.269,20.2,20.2,0,0,0-2.832-.269,7.9,7.9,0,0,0-2.428.537l-.674.134A20.994,20.994,0,0,1,7.114,11.2ZM6.574,2.874c-1.618,0-3.1.4-3.641,1.746A3.184,3.184,0,0,0,4.956,8.112a8.273,8.273,0,0,0,5.395-.134l.539-.134a11.587,11.587,0,0,1,3.1-.672,26.382,26.382,0,0,1,3.372.269h0c-1.349-1.746-4.99-3.358-8.632-4.3A9.422,9.422,0,0,0,6.574,2.874Z" transform="translate(-0.134 -0.315)" fill="#24262d"/>
              </g>
              <g id="Group-3-2" data-name="Group" transform="translate(3.428 27.444)">
                <path id="Path-46" data-name="Path" d="M8.7,3.836C6,4.911,3.169,6.522,2.09,9.208c-.809,2.149.4,5.775,2.967,6.312,4.046.806,4.72-4.163,5.8-6.849C12.34,5.179,13.15,3.03,17.2,1.285,14.229,1.15,11.4,2.762,8.7,3.836Z" transform="translate(-0.426 0.097)" fill="#52b3c4" fill-rule="evenodd"/>
                <path id="Shape-14" data-name="Shape" d="M6.29,17.278a4.177,4.177,0,0,1-1.214-.134,4.859,4.859,0,0,1-3.507-2.82,6.956,6.956,0,0,1-.539-5.372c1.349-3.358,4.855-5.1,7.418-6.178A15.854,15.854,0,0,0,9.932,2.1c2.293-.94,4.855-2.149,7.553-1.88A1.3,1.3,0,0,1,18.7,1.3a1.446,1.446,0,0,1-.809,1.477c-3.507,1.477-4.181,3.089-5.53,6.446l-.135.269a11.166,11.166,0,0,0-.539,1.612C11.011,13.517,9.8,17.278,6.29,17.278ZM11.955,4.385l-.809.4a8.269,8.269,0,0,1-1.618.672h0C6.29,6.8,4.4,8.28,3.593,10.16A4.256,4.256,0,0,0,4,13.249a2.759,2.759,0,0,0,1.618,1.343c1.753.4,2.562-.94,3.641-4.3.27-.672.4-1.209.674-1.746l.135-.269A14.974,14.974,0,0,1,11.955,4.385Z" transform="translate(-0.715 -0.184)" fill="#24262d"/>
              </g>
              <g id="Group-4" data-name="Group" transform="translate(150.836 0)">
                <path id="Path-47" data-name="Path" d="M11.08,2.354c2.7-.94,6.609-.806,7.687,1.746.809,2.015-.539,4.3-2.428,5.372s-4.181.806-6.339.269A10.1,10.1,0,0,0,6.495,9.2c-1.753,0-3.507.672-5.26.94C.83,6.383,7.978,3.429,11.08,2.354Z" transform="translate(0.027 -0.524)" fill="#52b3c4" fill-rule="evenodd"/>
                <path id="Shape-15" data-name="Shape" d="M13.357,11.751a15.358,15.358,0,0,1-3.372-.4l-.674-.134a7.666,7.666,0,0,0-2.428-.4,12.92,12.92,0,0,0-2.832.537,13.68,13.68,0,0,1-2.293.4A1.336,1.336,0,0,1,.275,10.677C-.534,5.439,9.042,2.081,10.93,1.41h0C14.436.2,18.887.6,20.37,3.961c1.214,2.686-.674,5.909-3.1,6.984A9.257,9.257,0,0,1,13.357,11.751ZM7.018,8.125a19.774,19.774,0,0,1,2.967.4l.539.134a8.913,8.913,0,0,0,5.395-.134A3.085,3.085,0,0,0,17.673,4.9c-.809-1.88-4.181-1.746-6.069-1.074C8.1,4.9,4.591,6.782,3.377,8.662h0a13.612,13.612,0,0,1,3.372-.537Z" transform="translate(-0.227 -0.788)" fill="#24262d"/>
              </g>
              <g id="Group-5" data-name="Group" transform="translate(147.782 19.532)">
                <path id="Path-48" data-name="Path" d="M7.327,4.586C9.08,5.794,10.834,7.54,11.1,9.689c.27,1.612-1.349,4.029-3.237,4.029C4.9,13.584,5.3,9.958,5.034,7.809c-.4-2.82-.539-4.432-3.1-6.312C3.955,1.631,5.709,3.377,7.327,4.586Z" transform="translate(-0.449 0.007)" fill="#52b3c4" fill-rule="evenodd"/>
                <path id="Shape-16" data-name="Shape" d="M8.169,15.234H8.034C4.393,15.1,4.123,11.339,3.988,9.459A3.7,3.7,0,0,0,3.853,8.25V7.981c-.4-2.552-.539-3.76-2.562-5.238a1.278,1.278,0,0,1-.4-1.612A1.36,1.36,0,0,1,2.37.326C4.393.595,6.146,1.938,7.63,3.012a4.1,4.1,0,0,0,.944.672h0c1.618,1.209,3.911,3.089,4.316,5.909a5.215,5.215,0,0,1-1.484,4.029A3.838,3.838,0,0,1,8.169,15.234ZM6.146,5.43c.135.672.27,1.477.4,2.149v.269c0,.4.135.94.135,1.343.135,2.552.539,3.358,1.484,3.358a2.546,2.546,0,0,0,1.214-.537,2.474,2.474,0,0,0,.674-1.88C9.923,8.787,8.844,7.444,6.821,5.967,6.686,5.832,6.416,5.7,6.146,5.43Z" transform="translate(-0.752 -0.3)" fill="#24262d"/>
              </g>
            </g>
          </g>
        </g>
      </g>
    </g>
    <g id="Group-6" data-name="Group" transform="translate(163.327 517.912)">
      <g id="Group_1011" data-name="Group 1011" transform="translate(0 0)">
        <g id="Path-49" data-name="Path" transform="translate(0 1.364)">
          <path id="Path_648" data-name="Path 648" d="M55.36,1.281,45.386,3.857A58.539,58.539,0,0,0,74.181,117.339l11.421-2.9Z" transform="translate(0.274 0.198)" fill="#ffec79" fill-rule="evenodd"/>
          <path id="Path_649" data-name="Path 649" d="M60.182,121.021A60.245,60.245,0,0,1,1.95,75.789a59.485,59.485,0,0,1,6.6-45.554A59.066,59.066,0,0,1,45.383,2.71L55.356.134a1.654,1.654,0,0,1,1.93,1.127,1.655,1.655,0,0,1-1.126,1.932L46.187,5.768a56.88,56.88,0,1,0,27.99,110.263l11.421-2.9a1.581,1.581,0,0,1,.8,3.058l-11.421,2.9A59.333,59.333,0,0,1,60.182,121.021Z" transform="translate(-0.044 -0.104)" fill="#24262d" fill-rule="evenodd"/>
        </g>
        <ellipse id="Oval-13" data-name="Oval" cx="58.554" cy="58.592" rx="58.554" ry="58.592" transform="translate(10.431 1.395)" fill="#fbe108"/>
        <path id="Path-50" data-name="Path" d="M117.716,26.524a57.577,57.577,0,0,1,3.056,8.853A58.522,58.522,0,0,1,12.189,76.907,58.52,58.52,0,0,0,122.542,39.079,59.525,59.525,0,0,0,117.716,26.524Z" transform="translate(3.068 6.421)" fill="#f4bb06" fill-rule="evenodd"/>
        <path id="Shape-17" data-name="Shape" d="M67.225,120.488A60.245,60.245,0,0,1,8.992,75.256a59.485,59.485,0,0,1,6.6-45.554A59.066,59.066,0,0,1,52.426,2.177a60.121,60.121,0,0,1,66.437,89.015,59.066,59.066,0,0,1-36.838,27.525A65.291,65.291,0,0,1,67.225,120.488Zm0-117.023a59.546,59.546,0,0,0-14,1.771,56.88,56.88,0,1,0,62.9,84.186A56.262,56.262,0,0,0,122.4,46.282,56.967,56.967,0,0,0,67.225,3.465Z" transform="translate(1.76 -0.299)" fill="#24262d"/>
        <ellipse id="Oval-14" data-name="Oval" cx="48.098" cy="48.129" rx="48.098" ry="48.129" transform="translate(20.887 11.858)" fill="#f4bb06"/>
        <path id="Path-51" data-name="Path" d="M72.623,10.671a30.788,30.788,0,0,0-6.6-.8l-43.594,73.4a66.722,66.722,0,0,0,3.861,5.473Z" transform="translate(5.693 2.152)" fill="#fbe108" fill-rule="evenodd"/>
        <path id="Path-52" data-name="Path" d="M32.293,85.859a48.722,48.722,0,0,0,18.338,8.37l14.8-25.111c-2.735-6.6-7.4-12.234-13.03-17.224Z" transform="translate(8.219 12.921)" fill="#fbe108" fill-rule="evenodd"/>
        <path id="Path-53" data-name="Path" d="M74.244,13.454,58.8,39.531a17.868,17.868,0,0,0,13.03,17.224l18.5-31.228A49.232,49.232,0,0,0,74.244,13.454Z" transform="translate(15.01 3.072)" fill="#fbe108" fill-rule="evenodd"/>
        <path id="Path-54" data-name="Path" d="M22.121,73.615A48.1,48.1,0,0,1,100.3,25.486,48.048,48.048,0,1,0,33.381,94.219,46.184,46.184,0,0,1,22.121,73.615Z" transform="translate(4.236 2.146)" fill="#f2a908" fill-rule="evenodd" opacity="0.46"/>
        <path id="Shape-18" data-name="Shape" d="M65.079,107.954a50,50,0,1,1,12.387-1.61h0A47.612,47.612,0,0,1,65.079,107.954Zm0-96.1a46.289,46.289,0,0,0-11.421,1.449A45.62,45.62,0,0,0,25.185,34.714,46.485,46.485,0,0,0,76.5,103.608h0A45.62,45.62,0,0,0,104.973,82.2,46.509,46.509,0,0,0,65.079,11.856Z" transform="translate(3.906 1.772)" fill="#24262d"/>
      </g>
      <g id="B" transform="translate(38.888 18.468)">
        <path id="Shape-19" data-name="Shape" d="M32.81,78.634a1.75,1.75,0,0,1-1.057-.4c-.264-.133-.4-.4-.66-.8-.132-.133-.132-.4-.264-.665-.132-.665-.925-3.191-.925-3.191l-.264-1.064c-.264-.665-.4-1.463-.66-2.128-.132-.665-.4-1.33-.528-1.995-.66.266-1.453.4-2.113.665L21.45,70.523a15.889,15.889,0,0,1-2.378.665,1.666,1.666,0,0,1-.793.133h-.132a1.894,1.894,0,0,1-1.717-1.2,8.517,8.517,0,0,1-.264-.931c0-.532-.132-.931-.132-1.463S15.9,66.8,15.9,66.268a5.689,5.689,0,0,0-.264-1.463c-.132-.532-.132-.931-.264-1.463v-.8a1.432,1.432,0,0,1,.264-.8,1.6,1.6,0,0,1,.66-.665,4.386,4.386,0,0,1,.793-.4l.925-.266.793-.266,1.453-.4c.264-.133.528-.133.66-.266l.264-.266c0-.133.132-.266.132-.4a2.612,2.612,0,0,0-.132-.931L15.242,37.547,13.26,30.766a9.2,9.2,0,0,0-.4-1.064,1.035,1.035,0,0,0-.528-.532c-.132-.133-.4-.133-.66-.266h-.264a1.184,1.184,0,0,0-.66.133l-.528.133-.925.266-.925.266-1.453.4a1.666,1.666,0,0,1-.793.133,1.9,1.9,0,0,1-.925-.266,1.6,1.6,0,0,1-.66-.665c-.132-.133-.132-.4-.264-.665l-.4-1.33-.4-1.33c-.132-.4-.264-.8-.4-1.33l-.4-1.2a1.7,1.7,0,0,1-.132-.8,2.518,2.518,0,0,1,.264-1.064,1.355,1.355,0,0,1,.793-.665c.132-.133.4-.133.66-.266.793-.266,1.585-.4,2.378-.665l4.755-1.33C12.2,18.4,13,18.267,13.789,18h.132c-.132-.532-.4-1.2-.528-1.862L12.2,12.017c-.264-.665-.4-1.33-.66-2.127a1.7,1.7,0,0,1-.132-.8,1.983,1.983,0,0,1,.132-.931,2.385,2.385,0,0,1,.66-.931l.793-.4,1.057-.266.925-.266,1.057-.266,1.189-.4h.132c.132,0,.4-.133.528-.133h.132a1.75,1.75,0,0,1,1.057.4c.264.133.4.4.66.8A5.569,5.569,0,0,1,20,7.5c.132.665.4,1.33.528,1.995l1.189,4.122a12.411,12.411,0,0,0,.528,1.729l.528-.133c.132,0,.4-.133.528-.133a4.075,4.075,0,0,0,.925-.266c-.132-.532-.4-1.2-.528-1.729L22.507,8.959a11.755,11.755,0,0,0-.66-1.995,1.7,1.7,0,0,1-.132-.8,1.983,1.983,0,0,1,.132-.931,2.385,2.385,0,0,1,.66-.931l.793-.4,1.057-.266.925-.266.528-.133.528-.133.528-.133.66-.266a1.666,1.666,0,0,1,.793-.133h.264a1.2,1.2,0,0,1,.925.4,1.221,1.221,0,0,1,.528.8c.132.133.132.4.264.665.132.665.4,1.463.528,2.127l1.189,4.255c.132.665.4,1.33.528,1.862.66-.133,1.321-.133,1.981-.266a12.732,12.732,0,0,1,2.246-.133H36.9a10.608,10.608,0,0,1,2.113.133l2.378.4A10.87,10.87,0,0,1,44.3,13.879a7.843,7.843,0,0,1,2.378,1.729,15.285,15.285,0,0,1,1.849,2.26,13.787,13.787,0,0,1,1.453,2.792,18.137,18.137,0,0,1,.925,3.324,14.025,14.025,0,0,1,.132,3.324,14.1,14.1,0,0,1-.793,3.191c-.264.532-.528.931-.793,1.463.4,0,.66.133.925.133.4.133.793.133,1.057.266a18.651,18.651,0,0,1,2.378,1.064,10.937,10.937,0,0,1,1.981,1.463,5.88,5.88,0,0,1,1.585,1.995,6.767,6.767,0,0,1,1.189,2.393,21.563,21.563,0,0,1,1.189,3.457,34.214,34.214,0,0,1,.66,3.59,16.345,16.345,0,0,1-.132,3.59,18.465,18.465,0,0,1-1.057,3.59,10.125,10.125,0,0,1-1.585,2.526,14.058,14.058,0,0,1-1.981,1.995c-.66.532-1.321,1.064-2.113,1.6-.66.4-1.453.931-2.246,1.33-.4.133-.66.4-1.057.532s-.66.4-1.057.532a2.648,2.648,0,0,0-1.057.532,9.065,9.065,0,0,0-1.057.4v.133c.264.665.4,1.33.66,2.127.264.665,1.189,4.122,1.189,4.122a11.755,11.755,0,0,0,.66,1.995,1.7,1.7,0,0,1,.132.8,1.607,1.607,0,0,1-.264,1.064,3.52,3.52,0,0,1-.66.8c-.264.133-.4.266-.66.266l-1.717.532-1.057.266-1.057.4a2.563,2.563,0,0,1-.925.133,2.475,2.475,0,0,1-1.057-.266,1.359,1.359,0,0,1-.66-.8,1.432,1.432,0,0,1-.264-.8c-.132-.665-.4-1.463-.528-2.128l-1.189-4.255c-.132-.532-.4-1.2-.528-1.862l-.793.266L37.565,66l-.528.133c.132.532,1.057,3.856,1.057,3.856.264.665.4,1.33.66,2.128.264.665.4,1.33.66,1.995a3.814,3.814,0,0,1,0,1.995,1.2,1.2,0,0,1-.793.8,1.41,1.41,0,0,1-.793.266l-.925.266-.793.266-.528.133-.528.133-.528.133L34,78.236a2.5,2.5,0,0,1-1.189.4ZM33.1,47.4l1.952,6.515.837,2.634c.558-.139,1.255-.416,1.813-.555l2.51-.832a23.894,23.894,0,0,0,2.51-.97l2.51-1.248a.488.488,0,0,0,.279-.139c.139-.139.279-.139.418-.277l.418-.416.418-.416a6.955,6.955,0,0,0,.976-1.109,4.141,4.141,0,0,0,.558-1.109,3.817,3.817,0,0,0,.139-1.248,7.116,7.116,0,0,0-.279-1.525,14.334,14.334,0,0,0-.558-1.386,6.039,6.039,0,0,0-.837-.97,3.038,3.038,0,0,0-1.115-.693,14.513,14.513,0,0,0-1.394-.555c-.279,0-.418-.139-.7-.139a1.263,1.263,0,0,1-.7-.139H41.462c-.558,0-1.115.139-1.673.139a7.036,7.036,0,0,0-1.673.277,7.035,7.035,0,0,1-1.673.277l-1.673.416-.837.277-2.091.555ZM29.611,35.476c.418-.139.837-.277,1.394-.416.7-.139,1.255-.416,1.952-.555.558-.277,1.255-.416,1.813-.693.7-.277,1.255-.555,1.813-.832l1.115-.693c.139-.139.279-.139.418-.277a10.617,10.617,0,0,0,1.255-1.248,2.918,2.918,0,0,0,.558-1.386,3.36,3.36,0,0,0,0-1.664,7.784,7.784,0,0,0-.558-1.664L38.534,24.8a4.237,4.237,0,0,0-.976-.693L36.3,23.693a5.257,5.257,0,0,0-1.534-.139H33.375c-.418,0-.976.139-1.394.139-.418.139-.976.139-1.394.277s-.976.277-1.394.416l-.837.277-1.673.416Z" transform="translate(0.656 0.66)" fill="#fbe108"/>
        <path id="Shape-20" data-name="Shape" d="M29.04,2.807h0a.515.515,0,0,1,.421.14l.281.281c0,.14.14.281.14.561a13.8,13.8,0,0,0,.7,2.246c.281.7.421,1.544.7,2.246s.421,1.544.7,2.246a13.147,13.147,0,0,1,.561,2.246c0,.14.14.421.14.561a.3.3,0,0,0,.281.281c.14,0,.14.14.281.14h.561a12.273,12.273,0,0,1,2.245-.281c.7,0,1.543-.14,2.245-.14h.14a10.613,10.613,0,0,1,2.1.14,12.628,12.628,0,0,1,2.245.421,14.954,14.954,0,0,1,2.666.983A12.713,12.713,0,0,1,47.7,16.422a8.968,8.968,0,0,1,1.824,2.105,16,16,0,0,1,1.4,2.667,13.712,13.712,0,0,1,.842,3.228,11.415,11.415,0,0,1,.14,3.088,11.259,11.259,0,0,1-.7,2.948,10.678,10.678,0,0,1-1.683,2.667l-.14.14a7298.407,7298.407,0,0,1-.281.281.49.49,0,0,0-.14.281h1.122a3.088,3.088,0,0,1,1.122.14c.421,0,.7.14,1.122.14a2.027,2.027,0,0,1,.982.281,10.857,10.857,0,0,1,2.245.983,9.007,9.007,0,0,1,1.824,1.4A9.663,9.663,0,0,1,58.922,38.6a11.193,11.193,0,0,1,1.122,2.246,25.674,25.674,0,0,1,1.122,3.509,15.243,15.243,0,0,1,.561,3.509,15,15,0,0,1-.14,3.509,12.665,12.665,0,0,1-1.122,3.509,13.33,13.33,0,0,1-1.4,2.386,12.118,12.118,0,0,1-1.824,1.965,20.075,20.075,0,0,1-2.1,1.544c-.7.421-1.543.983-2.385,1.4-.421.14-.7.421-1.122.561s-.7.421-1.122.561-.7.281-1.122.421-.7.281-1.122.421c-.281.14-.421.14-.561.281s-.281.281-.281.421-.14.281-.14.561a1.527,1.527,0,0,0,.14.7c.281.7.421,1.4.7,2.105a11.7,11.7,0,0,1,.561,2.105c.14.7.421,1.4.561,2.105a12.355,12.355,0,0,0,.7,2.105c0,.281.14.421.14.561v.421c0,.14-.14.14-.281.281-.14,0-.281.14-.421.14s-.281.14-.561.14c-.14,0-.281.14-.421.14s-.281.14-.421.14-.281.14-.421.14-.421.14-.561.14-.421.14-.561.14-.421.14-.561.14-.421.14-.561.14-.281.14-.421.14h0c-.14,0-.281,0-.281-.14-.14,0-.14-.14-.281-.281,0-.14-.14-.281-.14-.421-.14-.7-.421-1.544-.561-2.246-.281-.7-.421-1.544-.7-2.246s-.421-1.544-.7-2.246a13.147,13.147,0,0,1-.561-2.246c0-.14-.14-.281-.14-.421a.3.3,0,0,0-.281-.281c-.14,0-.14-.14-.281-.14h-.421c-.14,0-.281.14-.561.14-.14,0-.281.14-.421.14s-.281.14-.421.14-.281.14-.421.14-.281,0-.281.14c-.14,0-.281,0-.281.14a.515.515,0,0,0-.421.14.515.515,0,0,0-.421.14,1.413,1.413,0,0,0-.421.14l-.281.281V68.5a.516.516,0,0,0,.14.421c.281.7.421,1.4.7,2.246.281.7.421,1.4.7,2.246.281.7.421,1.4.7,2.246.281.7.421,1.4.7,2.246a1.061,1.061,0,0,1,.14.561v.421c0,.14-.14.14-.281.281A.515.515,0,0,1,39,79.3c-.14,0-.281.14-.421.14s-.281.14-.421.14-.281.14-.421.14-.281.14-.421.14c-.281,0-.421.14-.7.14-.14,0-.421.14-.561.14s-.421.14-.561.14a1.063,1.063,0,0,0-.561.281c-.14,0-.281.14-.421.14h0c-.14,0-.281,0-.281-.14-.14,0-.14-.14-.281-.281,0-.14-.14-.281-.14-.421-.281-.7-.421-1.544-.7-2.246s-.421-1.544-.7-2.246-.421-1.544-.7-2.246a13.147,13.147,0,0,1-.561-2.246.729.729,0,0,0-.281-.561c-.14-.14-.14-.281-.281-.281a.49.49,0,0,1-.281-.14h0a1.06,1.06,0,0,0-.561.14c-.842.281-1.683.561-2.666.842a14.792,14.792,0,0,1-2.666.7,16.955,16.955,0,0,1-2.525.7,16.956,16.956,0,0,1-2.525.7c-.14,0-.421.14-.561.14h-.421c-.14,0-.14-.14-.281-.281,0-.14-.14-.281-.14-.561,0-.561-.14-.983-.14-1.544s-.14-.983-.14-1.544a5.972,5.972,0,0,0-.281-1.544c-.14-.561-.14-.983-.281-1.544v-.421a.516.516,0,0,1,.14-.421c0-.14.14-.14.281-.281.14,0,.281-.14.421-.14a.515.515,0,0,0,.421-.14c.14,0,.281,0,.281-.14s.14,0,.281-.14c.14,0,.14,0,.281-.14.14,0,.421-.14.561-.14s.421-.14.561-.14.421-.14.561-.14.421-.14.561-.14a2.819,2.819,0,0,0,1.122-.561c.281-.281.561-.421.7-.7a2.6,2.6,0,0,0,.281-.983,6.18,6.18,0,0,0-.281-1.4l-2.1-7.158-2.1-7.158-2.1-7.158-2.1-7.158a5.19,5.19,0,0,0-.7-1.544,3.279,3.279,0,0,0-.982-.983,2.262,2.262,0,0,0-1.263-.421h-.561a2.386,2.386,0,0,0-.982.14c-.14,0-.281.14-.561.14-.14,0-.281.14-.561.14-.14,0-.281.14-.561.14-.14,0-.281.14-.561.14-.14,0-.281.14-.561.14-.14,0-.281.14-.561.14-.14,0-.281.14-.561.14-.14,0-.281.14-.561.14H5.471c-.14,0-.14,0-.281-.14-.14,0-.14-.14-.14-.281s-.14-.281-.14-.421c-.14-.421-.281-.983-.421-1.4s-.281-.983-.421-1.4-.281-.983-.421-1.4-.281-.842-.421-1.4c0-.14-.14-.421-.14-.561s0-.281.14-.281c0-.14.14-.14.281-.14s.281-.14.421-.14c.842-.281,1.683-.421,2.525-.7s1.683-.421,2.525-.7,1.683-.421,2.525-.7,1.683-.421,2.525-.7h.561a1.413,1.413,0,0,0,.421-.14c.14,0,.14-.14.281-.281,0-.14.14-.281,0-.421a1.061,1.061,0,0,0-.14-.561c-.281-.7-.421-1.4-.7-2.246-.281-.7-.421-1.544-.7-2.246s-.421-1.544-.7-2.246-.421-1.4-.7-2.246c0-.14-.14-.421-.14-.561V8c0-.14.14-.14.281-.281a.515.515,0,0,1,.421-.14c.14,0,.421-.14.561-.14s.421-.14.561-.14.281-.14.561-.14c.14,0,.281-.14.421-.14s.421-.14.561-.14.421-.14.561-.14.421-.14.561-.14.421-.14.561-.14h.561c.14,0,.281,0,.281.14l.281.281c.14.14.14.281.14.561.14.7.421,1.4.561,2.246a20,20,0,0,0,.7,2.246c.281.7.421,1.4.7,2.246.14.7.421,1.4.561,2.246,0,.14.14.281.14.421s.14.14.14.281c.14,0,.14.14.281.14h.421c.281-.14.421-.14.7-.281a1.06,1.06,0,0,1,.561-.14c.14,0,.421-.14.561-.14s.421-.14.561-.14h1.122a1.413,1.413,0,0,0,.421-.14l.281-.281V15.72a.516.516,0,0,0-.14-.421c-.281-.7-.421-1.4-.7-2.105-.14-.7-.421-1.4-.561-2.105s-.421-1.4-.561-2.105a12.355,12.355,0,0,0-.7-2.105c0-.14-.14-.421-.14-.561V5.9c0-.14.14-.14.281-.281a.515.515,0,0,1,.421-.14c.14,0,.421-.14.561-.14s.421-.14.561-.14.281-.14.561-.14c.14,0,.281-.14.561-.14.14,0,.421-.14.561-.14s.281-.14.561-.14c.14,0,.281-.14.561-.14.14,0,.281-.14.561-.14h0c.14-1.544.281-1.544.421-1.544ZM28.2,37.476h.281c.7-.14,1.4-.421,2.1-.561s1.4-.421,1.964-.561c.7-.281,1.263-.421,1.964-.7a12.825,12.825,0,0,0,1.964-.983c.14-.14.281-.14.421-.281s.281-.14.421-.281.281-.14.421-.281.281-.14.421-.281A4.461,4.461,0,0,0,39.7,31.861a4.922,4.922,0,0,0,.842-1.965,5.319,5.319,0,0,0,0-2.105,20,20,0,0,0-.7-2.246A6.232,6.232,0,0,0,38.72,24a5.039,5.039,0,0,0-1.4-.983,6.287,6.287,0,0,0-3.227-.7H32.548c-.561,0-.982.14-1.543.14-.561.14-.982.14-1.543.281s-.982.281-1.543.421c-.281.14-.561.14-.842.281s-.561.14-.842.281-.561.14-.842.281-.561.14-.842.281a.49.49,0,0,0-.281.14.137.137,0,0,0-.14.14v.281c0,.14,0,.281.14.281l.842,2.948.842,2.948.842,2.948.842,2.948a.49.49,0,0,0,.14.281c0,.14.14.14.14.281Zm6.173,21.475h.281a18.682,18.682,0,0,1,2.666-.7c.842-.281,1.824-.561,2.666-.842a21.579,21.579,0,0,0,2.666-1.123,24.375,24.375,0,0,0,2.666-1.4c.14,0,.281-.14.421-.281a1.937,1.937,0,0,1,.561-.421c.14-.14.421-.281.561-.421s.421-.281.561-.561a5.5,5.5,0,0,0,1.122-1.4,5.19,5.19,0,0,0,.7-1.544,7.048,7.048,0,0,0,.281-1.684,8.218,8.218,0,0,0-.281-1.825,7.053,7.053,0,0,0-.7-1.825,5.5,5.5,0,0,0-1.122-1.4,5.039,5.039,0,0,0-1.4-.983,7.906,7.906,0,0,0-1.683-.561c-.281,0-.561-.14-.842-.14s-.561-.14-.842-.14H41.105c-.561,0-1.122.14-1.824.14-.561.14-1.122.14-1.683.281l-1.683.421-1.683.421c-.281.14-.561.14-.842.281s-.561.14-.842.281-.561.14-.842.281-.561.14-.842.281a.49.49,0,0,0-.281.14.137.137,0,0,0-.14.14v.7c.281,1.123.7,2.246.982,3.369s.7,2.246.982,3.369.7,2.246.982,3.369.7,2.246.982,3.369a.49.49,0,0,0,.14.281.137.137,0,0,0,.14.14ZM29.04,0a3.485,3.485,0,0,0-1.122.14h-.561c-.14,0-.281.14-.421.14s-.281.14-.421.14-.281.14-.421.14-.281.14-.421.14l-.421.14-.421.14-.561.14-.561.14h-.14a2.643,2.643,0,0,0-1.263.561,4.387,4.387,0,0,0-1.263,1.544,2.082,2.082,0,0,0-.14.983,1.691,1.691,0,0,0-.7-.7,2.954,2.954,0,0,0-1.824-.7H18.1a3.485,3.485,0,0,0-1.122.14h-.421c-.14,0-.281.14-.561.14-.14,0-.281.14-.561.14-.14,0-.281.14-.561.14-.14,0-.281.14-.561.14l-.421.14-.421.14-.561.14-.561.14h-.14a4.2,4.2,0,0,0-1.4.561A3.832,3.832,0,0,0,9.54,6.457,3.457,3.457,0,0,0,9.4,8.141a2.6,2.6,0,0,0,.281.983c.281.7.421,1.4.7,2.105s.421,1.4.7,2.246l.14.421c.14.561.421,1.263.561,1.825,0,.14.14.281.14.561a4.1,4.1,0,0,1-1.263.281c-.842.281-1.683.421-2.525.7H7.856l-2.385.7c-.842.281-1.683.421-2.525.7a3.567,3.567,0,0,0-.982.281,5.493,5.493,0,0,0-1.4,1.123A3.224,3.224,0,0,0,0,22.036,4.1,4.1,0,0,0,.281,23.3L.7,24.563l.421,1.263c.14.421.281.842.421,1.4l.421,1.4a6.844,6.844,0,0,0,.421.983,3.313,3.313,0,0,0,1.122,1.263,3.734,3.734,0,0,0,1.683.421h0a3.088,3.088,0,0,0,1.122-.14h.14l.421-.14.421-.14.421-.14.421-.14.421-.14.421-.14.421-.14.421-.14h.7l.14.14c.14.14.14.281.281.7l2.1,7.158,2.1,7.158,2.1,7.158,2.1,7.158v.14l-.561.14-.561.14-.561.14-.561.14-.281.14h-.281l-.281.14-.281.14h-.14a2.819,2.819,0,0,0-1.122.561,2.476,2.476,0,0,0-1.122,1.263A2.83,2.83,0,0,0,13.187,64v1.123c.14.561.14.983.281,1.544s.14.983.281,1.544c0,.561.14.983.14,1.544s.14.983.14,1.544a3.687,3.687,0,0,0,1.683,3.088,3.734,3.734,0,0,0,1.683.421h.281c.281,0,.7-.14,1.122-.14.842-.281,1.683-.561,2.666-.842a16.956,16.956,0,0,1,2.525-.7l2.666-.7a8.938,8.938,0,0,1,.982-.281c0,.281.14.421.14.7.281.7.421,1.544.7,2.246l.421,1.263.281.983c.281.7.421,1.4.7,2.246a6.845,6.845,0,0,0,.421.983,2.476,2.476,0,0,0,1.122,1.263,4.133,4.133,0,0,0,1.824.7h.14a3.882,3.882,0,0,0,1.263-.14h.14c.14,0,.421-.14.561-.14s.421-.14.561-.14.421-.14.561-.14.421-.14.561-.14l.421-.14.421-.14.281-.14h.14l.421-.14h.14a2.819,2.819,0,0,0,1.122-.561,3.98,3.98,0,0,0,1.263-1.4,4.1,4.1,0,0,0,.281-1.263,6.1,6.1,0,0,0,.982.842,3.977,3.977,0,0,0,1.824.561,3.882,3.882,0,0,0,1.263-.14h.14c.14,0,.421-.14.561-.14s.421-.14.561-.14.421-.14.561-.14l.561-.14.421-.14.421-.14.421-.14.561-.14a2.819,2.819,0,0,0,1.122-.561,3.072,3.072,0,0,0,1.263-1.4,3.887,3.887,0,0,0,.421-1.825,4.1,4.1,0,0,0-.281-1.263,11.7,11.7,0,0,1-.561-2.105c-.14-.7-.421-1.4-.561-2.105-.281-.7-.421-1.4-.7-2.246-.14-.281-.14-.7-.281-.983a4.982,4.982,0,0,0,1.263-.561,8.33,8.33,0,0,0,1.122-.561c.421-.14.7-.421,1.122-.561.982-.561,1.824-.983,2.525-1.4a16.549,16.549,0,0,0,2.525-1.825,18.072,18.072,0,0,0,2.245-2.386,20.767,20.767,0,0,0,1.824-2.948,18.483,18.483,0,0,0,1.263-4.211,13.069,13.069,0,0,0,.14-4.07,19.283,19.283,0,0,0-.7-3.93,20.025,20.025,0,0,0-1.263-3.79,11.9,11.9,0,0,0-1.4-2.667,10.262,10.262,0,0,0-1.964-2.246A15.316,15.316,0,0,0,56.537,32.7c-.842-.421-1.824-.842-2.806-1.263-.14,0-.281-.14-.561-.14a10.832,10.832,0,0,0,.982-3.649,17.149,17.149,0,0,0-.14-3.79,18.857,18.857,0,0,0-.982-3.79,14.145,14.145,0,0,0-1.683-3.228A14.1,14.1,0,0,0,49.1,14.176,12.657,12.657,0,0,0,46.3,12.211a11.982,11.982,0,0,0-3.367-1.263c-.842-.14-1.683-.281-2.666-.421a12.83,12.83,0,0,0-2.385-.14H37.6a15.241,15.241,0,0,0-2.525.14,1.779,1.779,0,0,0-.842.14c-.14-.281-.14-.561-.281-.842-.281-.7-.421-1.544-.7-2.246l-.14-.561-.421-1.684a10.519,10.519,0,0,1-.561-2.246,6.845,6.845,0,0,0-.421-.983A3.056,3.056,0,0,0,30.724.842,2.954,2.954,0,0,0,28.9.14c.281-.14.14-.14.14-.14ZM27.357,26.107c.14,0,.14,0,.281-.14a1.525,1.525,0,0,1,.7-.14,4.982,4.982,0,0,1,1.4-.281c.421-.14.842-.14,1.4-.281.421,0,.842-.14,1.263-.14H33.67a3.882,3.882,0,0,1,1.263.14,8.938,8.938,0,0,1,.982.281c.281.14.421.281.7.421a2.936,2.936,0,0,1,.561.842,2.265,2.265,0,0,1,.421,1.263v1.123c-.14.281-.281.7-.421.983-.281.281-.561.7-.842.983-.14,0-.14.14-.281.281s-.281.14-.421.281L35.353,32l-.421.281a5.185,5.185,0,0,1-1.543.7c-.561.281-1.122.421-1.824.7a8.039,8.039,0,0,1-1.964.561h0v-.14l-.281-.983-.842-2.948v-.14l-.842-2.948a3.572,3.572,0,0,0-.281-.983Zm5.892,20.071c.281-.14.421-.14.7-.281s.561-.14.842-.281c.561-.14,1.122-.281,1.543-.421a7.236,7.236,0,0,1,1.543-.281c.561-.14,1.122-.14,1.543-.281.561,0,.982-.14,1.543-.14h1.683a.843.843,0,0,1,.561.14c.421.14.7.281,1.122.421a4.068,4.068,0,0,1,1.263,1.263,9.674,9.674,0,0,1,.421,1.123,3.092,3.092,0,0,1,.14,1.123,1.781,1.781,0,0,1-.14.842c-.14.281-.14.561-.421.842a3.721,3.721,0,0,1-.7.842l-.421.421c-.14.14-.281.281-.421.281-.14.14-.281.14-.421.281a.137.137,0,0,0-.14.14h-.14c-.7.421-1.543.842-2.385,1.263-.7.281-1.543.7-2.385.983a26.478,26.478,0,0,1-2.525.842c-.14,0-.281.14-.561.14l-.421-1.4-.982-3.369c-.281-1.123-.7-2.246-.982-3.369.421-.14.281-.561.14-1.123Z" fill="#24262d"/>
      </g>
      <path id="Path-55" data-name="Path" d="M3.493,48.937,8.479,47.1a1.532,1.532,0,0,1,1.964,1,1.791,1.791,0,0,1-.906,2.165.523.523,0,0,0-.453.167L3.8,50.769a.753.753,0,0,1-.755-.833C2.889,49.27,3.191,48.937,3.493,48.937Z" transform="translate(0.713 11.667)" fill="#24262d" fill-rule="evenodd"/>
      <path id="Path-56" data-name="Path" d="M4.648,44.589l3.4-1.453a1.519,1.519,0,0,1,2.107,1.09,1.809,1.809,0,0,1-.973,2.361c-.162.182-.486.182-.81.182L4.81,46.405A.929.929,0,0,1,4,45.5,1.79,1.79,0,0,1,4.648,44.589Z" transform="translate(0.969 10.642)" fill="#24262d" fill-rule="evenodd"/>
    </g>
  </g>
</svg>
