<svg id="Bear" xmlns="http://www.w3.org/2000/svg" width="210.993" height="179.373" viewBox="0 0 210.993 179.373">
  <path id="Path_223" data-name="Path 223" d="M338.48,217.455a5.585,5.585,0,0,1,1.779,1.263,4.073,4.073,0,0,1,.746,1.779,166.527,166.527,0,0,0,4.018,18.713,114.735,114.735,0,0,0,8.553,21.813,40.136,40.136,0,0,0,9.356,12.112c3.731,3.157,8.9,7.4,14.121,6.6a11.95,11.95,0,0,0,6.659-3.846,18.751,18.751,0,0,0,4.937-12.169c.172-10.1-8.955-16.13-14.35-23.649-4.879-6.831-7.347-15.039-9.7-23.018-.861-2.87-2.181-6.6-1.952-11.136.115-2.066.574-4.076.344-6.142-.4-3.674-3.042-6.773-5.97-9.069-3.9-2.985-8.782-5.051-13.661-4.477-6.716.8-13.489,7.29-15.154,13.891C326.541,206.664,333.142,214.47,338.48,217.455Z" transform="translate(-280.333 -118.1)" fill="#fff"/>
  <path id="Path_224" data-name="Path 224" d="M331.6,210.179s8.61,6.085,18.6,3.5A16.394,16.394,0,0,0,354.9,208.4C354.9,208.457,346.467,212.533,331.6,210.179Z" transform="translate(-281.89 -127.585)" fill="#e1e8ea"/>
  <path id="Path_225" data-name="Path 225" d="M467.027,81.922c3.961-9.069-7.347-17.622-14.523-10.906-6.486,6.142-.976,18.024,8.208,16.3A8.9,8.9,0,0,0,467.027,81.922Z" transform="translate(-332.191 -68.037)" fill="#fff"/>
  <path id="Path_226" data-name="Path 226" d="M458.577,87.638a9.7,9.7,0,0,1-8.668-5.511,9.933,9.933,0,0,1,1.837-11.939,9.071,9.071,0,0,1,11.882-.689,9.966,9.966,0,0,1,3.559,12.284h0a9.426,9.426,0,0,1-6.716,5.74C459.783,87.58,459.209,87.638,458.577,87.638Zm-.689-18.885a7.8,7.8,0,0,0-5.4,2.239,8.859,8.859,0,0,0-1.607,10.562,8.459,8.459,0,0,0,9.3,4.764,8.26,8.26,0,0,0,5.855-5.051h0a8.719,8.719,0,0,0-3.157-10.849A8.81,8.81,0,0,0,457.889,68.753ZM466.614,81.5Z" transform="translate(-331.778 -67.611)" fill="#24262d"/>
  <path id="Path_227" data-name="Path 227" d="M382.709,303.72a8.538,8.538,0,0,1-3.157-.574c-7.749-2.813-14.178-10.275-19.574-22.788-5.4-12.4-10.5-29.562-11.078-37.426a.673.673,0,0,1,.517-.631.624.624,0,0,1,.631.517c.631,7.807,5.683,24.74,11.021,37.081,5.281,12.169,11.48,19.4,18.942,22.157,5.625,2.066,12.112-2.927,18.368-7.692a59.6,59.6,0,0,1,8.266-5.683.552.552,0,1,1,.517.976,62.449,62.449,0,0,0-8.094,5.568C393.558,299.472,387.99,303.72,382.709,303.72Z" transform="translate(-289.26 -142.026)" fill="#24262d"/>
  <path id="Path_228" data-name="Path 228" d="M360.06,197.06H360a2.153,2.153,0,0,0-.574-.057,5.7,5.7,0,0,1-1.952-.574,3.108,3.108,0,0,1-1.263-.861,3.325,3.325,0,0,1-.517-1.492c-.8-5.4-1.492-9.586-6.659-12-2.928-1.378-5.166.172-6.486,1.779a.57.57,0,0,1-.861-.746c2.239-2.64,4.994-3.329,7.807-2.066,5.74,2.7,6.544,7.634,7.347,12.858a2.183,2.183,0,0,0,.287.976,1.947,1.947,0,0,0,.8.517,4.3,4.3,0,0,0,1.665.459c.172,0,.344.057.574.057a.569.569,0,0,1,.459.631A.561.561,0,0,1,360.06,197.06Z" transform="translate(-286.127 -115.671)" fill="#24262d"/>
  <path id="Path_229" data-name="Path 229" d="M342.22,220.423a15.5,15.5,0,0,1-4.822-1.665l-2.239-1.205a16.4,16.4,0,0,1-2.181-1.492,20.7,20.7,0,0,1-5.568-8.553,21.86,21.86,0,0,1-.976-10.16,9.733,9.733,0,0,1,.23-1.263,10,10,0,0,1,.287-1.263,14.037,14.037,0,0,1,.861-2.468,17.082,17.082,0,0,1,2.87-4.305.558.558,0,0,1,.8-.057.615.615,0,0,1,.057.8,15.208,15.208,0,0,0-2.64,4.018,10.739,10.739,0,0,0-.746,2.3c-.115.4-.172.8-.287,1.205a8.708,8.708,0,0,0-.172,1.205,21.665,21.665,0,0,0,.918,9.586,18.875,18.875,0,0,0,5.166,8.094,19.136,19.136,0,0,0,1.952,1.378c.689.4,1.435.8,2.124,1.205a44.042,44.042,0,0,0,4.42,2.066h0a.256.256,0,0,1,.172.344C342.507,220.366,342.392,220.423,342.22,220.423Z" transform="translate(-279.595 -118.829)" fill="#24262d"/>
  <path id="Path_230" data-name="Path 230" d="M341.314,199.785a.566.566,0,0,1-.574-.517c-.115-1.148-.172-2.239-.287-3.329s-.172-2.239-.287-3.387a10.649,10.649,0,0,0-1.091-4.65,4.207,4.207,0,0,0-3.961-2.181c-3.5.4-6.257,6.085-6.773,9.184a.585.585,0,0,1-1.148-.23c.574-3.157,3.5-9.643,7.807-10.1a5.421,5.421,0,0,1,5.109,2.755,12.014,12.014,0,0,1,1.263,5.166c.115,1.148.172,2.239.287,3.387.115,1.091.172,2.181.287,3.329a.675.675,0,0,1-.631.574Z" transform="translate(-280.009 -117.42)" fill="#24262d"/>
  <path id="Path_231" data-name="Path 231" d="M346.374,211.91a.521.521,0,0,1-.4-.172.555.555,0,0,1,0-.8,14.03,14.03,0,0,1,10.734-3.674.624.624,0,0,1,.517.631.673.673,0,0,1-.631.517,12.587,12.587,0,0,0-9.816,3.329A.62.62,0,0,1,346.374,211.91Z" transform="translate(-287.939 -127.077)" fill="#24262d"/>
  <g id="Group_36" data-name="Group 36" transform="translate(17.731 7.337)">
    <g id="Group_35" data-name="Group 35">
      <path id="Path_232" data-name="Path 232" d="M324.7,82.2l-6.6-.631a37.512,37.512,0,1,0-7.175,74.679l7.577.746Z" transform="translate(-276.364 -80.817)" fill="#ffec79"/>
      <path id="Path_233" data-name="Path 233" d="M317.97,157.143h0l-7.634-.746a38.091,38.091,0,1,1,7.347-75.827l6.6.631a.577.577,0,1,1-.115,1.148l-6.6-.631a36.935,36.935,0,1,0-7.06,73.531l7.577.746a.579.579,0,0,1,.517.631A.624.624,0,0,1,317.97,157.143Z" transform="translate(-275.889 -80.392)" fill="#24262d"/>
    </g>
    <circle id="Ellipse_8" data-name="Ellipse 8" cx="37.541" cy="37.541" r="37.541" transform="translate(6.436 1.267)" fill="#fbe108"/>
    <path id="Path_234" data-name="Path 234" d="M361.822,139.1a35.238,35.238,0,0,1-.115,6.027A37.512,37.512,0,0,1,287.2,146.62a37.524,37.524,0,0,0,74.794,1.148A36.383,36.383,0,0,0,361.822,139.1Z" transform="translate(-280.707 -105.401)" fill="#f4bb06"/>
    <path id="Path_235" data-name="Path 235" d="M324.267,157.867c-1.205,0-2.468-.057-3.731-.172a38.133,38.133,0,1,1,3.731.172Zm-.172-75.081a36.918,36.918,0,0,0-36.68,33.408,36.932,36.932,0,0,0,8.266,27.036,36.479,36.479,0,0,0,24.97,13.26,36.932,36.932,0,0,0,27.036-8.266,36.479,36.479,0,0,0,13.26-24.97,36.932,36.932,0,0,0-8.266-27.036,36.479,36.479,0,0,0-24.97-13.26Q325.9,82.786,324.095,82.786Z" transform="translate(-280.234 -80.945)" fill="#24262d"/>
    <circle id="Ellipse_9" data-name="Ellipse 9" cx="30.825" cy="30.825" r="30.825" transform="translate(13.151 7.983)" fill="#f4bb06"/>
    <path id="Path_236" data-name="Path 236" d="M345.993,100.552a26.815,26.815,0,0,0-3.846-1.952L299.9,133.443a24.506,24.506,0,0,0,1.205,4.133Z" transform="translate(-286.117 -88.149)" fill="#fbe108"/>
    <path id="Path_237" data-name="Path 237" d="M307.8,165.872a31.437,31.437,0,0,0,9.242,9.012L331.449,163a30.2,30.2,0,0,0-4.19-13.2Z" transform="translate(-289.482 -109.959)" fill="#fbe108"/>
    <path id="Path_238" data-name="Path 238" d="M378.665,109.9l-14.982,12.4a11.541,11.541,0,0,0,4.133,13.26l17.967-14.81A32.392,32.392,0,0,0,378.665,109.9Z" transform="translate(-312.991 -92.962)" fill="#fbe108"/>
    <path id="Path_239" data-name="Path 239" d="M300.441,125.236a30.8,30.8,0,0,1,57.574-12.112A30.831,30.831,0,1,0,302.68,140.1,30.654,30.654,0,0,1,300.441,125.236Z" transform="translate(-285.625 -86.256)" fill="#f2a908" opacity="0.46"/>
    <path id="Path_240" data-name="Path 240" d="M329.139,156.038a27.028,27.028,0,0,1-3.042-.172h0a31.495,31.495,0,1,1,22.961-7.06A30.607,30.607,0,0,1,329.139,156.038Zm-2.927-1.263A30.246,30.246,0,1,0,299,121.827a30.388,30.388,0,0,0,27.208,32.948Z" transform="translate(-285.163 -85.832)" fill="#24262d"/>
  </g>
  <path id="Path_241" data-name="Path 241" d="M380.732,191.726a5.192,5.192,0,0,0-4.076-2.526,4.8,4.8,0,0,0-3.674,2.009c-1.607,2.066-1.779,4.879-2.928,7.175-1.665,3.387-6.085,4.707-4.822,9.184,1.205,4.363,5.97,7.175,10.1,4.879,6.716-3.789,5.109-3.329,6.888-11.079A11.888,11.888,0,0,0,380.732,191.726Z" transform="translate(-296.123 -119.406)" fill="#fff"/>
  <path id="Path_243" data-name="Path 243" d="M392.6,240.112a.6.6,0,0,1-.517-.287,37.867,37.867,0,0,1-4.19-12.743.585.585,0,0,1,1.148-.23,37.106,37.106,0,0,0,4.076,12.4.581.581,0,0,1-.23.8A.518.518,0,0,1,392.6,240.112Z" transform="translate(-305.867 -135.246)" fill="#24262d"/>
  <path id="Path_244" data-name="Path 244" d="M379.142,211.375a.816.816,0,0,1-.344-.115.617.617,0,0,1-.115-.8c1.722-2.181,2.411-5.338,3.042-8.208a11.75,11.75,0,0,0,.287-1.378,11.36,11.36,0,0,0-1.435-9.184c-.459-.689-1.779-2.3-3.559-2.3a4.309,4.309,0,0,0-3.215,1.779,11.9,11.9,0,0,0-1.779,4.076,19.216,19.216,0,0,1-1.091,3.042,10.059,10.059,0,0,1-4.248,4.477.552.552,0,1,1-.517-.976,8.943,8.943,0,0,0,3.731-3.961,15.473,15.473,0,0,0,1.033-2.87,12.71,12.71,0,0,1,1.952-4.42,5.327,5.327,0,0,1,4.133-2.239h.057a5.794,5.794,0,0,1,4.535,2.813,12.618,12.618,0,0,1,1.607,10.1,11.763,11.763,0,0,0-.287,1.378c-.631,2.927-1.378,6.257-3.272,8.668A1.676,1.676,0,0,1,379.142,211.375Z" transform="translate(-296.484 -119.023)" fill="#24262d"/>
  <path id="Path_245" data-name="Path 245" d="M523.824,242.41c-.172-6.486-1.952-12.973-2.526-19.344-.172-2.124-2.353-7.118-1.665-9.127,12.112-30.365-3.961-50.456-3.961-50.456a216.286,216.286,0,0,0,.861-27.151,163.494,163.494,0,0,0-1.894-19.861c-3.042-18.368-8.323-26.806-8.323-26.806.4-.23.8-.4,1.148-.631,9.988-5.74,5.625-13.547,3.788-16.072-.4-.517-.631-.861-.631-.861a8.971,8.971,0,0,0-6.831-2.181h-.057c-3.789.574-6.831,3.731-8.323,5.683-.344.459-.574.8-.746,1.033a2.271,2.271,0,0,1-.287.4,35.841,35.841,0,0,0-5.051-3.272c-13.088-6.831-26.692-2.755-26.692-2.7-32.6,3.961-28.414,30.308-28.414,30.308l-5.109,6.314c-2.641,8.668,8.266,16.245,8.266,16.245,1.952,13.432-.631,30.251-1.837,36.852a2.883,2.883,0,0,1,.115,1.205,26.7,26.7,0,0,1-3.444,10.16c-3.272,9.471-8.61,18.254-13.145,27.38-.976,1.952-1.894,3.961-2.755,5.97-.689,1.607-1.32,3.157-1.894,4.822-3.215,9.012-7.577,21.353-5.74,37.426H524.8C524.455,245.05,523.881,243.156,523.824,242.41Z" transform="translate(-314.538 -68.547)" fill="#fff"/>
  <path id="Path_247" data-name="Path 247" d="M408.12,344.228c-.115-1.837-.23-3.731-.172-5.625a66.007,66.007,0,0,1,1.148-11.136,89.428,89.428,0,0,1,2.813-10.906,82.079,82.079,0,0,1,4.076-10.447h0a.565.565,0,1,0-1.033-.459,77.279,77.279,0,0,0-4.248,10.619,80.288,80.288,0,0,0-2.813,11.078,63.006,63.006,0,0,0-1.091,11.366,46.472,46.472,0,0,0,.344,5.683c.172,1.32.4,2.583.689,3.846h.746C408.407,346.869,408.235,345.548,408.12,344.228Z" transform="translate(-313.924 -168.873)" fill="#24262d"/>
  <path id="Path_248" data-name="Path 248" d="M398.077,245.154a29.336,29.336,0,0,1-3.1-10.39,12.7,12.7,0,0,1,3.444-9.988c-1.033-2.755-2.066-5.683-1.722-8.61s2.583-5.855,5.511-5.97c2.583-.115,4.764,1.894,6.085,4.076,1.378,2.181,2.239,4.65,3.846,6.659a8.328,8.328,0,0,1,10.16,4.477c1.32,3.157.517,6.773,1.607,9.988,1.607,4.764,6.946,7.807,7.864,12.743.459,2.583-.4,5.224-1.32,7.692-2.583,6.6-10.5,17.106-18.713,11.078-2.526-1.837-3.846-5.338-5.511-7.864A99.841,99.841,0,0,1,398.077,245.154Z" transform="translate(-308.875 -128.348)" fill="#fff"/>
  <path id="Path_259" data-name="Path 259" d="M444.6,216.879a.345.345,0,0,1-.23-.057.507.507,0,0,1-.23-.746,75.494,75.494,0,0,0,5.453-13.145c3.214-11.021,3.961-23.477,2.353-39.205a.57.57,0,0,1,.517-.631.542.542,0,0,1,.631.517c1.607,15.843.8,28.471-2.411,39.607a72.2,72.2,0,0,1-5.568,13.375A.6.6,0,0,1,444.6,216.879Z" transform="translate(-329.796 -108.282)" fill="#24262d"/>
  <path id="Path_260" data-name="Path 260" d="M452.732,101.46a.61.61,0,0,1-.574-.517c-.4-4.592-.517-11.365,3.272-17.106C463.408,71.726,479.71,69.2,491.937,69.2h0a37.663,37.663,0,0,1,21.87,7.233.607.607,0,0,1,.115.8.617.617,0,0,1-.8.115,36.527,36.527,0,0,0-21.239-7.06h0c-11.939,0-27.782,2.468-35.531,14.121-2.755,4.133-3.731,9.3-3.1,16.359.115.4-.115.631-.517.689Z" transform="translate(-333.165 -68.288)" fill="#24262d"/>
  <path id="Path_261" data-name="Path 261" d="M603.3,320.6v.4c.057-.057.057-.172.115-.23-.057-.057-.115-.115-.115-.172Z" transform="translate(-397.631 -175.381)" fill="#24262d"/>
  <path id="Path_262" data-name="Path 262" d="M596.815,232.544v-.172c-.057-.057-.057-.115-.115-.172Z" transform="translate(-394.819 -137.724)" fill="#24262d"/>
  <path id="Path_263" data-name="Path 263" d="M597.176,254.254c-.23-2.985-.631-5.912-1.148-8.9-.517-2.927-1.033-5.855-1.722-8.782-.344-1.435-.631-2.927-1.033-4.363-.344-1.378-.689-2.755-1.148-4.133-.057.057-.057.172-.115.23v-.4h0c0,.057.057.115.057.23a47.455,47.455,0,0,0,2.066-6.085,62.208,62.208,0,0,0,1.435-6.486,60.325,60.325,0,0,0,.746-13.26,50.576,50.576,0,0,0-.8-6.6,47.825,47.825,0,0,0-1.607-6.429,53.427,53.427,0,0,0-5.568-11.882v.172l-.115-.344c.057.057.057.115.115.172.172-6.257.4-12.514.459-18.77a174.076,174.076,0,0,0-.689-18.942c-.287-3.157-.746-6.314-1.32-9.414-.517-3.1-1.091-6.2-1.837-9.3a83.579,83.579,0,0,0-2.755-9.127,51.342,51.342,0,0,0-4.19-8.553.636.636,0,0,0-.8-.23.565.565,0,0,0-.172.8,59.374,59.374,0,0,1,4.076,8.381,80.668,80.668,0,0,1,2.755,8.955c.746,3.042,1.32,6.142,1.837,9.242s.976,6.2,1.263,9.3a171.486,171.486,0,0,1,.689,18.828c-.057,6.314-.287,12.571-.459,18.885a.422.422,0,0,0,.115.344h0a50.191,50.191,0,0,1,5.568,11.767,59.835,59.835,0,0,1,1.607,6.314,48.764,48.764,0,0,1,.746,6.486,61.1,61.1,0,0,1-.689,12.973,63.154,63.154,0,0,1-1.378,6.372,45.662,45.662,0,0,1-2.124,6.142.49.49,0,0,0,0,.4h0c.459,1.378.8,2.813,1.148,4.248s.689,2.87.976,4.305c.631,2.87,1.205,5.8,1.722,8.725s.976,5.855,1.32,8.782a56.778,56.778,0,0,1,.459,7.634h.631A49.27,49.27,0,0,0,597.176,254.254Z" transform="translate(-386.398 -82.688)" fill="#24262d"/>
  <path id="Path_264" data-name="Path 264" d="M557.3,79.178a9.816,9.816,0,0,1,2.181-5.683,10.662,10.662,0,0,1,4.994-3.674,10.847,10.847,0,0,1,6.2-.344,9.189,9.189,0,0,1,5.224,3.387,10.418,10.418,0,0,1,2.124,5.855,8.542,8.542,0,0,1-.4,3.157,6.689,6.689,0,0,1-.574,1.492c-.23.459-.459.918-.746,1.378a9.986,9.986,0,0,1-2.009,2.411,13.036,13.036,0,0,1-2.641,1.722,21.326,21.326,0,0,1-5.8,1.607.273.273,0,0,1-.172-.517c1.779-.918,3.731-1.378,5.453-2.181a10.933,10.933,0,0,0,2.354-1.492,9.026,9.026,0,0,0,1.722-2.181c.23-.4.459-.8.689-1.263a11.182,11.182,0,0,0,.459-1.263,8.656,8.656,0,0,0,.287-2.755,9.135,9.135,0,0,0-1.894-5.109,8.005,8.005,0,0,0-4.477-2.985,9.522,9.522,0,0,0-5.511.287,9.8,9.8,0,0,0-4.477,3.272A17.511,17.511,0,0,0,557.7,79.35h0a.256.256,0,0,1-.344.172C557.357,79.408,557.3,79.293,557.3,79.178Z" transform="translate(-378.035 -68.278)" fill="#24262d"/>
  <g id="Group_39" data-name="Group 39" transform="translate(85.001 81.087)">
    <path id="Path_265" data-name="Path 265" d="M423.992,227.407a1.637,1.637,0,0,1,.459-.8,2.185,2.185,0,0,1,.746-.517,3.709,3.709,0,0,1,1.55-.287,11.475,11.475,0,0,1,2.813.4,11.1,11.1,0,0,1,2.64.918,6.074,6.074,0,0,1,2.239,1.952,6.869,6.869,0,0,1,1.091,2.7,15.5,15.5,0,0,1,.23,2.813c0,.918-.057,1.837-.057,2.7l-.057,1.32a9.734,9.734,0,0,0,.057,1.263,11.976,11.976,0,0,0,1.894,4.707,16.893,16.893,0,0,0,3.444,3.846,29,29,0,0,0,4.305,3.042,36.008,36.008,0,0,0,4.707,2.353A30.106,30.106,0,0,0,455.1,255.3a15.617,15.617,0,0,0,5.166.115,37.529,37.529,0,0,0,10.16-2.985A82.3,82.3,0,0,0,479.9,247.5c3.042-1.837,6.027-3.789,9.012-5.8a.284.284,0,0,1,.4.057.354.354,0,0,1-.057.4,94.042,94.042,0,0,1-18.368,11.308,41.321,41.321,0,0,1-10.447,3.1,16.494,16.494,0,0,1-5.568-.115,31.445,31.445,0,0,1-14.637-7.06,21.053,21.053,0,0,1-3.674-4.133,10.577,10.577,0,0,1-2.124-6.659l.057-1.378c.057-.918.115-1.779.115-2.64a8.453,8.453,0,0,0-1.091-4.822,5.123,5.123,0,0,0-1.779-1.55,13.166,13.166,0,0,0-2.411-.861,9.561,9.561,0,0,0-2.526-.344,3.106,3.106,0,0,0-1.091.172.749.749,0,0,0-.517.574h0a.623.623,0,0,1-.689.4A.662.662,0,0,1,423.992,227.407Z" transform="translate(-406.244 -216.085)" fill="#24262d"/>
    <path id="Path_266" data-name="Path 266" d="M481.662,280.813a70.2,70.2,0,0,1-30.71,5.338,59.312,59.312,0,0,1-15.441-2.985,55.539,55.539,0,0,1-14.063-7,63.4,63.4,0,0,1-11.825-10.332,80.927,80.927,0,0,1-9.3-12.686,64.451,64.451,0,0,1-6.544-14.293,19.422,19.422,0,0,1-.459-1.952,11.983,11.983,0,0,1-.23-2.066,15.663,15.663,0,0,1,.4-4.018,18.657,18.657,0,0,1,1.205-3.846,8.245,8.245,0,0,1,1.091-1.779,2.7,2.7,0,0,1,.861-.746,2.165,2.165,0,0,1,1.205-.4l-.459.861h0a24.512,24.512,0,0,1-2.3-4.592,9.545,9.545,0,0,1-.4-5.224,9.063,9.063,0,0,1,2.641-4.65,5.529,5.529,0,0,1,2.411-1.32,6.463,6.463,0,0,1,2.755-.172,6.18,6.18,0,0,1,2.583.976,6.733,6.733,0,0,1,1.837,2.009c.918,1.435,1.665,2.927,2.468,4.42s1.607,2.927,2.411,4.305a41.756,41.756,0,0,0,2.7,4.076h0a.284.284,0,0,1-.057.4.366.366,0,0,1-.344,0,9,9,0,0,1-1.779-1.837,17.117,17.117,0,0,1-1.492-2.066c-.918-1.435-1.722-2.87-2.526-4.363-.8-1.435-1.55-2.985-2.468-4.305a6.155,6.155,0,0,0-1.55-1.665,4.958,4.958,0,0,0-2.066-.746,4.648,4.648,0,0,0-2.181.115,4.822,4.822,0,0,0-1.894,1.091,7.208,7.208,0,0,0-2.239,3.961,8.393,8.393,0,0,0,.344,4.592,23.5,23.5,0,0,0,2.124,4.363h0a.618.618,0,0,1-.172.8.517.517,0,0,1-.287.057,1.859,1.859,0,0,0-1.205.746,6.9,6.9,0,0,0-.918,1.55,15.91,15.91,0,0,0-1.091,3.559,16.731,16.731,0,0,0-.344,3.731,13.819,13.819,0,0,0,.689,3.674,54.678,54.678,0,0,0,2.813,7.175c1.091,2.353,2.353,4.592,3.674,6.831a70.635,70.635,0,0,0,20.722,22.674,56.274,56.274,0,0,0,13.776,6.888,59.043,59.043,0,0,0,15.154,2.927,69.574,69.574,0,0,0,15.441-.861c2.526-.4,5.051-.976,7.577-1.607s4.994-1.378,7.462-2.239a.279.279,0,0,1,.344.172C481.892,280.584,481.835,280.756,481.662,280.813Z" transform="translate(-393.081 -208.875)" fill="#24262d"/>
  </g>
  <path id="Path_267" data-name="Path 267" d="M254.585,110.582l7.462,3.789a.552.552,0,0,1-.517.976h-.057l-7.175-4.305a.329.329,0,0,1-.115-.4A.5.5,0,0,1,254.585,110.582Z" transform="translate(-248.902 -85.906)" fill="#fff"/>
  <path id="Path_268" data-name="Path 268" d="M245.4,123.989l10.849,1.837a.585.585,0,0,1-.23,1.148h-.057l-10.734-2.411a.315.315,0,0,1-.23-.344C245.115,124.046,245.23,123.932,245.4,123.989Z" transform="translate(-245 -91.621)" fill="#fff"/>
  <path id="Path_269" data-name="Path 269" d="M250.961,140.9l7.692-2.927a.581.581,0,1,1,.4,1.091H259l-7.864,2.411a.279.279,0,0,1-.344-.172A.35.35,0,0,1,250.961,140.9Z" transform="translate(-247.459 -97.569)" fill="#fff"/>
  <g id="Group_40" data-name="Group 40" transform="translate(101.848 51.884)">
    <path id="Path_270" data-name="Path 270" d="M427.637,180.491,422.7,177.1a.581.581,0,0,1,.631-.976.056.056,0,0,1,.057.057l4.592,3.846a.287.287,0,0,1-.344.459Z" transform="translate(-422.431 -165.681)" fill="#fff"/>
    <path id="Path_271" data-name="Path 271" d="M433.556,171.534l-7.462-2.3a.658.658,0,0,1-.4-.746c.057-.344.4-.459.746-.4h.057l7.29,2.87a.256.256,0,0,1,.172.344A.5.5,0,0,1,433.556,171.534Z" transform="translate(-423.816 -162.292)" fill="#fff"/>
    <path id="Path_272" data-name="Path 272" d="M432.863,158.517l-5.683,1.378a.564.564,0,0,1-.287-1.091h.057l5.8-.8a.388.388,0,0,1,.344.23A.382.382,0,0,1,432.863,158.517Z" transform="translate(-424.156 -158)" fill="#fff"/>
  </g>
  <path id="Path_273" data-name="Path 273" d="M284.1,123.8l3.559.287a.577.577,0,1,1-.115,1.148h-.115l-3.5-.861a.315.315,0,0,1-.23-.344A.5.5,0,0,1,284.1,123.8Z" transform="translate(-261.486 -91.547)" fill="#24262d"/>
  <path id="Path_274" data-name="Path 274" d="M290.725,183.188l-3.731-1.148a.6.6,0,0,1,.344-1.148.056.056,0,0,1,.057.057l3.5,1.665a.277.277,0,0,1,.115.4C291.012,183.188,290.9,183.245,290.725,183.188Z" transform="translate(-262.713 -115.862)" fill="#24262d"/>
  <path id="Path_275" data-name="Path 275" d="M287.786,119.3l2.239.115a.577.577,0,1,1-.115,1.148h-.172l-2.181-.689a.256.256,0,0,1-.172-.344C287.556,119.357,287.671,119.3,287.786,119.3Z" transform="translate(-263.046 -89.63)" fill="#24262d"/>
  <path id="Path_276" data-name="Path 276" d="M399.5,232.088c.459.861.918,1.722,1.378,2.526a16.071,16.071,0,0,0,1.55,2.3h0a.284.284,0,1,1-.4.4,17.03,17.03,0,0,1-1.894-2.239c-.574-.8-1.091-1.607-1.607-2.411a.565.565,0,0,1,.172-.8.67.67,0,0,1,.8.23Z" transform="translate(-310.359 -137.555)" fill="#24262d"/>
  <path id="Path_277" data-name="Path 277" d="M462.31,108.658c-3.329,2.124-6.659,4.363-9.816,6.773a57.337,57.337,0,0,0-4.477,3.9l-1.033,1.033-.976,1.091a7.41,7.41,0,0,0-1.492,2.353,6.228,6.228,0,0,0-.459,2.7,5.664,5.664,0,0,0,.172,1.378,12.485,12.485,0,0,0,.4,1.378,19.965,19.965,0,0,0,2.526,5.224,17.192,17.192,0,0,0,3.961,4.19,20.882,20.882,0,0,0,5.109,2.755l-.172-.057a36.355,36.355,0,0,0,8.266-.459,38.563,38.563,0,0,0,8.036-2.124,32.406,32.406,0,0,0,3.846-1.665,36.93,36.93,0,0,0,3.616-2.066c1.148-.746,2.3-1.55,3.387-2.411s2.124-1.837,3.157-2.755h0a.284.284,0,0,1,.4.4,35.321,35.321,0,0,1-6.429,5.625,38.091,38.091,0,0,1-7.577,3.961,41.961,41.961,0,0,1-8.266,2.239,35.569,35.569,0,0,1-4.248.459,26.945,26.945,0,0,1-4.305,0h-.115a21.533,21.533,0,0,1-5.453-2.87,19.927,19.927,0,0,1-4.305-4.477,20.631,20.631,0,0,1-2.641-5.568,14.381,14.381,0,0,1-.4-1.492,7.716,7.716,0,0,1,.344-4.822,9.41,9.41,0,0,1,1.722-2.7l1.033-1.148,1.091-1.091a51.119,51.119,0,0,1,4.592-4.018,48.864,48.864,0,0,1,10.332-6.314c.172-.057.287,0,.4.172-.057.172-.115.344-.23.4Z" transform="translate(-329.253 -84.843)" fill="#24262d"/>
  <path id="Path_278" data-name="Path 278" d="M465.5,136.624c.057,1.894-3.444,5.338-7.864,5.453s-8.036-3.272-8.036-5.109c-.057-1.894,3.5-1.894,7.921-2.009C461.883,134.844,465.442,134.73,465.5,136.624Z" transform="translate(-332.156 -96.277)" fill="#24262d"/>
  <path id="Path_279" data-name="Path 279" d="M463.605,147.209c0,.23-.057.574-.057.918v.976c.057.689.115,1.32.23,2.009s.23,1.32.4,2.009c.172.631.344,1.32.517,1.952h0a.279.279,0,0,1-.172.344c-.115.057-.287-.057-.344-.172a19.638,19.638,0,0,1-.746-1.952c-.23-.689-.4-1.32-.574-2.009a13.128,13.128,0,0,1-.4-2.066,6.6,6.6,0,0,1-.057-1.091,4.1,4.1,0,0,1,.115-1.148.545.545,0,0,1,.689-.4.622.622,0,0,1,.459.631Z" transform="translate(-337.609 -101.237)" fill="#24262d"/>
  <path id="Path_280" data-name="Path 280" d="M468.343,167.241a8.3,8.3,0,0,0,1.492,2.009l.459.459.517.4a11.433,11.433,0,0,0,1.091.689,9.4,9.4,0,0,0,5.051.976h.631a2.064,2.064,0,0,0,.631-.115l1.32-.23c.459-.115.861-.23,1.32-.344a10.714,10.714,0,0,0,1.263-.4c.861-.344,1.665-.631,2.526-.976l2.468-1.205h0a.3.3,0,0,1,.287.517l-2.411,1.32c-.8.4-1.665.746-2.526,1.148-.4.172-.861.287-1.32.459-.459.115-.861.287-1.32.4l-1.378.287a2.882,2.882,0,0,1-.689.115l-.689.057a10.625,10.625,0,0,1-5.625-.918,14.518,14.518,0,0,1-1.263-.746l-.574-.459-.517-.517a8.334,8.334,0,0,1-1.722-2.411.57.57,0,0,1,.287-.746c.172-.23.517-.115.689.23Z" transform="translate(-339.706 -109.903)" fill="#24262d"/>
  <path id="Path_281" data-name="Path 281" d="M574.886,83.28a4.994,4.994,0,0,1-1.32,4.018,9.858,9.858,0,0,1-3.674,2.353c-4.879,1.952-7.921-1.779-5.166-6.142,1.091-1.779,2.64-3.846,4.879-4.018S574.484,81.041,574.886,83.28Z" transform="translate(-380.754 -72.667)" fill="#24262d"/>
  <path id="Path_282" data-name="Path 282" d="M465.408,80.116c-.23-.459-.459-.918-.689-1.32a4.507,4.507,0,0,0-2.181-1.837,3.556,3.556,0,0,0-1.894-.115c-4.822.976-3.731,6.027-1.837,9.069C458.577,85.684,464.834,80.518,465.408,80.116Z" transform="translate(-335.394 -71.512)" fill="#24262d"/>
  <g id="Group_41" data-name="Group 41" transform="translate(127.558 16.16)">
    <path id="Path_283" data-name="Path 283" d="M467.324,99.688c-.4,2.411.4,4.018,1.952,4.305s3.272-.976,3.674-3.387-.574-4.592-2.124-4.822S467.726,97.277,467.324,99.688Z" transform="translate(-467.221 -95.764)" fill="#e1e8ea"/>
    <path id="Path_284" data-name="Path 284" d="M468.624,100.688c-.4,2.411.4,4.018,1.952,4.305,1.55.23,3.272-.976,3.674-3.387s-.574-4.592-2.124-4.822S468.968,98.277,468.624,100.688Z" transform="translate(-467.775 -96.19)" fill="#24262d"/>
    <circle id="Ellipse_10" data-name="Ellipse 10" cx="0.976" cy="0.976" r="0.976" transform="translate(1.71 2.546)" fill="#e1e8ea"/>
  </g>
  <g id="Group_42" data-name="Group 42" transform="translate(166.748 15.752)">
    <path id="Path_285" data-name="Path 285" d="M535.613,99.614c-.459,2.813.459,4.879,2.181,5.166,1.779.287,3.731-1.378,4.133-4.133.459-2.813-.631-5.281-2.353-5.568S536.072,96.8,535.613,99.614Z" transform="translate(-535.495 -95.052)" fill="#e1e8ea"/>
    <path id="Path_286" data-name="Path 286" d="M536.613,101.814c-.459,2.813.459,4.879,2.181,5.166,1.779.287,3.731-1.378,4.133-4.133.459-2.813-.631-5.281-2.353-5.568S537.015,99,536.613,101.814Z" transform="translate(-535.921 -95.99)" fill="#24262d"/>
    <circle id="Ellipse_11" data-name="Ellipse 11" cx="0.976" cy="0.976" r="0.976" transform="translate(2.069 3.816)" fill="#e1e8ea"/>
  </g>
  <path id="Path_287" data-name="Path 287" d="M536.557,85.387a5.453,5.453,0,0,1,2.181-1.205,4.183,4.183,0,0,1,2.64.115,4.446,4.446,0,0,1,2.009,1.665c.23.344.4.746.631,1.091a8.714,8.714,0,0,1,.344,1.148c.057.172-.057.287-.23.344a.21.21,0,0,1-.287-.115v-.057a8.637,8.637,0,0,1-.574-.976c-.23-.287-.4-.631-.631-.861a4.559,4.559,0,0,0-1.607-1.205,3.741,3.741,0,0,0-1.952-.172,6.747,6.747,0,0,0-2.066.689h0a.381.381,0,0,1-.4-.115A.223.223,0,0,1,536.557,85.387Z" transform="translate(-369.175 -74.602)" fill="#24262d"/>
  <path id="Path_288" data-name="Path 288" d="M467.883,88.316a3.872,3.872,0,0,1,.861-1.837,3.162,3.162,0,0,1,1.837-1.205,2.943,2.943,0,0,1,2.124.459,4.332,4.332,0,0,1,.8.631,3.951,3.951,0,0,1,.631.746.284.284,0,0,1-.057.4.256.256,0,0,1-.287,0h-.057a8.5,8.5,0,0,1-.746-.459c-.287-.115-.517-.287-.746-.4a2.809,2.809,0,0,0-1.492-.23c-.918.115-1.722,1.091-2.353,2.066h0a.355.355,0,0,1-.4.115A.21.21,0,0,1,467.883,88.316Z" transform="translate(-339.935 -75.12)" fill="#24262d"/>
  <path id="Path_289" data-name="Path 289" d="M453.9,137.946c0,.4,2.124,1.378,4.764,1.378s4.764-.918,4.764-1.378c0-.4-2.124-.746-4.764-.746S453.9,137.487,453.9,137.946Z" transform="translate(-333.988 -97.255)" fill="#e1e8ea" opacity="0.5"/>
  <g id="Group_74" data-name="Group 74" transform="translate(43.742 24.51)">
    <g id="Group_67" data-name="Group 67">
      <g id="Group_66" data-name="Group 66" transform="translate(1.337 1.375)">
        <path id="Path_364" data-name="Path 364" d="M396.318,146.789h-.258a1.284,1.284,0,0,1-.6-.258.79.79,0,0,1-.344-.516.644.644,0,0,1-.086-.43c-.086-.344-.344-1.719-.344-1.719s-.258-1.375-.344-1.719-.086-.6-.172-.946c-.344.086-3.7.688-3.7.688l-1.29.258h-.43a1.332,1.332,0,0,1-.688-.172.851.851,0,0,1-.43-.6,1.09,1.09,0,0,1-.086-.516v-3.525a1.221,1.221,0,0,1,.172-.516c.086-.172.258-.258.43-.43.172-.086.258-.086.43-.172l.688-.086,1.118-.172c.172,0,.258-.086.344-.086a.084.084,0,0,0,.086-.086v-.6l-2.665-14.872a.922.922,0,0,0-.172-.516c-.086-.086-.086-.172-.172-.258a.316.316,0,0,0-.258-.086h-.43l-.516.086-.516.086-.774.172-.258.086h-.516a.929.929,0,0,1-.6-.258.858.858,0,0,1-.344-.43.517.517,0,0,1-.086-.344l-.258-1.461c0-.258-.086-.43-.086-.688-.086-.258-.086-.43-.172-.688,0-.172-.086-.344,0-.516a.781.781,0,0,1,.258-.6.789.789,0,0,1,.516-.344c.086,0,.258-.086.344-.086a6.638,6.638,0,0,1,1.289-.172l2.665-.43a5.807,5.807,0,0,1,1.2-.172c-.086-.258-.086-.6-.172-.86l-.43-2.321c-.086-.344-.172-.774-.258-1.118a3.723,3.723,0,0,0-.086-.43,1.275,1.275,0,0,1,.086-.6.775.775,0,0,1,.516-.516,1.222,1.222,0,0,1,.516-.172l.86-.086.516-.086.516-.086a3.723,3.723,0,0,1,.43-.086h.516a1.386,1.386,0,0,1,.6.344.789.789,0,0,1,.344.516.644.644,0,0,1,.086.43c.086.344.086.774.172,1.118l.43,2.235c.086.258.086.516.172.774l.516-.086a1.948,1.948,0,0,0,.344-.086c-.086-.258-.516-3.009-.516-3.009a5.031,5.031,0,0,1-.172-1.118,3.724,3.724,0,0,0-.086-.43,1.6,1.6,0,0,1,.172-.6,1.46,1.46,0,0,1,.516-.516,1.222,1.222,0,0,1,.516-.172l.6-.086.516-.086.516-.086.258-.086.344-.086h.6a1.386,1.386,0,0,1,.6.344,1.1,1.1,0,0,1,.344.516,3.723,3.723,0,0,1,.086.43,5.031,5.031,0,0,1,.172,1.118l.43,2.321c.086.344.086.6.172.946h.86a5.675,5.675,0,0,1,1.2.086,5.076,5.076,0,0,1,1.2.172,4.927,4.927,0,0,1,1.2.344,12.171,12.171,0,0,1,1.547.688,6.929,6.929,0,0,1,1.2,1.032,7.79,7.79,0,0,1,.946,1.375,9.164,9.164,0,0,1,.6,1.633,16.431,16.431,0,0,1,.344,1.805,12.7,12.7,0,0,1-.086,1.805,6.843,6.843,0,0,1-.6,1.719c-.086.172-.258.344-.344.516.086,0,.172.086.344.086.172.086.43.172.6.258a5.484,5.484,0,0,1,1.2.688,10.314,10.314,0,0,1,1.032.946c.258.344.516.774.774,1.118a6.514,6.514,0,0,1,.516,1.375,19.361,19.361,0,0,1,.43,1.891,15.346,15.346,0,0,1,.172,1.977,7.807,7.807,0,0,1-.258,1.977,7.3,7.3,0,0,1-.774,1.891,12.3,12.3,0,0,1-.946,1.289,4.519,4.519,0,0,1-1.2.946,8.488,8.488,0,0,1-1.29.774c-.344.172-.774.344-1.289.6-.172.086-.43.172-.6.258s-.43.172-.6.258a1.594,1.594,0,0,1-.6.172,1.09,1.09,0,0,1-.516.086,4.319,4.319,0,0,1,.172,1.032l.43,2.235a5.035,5.035,0,0,1,.172,1.118c0,.172.086.344.086.516a1.242,1.242,0,0,1-.172.6.88.88,0,0,1-.516.43c-.172.086-.258.086-.43.172l-.946.172-.6.086-.6.086h-.516a.78.78,0,0,1-.6-.258.789.789,0,0,1-.344-.516.644.644,0,0,1-.086-.43,5.914,5.914,0,0,1-.172-1.118l-.43-2.321c-.086-.258-.086-.516-.172-.86l-.516.086-.344.086c.086.258.516,3.095.516,3.095.086.344.172.774.258,1.118,0,.172.086.344.086.516a1.242,1.242,0,0,1-.172.6.88.88,0,0,1-.516.43c-.172.086-.258.086-.43.172l-.688.086-.516.086-.6.172-.344.086C396.49,146.7,396.4,146.789,396.318,146.789Zm1.031-17.021.6,3.439.258,1.289c.258-.086.516-.086.86-.172.43-.086.86-.172,1.375-.258a13.3,13.3,0,0,0,1.289-.344c.43-.172.86-.344,1.375-.516.086,0,.086-.086.172-.086s.172-.086.258-.086c.086-.086.172-.086.258-.172s.172-.086.258-.172l.516-.516a1.8,1.8,0,0,0,.344-.516,5.485,5.485,0,0,0,.172-.6v-.688c-.086-.258-.086-.516-.258-.688a1.8,1.8,0,0,0-.344-.516l-.43-.43c-.172-.086-.43-.258-.6-.344-.086,0-.172-.086-.344-.086-.086,0-.172-.086-.344-.086a.517.517,0,0,1-.344-.086h-2.063c-.258,0-.6.086-.86.086s-.6.086-.86.086l-.86.172-.516.086Zm-1.977-10.66.774,4.212.516-.086c.344-.086.688-.086,1.032-.172s.688-.172.946-.258a4.191,4.191,0,0,0,.946-.344l.6-.344c.086,0,.086-.086.172-.086a4.776,4.776,0,0,0,.688-.516,1.728,1.728,0,0,0,.344-.688,2.379,2.379,0,0,0,.086-.774,3.054,3.054,0,0,0-.172-.86,3.735,3.735,0,0,0-.344-.6l-.43-.43a4.19,4.19,0,0,0-.6-.258c-.172-.086-.43-.086-.688-.172-.258,0-.43-.086-.688-.086h-.688a1.676,1.676,0,0,0-.688.086c-.258,0-.516.086-.774.086l-1.118.172Z" transform="translate(-382.955 -106.3)" fill="#fbe108"/>
      </g>
      <path id="Path_365" data-name="Path 365" d="M397.561,106.591h.086c.086,0,.086,0,.172.086a.3.3,0,0,1,.086.172c0,.086.086.172.086.258a5.029,5.029,0,0,1,.172,1.118,5.031,5.031,0,0,1,.172,1.118,5.031,5.031,0,0,1,.172,1.118,5.031,5.031,0,0,1,.172,1.118.316.316,0,0,0,.086.258c0,.086.086.086.086.172.086,0,.086.086.172.086H400.4a4.9,4.9,0,0,1,1.118.086,5.031,5.031,0,0,1,1.118.172,5.561,5.561,0,0,1,1.118.344,4.493,4.493,0,0,1,1.289.6,2.733,2.733,0,0,1,1.032.946,3.605,3.605,0,0,1,.774,1.2,4.234,4.234,0,0,1,.516,1.461,5.843,5.843,0,0,1,.258,1.633,9.343,9.343,0,0,1-.086,1.547,4.964,4.964,0,0,1-.516,1.461,6.775,6.775,0,0,1-1.032,1.289h0l-.086.086a.084.084,0,0,1-.086.086l-.086.086c.172,0,.43.086.6.086s.344.086.6.086a1.222,1.222,0,0,1,.516.172c.172.086.344.086.516.172a4.067,4.067,0,0,1,1.032.6,7.744,7.744,0,0,1,.86.774,3.092,3.092,0,0,1,.688,1.032,4.969,4.969,0,0,1,.43,1.2,13.732,13.732,0,0,1,.43,1.805,6.374,6.374,0,0,1,.086,1.805,5.543,5.543,0,0,1-.258,1.719,14.327,14.327,0,0,1-.688,1.719,5.516,5.516,0,0,1-.86,1.118,9.1,9.1,0,0,1-1.032.86,5.478,5.478,0,0,1-1.2.688c-.43.172-.86.344-1.2.516a4.188,4.188,0,0,1-.6.258,1.242,1.242,0,0,1-.6.172,1.242,1.242,0,0,0-.6.172c-.172.086-.43.086-.6.172-.086,0-.258.086-.344.086-.086.086-.172.086-.172.172s-.086.172-.086.258v.344c.086.344.172.774.258,1.118a15742.927,15742.927,0,0,0,.344,2.235,5.031,5.031,0,0,1,.172,1.118v.258c0,.086,0,.172-.086.172,0,.086-.086.086-.172.086s-.172.086-.258.086h-1.031a2994.839,2994.839,0,0,0-1.032.258c-.086,0-.172.086-.344.086h-.258c-.086,0-.086,0-.172-.086-.086,0-.086-.086-.086-.172s-.086-.172-.086-.258a45919.92,45919.92,0,0,1-.344-2.235,13439.189,13439.189,0,0,0-.344-2.235.316.316,0,0,0-.086-.258c0-.086-.086-.086-.086-.172a.3.3,0,0,0-.172-.086h-.258a2187.379,2187.379,0,0,1-.516.172.316.316,0,0,0-.258.086h-.946a.316.316,0,0,0-.258.086.084.084,0,0,0-.086.086v.43a8609.921,8609.921,0,0,0,.344,2.235,5.03,5.03,0,0,1,.172,1.118c.086.344.172.774.258,1.118v.344c0,.086,0,.172-.086.172,0,.086-.086.086-.172.086s-.172.086-.258.086h-.86a8486.013,8486.013,0,0,1-.688.172c-.086,0-.258.086-.344.086s-.258.086-.344.086H394.9c-.086,0-.086,0-.172-.086-.086,0-.086-.086-.086-.172s-.086-.172-.086-.258a5.8,5.8,0,0,1-.172-1.2c-.086-.344-.172-.774-.258-1.118a5.073,5.073,0,0,1-.172-1.2,5.81,5.81,0,0,1-.172-1.2c0-.172-.086-.258-.086-.344a.185.185,0,0,0-.172-.172c-.086,0-.086-.086-.172-.086h-.172c-.43.086-.946.172-1.375.258s-.86.172-1.375.258c-.43.086-.86.172-1.375.258-.43.086-.86.172-1.375.258h-.258c-.086,0-.172,0-.172-.086-.086,0-.086-.086-.086-.172v-3.7c0-.086,0-.086.086-.172a.084.084,0,0,1,.086-.086c.086,0,.086-.086.172-.086h.688a45955.281,45955.281,0,0,1,.774-.258.316.316,0,0,0,.258-.086,5.478,5.478,0,0,0,.6-.172.671.671,0,0,0,.344-.344,1.222,1.222,0,0,0,.172-.516v-.688c-.258-1.2-.43-2.493-.688-3.7s-.43-2.493-.688-3.7-.43-2.493-.688-3.7-.43-2.493-.688-3.7a8.123,8.123,0,0,0-.258-.774,1.264,1.264,0,0,0-.43-.516.78.78,0,0,0-.6-.258c-.172,0-.344-.086-.516-.086h-1.289a7655.43,7655.43,0,0,1-.516.172,43135301.777,43135301.777,0,0,0-.516.172h-.258c-.086,0-.086,0-.172-.086l-.086-.086c0-.086,0-.086-.086-.172,0-.258-.086-.516-.086-.688,0-.258-.086-.516-.086-.688a1.62,1.62,0,0,0-.172-.688c-.086-.258-.086-.43-.172-.688v-.258c0-.086,0-.086.086-.172a.3.3,0,0,1,.172-.086.316.316,0,0,0,.258-.086l1.289-.258,1.289-.258,1.289-.258a6.634,6.634,0,0,1,1.289-.172h.344a.316.316,0,0,0,.258-.086c.086,0,.086-.086.172-.086,0-.086.086-.086.086-.172v-.258c-.086-.344-.172-.774-.258-1.118a5.03,5.03,0,0,1-.172-1.118,5.031,5.031,0,0,1-.172-1.118c-.086-.344-.172-.774-.258-1.118v-.43a.3.3,0,0,0,.086-.172c.086,0,.172-.086.258-.086h1.032a7067.925,7067.925,0,0,1,1.031-.344h.258c.086,0,.086,0,.172.086.086,0,.086.086.086.172s.086.172.086.258c.086.344.086.774.172,1.118a5.029,5.029,0,0,1,.172,1.118,8609.7,8609.7,0,0,0,.344,2.235.316.316,0,0,0,.086.258c0,.086.086.086.086.172l.086.086h.172c.086,0,.258-.086.344-.086s.258-.086.344-.086a8487.253,8487.253,0,0,0,.688-.172h.344a.316.316,0,0,0,.258-.086.084.084,0,0,0,.086-.086v-.43a5.035,5.035,0,0,1-.172-1.118,5.031,5.031,0,0,1-.172-1.118,5.03,5.03,0,0,1-.172-1.118,5.035,5.035,0,0,1-.172-1.118v-.43a.084.084,0,0,1,.086-.086c.086,0,.172-.086.258-.086h1.118a2187.046,2187.046,0,0,1,.516-.172,1276.237,1276.237,0,0,1,.516-.172h0c1.461.086,1.547.086,1.547.086ZM395.5,124.042h.086c.344-.086.688-.086,1.032-.172a4.315,4.315,0,0,1,1.032-.172l1.032-.258c.344-.086.688-.258,1.031-.344.086,0,.172-.086.258-.086s.172-.086.258-.086.172-.086.258-.086.172-.086.258-.086a2.438,2.438,0,0,0,.86-.774,2.049,2.049,0,0,0,.516-.946A4.315,4.315,0,0,0,402.29,120a2.648,2.648,0,0,0-.258-1.118,2.859,2.859,0,0,0-.516-.86,2.317,2.317,0,0,0-.688-.6,3.91,3.91,0,0,0-1.633-.516c-.258,0-.516-.086-.774-.086h-.774a2.38,2.38,0,0,0-.774.086c-.258,0-.516.086-.774.086-.172,0-.258.086-.43.086s-.258.086-.43.086-.258.086-.43.086-.258.086-.43.086c-.086,0-.086,0-.172.086l-.086.086v.344l.258,1.547.258,1.547.258,1.547.258,1.547c0,.086,0,.086.086.172,0,.086,0,.086.086.086,0-.344,0-.258.172-.258Zm1.977,11.175h.086c.43-.086.946-.172,1.375-.258s.946-.172,1.375-.258a8.447,8.447,0,0,0,1.375-.43c.43-.172.946-.344,1.461-.6.086,0,.172-.086.258-.086.086-.086.172-.086.258-.172s.172-.086.258-.172a1.187,1.187,0,0,1,.344-.258,3.974,3.974,0,0,0,.6-.6,3.016,3.016,0,0,0,.43-.688,2.545,2.545,0,0,0,.172-.86v-.946c-.086-.344-.172-.688-.258-.946a2.03,2.03,0,0,0-.516-.774,2.317,2.317,0,0,0-.688-.6,8,8,0,0,0-.86-.43.517.517,0,0,0-.344-.086c-.086,0-.258-.086-.344-.086-.172,0-.258-.086-.43-.086h-1.289a2.925,2.925,0,0,0-.86.086c-.258,0-.6.086-.86.086a3.056,3.056,0,0,0-.86.172,8023.552,8023.552,0,0,1-.86.172,1728681941827.9,1728681941827.9,0,0,0-.86.172c-.086,0-.086,0-.172.086a.084.084,0,0,0-.086.086.266.266,0,0,1-.086.172v.172a12.172,12.172,0,0,0,.344,1.719,12.18,12.18,0,0,0,.344,1.719c.172.6.172,1.118.344,1.719a12.18,12.18,0,0,0,.344,1.719v.172c0,.086,0,.086.086.086-.258-.086-.172-.086-.086,0Zm.086-30.346h-.688a2187.379,2187.379,0,0,0-.516.172h-1.633l-.774.258a2.732,2.732,0,0,0-.86.86h0a1.961,1.961,0,0,0-1.032-.516h-1.118a2187.046,2187.046,0,0,1-.516.172.316.316,0,0,0-.258.086h-1.375c-.344.086-.6.172-.86.258a1.863,1.863,0,0,0-.86.946,1.7,1.7,0,0,0-.172.946,1.678,1.678,0,0,0,.086.6,5.03,5.03,0,0,1,.172,1.118,5.035,5.035,0,0,1,.172,1.118v.172l.172.946a.517.517,0,0,0-.344.086l-1.289.258H385.7l-1.2.172a6.638,6.638,0,0,1-1.29.172,1.222,1.222,0,0,0-.516.172,1.576,1.576,0,0,0-.86.6,1.81,1.81,0,0,0-.43,1.118,2.379,2.379,0,0,0,.086.774c.086.258.086.43.172.688a1.893,1.893,0,0,1,.086.688c0,.258.086.43.086.688l.086.688a1.242,1.242,0,0,0,.172.6,1.872,1.872,0,0,0,.6.774,3.179,3.179,0,0,0,.946.43h.774l.258-.086.258-.086.258-.086h1.375c0,.086,0,.086.086.258l.688,3.7.688,3.7.688,3.7.6,3.525-.258.086-.258.086-.258.086h-.774c-.258.086-.516.086-.688.258a2.03,2.03,0,0,0-.774.688,2.576,2.576,0,0,0-.344.86c0,.172-.086.43,0,.6v3.095a1.908,1.908,0,0,0,.086.774,2.618,2.618,0,0,0,.774,1.118,1.914,1.914,0,0,0,1.118.344h.086a1.09,1.09,0,0,0,.516-.086c.516-.086.946-.172,1.375-.258s.86-.172,1.375-.258l1.375-.258h.172v.086a5.8,5.8,0,0,1,.172,1.2l.086.688.086.516a5.029,5.029,0,0,1,.172,1.118,1.593,1.593,0,0,0,.172.6,1.749,1.749,0,0,0,.516.774,2.344,2.344,0,0,0,1.032.516h.344a1.09,1.09,0,0,0,.516-.086h.086c.086,0,.172-.086.258-.086l.344-.086.344-.086.344-.086h.86c.258-.086.516-.086.688-.258a1.881,1.881,0,0,0,.86-.774c0-.086.086-.086.086-.172l.086.086a2.648,2.648,0,0,0,1.032.43h.258a1.09,1.09,0,0,0,.516-.086h.086l.258-.086.258-.086.258-.086.258-.086h.946c.258-.086.516-.086.688-.172a2.438,2.438,0,0,0,.86-.774,1.843,1.843,0,0,0,.344-1.032,1.894,1.894,0,0,0-.086-.688,4.355,4.355,0,0,1-.172-1.118,5.027,5.027,0,0,1-.172-1.118,5.921,5.921,0,0,1-.172-1.118.316.316,0,0,0-.086-.258c.086,0,.258-.086.344-.086.172-.086.43-.172.6-.258s.43-.172.6-.258c.516-.172.946-.43,1.375-.6.516-.258.946-.516,1.375-.774a5.49,5.49,0,0,0,1.289-1.118,9.378,9.378,0,0,0,1.118-1.461,7.034,7.034,0,0,0,.86-2.063,16.055,16.055,0,0,0,.344-2.149,8.37,8.37,0,0,0-.172-2.063c-.086-.6-.258-1.289-.43-2.063a7.439,7.439,0,0,0-.6-1.461,4.816,4.816,0,0,0-.86-1.289,4.524,4.524,0,0,0-1.2-1.032c-.43-.258-.86-.516-1.375-.774a5.185,5.185,0,0,0,.516-1.633,5.039,5.039,0,0,0,.086-1.977,8.692,8.692,0,0,0-.344-1.977,15.52,15.52,0,0,0-.688-1.805,4.88,4.88,0,0,0-1.032-1.547,9.208,9.208,0,0,0-1.375-1.2,10.7,10.7,0,0,0-1.719-.86,6.443,6.443,0,0,0-1.375-.344,6.636,6.636,0,0,0-1.289-.172c-.43,0-.86-.086-1.289-.086h-.172v-.172a5.8,5.8,0,0,1-.172-1.2l-.086-.344-.172-.86a5.031,5.031,0,0,1-.172-1.118,2.522,2.522,0,0,0-.688-1.375,1.961,1.961,0,0,0-1.032-.516c.688.172.516.172.344.172Zm-1.633,13.668h.258c.258,0,.43-.086.688-.086s.43-.086.688-.086h.688a1.463,1.463,0,0,1,.6.086c.258,0,.43.086.6.086.172.086.258.086.344.172l.258.258a1.878,1.878,0,0,1,.258.43,1.593,1.593,0,0,1,.172.6.644.644,0,0,1-.086.43c-.086.172-.086.258-.172.344a.858.858,0,0,1-.43.344c-.086,0-.086.086-.172.086s-.086.086-.172.086l-.172.086-.172.086-.774.258c-.258.086-.6.172-.86.258s-.43.086-.688.172l-.086-.258-.258-1.547-.258-1.547-.258-.258Zm1.977,10.4h0c.258,0,.344-.086.516-.086a2.65,2.65,0,0,1,.86-.086c.258,0,.516-.086.774-.086h2.063a.316.316,0,0,1,.258.086c.086,0,.172.086.258.086a1.879,1.879,0,0,1,.43.258l.258.258a.447.447,0,0,1,.172.344c.086.172.086.344.172.516v.516a.517.517,0,0,1-.086.344c-.086.086-.086.172-.172.344l-.344.344c-.086.086-.172.086-.172.172-.086.086-.172.086-.172.172-.086,0-.086.086-.172.086h-.172c-.43.172-.774.344-1.29.516a5.654,5.654,0,0,1-1.289.344q-.516.129-1.289.258l-.086-.43-.344-1.719a12.167,12.167,0,0,0-.344-1.719.726.726,0,0,0,.172-.516Z" transform="translate(-381.4 -104.7)" fill="#24262d"/>
    </g>
    <g id="Group_68" data-name="Group 68" transform="translate(2.579 2.063)" opacity="0.46">
      <path id="Path_366" data-name="Path 366" d="M400.686,107.788a5.031,5.031,0,0,1,.172,1.118,5.029,5.029,0,0,1,.172,1.118,5.031,5.031,0,0,1,.172,1.118.316.316,0,0,0,.086.258l.086.086c0-.258-.086-.516-.086-.688a5.03,5.03,0,0,1-.172-1.118,5.031,5.031,0,0,1-.172-1.118,5.029,5.029,0,0,1-.172-1.118.316.316,0,0,0-.086-.258.084.084,0,0,0-.086-.086C400.6,107.272,400.686,107.53,400.686,107.788Z" transform="translate(-386.674 -107.1)" fill="#f2a908"/>
      <path id="Path_367" data-name="Path 367" d="M399.275,137.567v.172c0,.086,0,.086.086.086h0c-.086-.43-.172-.774-.258-1.2a12.183,12.183,0,0,0-.344-1.719,12.193,12.193,0,0,0-.344-1.719,12.168,12.168,0,0,0-.344-1.719v-.172c0-.086,0-.086.086-.172l.086-.086c.086,0,.086,0,.172-.086a35019.861,35019.861,0,0,0,1.719-.344c.258-.086.6-.086.86-.172.258,0,.6-.086.86-.086a2.924,2.924,0,0,0,.86-.086H404a.775.775,0,0,1,.43.086c.172,0,.258.086.344.086s.258.086.344.086a4.014,4.014,0,0,1,.86.43,4.3,4.3,0,0,1,.688.6,6.026,6.026,0,0,1,.516.774.3.3,0,0,0,.086.172v-.086c-.086-.344-.172-.688-.258-.946a2.029,2.029,0,0,0-.516-.774,2.317,2.317,0,0,0-.688-.6,7.97,7.97,0,0,0-.86-.43.517.517,0,0,0-.344-.086c-.086,0-.258-.086-.344-.086-.172,0-.258-.086-.43-.086h-1.29a2.924,2.924,0,0,0-.86.086c-.258,0-.6.086-.86.086a3.055,3.055,0,0,0-.86.172,35019.861,35019.861,0,0,0-1.719.344c-.086,0-.086,0-.172.086a.084.084,0,0,0-.086.086.266.266,0,0,1-.086.172v.172a12.179,12.179,0,0,0,.344,1.719,12.167,12.167,0,0,0,.344,1.719,12.172,12.172,0,0,0,.344,1.719A13.354,13.354,0,0,1,399.275,137.567Z" transform="translate(-386.295 -110.23)" fill="#f2a908"/>
      <path id="Path_368" data-name="Path 368" d="M396.158,120.079l.258,1.547.258,1.547.258,1.547c0,.086,0,.086.086.172,0,.086,0,.086.086.086h0c-.086-.344-.086-.688-.172-1.032l-.258-1.547-.258-1.547-.258-1.547v-.344l.086-.086a.266.266,0,0,0,.172-.086c.172,0,.258-.086.43-.086s.258-.086.43-.086.258-.086.43-.086.258-.086.43-.086c.258,0,.516-.086.774-.086s.516-.086.774-.086h.774a2.38,2.38,0,0,1,.774.086,2.543,2.543,0,0,1,.86.172,3.054,3.054,0,0,1,.774.344,4.3,4.3,0,0,1,.688.6,7.552,7.552,0,0,1,.516.86h0a1.386,1.386,0,0,0-.258-.774,2.861,2.861,0,0,0-.516-.86,2.318,2.318,0,0,0-.688-.6,3.91,3.91,0,0,0-1.633-.516c-.258,0-.516-.086-.774-.086h-.774a2.38,2.38,0,0,0-.774.086c-.258,0-.516.086-.774.086-.172,0-.258.086-.43.086s-.258.086-.43.086-.258.086-.43.086-.258.086-.43.086c-.086,0-.086,0-.172.086l-.086.086v.344Z" transform="translate(-386.014 -108.56)" fill="#f2a908"/>
      <path id="Path_369" data-name="Path 369" d="M411.691,119.7a9.35,9.35,0,0,1-.086,1.547,4.964,4.964,0,0,1-.516,1.461,6.782,6.782,0,0,1-1.032,1.29h0l-.086.086a.084.084,0,0,1-.086.086l-.086.086c.172,0,.43.086.6.086h.172a6.025,6.025,0,0,0,.688-.86,4.232,4.232,0,0,0,.516-1.461,4.7,4.7,0,0,0,.086-1.547,10.756,10.756,0,0,0-.258-1.633c0-.086-.086-.258-.086-.344A5.074,5.074,0,0,1,411.691,119.7Z" transform="translate(-387.965 -108.7)" fill="#f2a908"/>
      <path id="Path_370" data-name="Path 370" d="M402.686,144.216a.316.316,0,0,0-.086-.258c0-.086-.086-.086-.086-.172a.3.3,0,0,0-.172-.086h-.172a1996.853,1996.853,0,0,0-.774.258h-.946a.316.316,0,0,0-.258.086.084.084,0,0,0-.086.086v.43a5.033,5.033,0,0,1,.172,1.118,10596.342,10596.342,0,0,1,.344,2.235c.086.344.172.774.258,1.118v.344c0,.086,0,.172-.086.172,0,.086-.086.086-.172.086s-.172.086-.258.086h-.86a1414.291,1414.291,0,0,1-.688.172c-.086,0-.258.086-.344.086s-.258.086-.344.086h-.258c-.086,0-.086,0-.172-.086v-.086c0,.172.086.258.086.43a.316.316,0,0,0,.086.258c0,.086.086.086.086.172.086,0,.086.086.172.086h.258c.086,0,.258-.086.344-.086s.258-.086.344-.086.258-.086.344-.086a.517.517,0,0,0,.344-.086h.86a.316.316,0,0,0,.258-.086c.086,0,.086-.086.172-.086,0-.086.086-.086.086-.172V149.8c-.086-.344-.172-.774-.258-1.118a19679.36,19679.36,0,0,0-.344-2.235,5.039,5.039,0,0,1-.172-1.118v-.43a.084.084,0,0,1,.086-.086c.086,0,.172-.086.258-.086h.946a22966.02,22966.02,0,0,1,.774-.258h.172c.086,0,.086,0,.172.086h0C402.686,144.474,402.686,144.388,402.686,144.216Z" transform="translate(-386.267 -112.237)" fill="#f2a908"/>
      <path id="Path_371" data-name="Path 371" d="M414.918,132.591a13.745,13.745,0,0,0-.43-1.805V130.7c.086.344.172.688.258,1.118a6.372,6.372,0,0,1,.086,1.805,5.545,5.545,0,0,1-.258,1.719,14.358,14.358,0,0,1-.688,1.719,5.519,5.519,0,0,1-.86,1.118,9.1,9.1,0,0,1-1.032.86,5.476,5.476,0,0,1-1.2.688c-.43.172-.86.344-1.2.516a4.189,4.189,0,0,1-.6.258,1.243,1.243,0,0,1-.6.172c-.172.086-.43.086-.6.172s-.43.086-.6.172c-.086,0-.258.086-.344.086-.086.086-.172.086-.172.172s-.086.172-.086.258v.344c.086.344.172.774.258,1.118a137746.568,137746.568,0,0,0,.344,2.235,5.029,5.029,0,0,1,.172,1.118v.258c0,.086,0,.172-.086.172,0,.086-.086.086-.172.086s-.172.086-.258.086h-1.031a25461.537,25461.537,0,0,0-1.032.258c-.086,0-.172.086-.344.086h-.258c-.086,0-.086,0-.172-.086v-.086c0,.172.086.258.086.43a.316.316,0,0,0,.086.258c0,.086.086.086.086.172.086,0,.086.086.172.086h.258c.086,0,.172-.086.344-.086.086,0,.172-.086.344-.086a2944870103772.946,2944870103772.946,0,0,1,.688-.172h1.031a.316.316,0,0,0,.258-.086c.086,0,.086-.086.172-.086,0-.086.086-.086.086-.172v-.258a20408.644,20408.644,0,0,1-.344-2.235,5.029,5.029,0,0,1-.172-1.118c-.086-.344-.172-.774-.258-1.118v-.344a.316.316,0,0,1,.086-.258c0-.086.086-.086.172-.172s.172-.086.344-.086a1.594,1.594,0,0,0,.6-.172c.172-.086.43-.086.6-.172a1.243,1.243,0,0,1,.6-.172,4.186,4.186,0,0,1,.6-.258c.43-.172.86-.344,1.2-.516a8.578,8.578,0,0,0,1.2-.688,9.1,9.1,0,0,0,1.032-.86,5.513,5.513,0,0,0,.86-1.118,7.764,7.764,0,0,0,.946-3.439A12.839,12.839,0,0,0,414.918,132.591Z" transform="translate(-387.151 -110.412)" fill="#f2a908"/>
      <path id="Path_372" data-name="Path 372" d="M395.733,145.4c0-.172-.086-.258-.086-.344a.185.185,0,0,0-.172-.172c-.086,0-.086-.086-.172-.086h-.258c-.43.086-.946.172-1.375.258s-.86.172-1.375.258c-.43.086-.86.172-1.375.258-.43.086-.86.172-1.375.258H389.2v.6c0,.086.086.086.086.172.086,0,.086.086.172.086h.258c.43-.086.86-.172,1.375-.258.43-.086.86-.172,1.375-.258.43-.086.86-.172,1.375-.258.43-.086.946-.172,1.375-.258h.258c.086,0,.172,0,.172.086l.086.086C395.819,145.66,395.733,145.488,395.733,145.4Z" transform="translate(-385.074 -112.391)" fill="#f2a908"/>
      <path id="Path_373" data-name="Path 373" d="M388.87,121.037a8.106,8.106,0,0,0-.258-.774.88.88,0,0,0-.43-.516.781.781,0,0,0-.6-.258,1.193,1.193,0,0,0-.774,0h-1.032a5106.031,5106.031,0,0,0-1.032.344h-.172c-.086,0-.086,0-.172-.086h0c0,.172.086.344.086.516,0,.086,0,.172.086.172a.084.084,0,0,0,.086.086.3.3,0,0,0,.172.086H385a7658.556,7658.556,0,0,1,.774-.258.315.315,0,0,0,.258-.086h1.805a4.192,4.192,0,0,1,.6.258,2.281,2.281,0,0,1,.43.516v.172C388.956,121.209,388.956,121.123,388.87,121.037Z" transform="translate(-384.4 -108.83)" fill="#f2a908"/>
      <path id="Path_374" data-name="Path 374" d="M393.986,108.9a5.033,5.033,0,0,1,.172,1.118,18366.653,18366.653,0,0,0,.344,2.235.316.316,0,0,0,.086.258c.086.086.086.086.086.172h0c0-.258-.086-.516-.086-.688a5.033,5.033,0,0,1-.172-1.118,5.029,5.029,0,0,1-.172-1.118,5.029,5.029,0,0,1-.172-1.118.316.316,0,0,0-.086-.258.084.084,0,0,0-.086-.086A4.846,4.846,0,0,1,393.986,108.9Z" transform="translate(-385.733 -107.268)" fill="#f2a908"/>
    </g>
  </g>
</svg>
