<svg id="Bear" xmlns="http://www.w3.org/2000/svg" width="180.526" height="178.303" viewBox="0 0 180.526 178.303">
  <g id="Group_73" data-name="Group 73">
    <path id="Path_302" data-name="Path 302" d="M474.294,127.136l.053-.32c-4.058-5.713-6.728-26.8-6.728-26.8S469.061,78.226,461,60.979a40.683,40.683,0,0,0-8.223-11.854c-5.66-5.393-13.349-8.864-23.975-8.543H428c-10.679-.32-18.421,3.15-24.028,8.65a38.276,38.276,0,0,0-7.849,11.213c-8.33,17.3-6.888,39.566-6.888,39.566l-4.272,26.057s-1.709,10.519-3.2,15.164c-.854,2.563-8.6,21.839-12.975,38.338a120.954,120.954,0,0,0-3.791,24.615,96.463,96.463,0,0,0,.961,14.1H486.041a51.032,51.032,0,0,0-.641-15.858v-.374a53.93,53.93,0,0,0,7.689-.267,6.785,6.785,0,0,0,5.446-3.684C502.7,189.823,507.986,165.474,474.294,127.136Z" transform="translate(-321.663 -39.979)" fill="#fff"/>
    <path id="Path_303" data-name="Path 303" d="M547.074,51.277c.534,3.9-1.442,8.33-5.126,9.665a7,7,0,0,1-3.471.374l-.908.16a40.682,40.682,0,0,0-8.223-11.854,7.576,7.576,0,0,1,4.966-7.742,9.519,9.519,0,0,1,9.184,2.456A11.262,11.262,0,0,1,547.074,51.277Z" transform="translate(-398.234 -40.422)" fill="#e1e8ea"/>
    <path id="Path_304" data-name="Path 304" d="M544.419,54.192c.427,3.471-1.228,7.422-4.378,8.65a5.579,5.579,0,0,1-2.937.32l-.748.107A35.408,35.408,0,0,0,529.361,52.7a6.812,6.812,0,0,1,4.218-6.888,7.732,7.732,0,0,1,7.8,2.189A10.37,10.37,0,0,1,544.419,54.192Z" transform="translate(-398.248 -42.269)" fill="#fff"/>
    <path id="Path_305" data-name="Path 305" d="M417.533,41.873c3.044.961,5.5,4.645,4.966,7.849a38.276,38.276,0,0,0-7.849,11.213l-1.228.427a6.933,6.933,0,0,1-3.471-.374c-3.684-1.335-5.66-5.767-5.126-9.665a11.676,11.676,0,0,1,3.578-6.995A9.269,9.269,0,0,1,417.533,41.873Z" transform="translate(-340.189 -40.416)" fill="#fff"/>
    <path id="Path_306" data-name="Path 306" d="M419.747,48.062a5.664,5.664,0,0,1,3.684,5.767,28.283,28.283,0,0,0-5.82,8.276l-.908.32a4.669,4.669,0,0,1-2.563-.267c-2.723-1.015-4.165-4.272-3.791-7.155a9.105,9.105,0,0,1,2.616-5.179A7.08,7.08,0,0,1,419.747,48.062Z" transform="translate(-342.777 -43.348)" fill="#e1e8ea"/>
    <g id="Group_44" data-name="Group 44" transform="translate(122.249 3.913)">
      <path id="Path_308" data-name="Path 308" d="M512.8,46.8l1.922.961c-.374-.32-.748-.641-1.121-.908Z" transform="translate(-512.8 -46.8)" fill="#e1e8ea"/>
    </g>
    <path id="Path_311" data-name="Path 311" d="M467.4,139.4s1.121,5.607,8.223,5.927c0,0,6.247.32,8.864-5.5a16.31,16.31,0,0,1-8.65,2.937A14.043,14.043,0,0,1,467.4,139.4Z" transform="translate(-369.392 -86.042)" fill="#e1e8ea"/>
    <path id="Path_312" data-name="Path 312" d="M364.344,197.084s-10.252-1.655-39.086,26.431c0,0-19.062,27.392-9.291,40.954,0,0,26.431,3.311,42.663-26.431C358.631,238.038,373.421,213.316,364.344,197.084Z" transform="translate(-297.519 -112.917)" fill="#fff"/>
    <path id="Path_314" data-name="Path 314" d="M484.538,102.866a18.6,18.6,0,0,0-6.728-2.937,34.789,34.789,0,0,0-14.844,0,24.671,24.671,0,0,0-3.524,1.121,14.378,14.378,0,0,0-3.2,1.762h0a.264.264,0,0,1-.374-.053.336.336,0,0,1,0-.32,9.741,9.741,0,0,1,3.15-2.349,17.71,17.71,0,0,1,3.684-1.282,31.216,31.216,0,0,1,7.689-.908,34.066,34.066,0,0,1,7.689.961,21.464,21.464,0,0,1,3.684,1.281,9.743,9.743,0,0,1,3.15,2.349.229.229,0,0,1-.053.374c-.053.107-.214.107-.32,0Z" transform="translate(-363.998 -66.702)" fill="#24262d"/>
    <g id="Group_45" data-name="Group 45" transform="translate(66.924 0.047)">
      <path id="Path_315" data-name="Path 315" d="M409.781,100.131a.535.535,0,0,1-.534-.534c0-.32-1.815-33.693,14.47-50.405,6.514-6.728,15-9.932,25.309-9.611a.561.561,0,1,1-.053,1.121c-9.985-.32-18.208,2.777-24.455,9.237-15.965,16.392-14.2,49.284-14.2,49.6.053.267-.16.534-.534.587Z" transform="translate(-409.187 -39.559)" fill="#24262d"/>
    </g>
    <g id="Group_46" data-name="Group 46" transform="translate(106.23)">
      <path id="Path_316" data-name="Path 316" d="M529.2,127.162a.659.659,0,0,1-.427-.214c-4.111-5.767-6.621-26.484-6.728-27.392V99.45c0-.32,1.762-33.212-14.2-49.6-6.247-6.461-14.47-9.558-24.455-9.237a.561.561,0,1,1-.053-1.121c10.252-.267,18.742,2.937,25.256,9.611,15.965,16.446,14.577,48.857,14.47,50.352.16,1.121,2.67,21.412,6.568,26.8a.647.647,0,0,1-.107.8A.392.392,0,0,1,529.2,127.162Z" transform="translate(-482.8 -39.471)" fill="#24262d"/>
    </g>
    <g id="Group_49" data-name="Group 49" transform="translate(63.905 0.481)">
      <g id="Group_47" data-name="Group 47">
        <path id="Path_317" data-name="Path 317" d="M412.272,61.372a9.178,9.178,0,0,1-3.15-.427c-3.738-1.388-6.087-5.767-5.5-10.305a12.426,12.426,0,0,1,3.738-7.315,10.158,10.158,0,0,1,9.771-2.563c3.257,1.068,6.247,4.966,5.393,8.6a.545.545,0,0,1-1.068-.214c.641-2.777-1.6-6.354-4.645-7.315a8.951,8.951,0,0,0-8.65,2.3,11.37,11.37,0,0,0-3.417,6.674c-.427,3.417,1.068,7.742,4.752,9.077a11.553,11.553,0,0,0,4.325.267.566.566,0,0,1,.16,1.121A13.8,13.8,0,0,1,412.272,61.372Z" transform="translate(-403.532 -40.373)" fill="#24262d"/>
      </g>
      <path id="Path_318" data-name="Path 318" d="M419.113,52.2a5.415,5.415,0,0,0-5.019,5.553c.107,2.777,3.1,5.286,5.874,5.713l3.791-5.713A4.794,4.794,0,0,0,419.113,52.2Z" transform="translate(-408.451 -45.884)" fill="#24262d"/>
      <g id="Group_48" data-name="Group 48" transform="translate(66.471 0)">
        <path id="Path_319" data-name="Path 319" d="M539.169,61.265a12.25,12.25,0,0,1-2.189-.16.566.566,0,0,1,.16-1.121,9.9,9.9,0,0,0,4-.107c3.684-1.335,5.233-5.713,4.752-9.077a11.226,11.226,0,0,0-3.417-6.674,8.982,8.982,0,0,0-8.65-2.3c-2.777.908-5.286,3.9-4.592,6.941a.545.545,0,0,1-1.068.214c-.854-3.738,2.082-7.208,5.34-8.223a10.189,10.189,0,0,1,9.771,2.563,12.425,12.425,0,0,1,3.738,7.315c.587,4.485-1.762,8.917-5.5,10.305A6.259,6.259,0,0,1,539.169,61.265Z" transform="translate(-528.019 -40.373)" fill="#24262d"/>
      </g>
      <path id="Path_320" data-name="Path 320" d="M539.01,63.626c2.777-.427,5.66-3.044,5.767-5.874a5.453,5.453,0,0,0-5.019-5.553,4.839,4.839,0,0,0-4.646,5.607Z" transform="translate(-464.807 -45.884)" fill="#24262d"/>
    </g>
    <g id="Group_50" data-name="Group 50" transform="translate(85.139 9.992)">
      <path id="Path_321" data-name="Path 321" d="M448.212,60.2a2.8,2.8,0,0,0-1.121-.694,1.786,1.786,0,0,0-1.281.107,4.327,4.327,0,0,0-1.976,2.243h0a.276.276,0,0,1-.374.16.294.294,0,0,1-.16-.267,5.115,5.115,0,0,1,.641-1.709,3.709,3.709,0,0,1,1.388-1.335,2.938,2.938,0,0,1,2.029-.267,3.12,3.12,0,0,1,1.709,1.121.545.545,0,0,1-.107.8.679.679,0,0,1-.748-.16Z" transform="translate(-443.3 -58.267)" fill="#24262d"/>
      <path id="Path_322" data-name="Path 322" d="M512.1,59.261a2.961,2.961,0,0,1,1.709-1.015,2.708,2.708,0,0,1,2.029.374,3.7,3.7,0,0,1,1.335,1.388,5,5,0,0,1,.587,1.709.36.36,0,0,1-.214.32c-.107,0-.267-.053-.267-.16h0a3.977,3.977,0,0,0-1.869-2.349,1.786,1.786,0,0,0-1.282-.107,2.976,2.976,0,0,0-1.175.694h0a.538.538,0,0,1-.8-.053A.648.648,0,0,1,512.1,59.261Z" transform="translate(-475.311 -58.184)" fill="#24262d"/>
    </g>
    <g id="Group_53" data-name="Group 53" transform="translate(82.902 19.953)">
      <g id="Group_51" data-name="Group 51">
        <path id="Path_323" data-name="Path 323" d="M440.412,80.876c-.427,2.243.534,4.325,2.243,4.645,1.655.32,3.417-1.175,3.844-3.417s-.427-4.859-2.136-5.233C442.708,76.551,440.839,78.633,440.412,80.876Z" transform="translate(-439.67 -76.839)" fill="#e1e8ea"/>
        <path id="Path_324" data-name="Path 324" d="M520.892,80.876c.427,2.243-.534,4.325-2.243,4.645-1.655.32-3.417-1.175-3.844-3.417s.427-4.859,2.136-5.233C518.6,76.551,520.465,78.633,520.892,80.876Z" transform="translate(-474.337 -76.839)" fill="#e1e8ea"/>
        <path id="Path_325" data-name="Path 325" d="M439.212,85.677c-.427,2.243.534,4.325,2.243,4.645,1.655.32,3.417-1.175,3.845-3.417s-.427-4.859-2.136-5.233C441.508,81.352,439.639,83.487,439.212,85.677Z" transform="translate(-439.111 -79.076)" fill="#24262d"/>
        <path id="Path_326" data-name="Path 326" d="M441.6,86.954a.854.854,0,1,0,.854-.854A.843.843,0,0,0,441.6,86.954Z" transform="translate(-440.271 -81.155)" fill="#fff"/>
      </g>
      <g id="Group_52" data-name="Group 52" transform="translate(40.733 2.564)">
        <path id="Path_327" data-name="Path 327" d="M521.592,85.677c.427,2.243-.534,4.325-2.243,4.645-1.655.32-3.417-1.175-3.844-3.417s.427-4.859,2.136-5.233C519.3,81.352,521.165,83.487,521.592,85.677Z" transform="translate(-515.396 -81.64)" fill="#24262d"/>
        <path id="Path_328" data-name="Path 328" d="M517.7,86.954a.854.854,0,1,0,.854-.854A.843.843,0,0,0,517.7,86.954Z" transform="translate(-516.47 -83.719)" fill="#fff"/>
      </g>
    </g>
    <path id="Path_329" data-name="Path 329" d="M463.5,101.437c0,2.243,4.7,6.407,10.519,6.407s10.519-4.165,10.519-6.407-4.7-2.937-10.519-2.937C468.2,98.553,463.5,99.194,463.5,101.437Z" transform="translate(-367.575 -66.981)" fill="#24262d"/>
    <path id="Path_330" data-name="Path 330" d="M472.4,101.574c0,.587,2.563,1.6,5.713,1.6s5.713-1.015,5.713-1.6-2.563-.481-5.713-.481S472.4,100.987,472.4,101.574Z" transform="translate(-371.723 -68.186)" fill="#e1e8ea" opacity="0.5"/>
    <path id="Path_331" data-name="Path 331" d="M471.629,126.259c-6.034,0-10.946-2.883-12.815-6.14-.107-.16-.374-.053-.32.107,1.121,4.966,6.194,10.679,13.135,10.679s12.014-5.713,13.135-10.679c.053-.214-.214-.267-.32-.107C482.629,123.376,477.663,126.259,471.629,126.259Z" transform="translate(-365.239 -77.013)" fill="#24262d"/>
    <path id="Path_332" data-name="Path 332" d="M474.485,133.64a12.415,12.415,0,0,1-9.985-5.34,18.505,18.505,0,0,0,9.932,2.83h.16a18.642,18.642,0,0,0,9.932-2.83,12.755,12.755,0,0,1-10.038,5.34Z" transform="translate(-368.041 -80.869)" fill="#fff"/>
    <path id="Path_333" data-name="Path 333" d="M473.136,142.782a13.671,13.671,0,0,0,5.179,1.442,12.933,12.933,0,0,0,5.233-1.068.276.276,0,0,1,.374.16.257.257,0,0,1-.107.32,8.751,8.751,0,0,1-5.5,1.709,9.017,9.017,0,0,1-5.393-2.082.329.329,0,0,1-.053-.374A.2.2,0,0,1,473.136,142.782Z" transform="translate(-371.925 -87.609)" fill="#24262d"/>
    <path id="Path_334" data-name="Path 334" d="M482.4,119.446c-.107-.8-.214-1.655-.267-2.456a18.85,18.85,0,0,1-.053-2.456.549.549,0,0,1,.587-.534.622.622,0,0,1,.534.534,18.861,18.861,0,0,1-.053,2.456,19.2,19.2,0,0,1-.267,2.456.235.235,0,0,1-.32.214A.238.238,0,0,1,482.4,119.446Z" transform="translate(-376.224 -74.205)" fill="#24262d"/>
    <path id="Path_335" data-name="Path 335" d="M517.564,227.229a20.366,20.366,0,0,0,1.5-9.024,15.132,15.132,0,0,0-.374-2.243c-.16-.748-.427-1.5-.641-2.3-.427-1.549-.8-3.1-1.121-4.7a41.405,41.405,0,0,1-.641-9.611c.107-1.6.32-3.2.587-4.806a16.75,16.75,0,0,0,.427-4.539,4.557,4.557,0,0,0-.641-1.922,3.541,3.541,0,0,0-1.549-1.228,7.883,7.883,0,0,0-4.325-.267,10.8,10.8,0,0,0-4.111,1.762,14.022,14.022,0,0,0-3.257,3.15,17.2,17.2,0,0,0-3.2,8.49,31.919,31.919,0,0,0,.534,9.291.545.545,0,1,1-1.068.214,34.411,34.411,0,0,1-.587-9.665,21.079,21.079,0,0,1,1.068-4.752,17.153,17.153,0,0,1,2.3-4.378,14.537,14.537,0,0,1,3.578-3.417,12.13,12.13,0,0,1,4.592-1.976,12.912,12.912,0,0,1,2.51-.214,7.341,7.341,0,0,1,2.563.534,4.37,4.37,0,0,1,2.082,1.709,5.42,5.42,0,0,1,.854,2.51,18.513,18.513,0,0,1-.427,4.912,46.024,46.024,0,0,0-.587,4.645,36.7,36.7,0,0,0,.587,9.344,44.111,44.111,0,0,0,1.068,4.592c.214.748.427,1.5.641,2.3a12.406,12.406,0,0,1,.374,2.456,16.8,16.8,0,0,1-.267,4.912,12.323,12.323,0,0,1-1.869,4.485.264.264,0,0,1-.374.053C517.511,227.5,517.511,227.336,517.564,227.229Z" transform="translate(-384.102 -107.341)" fill="#24262d"/>
    <path id="Path_336" data-name="Path 336" d="M465.139,245.5a5.156,5.156,0,0,1-2.349-.481,7.671,7.671,0,0,1-4.272-5.66,8.1,8.1,0,0,1,.748-4.752,7.429,7.429,0,0,1,3.471-3.417,7.548,7.548,0,0,1,2.4-.587,17.066,17.066,0,0,1,2.349.053c.747.053,1.5.16,2.243.16a15.172,15.172,0,0,0,2.189-.053,49.037,49.037,0,0,0,8.864-1.068h0a.545.545,0,1,1,.214,1.068,52.25,52.25,0,0,1-9.077,1.228c-.748.053-1.5.053-2.3.053-.8-.053-1.549-.107-2.3-.16a8.265,8.265,0,0,0-4.165.427,5.933,5.933,0,0,0-2.883,2.83,6.663,6.663,0,0,0-.694,4.058,6.146,6.146,0,0,0,1.869,3.631,6.643,6.643,0,0,0,1.709,1.228q.881.481,1.922.961h0a.229.229,0,0,1,.107.374C465.353,245.443,465.246,245.5,465.139,245.5Z" transform="translate(-365.21 -128.117)" fill="#24262d"/>
    <path id="Path_337" data-name="Path 337" d="M468.049,268.847a6.43,6.43,0,0,1-4.966-.32,7.74,7.74,0,0,1-3.684-3.471,7.251,7.251,0,0,1-.587-5.073,7.707,7.707,0,0,1,2.883-4.165.647.647,0,0,1,.8.107.565.565,0,0,1-.107.748,6.811,6.811,0,0,0-2.4,3.577,6.115,6.115,0,0,0,.481,4.218,6.726,6.726,0,0,0,3.1,2.99,9.944,9.944,0,0,0,4.325.854h0a.252.252,0,0,1,.267.267A.2.2,0,0,1,468.049,268.847Z" transform="translate(-365.29 -140.255)" fill="#24262d"/>
    <path id="Path_338" data-name="Path 338" d="M467.576,279.378a13.118,13.118,0,0,0-.214,1.976,7.52,7.52,0,0,0,.267,1.869,5.375,5.375,0,0,0,2.243,2.883,13.685,13.685,0,0,0,3.578,1.655,19.67,19.67,0,0,0,3.9.908,29.127,29.127,0,0,0,8.063.053,15.7,15.7,0,0,0,3.844-1.014,14.594,14.594,0,0,0,3.417-1.976h0a.264.264,0,0,1,.374.053.341.341,0,0,1,0,.32,7.419,7.419,0,0,1-3.364,2.616,16.228,16.228,0,0,1-4.112,1.121,29.762,29.762,0,0,1-8.437.053,27.032,27.032,0,0,1-4.111-.961,14.334,14.334,0,0,1-3.9-1.815,6.245,6.245,0,0,1-2.67-3.578,6.021,6.021,0,0,1-.267-2.189,9.38,9.38,0,0,1,.32-2.136.541.541,0,0,1,.641-.427c.32,0,.481.267.427.587Z" transform="translate(-368.821 -151)" fill="#24262d"/>
    <g id="Group_54" data-name="Group 54" transform="translate(119.771 86.594)">
      <path id="Path_339" data-name="Path 339" d="M553.994,277.656a53.68,53.68,0,0,1-33.212-11.16,52.1,52.1,0,0,1-12.548-13.4.55.55,0,0,1,.961-.534A52.487,52.487,0,0,0,521.476,265.7a53.453,53.453,0,0,0,38.231,10.626,6.4,6.4,0,0,0,5.019-3.417c3.257-6.354,11.106-30.275-24.135-70.322a.568.568,0,0,1,.854-.748c35.668,40.581,27.606,65.036,24.3,71.55a7.512,7.512,0,0,1-5.873,4A56.578,56.578,0,0,1,553.994,277.656Z" transform="translate(-508.159 -201.645)" fill="#24262d"/>
    </g>
    <path id="Path_340" data-name="Path 340" d="M537.512,248.3a27.908,27.908,0,0,0,9.5,4.752,10.938,10.938,0,0,0,1.282.267l.641.107.694.107a24.264,24.264,0,0,1,2.723.481,26.882,26.882,0,0,1,5.34,1.655,24.523,24.523,0,0,1,8.917,6.674,32.281,32.281,0,0,1,5.5,9.558.224.224,0,0,1-.16.32.257.257,0,0,1-.32-.107,41.33,41.33,0,0,0-5.873-9.077,23.586,23.586,0,0,0-8.543-6.3,24.663,24.663,0,0,0-5.126-1.548c-.854-.16-1.762-.32-2.67-.427l-.694-.107-.694-.107a12.713,12.713,0,0,1-1.388-.267,23.267,23.267,0,0,1-5.233-2.082,33.279,33.279,0,0,1-4.7-2.99.586.586,0,0,1-.107-.8.741.741,0,0,1,.908-.107Z" transform="translate(-401.594 -136.746)" fill="#24262d"/>
    <g id="Group_55" data-name="Group 55" transform="translate(163.087 161.847)">
      <path id="Path_341" data-name="Path 341" d="M590.412,343.018a.576.576,0,1,0-1.121.267,47.283,47.283,0,0,1,.587,15.7H591A46.4,46.4,0,0,0,590.412,343.018Z" transform="translate(-589.281 -342.581)" fill="#24262d"/>
    </g>
    <g id="Group_56" data-name="Group 56" transform="translate(16.231 84.134)">
      <path id="Path_342" data-name="Path 342" d="M314.809,242.19h-.16a.562.562,0,0,1-.374-.694c5.019-16.553,30.863-39.032,47.2-44.425a.557.557,0,1,1,.32,1.068c-15.752,5.179-41.6,27.766-46.454,43.678A.53.53,0,0,1,314.809,242.19Z" transform="translate(-314.247 -197.038)" fill="#24262d"/>
    </g>
    <g id="Group_57" data-name="Group 57" transform="translate(63.079 77.484)">
      <path id="Path_343" data-name="Path 343" d="M402.527,192.5h-.053a.552.552,0,0,1-.481-.641c.32-2.189.534-4.485.8-6.781a.537.537,0,0,1,1.068.107c-.214,2.3-.481,4.592-.8,6.835A.568.568,0,0,1,402.527,192.5Z" transform="translate(-401.985 -184.585)" fill="#24262d"/>
    </g>
    <path id="Path_344" data-name="Path 344" d="M380.791,249.958a113.669,113.669,0,0,1,4.058-12.495c.748-2.029,1.6-4.058,2.4-6.087.427-1.015.854-2.029,1.281-2.99.374-1.015.694-2.029,1.068-3.044a.238.238,0,0,1,.32-.16.259.259,0,0,1,.16.32q-.32,1.6-.8,3.2c-.374,1.068-.748,2.082-1.121,3.1l-2.243,6.14c-1.5,4.058-2.883,8.17-4.058,12.334a.523.523,0,0,1-.694.374A.581.581,0,0,1,380.791,249.958Z" transform="translate(-329.024 -126.012)" fill="#24262d"/>
    <g id="Group_58" data-name="Group 58" transform="translate(42.742 142.892)">
      <path id="Path_345" data-name="Path 345" d="M367.85,307.732a.545.545,0,0,0-1.068-.214c-2.937,12.922-3.631,24.348-2.082,34.974h1.121C364.22,331.973,364.914,320.6,367.85,307.732Z" transform="translate(-363.898 -307.081)" fill="#24262d"/>
    </g>
    <g id="Group_72" data-name="Group 72" transform="translate(0 17.479)">
      <path id="Path_346" data-name="Path 346" d="M360.054,125.542h0c-1.5,2.99-4.592,6.087-11.106,7.529h-.48c-2.136.107-10.572.641-12.975,1.6a6.615,6.615,0,0,0-2.563,1.015A5.74,5.74,0,0,0,330.58,139c0,.053,0,.107-.053.107a6.3,6.3,0,0,0-.214,1.068v.214a8.49,8.49,0,0,0-.374,1.922c-.32,2.456-.427,7.208,1.869,13.883a50.882,50.882,0,0,0,2.937,6.995s6.781,24.615-13.616,38.925c0,0-3.417,2.937-10.038,4.165a35.688,35.688,0,0,1-15.378-.908s-19.222-20.878-8.33-51.26c0,0,6.835-18.528,12.014-22.96,0,0-4.325-4.806-2.51-8.65,0,0-6.674-10.305-1.869-15.431a9.034,9.034,0,0,1,7.369-3.738s.374-8.7,14.47-13.4c0,0,2.3-11.053,9.077-13.723,0,0,11.373-6.3,17.087-1.228,0,0,5.98,4.218,3.2,11A36.359,36.359,0,0,1,334.264,98.15s-6.621,15.858,11.213,16.713c0,0,9.985-5.073,14.363.908a8.287,8.287,0,0,1,1.281,2.67A11.36,11.36,0,0,1,360.054,125.542Z" transform="translate(-283.939 -72.576)" fill="#fff"/>
      <g id="Group_59" data-name="Group 59" transform="translate(32.405)">
        <path id="Path_349" data-name="Path 349" d="M345.105,89.77h-.16a.523.523,0,0,1-.374-.694c2.883-9.932,8.7-15.538,17.247-16.713a15.723,15.723,0,0,1,9.718,1.655c3.791,2.243,4.378,7.315,3.631,11.32-.107.481-.32.641-.534.694a.7.7,0,0,1-.641-.16.586.586,0,0,1-.16-.641.564.564,0,0,1,.32-.374c.587-3.631.053-7.956-3.15-9.825a14.277,14.277,0,0,0-9.024-1.5c-8.063,1.068-13.509,6.407-16.286,15.912A.928.928,0,0,1,345.105,89.77Z" transform="translate(-344.538 -72.206)" fill="#24262d"/>
      </g>
      <path id="Path_350" data-name="Path 350" d="M339.856,173.676a34.58,34.58,0,0,0,5.233.427,34.025,34.025,0,0,0,5.233-.267,27.94,27.94,0,0,0,5.073-1.175,20.7,20.7,0,0,0,4.592-2.349h.053a.2.2,0,0,1,.16-.053h0a39.783,39.783,0,0,1,5.019-1.015,41.583,41.583,0,0,1,5.126-.481h1.281a8.73,8.73,0,0,0,1.175-.107,19.711,19.711,0,0,0,2.456-.427,20.054,20.054,0,0,0,4.645-1.655,12.931,12.931,0,0,0,3.844-2.937,10.136,10.136,0,0,0,1.388-1.976,10.515,10.515,0,0,0,.961-2.243,11.266,11.266,0,0,0,.481-2.4c.053-.427.053-.8.107-1.228a4.364,4.364,0,0,0-.16-1.121,6.213,6.213,0,0,0-2.563-3.738.541.541,0,1,1,.587-.908h0a7.4,7.4,0,0,1,3.044,4.432,3.823,3.823,0,0,1,.16,1.388c-.053.427-.053.908-.107,1.335a13.654,13.654,0,0,1-.534,2.563A19.8,19.8,0,0,1,386.1,162.2a12.093,12.093,0,0,1-1.549,2.136,14.077,14.077,0,0,1-4.165,3.15,19.987,19.987,0,0,1-4.912,1.762,21.379,21.379,0,0,1-2.563.427,10.4,10.4,0,0,1-1.335.107h-1.228a39.066,39.066,0,0,0-4.966.481,50.056,50.056,0,0,0-4.912,1.015h0l.16-.107a18.4,18.4,0,0,1-4.859,2.563,22.719,22.719,0,0,1-5.34,1.175,30.942,30.942,0,0,1-5.446.107,30.167,30.167,0,0,1-5.34-.908.238.238,0,0,1-.16-.32c.107-.053.214-.16.374-.107Z" transform="translate(-309.768 -108.429)" fill="#24262d"/>
      <g id="Group_60" data-name="Group 60" transform="translate(45.302 63.741)">
        <path id="Path_351" data-name="Path 351" d="M369.711,253.69a.321.321,0,0,1-.214-.053.593.593,0,0,1-.267-.748c5.927-12.548,7.529-23.227,4.806-31.717l-.107-.267c-.534-1.762-1.228-3.471-1.869-5.179a50.691,50.691,0,0,1-2.83-9.024,25.529,25.529,0,0,1,1.228-14.791.546.546,0,0,1,.747-.267.531.531,0,0,1,.267.748c-1.762,3.951-2.136,8.81-1.175,14.15a53.506,53.506,0,0,0,2.777,8.864c.641,1.709,1.335,3.417,1.869,5.233l.107.267c2.83,8.757,1.175,19.7-4.859,32.518A.613.613,0,0,1,369.711,253.69Z" transform="translate(-368.693 -191.58)" fill="#24262d"/>
      </g>
      <g id="Group_61" data-name="Group 61" transform="translate(0 57.902)">
        <path id="Path_352" data-name="Path 352" d="M305.128,257.671c-5.874,0-9.665-1.548-9.932-1.815-7.369-8.169-10.092-20.717-10.2-21.251-6.034-30.222,13.669-53.5,13.883-53.769a.568.568,0,0,1,.854.748c-.214.214-19.543,23.12-13.616,52.808,0,.107,2.723,12.708,9.878,20.664.908.374,15.645,6.247,33.853-7.636a.571.571,0,0,1,.694.908c-9.878,7.529-18.8,9.237-24.562,9.4A4.888,4.888,0,0,0,305.128,257.671Z" transform="translate(-283.85 -180.645)" fill="#24262d"/>
      </g>
      <g id="Group_70" data-name="Group 70" transform="translate(38.426 10.694)">
        <g id="Group_65" data-name="Group 65">
          <g id="Group_62" data-name="Group 62" transform="translate(0 0.452)">
            <path id="Path_353" data-name="Path 353" d="M374.734,94l-3.311.854a19.419,19.419,0,1,0,9.558,37.644l3.791-.961Z" transform="translate(-356.267 -93.509)" fill="#ffec79"/>
            <path id="Path_354" data-name="Path 354" d="M375.777,133.191a20,20,0,0,1-19.329-15,19.941,19.941,0,0,1,14.417-24.242l3.31-.854a.525.525,0,1,1,.267,1.015l-3.311.854a18.869,18.869,0,1,0,9.291,36.576l3.791-.961a.525.525,0,1,1,.267,1.015l-3.791.961A19.7,19.7,0,0,1,375.777,133.191Z" transform="translate(-355.816 -93.081)" fill="#24262d"/>
          </g>
          <circle id="Ellipse_12" data-name="Ellipse 12" cx="19.436" cy="19.436" r="19.436" transform="translate(3.287 0.651) rotate(-0.547)" fill="#fbe108"/>
          <path id="Path_355" data-name="Path 355" d="M400.327,112.7a19.085,19.085,0,0,1,1.015,2.937A19.425,19.425,0,0,1,365.3,129.413a19.424,19.424,0,0,0,36.629-12.548A19.734,19.734,0,0,0,400.327,112.7Z" transform="translate(-360.236 -101.772)" fill="#f4bb06"/>
          <g id="Group_63" data-name="Group 63" transform="translate(2.937)">
            <path id="Path_356" data-name="Path 356" d="M381.277,132.1a20,20,0,0,1-19.329-15,19.941,19.941,0,0,1,14.417-24.242,19.936,19.936,0,0,1,24.242,14.417,19.941,19.941,0,0,1-14.417,24.242A21.686,21.686,0,0,1,381.277,132.1Zm0-38.819a19.776,19.776,0,0,0-4.645.587,18.875,18.875,0,1,0,4.645-.587Z" transform="translate(-361.316 -92.234)" fill="#24262d"/>
          </g>
          <circle id="Ellipse_13" data-name="Ellipse 13" cx="15.965" cy="15.965" r="15.965" transform="translate(6.726 4.139) rotate(-0.736)" fill="#f4bb06"/>
          <path id="Path_357" data-name="Path 357" d="M389.959,99.967a10.225,10.225,0,0,0-2.189-.267L373.3,124.048a22.132,22.132,0,0,0,1.281,1.815Z" transform="translate(-363.964 -95.713)" fill="#fbe108"/>
          <path id="Path_358" data-name="Path 358" d="M381,143.766a16.176,16.176,0,0,0,6.087,2.777l4.912-8.33a15.923,15.923,0,0,0-4.325-5.713Z" transform="translate(-367.553 -111)" fill="#fbe108"/>
          <path id="Path_359" data-name="Path 359" d="M406.825,102.5l-5.126,8.65a5.928,5.928,0,0,0,4.325,5.713l6.14-10.359A16.341,16.341,0,0,0,406.825,102.5Z" transform="translate(-377.199 -97.018)" fill="#fbe108"/>
          <path id="Path_360" data-name="Path 360" d="M370.644,120.836a15.966,15.966,0,0,1,25.95-15.965,15.944,15.944,0,1,0-22.213,22.8A15.317,15.317,0,0,1,370.644,120.836Z" transform="translate(-361.895 -95.705)" fill="#f2a908" opacity="0.46"/>
          <g id="Group_64" data-name="Group 64" transform="translate(6.429 3.368)">
            <path id="Path_361" data-name="Path 361" d="M384.325,131.571a16.6,16.6,0,1,1,4.111-.534h0A15.812,15.812,0,0,1,384.325,131.571Zm3.951-1.015Zm-3.951-30.863a15.374,15.374,0,0,0-3.791.481,15.142,15.142,0,0,0-9.451,7.1,15.421,15.421,0,0,0,17.033,22.853h0a15.141,15.141,0,0,0,9.451-7.1,15.427,15.427,0,0,0-13.242-23.334Z" transform="translate(-367.856 -98.542)" fill="#24262d"/>
          </g>
        </g>
        <path id="Path_362" data-name="Path 362" d="M358.348,128.958l1.762-.587a.541.541,0,0,1,.374,1.015.2.2,0,0,0-.16.053l-1.869.107a.252.252,0,0,1-.267-.267C358.134,129.065,358.241,128.958,358.348,128.958Z" transform="translate(-356.914 -109.06)" fill="#24262d"/>
        <path id="Path_363" data-name="Path 363" d="M359.414,125.992l1.121-.427a.541.541,0,1,1,.374,1.015.4.4,0,0,1-.267.053l-1.175-.107a.286.286,0,0,1-.267-.267A.533.533,0,0,1,359.414,125.992Z" transform="translate(-357.393 -107.749)" fill="#24262d"/>
        <g id="Group_69" data-name="Group 69" transform="translate(13.661 6.657)">
          <g id="Group_67" data-name="Group 67">
            <g id="Group_66" data-name="Group 66" transform="translate(0.83 0.854)">
              <path id="Path_364" data-name="Path 364" d="M391.256,131.449h-.16a.8.8,0,0,1-.374-.16.491.491,0,0,1-.214-.32.4.4,0,0,1-.053-.267c-.053-.214-.214-1.068-.214-1.068s-.16-.854-.214-1.068-.053-.374-.107-.587c-.214.053-2.3.427-2.3.427l-.8.16h-.267a.827.827,0,0,1-.427-.107.529.529,0,0,1-.267-.374.677.677,0,0,1-.053-.32v-2.189a.758.758,0,0,1,.107-.32c.053-.107.16-.16.267-.267.107-.053.16-.053.267-.107l.427-.053.694-.107c.107,0,.16-.053.214-.053a.052.052,0,0,0,.053-.053v-.374L386.183,115a.572.572,0,0,0-.107-.32c-.053-.053-.053-.107-.107-.16a.2.2,0,0,0-.16-.053h-.267l-.32.053-.32.053-.481.107-.16.053h-.32a.577.577,0,0,1-.374-.16.534.534,0,0,1-.214-.267.321.321,0,0,1-.053-.214l-.16-.908c0-.16-.053-.267-.053-.427-.053-.16-.053-.267-.107-.427,0-.107-.053-.214,0-.32a.485.485,0,0,1,.16-.374.49.49,0,0,1,.32-.214c.053,0,.16-.053.214-.053a4.123,4.123,0,0,1,.8-.107L386.13,111a3.606,3.606,0,0,1,.748-.107c-.053-.16-.053-.374-.107-.534l-.267-1.442c-.053-.214-.107-.481-.16-.694a2.314,2.314,0,0,0-.053-.267.792.792,0,0,1,.053-.374.481.481,0,0,1,.32-.32.759.759,0,0,1,.32-.107l.534-.053.32-.053.32-.053a2.312,2.312,0,0,1,.267-.053h.32a.86.86,0,0,1,.374.214.49.49,0,0,1,.214.32.4.4,0,0,1,.053.267c.053.214.053.481.107.694l.267,1.388c.053.16.053.32.107.481l.32-.053a1.21,1.21,0,0,0,.214-.053c-.053-.16-.32-1.869-.32-1.869a3.124,3.124,0,0,1-.107-.694,2.313,2.313,0,0,0-.053-.267.99.99,0,0,1,.107-.374.907.907,0,0,1,.32-.32.759.759,0,0,1,.32-.107l.374-.053.32-.053.32-.053.16-.053.214-.053h.374a.861.861,0,0,1,.374.214.681.681,0,0,1,.214.32,2.314,2.314,0,0,1,.053.267,3.124,3.124,0,0,1,.107.694l.267,1.442c.053.214.053.374.107.587h.534a3.525,3.525,0,0,1,.748.053,3.152,3.152,0,0,1,.748.107,3.059,3.059,0,0,1,.747.214,7.563,7.563,0,0,1,.961.427,4.306,4.306,0,0,1,.748.641,4.836,4.836,0,0,1,.587.854,5.688,5.688,0,0,1,.374,1.015,10.217,10.217,0,0,1,.214,1.121,7.889,7.889,0,0,1-.053,1.121,4.25,4.25,0,0,1-.374,1.068c-.053.107-.16.214-.214.32.053,0,.107.053.214.053.107.053.267.107.374.16a3.4,3.4,0,0,1,.748.427,6.412,6.412,0,0,1,.641.587c.16.214.32.481.481.694a4.048,4.048,0,0,1,.32.854,12.032,12.032,0,0,1,.267,1.175,9.525,9.525,0,0,1,.107,1.228,4.848,4.848,0,0,1-.16,1.228,4.532,4.532,0,0,1-.481,1.175,7.63,7.63,0,0,1-.587.8,2.806,2.806,0,0,1-.748.587,5.274,5.274,0,0,1-.8.481c-.214.107-.481.214-.8.374-.107.053-.267.107-.374.16s-.267.107-.374.16a.99.99,0,0,1-.374.107.677.677,0,0,1-.32.053,2.681,2.681,0,0,1,.107.641l.267,1.388a3.126,3.126,0,0,1,.107.694c0,.107.053.214.053.32a.772.772,0,0,1-.107.374.547.547,0,0,1-.32.267c-.107.053-.16.053-.267.107l-.587.107-.374.053-.374.053h-.32a.485.485,0,0,1-.374-.16.49.49,0,0,1-.214-.32.4.4,0,0,1-.053-.267,3.674,3.674,0,0,1-.107-.694l-.267-1.442c-.053-.16-.053-.32-.107-.534l-.32.053-.214.053c.053.16.32,1.922.32,1.922.053.214.107.481.16.694,0,.107.053.214.053.32a.772.772,0,0,1-.107.374.547.547,0,0,1-.32.267c-.107.053-.16.053-.267.107l-.427.053-.32.053-.374.107-.214.053C391.362,131.4,391.309,131.449,391.256,131.449Zm.641-10.572.374,2.136.16.8c.16-.053.32-.053.534-.107.267-.053.534-.107.854-.16a8.263,8.263,0,0,0,.8-.214c.267-.107.534-.214.854-.32.053,0,.053-.053.107-.053s.107-.053.16-.053c.053-.053.107-.053.16-.107s.107-.053.16-.107l.32-.32a1.117,1.117,0,0,0,.214-.32,3.4,3.4,0,0,0,.107-.374v-.427c-.053-.16-.053-.32-.16-.427a1.119,1.119,0,0,0-.214-.32l-.267-.267c-.107-.053-.267-.16-.374-.214-.053,0-.107-.053-.214-.053-.053,0-.107-.053-.214-.053a.321.321,0,0,1-.214-.053h-1.281c-.16,0-.374.053-.534.053s-.374.053-.534.053l-.534.107-.32.053Zm-1.228-6.621.481,2.616.32-.053c.214-.053.427-.053.641-.107s.427-.107.587-.16a2.6,2.6,0,0,0,.587-.214l.374-.214c.053,0,.053-.053.107-.053a2.966,2.966,0,0,0,.427-.32,1.074,1.074,0,0,0,.214-.427,1.478,1.478,0,0,0,.053-.481,1.9,1.9,0,0,0-.107-.534,2.327,2.327,0,0,0-.214-.374l-.267-.267a2.6,2.6,0,0,0-.374-.16c-.107-.053-.267-.053-.427-.107-.16,0-.267-.053-.427-.053h-.427a1.041,1.041,0,0,0-.427.053c-.16,0-.32.053-.481.053l-.694.107Z" transform="translate(-382.955 -106.3)" fill="#fbe108"/>
            </g>
            <path id="Path_365" data-name="Path 365" d="M391.438,105.875h.053c.053,0,.053,0,.107.053a.186.186,0,0,1,.053.107c0,.053.053.107.053.16a5521.785,5521.785,0,0,1,.214,1.388,141734.241,141734.241,0,0,0,.214,1.388.2.2,0,0,0,.053.16c0,.053.053.053.053.107.053,0,.053.053.107.053h.854a3.045,3.045,0,0,1,.694.053,3.124,3.124,0,0,1,.694.107,3.453,3.453,0,0,1,.694.214,2.792,2.792,0,0,1,.8.374,1.7,1.7,0,0,1,.641.587,2.24,2.24,0,0,1,.481.748,2.631,2.631,0,0,1,.32.908,3.631,3.631,0,0,1,.16,1.015,5.8,5.8,0,0,1-.053.961,3.084,3.084,0,0,1-.32.908,4.212,4.212,0,0,1-.641.8h0l-.053.053a.052.052,0,0,1-.053.053l-.053.053c.107,0,.267.053.374.053s.214.053.374.053a.759.759,0,0,1,.32.107c.107.053.214.053.32.107a2.527,2.527,0,0,1,.641.374,4.8,4.8,0,0,1,.534.481,1.92,1.92,0,0,1,.427.641,3.087,3.087,0,0,1,.267.748,8.529,8.529,0,0,1,.267,1.121,3.961,3.961,0,0,1,.053,1.121,3.443,3.443,0,0,1-.16,1.068,8.891,8.891,0,0,1-.427,1.068,3.428,3.428,0,0,1-.534.694,5.652,5.652,0,0,1-.641.534,3.4,3.4,0,0,1-.748.427c-.267.107-.534.214-.747.32a2.606,2.606,0,0,1-.374.16.772.772,0,0,1-.374.107.772.772,0,0,0-.374.107c-.107.053-.267.053-.374.107-.053,0-.16.053-.214.053-.053.053-.107.053-.107.107s-.053.107-.053.16v.214c.053.214.107.481.16.694a17006.721,17006.721,0,0,0,.214,1.388,3.126,3.126,0,0,1,.107.694v.16c0,.053,0,.107-.053.107,0,.053-.053.053-.107.053s-.107.053-.16.053h-.641a2183.7,2183.7,0,0,1-.427.107.4.4,0,0,0-.214.053c-.053,0-.107.053-.214.053h-.16c-.053,0-.053,0-.107-.053-.053,0-.053-.053-.053-.107s-.053-.107-.053-.16a141738.806,141738.806,0,0,1-.214-1.388,16352.735,16352.735,0,0,0-.214-1.388.2.2,0,0,0-.053-.16c0-.053-.053-.053-.053-.107a.186.186,0,0,0-.107-.053h-.16a3546.679,3546.679,0,0,1-.481.16h-.587a.2.2,0,0,0-.16.053.052.052,0,0,0-.053.053v.267a16353.105,16353.105,0,0,0,.214,1.388,3.126,3.126,0,0,1,.107.694c.053.214.107.481.16.694v.214c0,.053,0,.107-.053.107,0,.053-.053.053-.107.053s-.107.053-.16.053H390.8a935.087,935.087,0,0,0-.427.107c-.053,0-.16.053-.214.053s-.16.053-.214.053h-.16c-.053,0-.053,0-.107-.053-.053,0-.053-.053-.053-.107s-.053-.107-.053-.16a3.6,3.6,0,0,1-.107-.748c-.053-.214-.107-.481-.16-.694a3.151,3.151,0,0,1-.107-.748,3.6,3.6,0,0,1-.107-.748c0-.107-.053-.16-.053-.214a.115.115,0,0,0-.107-.107c-.053,0-.053-.053-.107-.053h-.107c-.267.053-.587.107-.854.16s-.534.107-.854.16c-.267.053-.534.107-.854.16-.267.053-.534.107-.854.16h-.16c-.053,0-.107,0-.107-.053-.053,0-.053-.053-.053-.107v-2.3c0-.053,0-.053.053-.107a.052.052,0,0,1,.053-.053c.053,0,.053-.053.107-.053h.427a4431.2,4431.2,0,0,1,.641-.214,3.414,3.414,0,0,0,.374-.107.417.417,0,0,0,.214-.214.759.759,0,0,0,.107-.32v-.427c-.16-.748-.267-1.548-.427-2.3s-.267-1.548-.427-2.3-.267-1.548-.427-2.3-.267-1.548-.427-2.3a5.048,5.048,0,0,0-.16-.481.785.785,0,0,0-.267-.32.485.485,0,0,0-.374-.16c-.107,0-.214-.053-.32-.053h-.8a3222.167,3222.167,0,0,1-.48.16.2.2,0,0,0-.16.053h-.16c-.053,0-.053,0-.107-.053l-.053-.053c0-.053,0-.053-.053-.107,0-.16-.053-.32-.053-.427,0-.16-.053-.32-.053-.427a1.006,1.006,0,0,0-.107-.427c-.053-.16-.053-.267-.107-.427v-.16c0-.053,0-.053.053-.107a.186.186,0,0,1,.107-.053.2.2,0,0,0,.16-.053l.8-.16.8-.16.8-.16a4.122,4.122,0,0,1,.8-.107h.214a.2.2,0,0,0,.16-.053c.053,0,.053-.053.107-.053,0-.053.053-.053.053-.107v-.16c-.053-.214-.107-.481-.16-.694a106302.389,106302.389,0,0,1-.214-1.388c-.053-.214-.107-.481-.16-.694v-.267a.186.186,0,0,0,.053-.107c.053,0,.107-.053.16-.053h.641a464211131561.356,464211131561.356,0,0,1,.32-.107,1313.088,1313.088,0,0,0,.32-.107h.16c.053,0,.053,0,.107.053.053,0,.053.053.053.107s.053.107.053.16c.053.214.053.481.107.694a16352.411,16352.411,0,0,0,.214,1.388,3.126,3.126,0,0,1,.107.694.2.2,0,0,0,.053.16c0,.053.053.053.053.107l.053.053h.107c.053,0,.16-.053.214-.053s.16-.053.214-.053a3275.591,3275.591,0,0,1,.427-.107h.214a.2.2,0,0,0,.16-.053.052.052,0,0,0,.053-.053v-.267a17006.722,17006.722,0,0,1-.214-1.388,4127.792,4127.792,0,0,1-.214-1.388v-.267a.052.052,0,0,1,.053-.053c.053,0,.107-.053.16-.053h.694a1181.022,1181.022,0,0,1,.32-.107,1969.5,1969.5,0,0,1,.32-.107h0c.908.053.961.053.961.053Zm-1.282,10.839h.053c.214-.053.427-.053.641-.107a2.68,2.68,0,0,1,.641-.107l.641-.16c.214-.053.427-.16.641-.214.053,0,.107-.053.16-.053s.107-.053.16-.053.107-.053.16-.053.107-.053.16-.053a1.514,1.514,0,0,0,.534-.481,1.273,1.273,0,0,0,.32-.587,2.68,2.68,0,0,0,.107-.641,1.645,1.645,0,0,0-.16-.694,1.776,1.776,0,0,0-.32-.534,1.438,1.438,0,0,0-.427-.374,2.428,2.428,0,0,0-1.014-.32c-.16,0-.32-.053-.481-.053h-.48a1.479,1.479,0,0,0-.481.053c-.16,0-.32.053-.481.053-.107,0-.16.053-.267.053s-.16.053-.267.053-.16.053-.267.053-.16.053-.267.053c-.053,0-.053,0-.107.053l-.053.053v.214l.16.961.16.961.16.961.16.961c0,.053,0,.053.053.107,0,.053,0,.053.053.053,0-.214,0-.16.107-.16Zm1.228,6.941h.053c.267-.053.587-.107.854-.16s.587-.107.854-.16a5.249,5.249,0,0,0,.854-.267c.267-.107.587-.214.908-.374.053,0,.107-.053.16-.053.053-.053.107-.053.16-.107s.107-.053.16-.107a.738.738,0,0,1,.214-.16,2.472,2.472,0,0,0,.374-.374,1.876,1.876,0,0,0,.267-.427,1.579,1.579,0,0,0,.107-.534v-.587c-.053-.214-.107-.427-.16-.587a1.26,1.26,0,0,0-.32-.481,1.439,1.439,0,0,0-.427-.374,4.97,4.97,0,0,0-.534-.267.321.321,0,0,0-.214-.053c-.053,0-.16-.053-.214-.053-.107,0-.16-.053-.267-.053h-.8a1.817,1.817,0,0,0-.534.053c-.16,0-.374.053-.534.053a1.9,1.9,0,0,0-.534.107,4504.28,4504.28,0,0,1-.534.107,3811.758,3811.758,0,0,0-.534.107c-.053,0-.053,0-.107.053a.052.052,0,0,0-.053.053.165.165,0,0,1-.053.107v.107a37746.415,37746.415,0,0,0,.427,2.136c.107.374.107.694.214,1.068a7.558,7.558,0,0,0,.214,1.068v.107c0,.053,0,.053.053.053-.16-.053-.107-.053-.053,0Zm.053-18.849h-.427a1687.841,1687.841,0,0,0-.32.107h-1.014l-.481.16a1.7,1.7,0,0,0-.534.534h0a1.218,1.218,0,0,0-.641-.32h-.694a787.271,787.271,0,0,1-.32.107.2.2,0,0,0-.16.053h-.854c-.214.053-.374.107-.534.16a1.157,1.157,0,0,0-.534.587,1.056,1.056,0,0,0-.107.587,1.042,1.042,0,0,0,.053.374,425216.4,425216.4,0,0,1,.214,1.388v.107l.107.587a.321.321,0,0,0-.214.053l-.8.16h-.107l-.747.107a4.123,4.123,0,0,1-.8.107.759.759,0,0,0-.32.107.979.979,0,0,0-.534.374,1.125,1.125,0,0,0-.267.694,1.478,1.478,0,0,0,.053.481c.053.16.053.267.107.427a1.176,1.176,0,0,1,.053.427c0,.16.053.267.053.427l.053.427a.772.772,0,0,0,.107.374,1.163,1.163,0,0,0,.374.481,1.974,1.974,0,0,0,.587.267h.481l.16-.053.16-.053.16-.053h.854c0,.053,0,.053.053.16l.427,2.3.427,2.3.427,2.3.374,2.189-.16.053-.16.053-.16.053h-.481c-.16.053-.32.053-.427.16a1.26,1.26,0,0,0-.481.427,1.6,1.6,0,0,0-.214.534c0,.107-.053.267,0,.374v1.922a1.185,1.185,0,0,0,.053.481,1.626,1.626,0,0,0,.48.694,1.189,1.189,0,0,0,.694.214h.053a.677.677,0,0,0,.32-.053c.32-.053.587-.107.854-.16s.534-.107.854-.16l.854-.16h.107v.053a3.6,3.6,0,0,1,.107.748l.053.427.053.32a3.124,3.124,0,0,1,.107.694.99.99,0,0,0,.107.374,1.085,1.085,0,0,0,.32.481,1.455,1.455,0,0,0,.641.32h.214a.677.677,0,0,0,.32-.053h.053c.053,0,.107-.053.16-.053l.214-.053.214-.053.214-.053h.534c.16-.053.32-.053.427-.16a1.169,1.169,0,0,0,.534-.481c0-.053.053-.053.053-.107l.053.053a1.645,1.645,0,0,0,.641.267h.16a.677.677,0,0,0,.32-.053h.053l.16-.053.16-.053.16-.053.16-.053h.587c.16-.053.32-.053.427-.107a1.514,1.514,0,0,0,.534-.481,1.145,1.145,0,0,0,.214-.641,1.175,1.175,0,0,0-.053-.427,2.7,2.7,0,0,1-.107-.694,3.125,3.125,0,0,1-.107-.694,3.681,3.681,0,0,1-.107-.694.2.2,0,0,0-.053-.16c.053,0,.16-.053.214-.053.107-.053.267-.107.374-.16s.267-.107.374-.16c.32-.107.587-.267.854-.374.32-.16.587-.32.854-.481a3.411,3.411,0,0,0,.8-.694,5.829,5.829,0,0,0,.694-.908,4.368,4.368,0,0,0,.534-1.281,9.969,9.969,0,0,0,.214-1.335,5.2,5.2,0,0,0-.107-1.281c-.053-.374-.16-.8-.267-1.282a4.619,4.619,0,0,0-.374-.908,2.993,2.993,0,0,0-.534-.8,2.811,2.811,0,0,0-.748-.641c-.267-.16-.534-.32-.854-.481a3.219,3.219,0,0,0,.32-1.015,3.129,3.129,0,0,0,.053-1.228,5.4,5.4,0,0,0-.214-1.228,9.656,9.656,0,0,0-.427-1.121,3.031,3.031,0,0,0-.641-.961,5.717,5.717,0,0,0-.854-.748,6.648,6.648,0,0,0-1.068-.534,4,4,0,0,0-.854-.214,4.121,4.121,0,0,0-.8-.107c-.267,0-.534-.053-.8-.053h-.107v-.107a3.6,3.6,0,0,1-.107-.748l-.053-.214-.107-.534a3.126,3.126,0,0,1-.107-.694,1.567,1.567,0,0,0-.427-.854,1.218,1.218,0,0,0-.641-.32c.427.107.32.107.214.107Zm-1.014,8.49h.16c.16,0,.267-.053.427-.053s.267-.053.427-.053h.427a.909.909,0,0,1,.374.053c.16,0,.267.053.374.053.107.053.16.053.214.107l.16.16a1.168,1.168,0,0,1,.16.267.99.99,0,0,1,.107.374.4.4,0,0,1-.053.267c-.053.107-.053.16-.107.214a.534.534,0,0,1-.267.214c-.053,0-.053.053-.107.053s-.053.053-.107.053l-.107.053-.107.053-.481.16c-.16.053-.374.107-.534.16s-.267.053-.427.107l-.053-.16-.16-.961-.16-.961-.16-.16Zm1.228,6.461h0c.16,0,.214-.053.32-.053a1.646,1.646,0,0,1,.534-.053c.16,0,.32-.053.481-.053h1.281a.2.2,0,0,1,.16.053c.053,0,.107.053.16.053a1.167,1.167,0,0,1,.267.16l.16.16a.277.277,0,0,1,.107.214c.053.107.053.214.107.32v.32a.321.321,0,0,1-.053.214c-.053.053-.053.107-.107.214l-.214.214c-.053.053-.107.053-.107.107-.053.053-.107.053-.107.107-.053,0-.053.053-.107.053h-.107c-.267.107-.481.214-.8.32a3.511,3.511,0,0,1-.8.214q-.32.08-.8.16l-.053-.267-.214-1.068a7.563,7.563,0,0,0-.214-1.068.451.451,0,0,0,.107-.32Z" transform="translate(-381.4 -104.7)" fill="#24262d"/>
          </g>
          <g id="Group_68" data-name="Group 68" transform="translate(1.602 1.282)" opacity="0.46">
            <path id="Path_366" data-name="Path 366" d="M400.653,107.527a15184.322,15184.322,0,0,0,.214,1.388,3.126,3.126,0,0,1,.107.694.2.2,0,0,0,.053.16l.053.053c0-.16-.053-.32-.053-.427a425216.423,425216.423,0,0,1-.214-1.388,3.124,3.124,0,0,1-.107-.694.2.2,0,0,0-.053-.16.052.052,0,0,0-.053-.053C400.6,107.207,400.653,107.367,400.653,107.527Z" transform="translate(-391.95 -107.1)" fill="#f2a908"/>
            <path id="Path_367" data-name="Path 367" d="M398.754,134.473v.107c0,.053,0,.053.053.053h0c-.053-.267-.107-.481-.16-.748a198190.7,198190.7,0,0,0-.427-2.136,7.555,7.555,0,0,0-.214-1.068v-.107c0-.053,0-.053.053-.107l.053-.053c.053,0,.053,0,.107-.053a4128.462,4128.462,0,0,1,.8-.16,2.312,2.312,0,0,0,.267-.053c.16-.053.374-.053.534-.107.16,0,.374-.053.534-.053a1.816,1.816,0,0,0,.534-.053h.8a.481.481,0,0,1,.267.053c.107,0,.16.053.214.053s.16.053.214.053a2.493,2.493,0,0,1,.534.267,2.672,2.672,0,0,1,.427.374,3.74,3.74,0,0,1,.32.481.186.186,0,0,0,.053.107v-.053c-.053-.214-.107-.427-.16-.587a1.26,1.26,0,0,0-.32-.481,1.439,1.439,0,0,0-.427-.374,4.954,4.954,0,0,0-.534-.267.321.321,0,0,0-.214-.053c-.053,0-.16-.053-.214-.053-.107,0-.16-.053-.267-.053h-.8a1.816,1.816,0,0,0-.534.053c-.16,0-.374.053-.534.053a1.9,1.9,0,0,0-.534.107,37155.618,37155.618,0,0,1-.8.16,2.307,2.307,0,0,0-.267.053c-.053,0-.053,0-.107.053a.052.052,0,0,0-.053.053.165.165,0,0,1-.053.107v.107a20860.21,20860.21,0,0,1,.427,2.136,7.559,7.559,0,0,0,.214,1.068A8.292,8.292,0,0,1,398.754,134.473Z" transform="translate(-390.692 -117.493)" fill="#f2a908"/>
            <path id="Path_368" data-name="Path 368" d="M396.06,119.1l.16.961.16.961.16.961c0,.053,0,.053.053.107,0,.053,0,.053.053.053h0c-.053-.214-.053-.427-.107-.641l-.16-.961-.16-.961-.16-.961v-.214l.053-.053a.165.165,0,0,0,.107-.053c.107,0,.16-.053.267-.053s.16-.053.267-.053.16-.053.267-.053.16-.053.267-.053c.16,0,.32-.053.48-.053s.32-.053.481-.053h.48a1.478,1.478,0,0,1,.481.053,1.58,1.58,0,0,1,.534.107,1.9,1.9,0,0,1,.481.214,2.676,2.676,0,0,1,.427.374,4.7,4.7,0,0,1,.32.534h0a.861.861,0,0,0-.16-.481,1.777,1.777,0,0,0-.32-.534,1.439,1.439,0,0,0-.427-.374,2.428,2.428,0,0,0-1.014-.32c-.16,0-.32-.053-.481-.053h-.481a1.478,1.478,0,0,0-.481.053c-.16,0-.32.053-.481.053-.107,0-.16.053-.267.053s-.16.053-.267.053-.16.053-.267.053-.16.053-.267.053c-.053,0-.053,0-.107.053l-.053.053v.214Z" transform="translate(-389.76 -111.947)" fill="#f2a908"/>
            <path id="Path_369" data-name="Path 369" d="M410.975,119.248a5.806,5.806,0,0,1-.053.961,3.084,3.084,0,0,1-.32.908,4.212,4.212,0,0,1-.641.8h0l-.053.053a.052.052,0,0,1-.053.053l-.053.053c.107,0,.267.053.374.053h.107a3.746,3.746,0,0,0,.427-.534,2.629,2.629,0,0,0,.32-.908,2.916,2.916,0,0,0,.053-.961,6.679,6.679,0,0,0-.16-1.015c0-.053-.053-.16-.053-.214A3.151,3.151,0,0,1,410.975,119.248Z" transform="translate(-396.238 -112.413)" fill="#f2a908"/>
            <path id="Path_370" data-name="Path 370" d="M400.8,144.02a.2.2,0,0,0-.053-.16c0-.053-.053-.053-.053-.107a.186.186,0,0,0-.107-.053h-.107a5906.967,5906.967,0,0,0-.48.16h-.587a.2.2,0,0,0-.16.053.052.052,0,0,0-.053.053v.267a8282.331,8282.331,0,0,1,.32,2.082c.053.214.107.481.16.694v.214c0,.053,0,.107-.053.107,0,.053-.053.053-.107.053s-.107.053-.16.053h-.534a1309.616,1309.616,0,0,1-.427.107c-.053,0-.16.053-.214.053s-.16.053-.214.053h-.16c-.053,0-.053,0-.107-.053v-.053c0,.107.053.16.053.267a.2.2,0,0,0,.053.16c0,.053.053.053.053.107.053,0,.053.053.107.053h.16c.053,0,.16-.053.214-.053s.16-.053.214-.053.16-.053.214-.053a.321.321,0,0,0,.214-.053h.534a.2.2,0,0,0,.16-.053c.053,0,.053-.053.107-.053,0-.053.053-.053.053-.107v-.214c-.053-.214-.107-.481-.16-.694a17236.366,17236.366,0,0,1-.32-2.082v-.267a.052.052,0,0,1,.053-.053c.053,0,.107-.053.16-.053h.587a15510594.109,15510594.109,0,0,1,.481-.16h.107c.053,0,.053,0,.107.053h0C400.8,144.181,400.8,144.127,400.8,144.02Z" transform="translate(-390.598 -124.157)" fill="#f2a908"/>
            <path id="Path_371" data-name="Path 371" d="M410.781,131.875a8.543,8.543,0,0,0-.267-1.121V130.7c.053.214.107.427.16.694a3.958,3.958,0,0,1,.053,1.121,3.443,3.443,0,0,1-.16,1.068,8.9,8.9,0,0,1-.427,1.068,3.429,3.429,0,0,1-.534.694,5.656,5.656,0,0,1-.641.534,3.4,3.4,0,0,1-.747.427c-.267.107-.534.214-.748.32a2.6,2.6,0,0,1-.374.16.772.772,0,0,1-.374.107c-.107.053-.267.053-.374.107s-.267.053-.374.107c-.053,0-.16.053-.214.053-.053.053-.107.053-.107.107s-.053.107-.053.16v.214c.053.214.107.481.16.694a16783.575,16783.575,0,0,0,.32,2.082v.16c0,.053,0,.107-.053.107,0,.053-.053.053-.107.053s-.107.053-.16.053h-.641a2455.926,2455.926,0,0,0-.641.16c-.053,0-.107.053-.214.053h-.16c-.053,0-.053,0-.107-.053V140.9c0,.107.053.16.053.267a.2.2,0,0,0,.053.16c0,.053.053.053.053.107.053,0,.053.053.107.053h.16c.053,0,.107-.053.214-.053.053,0,.107-.053.214-.053a2183.339,2183.339,0,0,0,.427-.107h.641a.2.2,0,0,0,.16-.053c.053,0,.053-.053.107-.053,0-.053.053-.053.053-.107v-.16a45553.517,45553.517,0,0,0-.32-2.082c-.053-.214-.107-.481-.16-.694v-.214a.2.2,0,0,1,.053-.16c0-.053.053-.053.107-.107s.107-.053.214-.053a.99.99,0,0,0,.374-.107c.107-.053.267-.053.374-.107a.771.771,0,0,1,.374-.107,2.6,2.6,0,0,1,.374-.16c.267-.107.534-.214.748-.32a5.337,5.337,0,0,0,.748-.427,5.659,5.659,0,0,0,.641-.534,3.428,3.428,0,0,0,.534-.694,4.824,4.824,0,0,0,.587-2.136A7.974,7.974,0,0,0,410.781,131.875Z" transform="translate(-393.535 -118.099)" fill="#f2a908"/>
            <path id="Path_372" data-name="Path 372" d="M393.258,145.174c0-.107-.053-.16-.053-.214a.115.115,0,0,0-.107-.107c-.053,0-.053-.053-.107-.053h-.16c-.267.053-.587.107-.854.16s-.534.107-.854.16c-.267.053-.534.107-.854.16-.267.053-.534.107-.854.16H389.2v.374c0,.053.053.053.053.107.053,0,.053.053.107.053h.16c.267-.053.534-.107.854-.16.267-.053.534-.107.854-.16.267-.053.534-.107.854-.16.267-.053.587-.107.854-.16h.16c.053,0,.107,0,.107.053l.053.053C393.311,145.334,393.258,145.227,393.258,145.174Z" transform="translate(-386.637 -124.67)" fill="#f2a908"/>
            <path id="Path_373" data-name="Path 373" d="M387.177,120.426a5.03,5.03,0,0,0-.16-.481.547.547,0,0,0-.267-.32.485.485,0,0,0-.374-.16.741.741,0,0,0-.481,0h-.641a2215.777,2215.777,0,0,1-.481.16.2.2,0,0,0-.16.053h-.107c-.053,0-.053,0-.107-.053h0c0,.107.053.214.053.32,0,.053,0,.107.053.107a.052.052,0,0,0,.053.053.186.186,0,0,0,.107.053h.107a1611.387,1611.387,0,0,1,.481-.16.2.2,0,0,0,.16-.053h1.121a2.6,2.6,0,0,1,.374.16,1.417,1.417,0,0,1,.267.32v.107C387.23,120.533,387.23,120.48,387.177,120.426Z" transform="translate(-384.4 -112.844)" fill="#f2a908"/>
            <path id="Path_374" data-name="Path 374" d="M393.953,108.674a14171.986,14171.986,0,0,0,.214,1.388,3.125,3.125,0,0,1,.107.694.2.2,0,0,0,.053.16c.053.053.053.053.053.107h0c0-.16-.053-.32-.053-.427a15184.656,15184.656,0,0,1-.214-1.388,3.123,3.123,0,0,1-.107-.694.2.2,0,0,0-.053-.16.052.052,0,0,0-.053-.053A3.009,3.009,0,0,1,393.953,108.674Z" transform="translate(-388.827 -107.659)" fill="#f2a908"/>
          </g>
        </g>
        <path id="Path_375" data-name="Path 375" d="M390.4,119.507l2.029,11.266.587-.107L390.987,119.4Z" transform="translate(-371.933 -104.894)" fill="#ffec79"/>
      </g>
      <path id="Path_376" data-name="Path 376" d="M338.865,103.155a8.055,8.055,0,0,1,4,2.082c1.922,2.029,2.243,5.179,1.5,7.9a12.884,12.884,0,0,1-10.2,9.077c-.32-3.471-3.311-6.247-6.675-7.048a15.5,15.5,0,0,0-10.092,1.5C319.643,109.082,330.856,101.286,338.865,103.155Z" transform="translate(-299.486 -86.499)" fill="#fff"/>
      <g id="Group_71" data-name="Group 71" transform="translate(18.066 15.822)">
        <path id="Path_378" data-name="Path 378" d="M334.993,122.161a.535.535,0,0,1-.534-.534.549.549,0,0,1,.534-.587,14.252,14.252,0,0,0,1.869-.267,9.342,9.342,0,0,0,5.927-4.752c1.655-3.1,1.976-6.568.8-9.131a6.611,6.611,0,0,0-4.752-3.738c-4.218-.961-8.7,1.5-12.334,3.524l-.267.16c-3.2,1.762-7.1,4.806-7.475,9.237a.482.482,0,0,1-.587.481.5.5,0,0,1-.48-.587c.427-4.912,4.592-8.17,8.063-10.092l.267-.16c3.791-2.082,8.49-4.7,13.135-3.631a7.636,7.636,0,0,1,5.553,4.325c1.281,2.83.961,6.728-.854,10.092a10.653,10.653,0,0,1-6.674,5.34,12.732,12.732,0,0,1-2.189.32Z" transform="translate(-317.685 -101.838)" fill="#24262d"/>
      </g>
      <path id="Path_379" data-name="Path 379" d="M310.441,160.047a10.171,10.171,0,0,1-2.883-2.563,18.759,18.759,0,0,1-2.082-3.257,15.08,15.08,0,0,1-1.282-3.684,15.655,15.655,0,0,1-.374-3.844l.107.32h0a21.494,21.494,0,0,1-2.563-4.592,15.4,15.4,0,0,1-1.282-5.126,9.682,9.682,0,0,1,1.121-5.286,8.778,8.778,0,0,1,.747-1.175,8.206,8.206,0,0,1,.908-1.015,14.9,14.9,0,0,1,2.082-1.655.052.052,0,0,0,.053-.053h0a26.68,26.68,0,0,1,4.325-1.655,26.094,26.094,0,0,1,4.485-1.068,19.7,19.7,0,0,1,4.7-.16,10.861,10.861,0,0,1,4.539,1.5,10.118,10.118,0,0,1,3.2,3.524,10.962,10.962,0,0,1,1.548,4.485,8.877,8.877,0,0,1-.8,4.7,11.7,11.7,0,0,1-2.883,3.738h-.053a11.89,11.89,0,0,1-3.257,1.5,15.2,15.2,0,0,1-3.524.587,15.747,15.747,0,0,1-3.524-.32l-.427-.107-.427-.107-.854-.267-.8-.32a5.384,5.384,0,0,1-.8-.374.306.306,0,0,1-.107-.374.294.294,0,0,1,.267-.16h0c.534.107,1.121.267,1.655.374a15.319,15.319,0,0,0,1.655.267l.8.107a158720.93,158720.93,0,0,0,1.6.107h.8a12.567,12.567,0,0,0,3.2-.534,11.271,11.271,0,0,0,2.937-1.335l-.053.053a11.453,11.453,0,0,0,2.616-3.417,7.818,7.818,0,0,0,.694-4.111,10.856,10.856,0,0,0-1.388-4,9.885,9.885,0,0,0-2.83-3.1,9.376,9.376,0,0,0-4-1.335,17.29,17.29,0,0,0-4.378.16,29.859,29.859,0,0,0-8.436,2.67l.053-.053a10.815,10.815,0,0,0-3.364,3.417,8.081,8.081,0,0,0-1.014,4.592,14.7,14.7,0,0,0,1.121,4.752,19.991,19.991,0,0,0,2.4,4.325h0a.759.759,0,0,1,.107.32v.053a19.851,19.851,0,0,0,.427,3.577c.107.587.32,1.175.481,1.762.107.267.214.534.32.854.107.267.214.534.374.854a16.469,16.469,0,0,0,1.869,3.1c.748.961,1.548,1.922,2.349,2.83h0a.258.258,0,0,1,0,.374C310.708,160.047,310.548,160.1,310.441,160.047Z" transform="translate(-291.406 -96.883)" fill="#24262d"/>
    </g>
  </g>
</svg>
