<svg xmlns="http://www.w3.org/2000/svg" width="244.572" height="40.34" viewBox="0 0 244.572 40.34">
  <g id="Nordikcoin_logo" data-name="Nordikcoin logo" transform="translate(0.01)">
    <path id="Path_497" data-name="Path 497" d="M68.75,18.41l-2.29,13H60.12l2.12-12c.46-2.71-1-3.85-3.05-3.85s-4,1.23-4.6,4.1L52.52,31.38H46.18L49.9,10.25h6.34l-.34,2a8.5,8.5,0,0,1,6.21-2.58C66.46,9.66,69.72,12.79,68.75,18.41Z" fill="#151515"/>
    <path id="Path_498" data-name="Path 498" d="M70.82,20A12.64,12.64,0,0,1,83.49,9.66c7.1,0,10.44,6.17,9.43,11.83A12.87,12.87,0,0,1,80.54,32C72.76,32,69.67,25.68,70.82,20Zm15.8.85c.55-3-1.14-5-3.89-5a5.74,5.74,0,0,0-5.58,5c-.5,3,1.06,5,3.81,5a5.77,5.77,0,0,0,5.66-5.03Z" fill="#151515"/>
    <path id="Path_499" data-name="Path 499" d="M110.42,9.83,109.19,17c-2.45-.38-6.47.47-7.23,4.82l.05-.25-1.74,9.8H93.93l3.72-21.13H104l-.67,3.8a7.45,7.45,0,0,1,7.09-4.21Z" fill="#151515"/>
    <path id="Path_500" data-name="Path 500" d="M135.73,1.8l-5.2,29.58h-6.34l.26-1.52A9.51,9.51,0,0,1,118,32c-6.84,0-9.46-5.95-8.37-11.66,1-5.41,5.29-10.65,11.88-10.65a6.63,6.63,0,0,1,6,2.92l1.9-10.78ZM126,21l.08-.42c.43-3.05-1.26-4.95-4.14-4.95a6,6,0,0,0-6,5.16c-.5,3.21,1.28,5.21,4.2,5.21A5.94,5.94,0,0,0,126,21Z" fill="#151515"/>
    <path id="Path_501" data-name="Path 501" d="M138.05,10.25h6.35l-3.72,21.13h-6.34Zm.39-5.66A4.68,4.68,0,0,1,142.83.78,3.18,3.18,0,0,1,146,4.59a4.65,4.65,0,0,1-4.43,3.8,3.14,3.14,0,0,1-3.13-3.8Z" fill="#151515"/>
    <path id="Path_502" data-name="Path 502" d="M158.51,20.82l5.83,10.56h-6.76l-5.07-9.63-1.69,9.63h-6.34l5.2-29.58H156L153,19l7.57-8.75h7.31Z" fill="#151515"/>
    <path id="Path_503" data-name="Path 503" d="M166.71,20.39A12.62,12.62,0,0,1,179.3,9.66c4.57,0,7.65,2.28,9,5.49l-5.79,3a3.8,3.8,0,0,0-3.77-2.29,5.71,5.71,0,0,0-5.7,4.82c-.51,2.92,1.22,5,4,5a5.32,5.32,0,0,0,4.4-2.37l5.11,3.26a11.4,11.4,0,0,1-10,5.36C169.79,32,165.69,26.9,166.71,20.39Z" fill="#151515"/>
    <path id="Path_504" data-name="Path 504" d="M188.56,20A12.65,12.65,0,0,1,201.24,9.66c7.1,0,10.44,6.17,9.42,11.83A12.87,12.87,0,0,1,198.28,32C190.5,32,187.42,25.68,188.56,20Zm15.8.85c.55-3-1.14-5-3.88-5a5.73,5.73,0,0,0-5.58,5c-.51,3,1,5,3.8,5a5.77,5.77,0,0,0,5.66-5.03Z" fill="#151515"/>
    <path id="Path_505" data-name="Path 505" d="M215.4,10.25h6.34L218,31.38h-6.34Zm.38-5.66A4.68,4.68,0,0,1,220.17.78a3.18,3.18,0,0,1,3.21,3.81A4.64,4.64,0,0,1,219,8.39a3.14,3.14,0,0,1-3.22-3.8Z" fill="#151515"/>
    <path id="Path_506" data-name="Path 506" d="M244.39,18.41l-2.28,13h-6.34l2.11-12c.46-2.71-1-3.85-3-3.85s-4,1.23-4.61,4.1L228.2,31.45h-6.34l3.72-21.13h6.34l-.34,2a8.53,8.53,0,0,1,6.21-2.58C242.11,9.66,245.36,12.79,244.39,18.41Z" fill="#151515"/>
    <path id="Path_507" data-name="Path 507" d="M20.16,0A20.17,20.17,0,1,0,40.33,20.16,20.17,20.17,0,0,0,20.16,0ZM31.73,21.19l-4.06-.72-.36,2,4.06.72-.43,2.42-4.06-.72-1.06,5.93-3.21-.57L17.2,18.81,15.38,29l-4.28-.77,1.06-5.93-4-.72.43-2.41,4,.71.36-2-4-.71.43-2.42,4,.71,1.06-5.93,3.21.57,5.41,11.46,1.81-10.17,4.28.76-1.05,5.9,4.06.73Z" fill="#56e0ef"/>
  </g>
</svg>
