<?xml version="1.0" encoding="UTF-8"?> <svg xmlns="http://www.w3.org/2000/svg" xmlns:xlink="http://www.w3.org/1999/xlink" id="e2pqr37uaks61" viewBox="0 0 380 207" shape-rendering="geometricPrecision" text-rendering="geometricPrecision"><style><![CDATA[#e2pqr37uaks66_tr {animation: e2pqr37uaks66_tr__tr 6000ms linear infinite normal forwards}@keyframes e2pqr37uaks66_tr__tr { 0% {transform: translate(219.773336px,75.783986px) rotate(0deg);animation-timing-function: cubic-bezier(0.420000,0,0.580000,1)} 50% {transform: translate(219.773336px,75.783986px) rotate(14deg);animation-timing-function: cubic-bezier(0.420000,0,0.580000,1)} 100% {transform: translate(219.773336px,75.783986px) rotate(0deg)} }#e2pqr37uaks637 {animation: e2pqr37uaks637_c_o 6000ms linear infinite normal forwards}@keyframes e2pqr37uaks637_c_o { 0% {opacity: 1} 33.333333% {opacity: 0} 66.666667% {opacity: 0} 100% {opacity: 1} }#e2pqr37uaks641 {animation: e2pqr37uaks641_c_o 6000ms linear infinite normal forwards}@keyframes e2pqr37uaks641_c_o { 0% {opacity: 1} 33.333333% {opacity: 0} 66.666667% {opacity: 0} 100% {opacity: 1} }]]></style><g id="e2pqr37uaks62"><g id="e2pqr37uaks63"><g id="e2pqr37uaks64"><path id="e2pqr37uaks65" d="M38.902696,88.763210C-58.640205,56.713949,51.535293,-5.628131,105.177115,6.252477C158.818936,18.133085,173.904238,77.931035,210.848980,30.795931C247.793721,-16.339172,307.195895,-3.708623,334.147616,30.795931C361.099338,65.300486,424.944411,166.097951,328.891820,159.775688C232.839230,153.453425,248.321637,206.738816,194.007074,175.797989C139.692510,144.857162,122.831917,240.520806,94.305793,193.996038C65.779668,147.471269,136.445597,120.812471,38.902696,88.763210Z" fill="rgb(178,227,234)" stroke="none" stroke-width="1"></path></g><g id="e2pqr37uaks66_tr" transform="translate(219.773336,75.783986) rotate(0)"><g id="e2pqr37uaks66" transform="translate(-10.195336,-72.263176)"><path id="e2pqr37uaks67" d="M75.072166,72.315696C75.072166,72.315696,65.359475,78.522609,61.050324,79.062341C61.050324,79.062341,46.276091,73.799958,40.872552,60.441601C40.872552,60.441601,38.478578,46.341112,29.244683,46.341112C28.834287,46.341112,8.930112,41.078729,6.604538,55.111751C6.604538,55.111751,6.878135,68.807440,20.489581,71.775964C20.489581,71.775964,27.192706,91.948433,41.282947,105.104391C41.282947,105.104391,47.849273,111.851037,56.057180,109.624644C103.636444,102.614283,71.720603,83.515127,75.072166,72.315696Z" transform="matrix(-1 0 0 1 89.07220000000000 0)" fill="rgb(255,255,255)" stroke="none" stroke-width="1"></path><path id="e2pqr37uaks68" d="M55.075495,109.619573C52.049358,110.261775,48.441947,111.620017,45.324234,111.620017C39.270880,110.737160,33.492680,106.322871,27.645691,98.173416C21.867490,90.091872,15.676560,78.614723,14.025646,73.113840C13.888069,72.774280,14.163222,72.366807,14.507162,72.298895C14.851103,72.163071,15.263832,72.434719,15.332620,72.774280C16.914746,78.207250,23.036887,89.480663,28.746300,97.426382C34.318137,105.236277,39.821185,109.446829,45.530598,110.261775C49.181319,110.261775,66.112311,105.085062,68.175955,104.813414C68.519895,104.745502,68.932624,105.017150,68.932624,105.424623C69.001412,105.764183,68.726259,106.171656,68.313531,106.171656C67.075345,106.307480,58.101632,108.977371,55.075495,109.619573Z" transform="matrix(-1 0 0 1 82.93259999999999 0)" fill="rgb(36,38,45)" stroke="none" stroke-width="1"></path><path id="e2pqr37uaks69" d="M76.180982,53.777247C75.907687,53.777247,75.634393,53.777247,75.224451,53.709265C74.746185,53.641284,74.267920,53.573302,73.857978,53.233393C73.379712,52.893484,73.106417,52.349630,72.969770,52.009722C70.920061,47.658890,69.280293,44.191821,64.224343,43.444022C61.423073,43.036132,59.988276,44.871639,59.236716,46.503200C59.100069,46.843109,58.690127,46.979073,58.348509,46.843109C58.006890,46.707146,57.870243,46.299255,58.006890,45.959347C59.305040,43.036132,61.559720,41.676497,64.429314,42.084387C70.168500,42.900168,72.149886,47.047054,74.199596,51.397886C74.336243,51.669813,74.472891,51.941740,74.677861,52.077703C74.882832,52.213667,75.156127,52.281649,75.429422,52.281649C76.249305,52.349630,76.385953,52.349630,76.932542,52.281649C77.069189,52.281649,77.274160,52.213667,77.479131,52.213667C77.820749,52.145685,78.230691,52.417612,78.230691,52.757521C78.299015,53.097429,78.025720,53.505320,77.684102,53.505320C77.479131,53.505320,77.342484,53.573302,77.205837,53.573302C76.727571,53.709265,76.522600,53.777247,76.180982,53.777247Z" transform="matrix(-1 0 0 1 136.19600000000000 0)" fill="rgb(36,38,45)" stroke="none" stroke-width="1"></path><path id="e2pqr37uaks610" d="M82.108647,72.948266C80.538997,73.225371,78.969348,73.086819,77.467944,72.878990C76.717242,72.740437,75.966540,72.601884,75.215838,72.394055C74.465136,72.186226,73.714435,72.047673,72.963733,71.632015C70.097416,70.246488,67.708819,68.098921,65.866187,65.535696C64.091801,62.903194,62.863380,59.924311,62.385660,56.806875C62.317415,56.391217,62.249169,56.044835,62.249169,55.629177C62.180923,55.213519,62.180923,54.867137,62.180923,54.451479C62.180923,53.689439,62.180923,52.858123,62.317415,52.026806C62.522151,50.433450,63.068117,48.909370,63.750573,47.454567C63.887064,47.108185,64.296538,46.969632,64.637766,47.108185C64.978994,47.246738,65.115485,47.662396,64.978994,48.008778C64.364784,49.394305,63.955310,50.779832,63.750573,52.165359C63.545836,53.550886,63.682327,55.074966,63.887064,56.529770C64.296538,59.439377,65.524959,62.210431,67.162854,64.635103C68.800749,67.059776,71.052855,69.068790,73.646189,70.385041C74.192154,70.662146,74.942856,70.869975,75.625312,71.077804C76.307768,71.285634,77.058470,71.424186,77.809172,71.562739C79.242330,71.839844,80.675489,72.116950,82.176892,72.324779L82.176892,72.324779C82.381629,72.324779,82.518121,72.532608,82.449875,72.740437C82.381629,72.809713,82.245138,72.948266,82.108647,72.948266Z" transform="matrix(-1 0 0 1 144.64900000000000 0)" fill="rgb(36,38,45)" stroke="none" stroke-width="1"></path><path id="e2pqr37uaks611" d="M81.804536,56.298055C81.529008,56.298055,81.253479,56.165917,81.184597,55.901640C80.840186,54.976670,80.426893,54.051699,80.082482,53.192799C79.738071,52.267829,79.324778,51.408928,78.980368,50.483958C78.429310,49.162572,77.947135,47.841186,76.845021,46.916216C75.949552,46.123384,74.365263,45.528761,72.987619,46.123384C70.094569,47.312632,69.199101,52.664244,69.543511,55.307016C69.612394,55.637363,69.336865,55.967709,68.923572,56.033778C68.579161,56.099848,68.234750,55.835570,68.165868,55.439155C67.821457,52.532106,68.716925,46.387662,72.436562,44.868068C74.434145,44.075236,76.569492,44.801999,77.740489,45.925176C79.049250,47.048355,79.669189,48.634017,80.220247,49.955403C80.564657,50.880373,80.977950,51.805343,81.322361,52.664244C81.666772,53.589214,82.080065,54.448115,82.424476,55.373085C82.562240,55.703432,82.355594,56.099848,82.011183,56.231986C81.942301,56.298055,81.873418,56.298055,81.804536,56.298055Z" transform="matrix(-1 0 0 1 150.56600000000000 0)" fill="rgb(36,38,45)" stroke="none" stroke-width="1"></path><path id="e2pqr37uaks612" d="M62.180923,59.207068C62.748077,57.468357,64.095066,56.077387,65.583844,55.034160C67.072621,53.990933,68.844976,53.225900,70.688224,52.947706C71.042695,52.878158,71.468060,53.156351,71.468060,53.504094C71.538954,53.851836,71.255377,54.199579,70.900907,54.269127L70.900907,54.269127C69.270341,54.616869,67.781563,55.312354,66.434574,56.216484C65.087585,57.120614,63.953278,58.302938,62.748077,59.554811L62.748077,59.554811C62.606288,59.693908,62.393606,59.693908,62.251818,59.554811C62.180923,59.485262,62.180923,59.346165,62.180923,59.207068Z" transform="matrix(-1 0 0 1 133.66000000000000 0)" fill="rgb(36,38,45)" stroke="none" stroke-width="1"></path><path id="e2pqr37uaks613" d="M100.724060,5.041617C94.907773,5.851964,83.207567,7.472660,83.207567,7.472660L81.381524,7.742775C76.173918,8.418065,72.521830,13.212622,73.265774,18.412352L77.526543,50.083436C78.270486,55.620812,83.342830,59.469963,88.888592,58.727144L93.487517,58.119383L112.897684,55.485754L100.724060,5.041617Z" transform="matrix(-1 0 0 1 186.06700000000001 0)" fill="rgb(171,233,255)" stroke="none" stroke-width="1"></path><path id="e2pqr37uaks614" d="M111.083901,5.881886C109.769502,6.083918,108.178388,6.285950,106.518095,6.487982L85.003466,33.964335L86.248685,42.853744L112.052405,9.855183L111.083901,5.881886Z" transform="matrix(-1 0 0 1 197.05600000000001 0)" fill="rgb(194,242,255)" stroke="none" stroke-width="1"></path><path id="e2pqr37uaks615" d="M102.247164,25.208084L78.241231,56.841493C80.269901,58.331717,82.907173,59.076830,85.612067,58.738142L89.669408,58.196242L105.290170,37.671783L102.247164,25.208084Z" transform="matrix(-1 0 0 1 183.53100000000001 0)" fill="rgb(194,242,255)" stroke="none" stroke-width="1"></path><path id="e2pqr37uaks616" d="M93.248213,49.543205L88.934914,17.872120C88.250264,12.672390,91.878912,7.945362,97.150721,7.202544L98.999278,6.932428C98.999278,6.932428,106.804294,5.851964,112.897684,5.041617L112.897684,5.041617C107.009690,5.851964,95.165235,7.472660,95.165235,7.472660L93.316678,7.742775C88.044869,8.418065,84.347756,13.212622,85.100871,18.412352L89.414170,50.083436C90.167286,55.620812,95.302165,59.469963,100.916299,58.727144L104.681878,58.254441C99.136208,58.929731,94.001329,55.080580,93.248213,49.543205Z" transform="matrix(-1 0 0 1 197.90100000000001 0)" fill="rgb(194,242,255)" stroke="none" stroke-width="1"></path><path id="e2pqr37uaks617" d="M77.456256,0.081662L75.624322,0.355769C75.760021,0.150189,47.738215,4.193260,47.738215,4.193260L45.906281,4.467367C40.681876,5.152633,37.018008,10.018025,37.764352,15.294576L42.038865,47.433570C42.785208,53.052755,47.873914,56.958773,53.437565,56.204980L58.051325,55.588241L79.220341,52.710122L83.834100,52.093382C89.397752,51.339589,93.265168,46.200091,92.518825,40.580906L88.244312,8.441912C87.497968,3.096834,82.680660,-0.603604,77.456256,0.081662Z" transform="matrix(-1 0 0 1 130.27900000000000 0)" fill="rgb(116,207,247)" stroke="none" stroke-width="1"></path><polygon id="e2pqr37uaks618" points="82.467628,2.955431 60.490365,30.667549 61.572322,38.652396 90.920421,1.680539" transform="matrix(-1 0 0 1 151.41100000000000 0)" opacity="0.5" fill="rgb(171,233,255)" stroke="none" stroke-width="1"></polygon><path id="e2pqr37uaks619" d="M85.029158,9.953962C85.029158,9.953962,85.029158,3.949058,79.826451,1.680539L41.048940,50.653863C42.089481,52.655498,44.448042,55.124180,49.789488,55.457786L61.166074,53.989921L86.694024,21.763605L85.029158,9.953962Z" transform="matrix(-1 0 0 1 127.74299999999999 0)" opacity="0.5" fill="rgb(171,233,255)" stroke="none" stroke-width="1"></path><path id="e2pqr37uaks620" d="M88.317286,59.936977C83.089858,59.936977,78.465595,55.995865,77.728393,50.559847L73.506240,18.691194C73.171148,15.973185,73.841331,13.323126,75.449771,11.148719C77.058210,8.974312,79.470870,7.615308,82.084584,7.207606L83.894078,6.935806C83.894078,6.935806,95.421227,5.305000,101.251820,4.489598C101.586912,4.421647,101.989022,4.693448,101.989022,5.101150C102.056040,5.440901,101.787967,5.848602,101.385857,5.848602C95.622282,6.664005,84.028115,8.294810,84.028115,8.294810L82.218620,8.566611C79.939998,8.906362,77.862430,10.061516,76.455045,11.964122C75.047661,13.866728,74.444496,16.177036,74.779588,18.487343L79.001741,50.355996C79.671924,55.520213,84.430224,59.189525,89.523616,58.442073L113.248098,55.180462C113.650208,55.112512,113.985299,55.384313,113.985299,55.792014C114.052318,56.131765,113.784244,56.539466,113.382135,56.539466L89.657653,59.801077C89.255543,59.869027,88.786415,59.936977,88.317286,59.936977Z" transform="matrix(-1 0 0 1 187.41800000000001 0)" fill="rgb(36,38,45)" stroke="none" stroke-width="1"></path><path id="e2pqr37uaks621" d="M52.014625,56.298055C46.685003,56.298055,41.970338,52.412377,41.218725,47.052820L36.914031,15.632417C36.162418,10.138871,40.125469,5.047292,45.728405,4.310353L47.573273,4.042375L47.573273,4.042375C47.573273,4.042375,54.542778,3.104453,61.580612,2.099536C65.065364,1.630575,68.618445,1.161613,71.214927,0.826641C73.879738,0.491669,75.041322,0.357680,75.656278,0.357680L75.656278,0.357680L77.501147,0.089702C77.501147,0.089702,77.501147,0.089702,77.501147,0.089702C83.104082,-0.647237,88.297046,3.238442,89.048660,8.731988L93.353354,40.152390C94.173296,45.980908,90.005258,51.407460,83.992352,52.144399L53.381194,56.231061C52.971223,56.231061,52.492924,56.298055,52.014625,56.298055ZM75.656278,1.630575C74.426365,1.697569,58.369173,3.908386,47.709930,5.382264L45.865062,5.650242C41.013740,6.320187,37.597316,10.674827,38.212272,15.498428L42.516966,46.918831C43.200251,52.010410,48.051573,55.628111,53.244537,54.891172L83.855695,50.804510C89.048660,50.134565,92.738398,45.377958,91.986784,40.286379L87.682090,8.865976C86.998805,4.109370,82.557454,0.759647,77.637804,1.362597L75.792935,1.630575C75.792935,1.630575,75.724606,1.630575,75.656278,1.630575Z" transform="matrix(-1 0 0 1 130.27900000000000 0)" fill="rgb(36,38,45)" stroke="none" stroke-width="1"></path><path id="e2pqr37uaks622" d="M57.877286,42.429157C56.713181,41.498293,55.138216,40.899881,53.700205,41.298823C52.467623,41.631274,51.508949,42.761608,51.029612,43.958433C50.139414,46.086121,50.687228,48.479770,50.344844,50.740439C49.797030,53.998462,46.304717,56.192640,48.564449,59.716624C50.755705,63.107627,55.549076,64.304451,58.562053,61.312390C63.423901,56.458601,62.122843,57.256484,61.711983,50.275007C61.506553,47.216456,60.273971,44.224394,57.877286,42.429157Z" transform="matrix(-1 0 0 1 109.99200000000000 0)" fill="rgb(255,255,255)" stroke="none" stroke-width="1"></path><path id="e2pqr37uaks623" d="M25.549016,60.923588C26.632045,63.231156,28.121210,65.335114,29.813443,67.303334C31.505675,69.271553,33.400976,71.036164,35.363966,72.732905C37.326956,74.361776,39.493014,75.922777,41.659072,77.348040C42.742101,78.026736,43.892819,78.705433,44.975848,79.316259C45.517362,79.655607,46.126566,79.927086,46.668080,80.198565C46.938837,80.334304,47.277284,80.470043,47.548041,80.605782C47.683420,80.673652,47.818798,80.741522,47.954177,80.741522L48.360313,80.877261L48.428002,80.877261C48.631070,80.945131,48.698759,81.148739,48.631070,81.284479C48.563381,81.420218,48.428002,81.555957,48.292623,81.488088C46.803459,81.352348,45.585051,80.809391,44.366644,80.266434C43.148236,79.723477,41.997518,79.044781,40.846800,78.366084C38.545364,77.008692,36.379306,75.447690,34.348626,73.750949C32.250258,72.122078,30.354957,70.221728,28.595035,68.185639C26.835113,66.149550,25.278259,63.909852,24.195230,61.398676C24.059852,61.059327,24.195230,60.652110,24.533677,60.516370C25.007502,60.448501,25.413638,60.584240,25.549016,60.923588L25.549016,60.923588Z" transform="matrix(-1 0 0 1 72.79980000000000 0)" fill="rgb(36,38,45)" stroke="none" stroke-width="1"></path><path id="e2pqr37uaks624" d="M60.811873,62.179942C60.744000,62.179942,60.608255,62.179942,60.540383,62.112947C60.201021,61.978959,59.997403,61.576993,60.133148,61.242021C61.151235,58.830224,60.811873,53.470675,60.608255,50.656912L60.540383,50.053963C60.336766,47.039217,59.047189,44.359442,57.011016,42.751578C56.468037,42.282617,54.974843,41.344696,53.481649,41.746662C52.531435,42.014640,51.716966,42.818572,51.309731,44.024470C50.834624,45.230369,50.834624,46.503262,50.834624,47.843149C50.834624,48.781070,50.834624,49.718991,50.631007,50.723906C50.291645,52.666743,49.341431,54.542585,48.119726,55.681489C47.848237,55.949466,47.441002,55.949466,47.169512,55.681489C46.898023,55.413512,46.898023,55.011545,47.169512,54.743568C48.255471,53.738653,49.002068,52.197782,49.341431,50.522923C49.477175,49.651997,49.477175,48.781070,49.477175,47.843149C49.477175,46.436267,49.477175,44.962392,50.020155,43.555510C50.631007,42.014640,51.784838,40.875736,53.142287,40.473770C54.635481,40.071803,56.332292,40.540764,57.893358,41.746662C60.268893,43.622504,61.694215,46.637251,61.897832,50.053963L61.965704,50.656912C62.169322,53.805647,62.508684,59.165196,61.422725,61.844970C61.286980,62.045953,61.083363,62.179942,60.811873,62.179942Z" transform="matrix(-1 0 0 1 109.14700000000001 0)" fill="rgb(36,38,45)" stroke="none" stroke-width="1"></path><path id="e2pqr37uaks625" d="M14.641516,80.665870C14.374952,80.665870,14.108389,80.443483,14.041748,80.146967C13.908467,79.776322,14.108389,79.331548,14.441593,79.183290C14.508234,79.183290,21.172315,76.662902,28.169601,71.547999C28.502805,71.325612,28.902650,71.399741,29.102572,71.770386C29.302495,72.141031,29.235854,72.585805,28.902650,72.808193C21.772083,77.997225,14.908079,80.591741,14.841438,80.591741C14.774797,80.591741,14.708156,80.665870,14.641516,80.665870Z" transform="matrix(-1 0 0 1 43.21500000000000 0)" fill="rgb(36,38,45)" stroke="none" stroke-width="1"></path><path id="e2pqr37uaks626" d="M68.675500,36.264123C70.030550,35.176642,69.285272,33.137616,69.149767,31.710298C68.539995,26.680701,68.607747,21.651103,68.675500,16.553538C68.675500,15.873863,68.675500,15.262155,68.675500,14.582480C68.607747,13.630934,68.472242,12.611421,68.065727,11.727843C67.388202,10.232558,65.829894,9.009142,64.271586,9.281012C62.848784,9.552882,61.764743,10.912233,61.493733,12.339551C61.154971,13.766869,61.425981,15.262155,61.696991,16.689473C62.713278,22.330779,62.781031,30.147045,65.287874,35.244610C65.897647,36.603960,67.591459,37.147701,68.675500,36.264123ZM68.607747,40.410142C65.423379,40.206240,64.610349,45.167870,67.862470,45.371772C70.979085,45.507707,71.792115,40.614045,68.607747,40.410142Z" transform="matrix(-1 0 0 1 131.96899999999999 0)" fill="rgb(75,145,188)" stroke="none" stroke-width="1"></path><g id="e2pqr37uaks627" transform="matrix(-1 0 0 1 70.63370000000000 9.24296000000000)"><path id="e2pqr37uaks628" d="M0.996222,10.052595C0.730563,8.641494,0.464904,7.163199,0.796978,5.752098C1.129052,4.340998,2.125274,2.997093,3.519985,2.728312C5.047525,2.459531,6.575066,3.669045,7.239214,5.080146C7.172799,4.206607,7.039969,3.333069,6.641481,2.526726C5.977333,1.048430,4.449792,-0.161085,2.922251,0.107697C1.527541,0.376478,0.464904,1.720383,0.199244,3.131483C-0.132830,4.542584,0.132830,6.020879,0.398489,7.431980C1.195467,11.866867,1.394711,17.645659,2.656592,22.349327C1.926029,18.250417,1.660370,13.681139,0.996222,10.052595Z" fill="rgb(64,133,168)" stroke="none" stroke-width="1"></path><path id="e2pqr37uaks629" d="M5.113940,35.183622C5.446014,34.175693,6.375821,33.234959,7.704118,33.369350C8.235436,33.436545,8.633925,33.570936,8.965999,33.839717C9.430902,32.495811,8.899584,30.883125,7.106384,30.815930C4.582622,30.614344,3.586400,33.906912,5.113940,35.183622Z" fill="rgb(64,133,168)" stroke="none" stroke-width="1"></path></g><g id="e2pqr37uaks630" transform="matrix(-1 0 0 1 71.47900000000000 9.24296000000000)"><path id="e2pqr37uaks631" d="M7.486005,36.838031C7.417326,36.838031,7.348647,36.838031,7.279968,36.838031C5.562995,36.704204,4.464132,35.499764,4.532811,33.826930C4.670168,32.154096,5.975068,30.481262,8.104116,30.615089L8.104116,30.615089C9.202979,30.682002,10.095805,31.217309,10.507879,32.087183C10.988632,33.090883,10.919953,34.362237,10.233163,35.432850C9.615053,36.369637,8.584868,36.838031,7.486005,36.838031ZM7.898079,31.953356C6.661858,31.953356,5.975068,32.957056,5.906389,33.893843C5.906389,34.228410,5.906389,35.432850,7.348647,35.499764C8.310153,35.566677,8.859584,35.031370,9.065621,34.696803C9.477695,34.094583,9.546374,33.291623,9.271658,32.689403C9.065621,32.221009,8.653547,32.020269,8.035437,31.953356C7.966758,31.953356,7.966758,31.953356,7.898079,31.953356Z" fill="rgb(36,38,45)" stroke="none" stroke-width="1"></path><path id="e2pqr37uaks632" d="M6.936574,28.340035C6.730537,28.340035,6.524500,28.340035,6.249784,28.273121C5.356958,28.072381,4.532811,27.470161,4.120737,26.667201C2.266405,23.053880,1.716974,18.303032,1.167542,13.752924C0.961505,11.745524,0.686789,9.938863,0.412074,8.199116C0.137358,6.793936,-0.137358,5.188015,0.206037,3.649008C0.549432,2.110001,1.716974,0.437167,3.571305,0.102600C5.562995,-0.231966,7.417326,1.240127,8.172795,2.846048C8.584868,3.715921,8.790905,4.652708,8.859584,5.857149C8.928263,6.526282,8.859584,7.262329,8.859584,7.864549C8.790905,12.749224,8.722226,17.767725,9.340337,22.652400C9.340337,22.920053,9.409016,23.187707,9.477695,23.455360C9.752411,24.793627,10.095805,26.600288,8.653547,27.737815C8.104116,28.139295,7.554684,28.340035,6.936574,28.340035ZM4.189416,1.440868C4.052058,1.440868,3.983379,1.440868,3.846021,1.440868C2.609800,1.641608,1.785653,2.846048,1.579616,3.916662C1.304900,5.188015,1.579616,6.593196,1.785653,7.931463C2.129047,9.671210,2.335084,11.544784,2.541121,13.552184C3.090553,18.035379,3.639984,22.652400,5.356958,26.064981C5.562995,26.533374,6.043747,26.867941,6.524500,27.001768C7.005253,27.068681,7.417326,27.001768,7.760721,26.734115C8.516189,26.198808,8.378832,25.128194,8.104116,23.789927C8.035437,23.455360,7.966758,23.187707,7.966758,22.920053C7.348647,17.901552,7.417326,12.816137,7.486005,7.931463C7.486005,7.396156,7.486005,6.660109,7.486005,6.057889C7.486005,6.057889,7.486005,6.057889,7.486005,6.057889C7.417326,4.987275,7.279968,4.184315,6.936574,3.515181C6.455821,2.444568,5.356958,1.440868,4.189416,1.440868Z" fill="rgb(36,38,45)" stroke="none" stroke-width="1"></path></g><g id="e2pqr37uaks633" transform="matrix(-1 0 0 1 109.51700000000000 16.80540000000000)"><path id="e2pqr37uaks634" d="M12.713001,3.629964L16.905587,3.092192C17.243699,3.024970,17.649433,3.293856,17.649433,3.697186C17.717055,4.033294,17.446566,4.436623,17.040832,4.436623C16.973209,4.436623,16.973209,4.436623,16.905587,4.436623L12.713001,4.302180C12.510134,4.302180,12.374890,4.167737,12.374890,3.966072C12.442512,3.831629,12.577757,3.697186,12.713001,3.629964Z" fill="rgb(36,38,45)" stroke="none" stroke-width="1"></path><path id="e2pqr37uaks635" d="M4.936431,33.005785L0.743846,33.543558C0.405734,33.610779,0,33.341893,0,32.938564C0,32.535234,0.202867,32.199127,0.608601,32.199127C0.676223,32.199127,0.676223,32.199127,0.743846,32.199127L4.936431,32.333570C5.139298,32.333570,5.274543,32.468013,5.274543,32.669677C5.274543,32.871342,5.139298,33.005785,4.936431,33.005785Z" fill="rgb(36,38,45)" stroke="none" stroke-width="1"></path><path id="e2pqr37uaks636" d="M13.930204,0.873880L16.567475,0.470551C16.973209,0.403329,17.311321,0.672216,17.311321,1.075545C17.378943,1.478874,17.108454,1.814982,16.702720,1.814982C16.635098,1.814982,16.567475,1.814982,16.499853,1.814982L13.862581,1.546096C13.659714,1.546096,13.524470,1.344431,13.592092,1.142767C13.659714,1.008323,13.727337,0.873880,13.930204,0.873880Z" fill="rgb(36,38,45)" stroke="none" stroke-width="1"></path></g><g id="e2pqr37uaks637" transform="matrix(-1 0 0 1 126.42200000000000 30.24970000000000)"><path id="e2pqr37uaks638" d="M3.341340,0.339761L9.675962,1.698806C10.024019,1.766758,10.302464,2.106519,10.232852,2.514232C10.163241,2.921946,9.815185,3.125802,9.397517,3.057850C9.397517,3.057850,9.327906,3.057850,9.327906,3.057850L3.132506,1.087236C2.923672,1.019283,2.854061,0.815427,2.923672,0.679522C2.993283,0.407713,3.202117,0.271809,3.341340,0.339761Z" fill="rgb(255,255,255)" stroke="none" stroke-width="1"></path><path id="e2pqr37uaks639" d="M0.765724,6.931127L9.258295,6.183653C9.675962,6.183653,9.954407,6.455462,10.024019,6.795223C10.024019,7.202936,9.745574,7.474745,9.397517,7.542697C9.397517,7.542697,9.327906,7.542697,9.327906,7.542697L0.835335,7.610650C0.626501,7.610650,0.487279,7.474745,0.487279,7.270888C0.417667,7.067032,0.556890,6.931127,0.765724,6.931127Z" fill="rgb(255,255,255)" stroke="none" stroke-width="1"></path><path id="e2pqr37uaks640" d="M5.081621,14.405872L10.232852,10.736452C10.511297,10.532595,10.998576,10.600547,11.207410,10.872356C11.416244,11.144165,11.346632,11.619831,11.068187,11.823688C11.068187,11.823688,10.998576,11.823688,10.998576,11.891640L5.429677,14.949490C5.290454,15.017442,5.081621,15.017442,4.942398,14.813586C4.872787,14.745633,4.942398,14.541777,5.081621,14.405872Z" fill="rgb(255,255,255)" stroke="none" stroke-width="1"></path></g><g id="e2pqr37uaks641" transform="matrix(-1 0 0 1 35.97730000000000 18.48590000000000)"><path id="e2pqr37uaks642" d="M8.035437,14.785090L1.785653,13.426045C1.442258,13.358093,1.167542,13.018332,1.236221,12.610618C1.304900,12.270857,1.648295,11.999048,2.060368,12.067000C2.060368,12.067000,2.129047,12.067000,2.129047,12.067000L8.241474,14.037615C8.447511,14.105567,8.516189,14.309424,8.447511,14.445328C8.378832,14.717137,8.241474,14.853042,8.035437,14.785090Z" fill="rgb(255,255,255)" stroke="none" stroke-width="1"></path><path id="e2pqr37uaks643" d="M10.576558,8.193723L2.197726,8.941198C1.785653,8.941198,1.510937,8.669389,1.442258,8.329628C1.442258,7.921915,1.716974,7.650106,2.060368,7.582153C2.060368,7.582153,2.129047,7.582153,2.129047,7.582153L10.507879,7.514201C10.713916,7.514201,10.851274,7.650106,10.851274,7.853962C10.919953,8.057819,10.782595,8.193723,10.576558,8.193723Z" fill="rgb(255,255,255)" stroke="none" stroke-width="1"></path><path id="e2pqr37uaks644" d="M6.387142,0.718978L1.304900,4.388399C1.030184,4.592255,0.549432,4.524303,0.343395,4.252494C0.137358,3.980685,0.206037,3.505020,0.480753,3.301163C0.480753,3.301163,0.549432,3.301163,0.549432,3.233211L6.043747,0.175361C6.181105,0.107408,6.387142,0.107408,6.524500,0.311265C6.524500,0.379217,6.524500,0.583074,6.387142,0.718978Z" fill="rgb(255,255,255)" stroke="none" stroke-width="1"></path></g></g></g><g id="e2pqr37uaks645" transform="matrix(1 0 0 1 146.65700000000001 1)"><path id="e2pqr37uaks646" d="M66.721565,141.165273L51.792617,141.433614L37.733965,141.433614C37.733965,141.433614,30.972424,141.433614,30.436857,149.014232L30.436857,182.288448C30.436857,182.288448,29.901290,189.064045,38.336480,190.741173L67.591863,190.741173C67.591863,190.741173,76.027053,189.332385,76.897351,181.416342L76.897351,151.228040C76.830405,151.295125,78.236270,141.165273,66.721565,141.165273Z" transform="matrix(-1 0 0 1 107.34999999999999 0)" fill="rgb(171,233,255)" stroke="none" stroke-width="1"></path><polygon id="e2pqr37uaks647" points="69.721746,141.299030 43.954527,166.913531 43.954527,173.935783 76.920421,141.165273" transform="matrix(-1 0 0 1 120.87500000000000 0)" fill="rgb(194,242,255)" stroke="none" stroke-width="1"></polygon><path id="e2pqr37uaks648" d="M76.852848,151.614147C76.852848,151.614147,77.663726,145.700619,73.001175,142.845812L30.430057,185.667914C31.105789,187.775033,32.997838,190.561868,37.998256,191.581442L41.917501,191.581442L76.920421,156.372159L76.920421,151.614147L76.852848,151.614147Z" transform="matrix(-1 0 0 1 107.34999999999999 0)" fill="rgb(194,242,255)" stroke="none" stroke-width="1"></path><g id="e2pqr37uaks649" transform="matrix(-1 0 0 1 77.76570000000000 140.16499999999999)"><path id="e2pqr37uaks650" d="M3.554622,42.475702L3.554622,9.133809C4.112210,1.537772,11.151756,1.537772,11.151756,1.537772L7.875927,1.537772C7.875927,1.537772,0.836382,1.537772,0.278794,9.133809L0.278794,42.475702C0.278794,42.475702,-0.278794,49.265079,8.503214,50.945618L11.779042,50.945618C2.927336,49.265079,3.554622,42.475702,3.554622,42.475702Z" fill="rgb(194,242,255)" stroke="none" stroke-width="1"></path><path id="e2pqr37uaks651" d="M39.240240,1.268886C38.891748,1.268886,38.473557,1.201665,38.055366,1.201665L22.512607,1.470551L25.788435,1.470551L39.240240,1.268886Z" fill="rgb(194,242,255)" stroke="none" stroke-width="1"></path></g><path id="e2pqr37uaks652" d="M44.534580,141.165273L29.344188,141.433614L15.039334,141.433614C15.039334,141.433614,8.159380,141.433614,7.614433,149.014232L7.614433,182.288448C7.614433,182.288448,7.069487,189.064045,15.652399,190.741173L45.420119,190.741173C45.420119,190.741173,54.003031,189.332385,54.888569,181.416342L54.888569,151.228040C54.888569,151.295125,56.319055,141.165273,44.534580,141.165273Z" transform="matrix(-1 0 0 1 62.55070000000000 0)" fill="rgb(116,207,247)" stroke="none" stroke-width="1"></path><polygon id="e2pqr37uaks653" points="46.649413,140.463862 21.977264,165.041744 21.977264,173.095514 54.943158,140.325004" transform="matrix(-1 0 0 1 76.92040000000000 0)" opacity="0.5" fill="rgb(171,233,255)" stroke="none" stroke-width="1"></polygon><path id="e2pqr37uaks654" d="M54.042681,151.546176C54.042681,151.546176,54.853776,145.700619,50.257573,142.845812L7.607514,185.735885C8.351018,187.843005,10.175980,190.561868,15.110139,191.581442L25.924734,191.581442L53.975090,163.373232L53.975090,151.546176L54.042681,151.546176Z" transform="matrix(-1 0 0 1 61.70540000000000 0)" opacity="0.5" fill="rgb(171,233,255)" stroke="none" stroke-width="1"></path><path id="e2pqr37uaks655" d="M34.579365,178.249412C31.335131,178.249412,30.851948,183.178069,34.096181,183.178069C37.340415,183.245585,37.823599,178.249412,34.579365,178.249412ZM38.444835,152.053259C31.266105,145.909316,19.807748,151.985743,21.257299,161.235416C21.878535,165.016304,27.883819,164.881272,28.159924,160.965352C28.367003,157.994654,30.990000,154.686377,34.096181,157.454528C36.097943,159.209940,36.235995,162.315669,33.751050,163.530955C32.094420,164.341145,29.954606,165.016304,29.195318,166.906748C28.505055,168.797192,29.954606,171.902921,30.920974,173.455786C31.956368,175.278714,34.855470,175.008650,35.131575,172.780627C35.269628,171.632858,35.200601,170.485088,35.062549,169.337318C36.443074,168.729676,37.961651,168.459612,39.135097,167.514390C40.584649,166.366621,41.412964,164.678724,41.896147,162.990828C43.000567,159.074908,41.551016,154.753893,38.444835,152.053259Z" fill="rgb(75,145,188)" stroke="none" stroke-width="1"></path><g id="e2pqr37uaks656" transform="matrix(-1 0 0 1 41.41870000000000 149.56800000000001)"><path id="e2pqr37uaks657" d="M17.382761,4.990055C19.223288,6.586872,20.450307,8.715963,20.927481,11.044655C20.927481,7.984088,19.564127,4.923521,17.178258,2.860965C10.088818,-3.193635,-1.227018,2.794431,0.204503,11.909598C0.204503,12.042666,0.272671,12.175734,0.272671,12.308802C0.477174,4.191646,10.770495,-0.665341,17.382761,4.990055Z" fill="rgb(64,133,168)" stroke="none" stroke-width="1"></path><path id="e2pqr37uaks658" d="M6.738864,19.627549C7.420541,17.764595,9.601907,17.099255,11.237932,16.300846C13.010291,15.435903,13.419298,13.639483,12.737621,11.976132C12.533118,12.841075,11.987776,13.639483,11.033428,14.171756C9.397404,14.970165,7.284205,15.635505,6.534361,17.498459C6.261690,18.296868,6.329858,19.294879,6.602529,20.292890C6.602529,20.093288,6.670696,19.827151,6.738864,19.627549Z" transform="matrix(-1 0 0 1 19.41010000000000 0)" fill="rgb(64,133,168)" stroke="none" stroke-width="1"></path><path id="e2pqr37uaks659" d="M8.030803,30.805272C8.916983,30.805272,9.530492,31.204477,9.871331,31.736749C10.280337,30.339534,9.666828,28.676182,7.826300,28.676182C5.508599,28.676182,4.622419,31.204477,5.508599,32.668226C5.849437,31.670215,6.667449,30.805272,8.030803,30.805272Z" fill="rgb(64,133,168)" stroke="none" stroke-width="1"></path></g><g id="e2pqr37uaks660" transform="matrix(-1 0 0 1 42.26400000000000 149.56800000000001)"><path id="e2pqr37uaks661" d="M12.187391,26.501782C11.121826,26.501782,10.122860,25.902496,9.590078,24.970272C8.790905,23.638524,7.059363,20.175980,7.925134,17.912009C8.591111,16.114149,10.256055,15.315100,11.787804,14.582639C12.054195,14.449464,12.387184,14.316289,12.653575,14.183115C13.652541,13.650416,13.985530,12.851367,14.052128,12.318668C14.185324,11.253269,13.719139,10.121284,12.853368,9.322235C11.987597,8.523186,11.188424,8.256837,10.389251,8.589774C9.257089,9.055885,8.324720,10.653983,8.191525,12.318668C8.058329,14.649226,6.126994,15.847800,4.395452,15.914387C2.663910,15.980974,0.599379,14.982163,0.266390,12.651605C-0.399587,8.190249,1.664944,3.995244,5.794005,1.797860C9.856469,-0.399524,14.584910,0.066587,17.981396,3.063020L17.981396,3.063020C21.178089,5.859691,22.576642,10.454221,21.511078,14.516052C20.978296,16.513673,19.979329,18.178358,18.647374,19.310344C17.781603,20.042805,16.782637,20.375742,15.850268,20.708679C15.583877,20.841854,15.317486,20.908441,14.984497,21.041616C15.117692,22.240189,15.117692,23.172413,14.984497,24.104636C14.851301,25.369797,14.052128,26.235433,12.853368,26.501782C12.586977,26.501782,12.387184,26.501782,12.187391,26.501782ZM10.988631,7.191438C11.721206,7.191438,12.653575,7.457788,13.719139,8.390012C14.917899,9.521997,15.517279,11.120095,15.317486,12.585017C15.117692,13.850178,14.385117,14.848989,13.252955,15.514863C12.986564,15.648037,12.653575,15.781212,12.387184,15.914387C11.055229,16.513673,9.723273,17.179547,9.190491,18.444708C8.657709,19.843043,9.656676,22.439951,10.788838,24.370986C11.188424,25.103447,11.987597,25.303209,12.520380,25.170035C13.119759,25.036860,13.519346,24.570748,13.585944,23.904874C13.719139,22.972651,13.719139,21.973840,13.519346,20.642092C13.519346,20.375742,13.652541,20.109393,13.918933,19.976218C14.385117,19.776456,14.851301,19.576694,15.317486,19.443519C16.183257,19.110582,17.049028,18.844232,17.715005,18.244946C19.180156,17.046373,19.846134,15.315100,20.179123,14.116527C21.111491,10.520808,19.846134,6.458977,17.049028,3.995244L17.049028,3.995244C13.452748,0.865636,9.190491,1.398335,6.393385,2.929845C3.596279,4.461355,0.865770,7.724138,1.598346,12.451842C1.864737,13.983353,3.130094,14.649226,4.395452,14.582639C5.461016,14.516052,6.792972,13.916765,6.926167,12.252080C7.059363,10.387633,8.124927,8.057075,9.923067,7.391201C10.122860,7.258026,10.522446,7.191438,10.988631,7.191438Z" transform="matrix(-1 0 0 1 22.00700000000000 0)" fill="rgb(36,38,45)" stroke="none" stroke-width="1"></path><path id="e2pqr37uaks662" d="M7.758640,34.958381C6.626478,34.958381,5.960500,34.492270,5.627511,34.092745C5.161327,33.560046,4.961534,32.894172,4.961534,32.161711C4.961534,30.497026,6.160293,28.765754,8.224824,28.765754C9.356986,28.765754,10.022964,29.231866,10.355953,29.631390C10.822137,30.164089,11.021930,30.829963,11.021930,31.562424C11.021930,33.227109,9.823171,34.958381,7.758640,34.958381ZM8.224824,30.030914C6.959467,30.030914,6.293489,31.096312,6.293489,32.095123C6.293489,32.494648,6.426684,32.894172,6.626478,33.160522C6.892869,33.426871,7.292455,33.626633,7.758640,33.626633C9.023997,33.626633,9.689975,32.561235,9.689975,31.562424C9.689975,31.162900,9.556780,30.763376,9.356986,30.497026C9.090595,30.230676,8.691009,30.030914,8.224824,30.030914Z" transform="matrix(-1 0 0 1 15.98350000000000 0)" fill="rgb(36,38,45)" stroke="none" stroke-width="1"></path></g><path id="e2pqr37uaks663" d="M76.012069,12.525374C79.819012,5.136717,70.826750,-2.713731,64.459965,2.563881C58.683913,7.313732,62.622130,17.671045,70.432928,16.747463C72.861495,16.417613,74.896241,14.702389,76.012069,12.525374Z" transform="matrix(-1 0 0 1 138.62600000000000 0)" fill="rgb(255,255,255)" stroke="none" stroke-width="1"></path><path id="e2pqr37uaks664" d="M69.506686,17.645659C66.074762,17.645659,63.046594,15.628061,61.633449,12.265397C60.287597,9.171747,60.489475,4.733031,63.921398,1.908393C67.016859,-0.647231,71.121708,-0.647231,74.351754,1.975647C77.178044,4.262258,78.994945,8.566467,76.774288,12.937930L76.774288,12.937930C75.428436,15.560808,73.073194,17.242140,70.583368,17.578406C70.246904,17.578406,69.843149,17.645659,69.506686,17.645659ZM69.035637,1.370367C67.689785,1.370367,66.209347,1.841140,64.796202,2.984446C61.902620,5.338310,61.768035,9.104494,62.912009,11.794624C63.988691,14.282996,66.545810,16.771367,70.448782,16.300594C72.534853,16.031581,74.486339,14.552009,75.630314,12.399904C77.581800,8.700974,75.966777,5.069297,73.611535,3.118952C72.400268,2.110153,70.785245,1.370367,69.035637,1.370367Z" transform="matrix(-1 0 0 1 138.62600000000000 0)" fill="rgb(36,38,45)" stroke="none" stroke-width="1"></path><path id="e2pqr37uaks665" d="M81.146475,62.714628C81.349739,56.123924,81.078721,50.348565,80.604438,45.388551C79.046082,29.353438,74.980806,21.675608,74.980806,21.675608C75.319579,21.539717,75.658352,21.335881,75.997125,21.199990C84.940733,16.783539,81.620758,9.785163,80.197911,7.475019C79.926892,6.999402,79.655874,6.727620,79.655874,6.727620C77.690990,4.893094,75.726107,4.349531,73.896732,4.485422C73.896732,4.485422,73.828978,4.485422,73.828978,4.485422C70.509002,4.757204,67.731063,7.339129,66.375971,8.901873C66.037198,9.241600,65.833934,9.581327,65.630670,9.785163C65.427407,9.988999,65.359652,10.124890,65.359652,10.124890C64.004560,8.901873,62.581713,7.882692,61.158866,6.999402C50.250375,0.340753,38.257809,3.058569,38.257809,3.126514C9.868629,4.689258,12.036776,27.790693,12.036776,27.790693L7.293954,32.954544C4.516015,40.360592,13.527378,47.494859,13.527378,47.494859C14.272678,57.211051,12.240040,68.761768,10.749439,75.624253L80.333420,75.624253C80.739948,71.071912,81.078721,66.723406,81.146475,62.714628Z" transform="matrix(-1 0 0 1 88.75430000000000 0)" fill="rgb(255,255,255)" stroke="none" stroke-width="1"></path><path id="e2pqr37uaks666" d="M31.622422,75.091893C31.622422,75.091893,18.233743,105.136171,13.136531,111.805193C13.136531,111.805193,-2.358996,137.942367,1.446923,152.088776C1.446923,152.088776,15.107453,141.782107,30.738905,143.466203C30.738905,143.466203,32.437976,148.181673,38.214817,148.720584C38.214817,148.720584,43.515918,154.783331,48.409242,148.720584C48.409242,148.720584,50.652016,144.476661,50.312202,141.310560C50.312202,141.310560,52.554975,142.186290,53.914232,140.636922C53.914232,140.636922,83.749917,147.575398,104.342657,133.698445C104.342657,133.698445,113.857454,110.188460,102.983400,84.859651C102.983400,84.859651,101.624143,81.828278,100.740626,81.154640L101.624143,74.216163C101.692106,74.283527,48.001465,67.345050,31.622422,75.091893Z" transform="matrix(-1 0 0 1 109.04100000000000 0)" fill="rgb(255,255,255)" stroke="none" stroke-width="1"></path><path id="e2pqr37uaks667" d="M139.598438,144.526351C139.598438,144.526351,110.745217,144.526351,100.043787,164.427280C100.043787,164.427280,96.792720,154.476815,90.222855,159.048650C90.222855,159.048650,84.601218,151.989199,80.401923,159.048650C80.401923,159.048650,77.150856,155.821473,74.441633,163.284321C74.441633,163.284321,70.174608,177.134291,80.198731,189.236207C80.198731,189.236207,81.844820,191.581442,87.263265,191.581442C87.263265,191.581442,131.487769,192.421712,144.542769,189.236207C144.542769,189.236207,139.801629,186.345194,140.140282,181.975058L140.140282,146.879501L139.598438,144.526351Z" transform="matrix(-1 0 0 1 218.08199999999999 0)" fill="rgb(255,255,255)" stroke="none" stroke-width="1"></path><path id="e2pqr37uaks668" d="M162.904068,127.290263C162.904068,127.290263,138.566366,115.774066,116.879977,123.903146C116.879977,123.903146,100.564199,140.770989,101.040076,169.155030C101.040076,169.155030,95.261571,170.103423,93.222099,173.016343C93.222099,173.016343,86.355875,173.761509,86.219910,178.842185C86.219910,178.842185,86.015963,183.109952,90.502802,183.855118C91.114644,183.922860,93.426046,187.445462,99.816392,185.074480C99.816392,185.074480,106.206739,187.851916,115.044452,187.309977C115.520329,187.309977,125.989620,186.361585,130.340494,181.890590C130.340494,181.890590,130.816371,180.332516,130.952336,178.503473C130.952336,178.503473,132.108037,160.213041,145.840484,155.200108C145.840484,155.064623,172.013711,153.235580,162.904068,127.290263Z" transform="matrix(-1 0 0 1 251.04800000000000 0)" fill="rgb(255,255,255)" stroke="none" stroke-width="1"></path><g id="e2pqr37uaks669" transform="matrix(-1 0 0 1 165.67500000000001 120.15900000000001)"><path id="e2pqr37uaks670" d="M15.206980,50.440129C15.206980,50.440129,15.138652,50.440129,15.206980,50.440129C14.797011,50.440129,14.523699,50.100694,14.523699,49.693371C15.480292,34.418769,19.101683,21.655991,25.661183,10.522503C28.394308,5.906179,32.903964,2.715485,38.096901,1.629291C46.501261,-0.067887,55.315588,0.067887,64.129916,2.172388C64.471557,2.240275,64.744869,2.647598,64.608213,2.987033C64.471557,3.326469,64.129916,3.598017,63.788276,3.462243C55.110604,1.493517,46.569589,1.289855,38.301886,2.987033C33.518917,3.937453,29.282573,6.992373,26.754433,11.201375C20.263261,22.063314,16.710199,34.690318,15.821933,49.761258C15.821933,50.168581,15.548621,50.440129,15.206980,50.440129Z" fill="rgb(36,38,45)" stroke="none" stroke-width="1"></path><path id="e2pqr37uaks671" d="M26.344464,67.751344C24.772917,68.090780,23.201370,68.090780,21.629824,67.955006C20.058277,67.887119,18.486730,67.683457,16.915183,67.479796L16.983511,67.479796C16.231902,67.411909,15.548621,67.208247,14.865339,66.936699C14.182058,66.665150,13.567105,66.257828,13.020480,65.714731C12.473855,65.171634,12.063886,64.492763,11.790574,63.813891C11.517261,63.067133,11.448933,62.320375,11.517261,61.641504C11.517261,60.215874,12.063886,58.722358,13.157136,57.636164C14.250386,56.617857,15.616949,55.871099,17.120168,56.142647C17.325152,56.210534,17.461808,56.346308,17.393480,56.549970C17.393480,56.617857,17.325152,56.753631,17.256824,56.753631L17.188496,56.753631C16.095246,57.364615,15.001996,57.704051,14.250386,58.586583C13.498777,59.401229,13.157136,60.487423,13.157136,61.641504C13.088808,62.795585,13.430449,63.881779,14.250386,64.628537C15.001996,65.375295,16.163574,65.850505,17.256824,66.054166L17.325152,66.054166C18.828370,66.325715,20.331589,66.529376,21.903136,66.665150C23.406355,66.800925,24.977902,66.868812,26.481120,67.140360C26.686105,67.140360,26.822761,67.344022,26.754433,67.547683C26.617777,67.615570,26.481120,67.751344,26.344464,67.751344Z" fill="rgb(36,38,45)" stroke="none" stroke-width="1"></path><path id="e2pqr37uaks672" d="M14.592027,66.461489C12.883824,67.004586,11.038965,67.276135,9.125777,67.004586C8.169183,66.868812,7.280918,66.665150,6.392652,66.189941C5.504386,65.714731,4.684449,65.035860,4.274480,64.085440C3.796183,63.135020,3.727855,62.116714,3.796183,61.166294C3.864512,60.215874,4.137824,59.265455,4.616121,58.450809C5.094418,57.568277,5.777699,56.889405,6.665965,56.414196C7.485902,55.938986,8.374168,55.667437,9.399090,55.667437C9.604074,55.667437,9.740730,55.803212,9.740730,56.006873C9.740730,56.142647,9.672402,56.278421,9.467418,56.346308L9.399090,56.346308C8.647480,56.549970,7.895871,56.957293,7.280918,57.364615C6.665965,57.839825,6.187668,58.450809,5.846027,59.129680C5.504386,59.808552,5.299402,60.555310,5.231074,61.369955C5.162746,62.116714,5.299402,62.863472,5.572715,63.542343C6.187668,64.832198,7.759215,65.443182,9.330761,65.646844C10.902308,65.850505,12.610511,65.646844,14.182058,65.239521L14.182058,65.239521C14.523699,65.171634,14.933668,65.375295,15.001996,65.714731C15.138652,65.986279,14.933668,66.393602,14.592027,66.461489Z" fill="rgb(36,38,45)" stroke="none" stroke-width="1"></path><path id="e2pqr37uaks673" d="M4.411137,64.696424C4.274480,64.696424,4.206152,64.696424,4.069496,64.628537C1.746340,63.406569,0.311449,61.777278,0.106465,60.012213C-0.030191,58.926019,0.243121,57.364615,2.156308,55.667437C3.317887,54.649130,4.957762,53.834485,6.734293,53.427162C7.485902,52.612517,10.628996,49.421822,15.206980,49.014500C15.616949,48.946613,15.890261,49.286048,15.958589,49.625484C15.958589,49.964919,15.685277,50.304355,15.343636,50.372242C10.833980,50.779565,7.690886,54.445469,7.622558,54.445469C7.554230,54.581243,7.417574,54.649130,7.212590,54.649130C5.504386,54.988566,4.069496,55.667437,3.044574,56.617857C1.882996,57.636164,1.336371,58.722358,1.473027,59.808552C1.609683,61.098407,2.839590,62.388262,4.752777,63.406569C5.094418,63.610230,5.231074,64.017553,5.026090,64.289101C4.889433,64.560650,4.616121,64.696424,4.411137,64.696424Z" fill="rgb(36,38,45)" stroke="none" stroke-width="1"></path></g><path id="e2pqr37uaks674" d="M75.359049,153.769315C75.026093,153.769315,74.759727,153.499835,74.693136,153.162985C74.293588,150.063960,74.293588,146.897566,74.626545,143.798542C75.891780,133.019327,81.085903,122.913814,85.680704,113.953592C87.611852,110.248237,89.609591,106.475511,91.540740,102.837527C95.469628,95.561557,99.465107,88.083477,102.794673,80.470656C106.923334,71.038843,107.123108,59.181708,106.723560,47.728792C106.723560,47.324571,106.989926,47.055091,107.389474,47.055091C107.722430,47.055091,108.055387,47.324571,108.055387,47.728792C108.454935,59.316448,108.255161,71.375694,103.993316,81.076987C100.663750,88.757177,96.601680,96.302628,92.672792,103.578598C90.741644,107.216582,88.677313,110.921937,86.812756,114.627292C82.084772,123.856995,77.157015,133.490918,75.891780,144.000652C75.558823,147.032306,75.558823,150.063960,75.958371,153.028244C76.024962,153.365095,75.758597,153.701945,75.359049,153.769315C75.425641,153.769315,75.359049,153.769315,75.359049,153.769315Z" transform="matrix(-1 0 0 1 182.58000000000001 0)" fill="rgb(36,38,45)" stroke="none" stroke-width="1"></path><path id="e2pqr37uaks675" d="M22.669543,28.569162C22.327563,28.569162,21.985583,28.290683,21.985583,27.872964C21.917187,23.765391,22.190771,17.708462,25.884156,12.765451C33.612904,2.461710,47.976066,1.138932,58.714239,1.835131C65.417048,2.252850,72.119856,5.037645,77.523141,9.632557C77.796725,9.911036,77.865121,10.328755,77.591537,10.607235C77.317953,10.885714,76.907577,10.955334,76.633993,10.676855C71.435896,6.290803,65.075068,3.645247,58.645843,3.227528C48.249650,2.531329,34.365260,3.784487,27.046888,13.600889C24.447839,17.081883,23.285107,21.607175,23.421899,27.803344C23.353503,28.221063,23.079919,28.569162,22.669543,28.569162C22.669543,28.569162,22.669543,28.569162,22.669543,28.569162Z" transform="matrix(-1 0 0 1 99.74299999999999 0)" fill="rgb(36,38,45)" stroke="none" stroke-width="1"></path><path id="e2pqr37uaks676" d="M12.703339,82.346409C12.703339,82.346409,12.703339,82.346409,12.703339,82.346409C12.289575,82.279293,12.013733,82.010827,12.013733,81.608129C13.186063,69.191586,13.461906,61.003380,12.220614,47.915674C11.324126,38.720721,10.289717,31.002330,6.014158,22.814124C5.807277,22.478541,5.945198,22.075843,6.290001,21.941610C6.634804,21.740261,7.048568,21.874493,7.186489,22.210076C11.599969,30.666748,12.703339,38.787837,13.530866,47.781441C14.841118,61.003380,14.496315,69.258703,13.323984,81.742361C13.392945,82.077944,13.048142,82.346409,12.703339,82.346409Z" transform="matrix(-1 0 0 1 20.28670000000000 0)" fill="rgb(36,38,45)" stroke="none" stroke-width="1"></path><path id="e2pqr37uaks677" d="M46.554931,79.853640C48.895917,80.801341,50.754935,82.832129,51.787723,85.133689C52.682806,87.435249,53.302479,89.736808,53.922151,92.038368C55.092644,96.709180,55.918875,101.447685,56.331990,106.253883C56.745105,111.060082,56.745105,115.866280,56.263137,120.672478C55.781170,125.478676,54.610677,130.217181,52.889363,134.752607L52.889363,134.752607L52.889363,134.752607C52.820511,134.887993,52.751658,134.955686,52.682806,135.023379C50.823787,136.512624,48.895917,137.528018,46.830341,138.475719C44.764765,139.423420,42.699189,140.168042,40.495908,140.844971C36.227051,142.131137,31.751637,142.875759,27.276223,143.349610C22.800808,143.755767,18.325394,143.755767,13.849980,143.552688C9.374565,143.349610,4.968003,142.808066,0.561442,142.063444C0.217179,141.995751,-0.058231,141.657286,0.010621,141.251129C0.079474,140.912664,0.423737,140.641892,0.836852,140.709585L0.836852,140.709585C5.174561,141.454208,9.581123,141.928058,13.987685,142.198830C18.394247,142.401909,22.800808,142.401909,27.207370,141.995751C31.613932,141.589593,35.951641,140.844971,40.151646,139.558806C42.217221,138.949569,44.282797,138.204947,46.279521,137.257246C48.207391,136.377238,50.204115,135.294151,51.787723,134.007985L51.581165,134.278757L51.581165,134.278757C53.233626,129.878716,54.266414,125.207904,54.679529,120.537092C55.161497,115.866280,55.161497,111.127774,54.748382,106.389269C54.335266,101.650764,53.577889,96.979952,52.476248,92.376833C51.925428,90.075273,51.236903,87.773713,50.410672,85.607539C49.515589,83.509058,48.000834,81.816735,46.141816,80.395184C46.004110,80.259798,45.935258,80.056719,46.072963,79.921333C46.279521,79.853640,46.417226,79.785947,46.554931,79.853640Z" transform="matrix(-1 0 0 1 56.63370000000000 0)" fill="rgb(36,38,45)" stroke="none" stroke-width="1"></path><path id="e2pqr37uaks678" d="M38.696450,89.339827C39.632680,92.730595,40.393367,96.121363,40.861482,99.647761C41.095540,101.410960,41.329597,103.174160,41.388112,104.937359C41.446626,106.700558,41.446626,108.531573,41.154054,110.362588C41.095540,110.701664,40.802968,110.972926,40.451881,110.905111C40.159310,110.837295,39.925252,110.498218,39.983766,110.159142L39.983766,110.159142C40.159310,108.463758,40.159310,106.768374,40.100795,105.005174C40.042281,103.309790,39.866738,101.546591,39.691194,99.783392C39.515651,98.020192,39.223079,96.324809,38.989022,94.629425C38.696450,92.934041,38.403878,91.170841,38.052792,89.475457L38.052792,89.475457C37.994277,89.272011,38.111306,89.136381,38.286849,89.068565C38.520907,89.068565,38.637936,89.204196,38.696450,89.339827Z" transform="matrix(-1 0 0 1 79.45630000000000 0)" fill="rgb(36,38,45)" stroke="none" stroke-width="1"></path><path id="e2pqr37uaks679" d="M80.065849,111.711001C76.954019,111.983949,73.842189,112.393371,70.730359,112.939267C67.618528,113.485164,64.574347,114.167534,61.530165,115.054615C55.509450,116.760541,49.691681,119.353548,44.279802,122.560689L42.250348,123.788956L40.288542,125.153696C39.679705,125.631355,39.003220,126.040778,38.394384,126.518437C37.785548,126.996096,37.312008,127.473755,36.838469,128.087889C35.891390,129.247918,35.282554,130.612659,34.944312,132.045636C34.606069,133.546851,34.470772,135.048066,34.538421,136.617518C34.606069,139.688184,35.282554,142.827087,36.770821,145.488332C37.514954,146.784835,38.462033,147.944865,39.679705,148.763709C40.288542,149.173131,40.965026,149.446079,41.641511,149.650791C41.979754,149.719028,42.385645,149.855502,42.656239,149.855502C42.994481,149.855502,43.332723,149.855502,43.670966,149.787265C44.009208,149.719028,44.415099,149.991976,44.482748,150.333161C44.550396,150.674346,44.279802,151.083768,43.941560,151.152005C43.468020,151.220242,43.062129,151.288479,42.588590,151.220242C42.115051,151.220242,41.709160,151.083768,41.303269,150.947294C40.491487,150.742583,39.679705,150.333161,38.935572,149.855502C37.514954,148.900183,36.364930,147.603680,35.485499,146.102465C33.794287,143.168273,33.117803,139.824658,32.982506,136.549280C32.914857,134.911592,33.050154,133.205666,33.456045,131.567977C33.794287,129.930288,34.606069,128.292600,35.620796,126.996096C36.161984,126.313726,36.770821,125.699592,37.447305,125.221933C38.123790,124.744274,38.800275,124.266615,39.409111,123.857193L41.370917,122.492452L43.400372,121.264185C48.947547,117.988808,54.832965,115.395801,60.988977,113.689875C64.033159,112.802793,67.212638,112.120423,70.324468,111.574527C71.136250,111.438053,71.880383,111.301579,72.692165,111.233342C73.503946,111.165105,74.248080,111.096868,75.059862,111.028631C76.683425,110.892157,78.239340,110.892157,79.862904,110.960394C80.065849,110.960394,80.201146,111.165105,80.201146,111.301579C80.404092,111.574527,80.268795,111.711001,80.065849,111.711001L80.065849,111.711001Z" transform="matrix(-1 0 0 1 113.26700000000000 0)" fill="rgb(36,38,45)" stroke="none" stroke-width="1"></path><path id="e2pqr37uaks680" d="M53.368775,137.150459C53.781271,139.722486,54.125018,142.294512,54.743762,144.800589C55.087508,146.053628,55.500004,147.240717,56.118749,148.295908C56.393746,148.823503,56.806242,149.285149,57.218738,149.680845C57.631234,150.010592,58.181229,150.406289,58.731224,150.670086C59.831213,151.197681,61.068702,151.527428,62.168691,151.263631C63.268681,151.065783,64.231171,150.340339,64.918665,149.351098C65.606158,148.427806,66.018654,147.240717,66.293652,146.053628C66.568649,144.800589,66.637399,143.547551,66.843647,142.228563L66.843647,142.228563C66.912396,141.832866,67.256143,141.569069,67.668639,141.635018C68.837378,141.766917,69.937367,141.766917,70.831109,141.239322C71.312354,140.975524,71.656101,140.645777,71.999848,140.250081C72.343594,139.854384,72.618592,139.326789,72.893589,138.799194L72.893589,138.799194C72.962338,138.667295,73.168586,138.601346,73.374834,138.667295C73.512333,138.733244,73.581082,138.865143,73.512333,138.997042C73.374834,139.590587,73.168586,140.184131,72.824840,140.777676C72.481093,141.371221,71.999848,141.898816,71.449853,142.294512C70.831109,142.690209,70.143615,142.954006,69.456122,143.019956C68.768628,143.151854,68.081135,143.085905,67.393641,143.019956L68.218633,142.426411C68.012385,143.679450,67.943636,144.998438,67.668639,146.383375C67.393641,147.702363,66.981145,149.153250,66.087404,150.340339C65.674908,150.933884,65.124913,151.461479,64.506169,151.923125C63.887425,152.384771,63.131182,152.714518,62.306190,152.846416C60.724955,153.110214,59.143720,152.714518,57.837482,152.055024C57.493736,151.923125,57.218738,151.725277,56.874991,151.527428C56.531245,151.329580,56.256247,151.131732,55.981250,150.867934C55.431255,150.340339,55.018759,149.746794,54.606263,149.087300C53.918770,147.834262,53.506273,146.515274,53.162527,145.262235C52.543783,142.624259,52.268785,139.986283,52.475033,137.348307C52.475033,137.150459,52.681281,137.018560,52.818780,137.018560C53.231276,136.886661,53.300025,137.018560,53.368775,137.150459L53.368775,137.150459Z" transform="matrix(-1 0 0 1 125.94700000000000 0)" fill="rgb(36,38,45)" stroke="none" stroke-width="1"></path><path id="e2pqr37uaks681" d="M78.430886,163.852549C78.294358,163.852549,78.157831,163.785003,78.021303,163.717458C77.748248,163.514820,77.679984,163.042000,77.884776,162.771817C90.581847,145.952918,110.514884,143.251087,118.501751,142.845812C118.843070,142.845812,119.184389,143.115995,119.184389,143.521270C119.184389,143.926545,118.911334,144.196728,118.501751,144.196728C110.719675,144.602002,91.264485,147.236288,78.908733,163.582366C78.840469,163.785003,78.635677,163.852549,78.430886,163.852549Z" transform="matrix(-1 0 0 1 196.94999999999999 0)" fill="rgb(36,38,45)" stroke="none" stroke-width="1"></path><path id="e2pqr37uaks682" d="M117.528209,164.285283C117.390693,162.923175,117.665724,161.424855,118.353301,160.130852C118.697090,159.449798,119.178394,158.904955,119.728455,158.360112C120.278517,157.883374,120.897336,157.474741,121.516156,157.134214C122.753794,156.453160,124.403979,156.044527,125.985406,156.453160C127.566834,156.861792,128.735715,158.019585,129.560807,159.245482C131.142234,161.697277,131.692296,164.557705,131.829811,167.281921C131.967327,170.006138,131.692296,172.798460,130.867204,175.386466C130.798446,175.590782,130.592173,175.658888,130.454657,175.590782C130.317142,175.522677,130.179626,175.386466,130.248384,175.250255C130.385900,172.594144,130.523415,169.938033,130.385900,167.350027C130.317142,166.056024,130.110869,164.762021,129.767080,163.536123C129.423292,162.310226,128.941988,161.084328,128.323168,160.062747C127.635591,159.041166,126.741741,158.223901,125.710376,157.883374C124.679010,157.542847,123.441371,157.747163,122.341248,158.360112C121.791186,158.632533,121.241125,158.973060,120.828579,159.381693C120.347275,159.790325,120.003486,160.267063,119.659698,160.743801C119.040878,161.765383,118.628332,162.991280,118.353301,164.285283L118.353301,164.285283C118.284543,164.489599,118.147028,164.557705,117.940755,164.557705C117.665724,164.557705,117.528209,164.489599,117.528209,164.285283Z" transform="matrix(-1 0 0 1 249.35700000000000 0)" fill="rgb(36,38,45)" stroke="none" stroke-width="1"></path><path id="e2pqr37uaks683" d="M127.493978,163.713211C126.681483,162.319830,126.613775,160.508435,127.087731,158.975716C127.561686,157.442997,128.645014,155.979947,130.134589,155.213587C131.624164,154.447228,133.384571,154.447228,134.941854,155.004580C136.431430,155.561933,137.717881,156.676637,138.530377,158.139687C138.733500,158.488033,138.598085,158.906047,138.259545,159.115054C137.921005,159.324061,137.582465,159.184723,137.379341,158.906047L137.379341,158.906047C136.702261,157.791342,135.618934,156.955313,134.400191,156.467630C133.181447,155.979947,131.894996,156.049616,130.743961,156.606968C129.660633,157.164321,128.780430,158.209356,128.374182,159.463399C127.967934,160.717442,127.832518,162.110823,128.103350,163.434535L128.103350,163.434535C128.171058,163.643542,128.035642,163.782880,127.832518,163.852549C127.697102,163.852549,127.561686,163.782880,127.493978,163.713211Z" transform="matrix(-1 0 0 1 265.41800000000001 0)" fill="rgb(36,38,45)" stroke="none" stroke-width="1"></path><path id="e2pqr37uaks684" d="M101.074505,192.421712C93.172881,192.421712,87.162244,192.221372,85.473862,192.021032C83.515340,191.820693,81.691888,190.818994,80.476254,189.216276C74.195475,181.069127,71.966812,170.651462,74.668222,162.036853C75.005898,160.968375,75.546180,159.632777,76.559209,158.564298C77.639773,157.429040,79.193084,156.894800,80.543789,157.228700C80.881465,157.295480,81.151606,157.696159,81.016536,158.030059C80.949000,158.363958,80.543789,158.631078,80.206113,158.497518C79.328154,158.297179,78.315125,158.631078,77.504702,159.432437C76.694279,160.300576,76.221533,161.435834,75.951392,162.370753C73.385052,170.651462,75.478645,180.601668,81.556818,188.348137C82.569846,189.616956,84.055622,190.485094,85.676468,190.618654C90.268865,191.086114,126.602830,191.687133,144.567207,188.281357C144.904883,188.214577,145.310095,188.414917,145.377630,188.815597C145.445165,189.149496,145.175024,189.550176,144.837348,189.616956C133.288820,191.887472,114.514020,192.421712,101.074505,192.421712Z" transform="matrix(-1 0 0 1 218.92699999999999 0)" fill="rgb(36,38,45)" stroke="none" stroke-width="1"></path><ellipse id="e2pqr37uaks685" rx="2.713580" ry="5.805750" transform="matrix(-0.99494700000000 -0.10040500000000 -0.10040500000000 0.99494700000000 134.73793247100002 180.47807618099998)" fill="rgb(36,38,45)" stroke="none" stroke-width="1"></ellipse><path id="e2pqr37uaks686" d="M124.262987,166.199569C124.172101,167.601270,124.990075,168.047266,125.898935,168.047266C126.807794,168.110980,127.534882,167.728697,127.625768,166.326996C127.716654,164.925295,127.262224,163.013884,126.353364,163.013884C125.444505,162.950170,124.444759,164.797867,124.262987,166.199569Z" transform="matrix(-1 0 0 1 251.89300000000000 0)" fill="rgb(36,38,45)" stroke="none" stroke-width="1"></path><path id="e2pqr37uaks687" d="M132.708858,163.746186C132.708858,165.150181,133.622674,165.533088,134.536489,165.533088C135.450305,165.533088,136.089976,165.150181,136.089976,163.746186C136.089976,162.342191,135.358923,160.491471,134.445108,160.491471C133.531292,160.491471,132.708858,162.342191,132.708858,163.746186Z" transform="matrix(-1 0 0 1 268.79899999999998 0)" fill="rgb(36,38,45)" stroke="none" stroke-width="1"></path><path id="e2pqr37uaks688" d="M138.689158,166.390079C138.869960,167.791496,139.773968,168.110000,140.677975,168.046299C141.581983,167.982598,142.214789,167.536693,141.943586,166.135276C141.762785,164.733859,140.858777,162.950238,139.954769,163.013939C139.050761,163.077640,138.417956,164.988662,138.689158,166.390079Z" transform="matrix(-1 0 0 1 280.63299999999998 0)" fill="rgb(36,38,45)" stroke="none" stroke-width="1"></path><path id="e2pqr37uaks689" d="M115.753711,149.830099C116.111647,150.682026,116.290614,151.533953,116.469582,152.385880C116.648550,153.237806,116.648550,154.155266,116.648550,155.007193C116.559066,155.859120,116.559066,156.776579,116.290614,157.628506C116.022163,158.480433,115.574743,159.397892,114.948355,160.184286C114.679903,160.511950,114.142999,160.577483,113.695579,160.380885C113.337643,160.184286,113.158675,159.856622,113.337643,159.528958L113.337643,159.528958C114.232483,158.152769,114.679903,156.514448,114.858871,154.876127C114.948355,154.024200,114.948355,153.237806,114.948355,152.385880C114.948355,151.533953,114.948355,150.682026,114.858871,149.895632L114.858871,149.895632C114.858871,149.699034,115.037839,149.567968,115.306291,149.567968C115.574743,149.567968,115.753711,149.699034,115.753711,149.830099Z" transform="matrix(-1 0 0 1 229.91600000000000 0)" fill="rgb(36,38,45)" stroke="none" stroke-width="1"></path><g id="e2pqr37uaks690" transform="matrix(-1 0 0 1 78.61100000000000 150.40799999999999)"><path id="e2pqr37uaks691" d="M27.383861,4.453085L24.401460,4.181455C23.994770,4.113548,23.723642,3.841918,23.791424,3.434473C23.859206,3.027028,24.130333,2.755398,24.537024,2.823305C24.604806,2.823305,24.672588,2.823305,24.672588,2.823305L27.519425,3.774010C27.722770,3.841918,27.790552,4.045640,27.722770,4.181455C27.654989,4.385178,27.519425,4.453085,27.383861,4.453085Z" fill="rgb(36,38,45)" stroke="none" stroke-width="1"></path><path id="e2pqr37uaks692" d="M6.032583,31.683990L1.152291,31.548175C0.745600,31.548175,0.474473,31.208637,0.474473,30.869100C0.474473,30.529563,0.813382,30.190025,1.152291,30.190025C1.152291,30.190025,1.220073,30.190025,1.220073,30.190025L6.032583,31.004915C6.235929,31.004915,6.371492,31.208637,6.303711,31.412360C6.371492,31.548175,6.168147,31.683990,6.032583,31.683990Z" fill="rgb(36,38,45)" stroke="none" stroke-width="1"></path><path id="e2pqr37uaks693" d="M26.570479,1.804693L23.994770,1.533063C23.588079,1.465156,23.316951,1.193526,23.384733,0.786081C23.452515,0.378636,23.723642,0.107006,24.130333,0.174913C24.198115,0.174913,24.265897,0.174913,24.333679,0.242821L26.773825,1.193526C26.977170,1.261433,27.044952,1.465156,26.977170,1.600971C26.841607,1.668878,26.706043,1.804693,26.570479,1.804693Z" fill="rgb(36,38,45)" stroke="none" stroke-width="1"></path><path id="e2pqr37uaks694" d="M68.595217,30.937007L71.170926,31.208637C71.577618,31.276545,71.848745,31.548175,71.780963,31.955620C71.713181,32.363065,71.442054,32.634695,71.035363,32.566787C70.967581,32.566787,70.899799,32.566787,70.832017,32.498880L68.391871,31.548175C68.188526,31.480268,68.120744,31.276545,68.188526,31.140730C68.324089,31.072823,68.459653,30.937007,68.595217,30.937007Z" fill="rgb(36,38,45)" stroke="none" stroke-width="1"></path></g><path id="e2pqr37uaks695" d="M6.762235,12.432308C6.827979,10.610702,7.682651,8.924030,8.866042,7.574692C10.049433,6.225354,11.561544,5.145884,13.336630,4.606149C15.045973,4.066414,16.952548,4.066414,18.661890,4.606149C20.436977,5.145884,21.949088,6.360288,23.000991,7.912027C23.987150,9.463765,24.513102,11.352838,24.513102,13.174444C24.513102,14.118981,24.315870,15.063517,23.987150,15.940587C23.855662,16.412855,23.592687,16.817656,23.395455,17.222458C23.198223,17.627259,22.935247,17.964594,22.672271,18.369395C22.146320,19.111531,21.554624,19.786200,20.831441,20.393402C20.108257,21.000604,19.319330,21.405405,18.464658,21.742739C16.821060,22.349942,15.177461,22.619809,13.468118,22.687276C13.270886,22.687276,13.139399,22.552342,13.139399,22.349942C13.139399,22.215008,13.205142,22.080074,13.336630,22.012607C14.848741,21.203004,16.558084,20.933137,18.004451,20.393402C18.727634,20.123534,19.385074,19.718733,19.976769,19.246464C20.568465,18.774196,21.094416,18.166994,21.488880,17.492325C21.686112,17.154991,21.883344,16.817656,22.080576,16.480322C22.277808,16.142987,22.409295,15.805653,22.540783,15.400852C22.803759,14.658716,22.935247,13.916580,22.935247,13.106977C22.935247,11.555239,22.540783,10.003500,21.686112,8.721629C20.831441,7.439758,19.648050,6.427755,18.201683,5.955487C16.755316,5.483218,15.177461,5.483218,13.731094,5.888020C12.284727,6.292821,10.904104,7.169891,9.917945,8.384295C8.866042,9.598699,8.142858,11.015504,7.419675,12.499775L7.419675,12.499775C7.353931,12.702176,7.156699,12.769643,6.959467,12.634709C6.827979,12.702176,6.762235,12.567242,6.762235,12.432308Z" transform="matrix(-1 0 0 1 31.27530000000000 0)" fill="rgb(36,38,45)" stroke="none" stroke-width="1"></path><path id="e2pqr37uaks696" d="M67.884266,191.581442L16.881776,191.581442C11.282297,191.581442,6.762235,187.056829,6.762235,181.451711L6.762235,145.795058C6.762235,145.389869,7.032089,145.119743,7.436871,145.119743C7.841653,145.119743,8.111507,145.389869,8.111507,145.795058L8.111507,181.451711C8.111507,186.313982,12.024397,190.230811,16.881776,190.230811L67.884266,190.230811C73.078964,190.230811,77.261708,185.976324,77.261708,180.843927L77.261708,150.454735C77.261708,145.592464,73.348818,141.675635,68.491438,141.675635L66.602457,141.675635C66.197676,141.675635,65.927821,141.405508,65.927821,141.000319C65.927821,140.595130,66.197676,140.325004,66.602457,140.325004L68.491438,140.325004C74.090918,140.325004,78.610980,144.849617,78.610980,150.454735L78.610980,180.843927C78.610980,186.786703,73.821063,191.581442,67.884266,191.581442Z" transform="matrix(-1 0 0 1 85.37320000000000 0)" fill="rgb(36,38,45)" stroke="none" stroke-width="1"></path><path id="e2pqr37uaks697" d="M54.342565,190.741173L49.738017,190.741173C44.199213,190.741173,39.728130,186.207746,39.728130,180.591709L39.728130,149.669678C39.728130,146.286523,41.329712,143.174021,44.065748,141.279455C44.399410,141.076465,44.799806,141.144128,45.000004,141.482444C45.200201,141.820759,45.133469,142.226738,44.799806,142.429727C42.464166,144.053641,40.996049,146.827828,40.996049,149.669678L40.996049,180.591709C40.996049,185.463452,44.866538,189.387911,49.671284,189.387911L54.275832,189.387911C54.676228,189.387911,54.943158,189.658563,54.943158,190.064542C54.943158,190.470520,54.676228,190.741173,54.342565,190.741173Z" transform="matrix(-1 0 0 1 94.67130000000000 0)" fill="rgb(36,38,45)" stroke="none" stroke-width="1"></path><path id="e2pqr37uaks698" d="M62.494630,21.571468C59.462048,23.347784,56.429466,25.055780,53.534729,26.968735C52.087360,27.925213,50.708913,29.018331,49.399389,30.111448L48.434477,30.999606L47.538487,31.887764C46.918186,32.502642,46.504652,33.049201,46.160040,33.800719C45.815429,34.483918,45.677584,35.235436,45.608662,36.055274C45.608662,36.465193,45.608662,36.806792,45.677584,37.216711C45.746507,37.626630,45.815429,38.036549,45.953273,38.446469C46.366807,40.086145,46.987108,41.657501,47.814176,43.092218C48.641244,44.526934,49.744001,45.825011,50.984603,46.918129C52.225204,48.011246,53.672573,48.899404,55.257787,49.582602L55.051020,49.514283C57.394378,49.855882,59.875582,49.787562,62.287863,49.582602C64.700144,49.377643,67.112425,48.899404,69.455784,48.216206C70.627464,47.874606,71.799143,47.464687,72.901900,46.986449C74.004657,46.508210,75.107414,45.961651,76.210171,45.415092C78.346763,44.253655,80.345511,42.887258,82.275335,41.315902L82.275335,41.315902C82.413180,41.179262,82.619947,41.247582,82.757792,41.384222C82.895636,41.520861,82.826714,41.725821,82.757792,41.862460C80.965811,43.638776,78.967064,45.210133,76.830472,46.508210C74.624958,47.806287,72.281599,48.762764,69.869318,49.582602C67.457037,50.334121,64.975833,50.812359,62.425708,51.085639C59.875582,51.290598,57.394378,51.358918,54.775330,51.017319C54.706408,51.017319,54.637486,51.017319,54.637486,50.948999L54.637486,50.948999C52.983350,50.197481,51.398137,49.241003,49.950768,48.079566C48.572322,46.918129,47.331720,45.483412,46.435730,43.912056C45.470817,42.340699,44.850516,40.632703,44.368060,38.856387C44.230215,38.446469,44.161293,37.968230,44.092371,37.489991C44.023449,37.011752,43.954526,36.533513,43.954526,36.055274C43.954526,35.098796,44.230215,34.142319,44.643749,33.254161C45.057283,32.366003,45.677584,31.546165,46.366807,30.931286L47.331720,29.974808L48.365555,29.086650C49.744001,27.925213,51.191370,26.832096,52.638738,25.875618C55.602398,23.894343,58.703902,22.118027,62.150018,21.024909C62.356785,20.956589,62.494630,21.093229,62.563552,21.229869C62.701397,21.366508,62.632475,21.503148,62.494630,21.571468L62.494630,21.571468Z" transform="matrix(-1 0 0 1 126.79200000000000 0)" fill="rgb(36,38,45)" stroke="none" stroke-width="1"></path><path id="e2pqr37uaks699" d="M79.455102,35.477154C79.384343,37.005162,75.987942,39.615509,72.025471,39.488175C68.063002,39.297174,64.949634,36.432159,65.091150,34.904151C65.161908,33.376144,68.346035,33.567145,72.308505,33.694479C76.341734,33.821813,79.525860,33.949147,79.455102,35.477154Z" transform="matrix(-1 0 0 1 144.54300000000001 0)" fill="rgb(36,38,45)" stroke="none" stroke-width="1"></path><path id="e2pqr37uaks6100" d="M73.733117,39.453022C73.733117,39.596099,73.643385,39.953789,73.643385,40.239942C73.643385,40.526094,73.643385,40.812247,73.553653,41.098399C73.553653,41.670704,73.553653,42.314547,73.643385,42.886852C73.733117,43.530695,73.822849,44.103000,73.912581,44.746843C74.002313,45.390686,74.181777,45.962991,74.361241,46.606834L74.361241,46.606834C74.450973,46.821449,74.271509,46.964525,74.002313,47.036063C73.822849,47.107601,73.553653,46.964525,73.463921,46.821449C73.194725,46.249144,72.925529,45.605300,72.746065,45.032996C72.566601,44.389153,72.297405,43.816848,72.207673,43.173004C72.028209,42.529161,71.938477,41.885318,71.848745,41.241475C71.848745,40.883785,71.848745,40.597632,71.848745,40.239942C71.848745,39.882251,71.938477,39.596099,72.117941,39.166870C72.297405,38.809179,72.746065,38.594565,73.194725,38.666103C73.643385,38.737641,73.822849,39.095332,73.822849,39.453022L73.733117,39.453022Z" transform="matrix(-1 0 0 1 146.23300000000000 0)" fill="rgb(36,38,45)" stroke="none" stroke-width="1"></path><path id="e2pqr37uaks6101" d="M55.500604,50.053968C55.772628,50.653475,56.180665,51.252983,56.656707,51.785878L56.996738,52.185550L57.404774,52.518609C57.676799,52.785057,58.016829,52.918281,58.288854,53.118117C59.512963,53.850848,61.009097,54.183908,62.505231,54.250520C63.253298,54.317132,64.001365,54.183908,64.749432,54.117296C65.497499,53.984072,66.245566,53.850848,66.993633,53.651013C67.741700,53.384565,68.489768,53.251341,69.237835,52.984893L71.414029,52.118938L71.414029,52.118938C71.618048,52.052326,71.754060,52.118938,71.822066,52.318774C71.890072,52.451998,71.822066,52.651833,71.686054,52.718445L69.509859,53.717624C68.761792,54.050684,68.013725,54.250520,67.265658,54.583580C66.517591,54.850028,65.701518,54.983251,64.885445,55.183087C64.069372,55.249699,63.253298,55.449535,62.437225,55.449535C60.805079,55.516147,59.036921,55.183087,57.540787,54.317132C56.792720,53.850848,56.112659,53.384565,55.500604,52.718445C54.888549,52.052326,54.480512,51.386207,54.140482,50.520251C54.004470,50.187192,54.208488,49.787520,54.548519,49.654296C54.956555,49.454460,55.364592,49.654296,55.500604,50.053968L55.500604,50.053968Z" transform="matrix(-1 0 0 1 125.94700000000000 0)" fill="rgb(36,38,45)" stroke="none" stroke-width="1"></path><path id="e2pqr37uaks6102" d="M20.268863,13.682897C20.397113,14.997397,19.819986,16.242711,18.986357,17.142106C18.152728,18.041500,16.998473,18.594973,15.908343,19.010078C11.804324,20.393762,9.559939,17.003737,11.996700,13.336976C13.022705,11.814925,14.369336,10.085320,16.164844,10.085320C18.024477,10.016136,20.076487,11.676556,20.268863,13.682897Z" transform="matrix(-1 0 0 1 31.27530000000000 0)" fill="rgb(36,38,45)" stroke="none" stroke-width="1"></path><path id="e2pqr37uaks6103" d="M73.539304,8.174031C73.394592,7.777314,73.177523,7.380597,72.960454,6.983879C72.526317,6.256564,71.875111,5.595368,71.079193,5.264770C70.500343,5.066412,69.921493,5.000292,69.342644,5.066412C64.856558,5.595368,65.580120,9.959260,67.099601,12.604042C66.954888,12.471803,73.032811,8.438510,73.539304,8.174031Z" transform="matrix(-1 0 0 1 139.47100000000000 0)" fill="rgb(36,38,45)" stroke="none" stroke-width="1"></path><g id="e2pqr37uaks6104" transform="matrix(-1 0 0 1 68.46760000000000 14.28460000000000)"><path id="e2pqr37uaks6105" d="M0.788927,4.061303C0.328720,6.161976,0.920415,7.702470,2.169550,7.982560C3.484429,8.332672,4.996540,7.282336,5.456748,5.181662C5.916955,3.080988,5.259516,1.050337,3.944637,0.770247C2.629758,0.420135,1.249135,1.890606,0.788927,4.061303Z" fill="rgb(36,38,45)" stroke="none" stroke-width="1"></path><circle id="e2pqr37uaks6106" r="1" transform="matrix(1 0 0 1 2.36678000000000 3.29106000000000)" fill="rgb(225,232,234)" stroke="none" stroke-width="1"></circle></g><g id="e2pqr37uaks6107" transform="matrix(-1 0 0 1 35.50170000000000 16.80540000000000)"><path id="e2pqr37uaks6108" d="M0.756614,4.670129C0.189153,6.940331,0.827546,8.756493,2.458994,9.080807C4.090443,9.405122,5.863756,8.172726,6.502149,5.902525C7.069609,3.632323,6.289351,1.491847,4.728836,1.167532C3.168320,0.843218,1.324074,2.399928,0.756614,4.670129Z" fill="rgb(36,38,45)" stroke="none" stroke-width="1"></path><circle id="e2pqr37uaks6109" r="1" transform="matrix(1 0 0 1 2.95552000000000 3.95664000000000)" fill="rgb(225,232,234)" stroke="none" stroke-width="1"></circle></g><path id="e2pqr37uaks6110" d="M27.156082,11.150560C27.762173,10.702843,28.519786,10.383045,29.353160,10.191166C30.186535,9.999287,31.171432,10.063246,32.004807,10.383045C32.838182,10.702843,33.520033,11.278479,33.898840,11.918075C34.126124,12.237873,34.277647,12.557671,34.429169,12.877470C34.504931,13.197268,34.580692,13.517066,34.656453,13.900823C34.656453,14.092702,34.504931,14.220622,34.353408,14.284581C34.201885,14.284581,34.050363,14.220622,33.974601,14.156662L33.974601,14.092702C33.747317,13.836864,33.595795,13.581025,33.444272,13.325187C33.216988,13.069349,33.065465,12.813510,32.838182,12.621631C32.459375,12.173914,31.929046,11.854116,31.398716,11.598277C30.868387,11.406398,30.262296,11.278479,29.580444,11.342439C28.898592,11.406398,28.216741,11.534318,27.610650,11.726197L27.534889,11.726197C27.307605,11.790156,27.156082,11.662237,27.080321,11.534318C27.004559,11.342439,27.080321,11.214519,27.156082,11.150560Z" transform="matrix(-1 0 0 1 61.70540000000000 0)" fill="rgb(36,38,45)" stroke="none" stroke-width="1"></path><path id="e2pqr37uaks6111" d="M63.420957,11.329793C63.541693,10.639336,63.783166,10.025596,64.145376,9.488574C64.507585,8.951552,65.050900,8.491247,65.714951,8.414529C66.379001,8.337812,66.982684,8.644682,67.405262,9.028269C67.646735,9.258422,67.827840,9.488574,68.008945,9.718726C68.190049,10.025596,68.310786,10.255749,68.431522,10.562618C68.491891,10.716053,68.491891,11.022923,68.310786,11.099641C68.190049,11.176358,68.129681,11.176358,68.008945,11.099641L67.948576,11.099641C67.707103,10.946206,67.525999,10.792771,67.344894,10.639336C67.163789,10.485901,66.982684,10.332466,66.801579,10.255749C66.439370,10.025596,66.077160,9.948879,65.775319,9.948879C65.171636,10.025596,64.507585,10.792771,63.903903,11.636663L63.903903,11.636663C63.783166,11.790098,63.602061,11.790098,63.481325,11.713381C63.420957,11.636663,63.360588,11.483228,63.420957,11.329793Z" transform="matrix(-1 0 0 1 131.86400000000000 0)" fill="rgb(36,38,45)" stroke="none" stroke-width="1"></path></g></g></g></svg> 