<?xml version="1.0" encoding="UTF-8"?> <svg xmlns="http://www.w3.org/2000/svg" xmlns:xlink="http://www.w3.org/1999/xlink" id="e67t7khsq0v1" viewBox="0 0 309 251" shape-rendering="geometricPrecision" text-rendering="geometricPrecision"><style><![CDATA[#e67t7khsq0v59_tr {animation: e67t7khsq0v59_tr__tr 6000ms linear infinite normal forwards}@keyframes e67t7khsq0v59_tr__tr { 0% {transform: translate(189.233701px,90.550341px) rotate(0deg);animation-timing-function: cubic-bezier(0.420000,0,0.580000,1)} 50% {transform: translate(189.233701px,90.550341px) rotate(4deg);animation-timing-function: cubic-bezier(0.420000,0,0.580000,1)} 100% {transform: translate(189.233701px,90.550341px) rotate(0deg)} }#e67t7khsq0v59_ts {animation: e67t7khsq0v59_ts__ts 6000ms linear infinite normal forwards}@keyframes e67t7khsq0v59_ts__ts { 0% {transform: scale(1,1);animation-timing-function: cubic-bezier(0.420000,0,0.580000,1)} 50% {transform: scale(1,1.120000);animation-timing-function: cubic-bezier(0.420000,0,0.580000,1)} 100% {transform: scale(1,1)} }]]></style><g id="e67t7khsq0v2"><g id="e67t7khsq0v3"><g id="e67t7khsq0v4" transform="matrix(1 0 0 1 0 8)"><path id="e67t7khsq0v5" d="M256.294502,195.092965C201.854872,258.644314,166.808439,258.967361,151.155204,196.062107C127.675352,101.704227,37.084376,162.685234,6.896297,106.836043C-23.291781,50.986852,52.710994,-14.067331,98.005760,31.150697C143.300525,76.368725,170.236227,-45.077009,263.975135,19.219096C326.467740,62.083167,323.907529,120.707790,256.294502,195.092965Z" fill="rgb(178,227,234)" stroke="none" stroke-width="1"></path></g><g id="e67t7khsq0v6" transform="matrix(1 0 0 1 68 0)"><path id="e67t7khsq0v7" d="M60.508703,67.399530C60.508703,67.399530,58.294051,56.958627,57.072571,53.363697C56.996228,53.064120,56.843543,52.839437,56.767201,52.614753C55.545721,50.068345,45.656152,47.817550,50.313043,37.856599L51.804939,35.164365C51.804939,35.164365,47.682445,22.657006,56.461831,15.841618C56.461831,15.841618,62.492888,7.678132,71.501301,6.854294C71.501301,6.854294,86.998826,1.087427,100.129735,9.026230C100.129735,9.026230,102.038297,-1.309193,112.039163,2.435526C112.039163,2.435526,118.909987,5.805772,115.321890,13.744576C115.321890,13.744576,112.296049,16.060735,109.013322,17.483728C108.535917,17.483728,112.039163,18.607639,115.321890,28.907450C116.928443,36.065242,116.928443,36.631446,119.001281,44.431292C119.751377,46.707175,119.751377,46.837045,120.467847,49.548736C121.527660,53.559905,122.788697,60.031079,122.879796,68.342571C122.879796,68.342571,135.628992,70.065142,133.567745,86.092537C133.567745,86.092537,133.033347,96.427960,129.979648,101.820354C129.979648,101.820354,140.133199,125.861447,137.079499,148.704230C137.079499,148.704230,136.239732,157.841343,131.888210,166.828667C131.888210,166.828667,123.566879,191.019549,126.391551,212.514233C126.391551,212.514233,129.632039,222.799307,120.165571,225.795082C120.165571,225.795082,107.763983,230.264198,97.763117,226.519480C97.763117,226.519480,91.740454,229.989167,86.854534,225.795082C86.854534,225.795082,80.967770,224.497332,83.029017,218.730465C83.029017,218.730465,85.090264,214.835958,88.907389,214.461486C88.907389,214.461486,92.190116,210.566979,94.251363,210.192507C94.251363,210.192507,85.090264,175.516414,87.380539,159.938385C87.380539,159.938385,80.662400,160.762223,79.593605,158.740075C79.593605,158.740075,76.158193,114.177925,71.119589,99.498629C71.119589,99.648418,66.921472,73.990234,60.508703,67.399530Z" fill="rgb(255,255,255)" stroke="none" stroke-width="1"></path><path id="e67t7khsq0v8" d="M59.799108,17.968100C59.799108,17.968100,54.361247,23.363232,50.076873,19.841410C50.076873,19.841410,43.732702,13.397225,49.500130,8.526620C49.500130,8.526620,55.058659,4.028701,60.826087,8.899306C60.826087,8.824373,66.884805,12.722833,59.799108,17.968100Z" fill="rgb(255,255,255)" stroke="none" stroke-width="1"></path><path id="e67t7khsq0v9" d="M51.555243,22.180556C51.476404,22.180556,51.318725,22.180556,51.239886,22.106397C48.717028,20.919858,46.824884,18.546779,46.194170,15.877066C45.642294,13.355671,46.273009,10.908434,48.007474,8.906149C49.741939,6.903864,52.185958,5.865642,54.787655,6.013960C57.625870,6.162277,60.464085,7.719610,62.040872,10.018529C62.277390,10.389323,62.198550,10.834275,61.804354,11.056751C61.410157,11.279227,60.937121,11.205068,60.700603,10.834275C59.360335,8.906149,57.073995,7.645451,54.708816,7.497134C52.580154,7.422975,50.688011,8.238720,49.268903,9.796053C47.849795,11.427544,47.376759,13.429829,47.849795,15.506273C48.322831,17.731034,49.978457,19.733319,52.028279,20.697382C52.422475,20.845699,52.580154,21.290651,52.422475,21.661445C52.185958,22.032238,51.870600,22.180556,51.555243,22.180556Z" fill="rgb(36,38,45)" stroke="none" stroke-width="1"></path><path id="e67t7khsq0v10" d="M54.221559,63.884552C55.508231,63.704024,46.680134,63.148022,43.843478,78.394281C44.888562,76.958177,28.366439,79.922811,6.419684,76.357765C6.419684,76.357765,5.847224,63.609968,16.074114,61.486111C16.148763,61.561963,46.682027,61.002175,54.221559,63.884552Z" fill="rgb(220,250,255)" stroke="none" stroke-width="1"></path><path id="e67t7khsq0v11" d="M17.965217,69.283766C17.965217,69.283766,34.287615,125.923809,33.916652,159.152635C33.916652,159.152635,34.287615,201.821468,25.755453,216.547879L46.900377,217.303079C46.900377,217.303079,50.610013,216.170278,54.319649,223.344684C54.319649,223.344684,57.658321,229.386289,62.109885,229.763889C62.109885,229.763889,66.932411,229.763889,69.900120,220.701482C71.339130,218.741368,81.411349,186.468480,80.150072,160.187500C80.863217,160.036460,77.244901,107.040331,66.486957,77.587509C66.486957,77.587509,62.109884,63.157994,54.319649,63.913194L17.965217,69.283766Z" fill="rgb(220,250,255)" stroke="none" stroke-width="1"></path><path id="e67t7khsq0v12" d="M45.111683,216.391816L14.276647,216.391816C14.276647,216.391816,8.388360,215.702216,6.093987,220.864584C6.093987,220.864584,1.862225,226.373677,1.173913,230.380291L34.365842,231.381944C34.442321,231.381944,38.610959,218.626274,45.111683,216.391816Z" fill="rgb(220,250,255)" stroke="none" stroke-width="1"></path><path id="e67t7khsq0v13" d="M34.143116,229.763889C34.143116,229.763889,36.658505,223.477406,40.673913,219.229167C42.351154,217.454673,43.195077,216.312261,45.841804,216.361162C45.841804,216.361162,52.109396,214.245383,54.432622,222.212102C54.587503,222.627036,59.079074,228.602076,61.634783,229.680902C61.712063,229.763889,33.755912,229.348956,34.143116,229.763889Z" fill="rgb(188,224,228)" stroke="none" stroke-width="1"></path><path id="e67t7khsq0v14" d="M88.623239,159.594718L89.130435,171.455216C89.130435,171.455216,81.776094,192.120131,84.988335,210.092786C84.988335,210.092786,86.087260,212.857810,85.749129,214.022031C85.749129,214.022031,81.437964,216.932582,83.635813,220.716299C83.635813,220.716299,81.740147,225.855652,68.045858,224.909722C70.609495,220.864584,71.482836,217.078110,73.765217,210.092786C73.765217,210.092786,79.831844,186.226264,79.578246,174.656822L79.916376,158.576025C80.000909,158.430498,84.903802,160.758939,88.623239,159.594718Z" fill="rgb(255,255,255)" stroke="none" stroke-width="1"></path><g id="e67t7khsq0v15" transform="matrix(1 0 0 1 81.04349999999999 208.72900000000001)"><path id="e67t7khsq0v16" d="M29.781812,19.589817C26.270159,19.965438,22.804419,20.342410,19.292766,19.966790L19.369106,19.966790C18.453022,19.891666,17.765960,19.741418,17.002557,19.440922C16.239154,19.140426,15.475751,18.764806,14.865029,18.163814C14.254307,17.562822,13.796265,16.886706,13.414564,16.135466C13.109203,15.384226,12.956522,14.557862,12.956522,13.731498C12.956522,13.355878,12.956522,12.980258,13.032862,12.529514C13.032862,12.153894,13.185543,11.778273,13.261883,11.327529C13.490904,10.576289,13.948946,9.825049,14.483328,9.224057C15.628432,8.022073,17.155238,7.421081,18.682043,7.270833C18.911064,7.270833,19.063745,7.421081,19.063745,7.646453C19.063745,7.796701,18.987405,8.022073,18.758384,8.022073L18.682043,8.022073C17.384259,8.397693,16.162814,9.148933,15.399411,10.125545C15.017710,10.651413,14.788689,11.177281,14.559668,11.778273C14.483328,12.078769,14.406987,12.379266,14.406987,12.679762C14.330647,12.980258,14.406987,13.280754,14.406987,13.656374C14.406987,14.332490,14.559668,14.933482,14.788689,15.459350C15.017710,15.985218,15.399411,16.511086,15.857453,16.886706C16.773536,17.637946,18.071321,18.088690,19.292766,18.163814L19.369106,18.163814C21.088440,18.351808,22.777151,18.351285,24.465891,18.275603C26.151337,18.200068,27.836812,18.049665,29.552791,17.937089C30.010833,17.937089,30.392534,18.237585,30.392534,18.688329C30.468874,19.214198,30.163513,19.589817,29.781812,19.589817Z" fill="rgb(36,38,45)" stroke="none" stroke-width="1"></path><path id="e67t7khsq0v17" d="M16.683822,19.231746C14.775315,19.907862,12.714128,20.358606,10.652940,20.208358C9.584176,20.133234,8.515412,19.982986,7.522988,19.532242C6.530564,19.081498,5.538141,18.330258,5.003759,17.353646C4.469377,16.377034,4.240356,15.250174,4.316696,14.198438C4.316696,13.146701,4.545717,12.094965,5.003759,11.118353C5.461800,10.141741,6.225203,9.315377,7.141287,8.714385C8.057370,8.113393,9.049794,7.737773,10.118558,7.662649C10.347579,7.662649,10.500259,7.812897,10.500259,8.038269C10.500259,8.188517,10.423919,8.338765,10.271238,8.413889L10.194898,8.413889C9.355155,8.714385,8.515412,9.165129,7.904690,9.690997C7.217627,10.291989,6.759585,10.968105,6.377884,11.719345C6.072523,12.470585,5.843502,13.372073,5.843502,14.198438C5.843502,15.024802,5.996182,15.851166,6.377884,16.527282C7.141287,17.879514,8.897113,18.480506,10.729280,18.630754C12.561447,18.705878,14.393614,18.405382,16.149440,17.879514L16.149440,17.879514C16.531142,17.729266,16.989183,17.954638,17.141864,18.330258C17.218204,18.630754,17.065524,19.081498,16.683822,19.231746Z" fill="rgb(36,38,45)" stroke="none" stroke-width="1"></path><path id="e67t7khsq0v18" d="M4.851078,17.879514C3.476953,17.278522,2.179168,16.452158,1.186744,15.250174C0.728703,14.649181,0.270661,13.897941,0.117980,13.071577C-0.034700,12.245213,0.041640,11.343725,0.347001,10.592485C0.499682,10.216865,0.652362,9.841245,0.881383,9.540749C1.110404,9.240253,1.339425,8.864633,1.568446,8.639261C2.026488,8.038269,2.637210,7.512401,3.247932,7.136781C4.469377,6.235293,5.919842,5.634301,7.293967,5.258681L7.293967,5.258681L6.912266,5.559177C7.446648,4.732812,8.133710,4.131820,8.820773,3.530828C9.507836,2.929836,10.271238,2.403968,11.034641,1.953224C11.798044,1.427356,12.714128,1.126860,13.553871,0.826364C14.469954,0.525868,15.386038,0.375620,16.302121,0.375620C16.531142,0.375620,16.683822,0.525868,16.683822,0.751240C16.683822,0.901488,16.607482,1.051736,16.454801,1.126860L16.454801,1.126860C15.615058,1.427356,14.851655,1.652728,14.088253,2.028348C13.324850,2.328844,12.637787,2.779588,11.874384,3.230332C11.187322,3.681076,10.500259,4.206944,9.889537,4.732812C9.278815,5.258681,8.668092,5.859673,8.133710,6.460665L8.057370,6.535789C7.981030,6.686037,7.828349,6.761161,7.675669,6.761161L7.675669,6.761161C6.377884,7.136781,5.156439,7.662649,4.087675,8.338765C3.553293,8.714385,3.095252,9.165129,2.637210,9.615873C2.408189,9.841245,2.255508,10.141741,2.102828,10.367113C1.950147,10.667609,1.797467,10.892981,1.721126,11.193477C1.263085,12.245213,1.568446,13.447197,2.331849,14.348686C3.095252,15.325298,4.240356,16.001414,5.461800,16.527282L5.461800,16.527282C5.843502,16.677530,5.996182,17.128274,5.843502,17.503894C5.690821,17.879514,5.232780,18.029762,4.851078,17.879514L4.851078,17.879514Z" fill="rgb(36,38,45)" stroke="none" stroke-width="1"></path></g><path id="e67t7khsq0v19" d="M60.691035,66.958333C60.267949,66.958333,59.929480,66.706296,59.844863,66.391250C59.167925,61.854582,57.814050,57.254905,56.798644,53.726385C56.714027,53.411339,56.967878,53.033283,57.475581,52.970274C57.898667,52.907264,58.406371,53.096292,58.490988,53.474348C59.591011,57.002867,60.944886,61.665554,61.621824,66.265231C61.706441,66.580278,61.367972,66.895324,60.860269,66.958333C60.775652,66.958333,60.691035,66.958333,60.691035,66.958333Z" fill="rgb(36,38,45)" stroke="none" stroke-width="1"></path><path id="e67t7khsq0v20" d="M52.182983,35.269923C51.799541,35.269923,51.492787,35.049737,51.416099,34.682762C50.572527,31.013005,49.499683,24.144220,52.107088,19.079957C57.628651,8.437664,71.125806,4.694512,81.478737,3.446795C87.843873,2.712844,95.034477,4.770615,101.169547,8C101.552989,8.220185,101.706366,8.660556,101.476301,9.027532C101.246235,9.394507,100.786105,9.541298,100.402663,9.321112C94.574346,6.238517,87.613808,4.254142,81.632114,4.988093C71.662625,6.162415,58.625600,9.758776,53.487479,19.813908C51.646958,23.336874,51.722852,28.957942,52.949866,34.462576C53.026555,34.829552,52.796489,35.269923,52.336359,35.343318C52.336359,35.269923,52.259671,35.269923,52.182983,35.269923Z" fill="rgb(36,38,45)" stroke="none" stroke-width="1"></path><path id="e67t7khsq0v21" d="M130.375551,102.268481C130.302673,102.268481,129.997665,102.250000,129.924787,102.173115C129.560397,102.019345,129.341762,101.634921,129.487519,101.173612C133.422937,88.718266,133.641571,79.261429,130.143422,73.802604C127.228297,69.266398,122.709854,68.958858,122.709854,68.958858C122.345464,68.958858,122.053951,68.651319,122.053951,68.190010C119.266120,46.042048,115.676728,25.215082,108.339145,18.089566C108.193389,17.705142,108.412023,17.243833,108.776414,17.090063C109.140804,16.936293,109.578073,17.166948,109.723829,17.551372C117.082596,25.370816,120.928409,48.117188,123.511513,67.498046C125.041954,67.728701,128.758738,68.805088,131.382350,72.879986C135.244890,78.877004,135.099133,88.564496,130.945081,101.634921C130.726447,102.019345,130.667063,102.268481,130.375551,102.268481Z" fill="rgb(36,38,45)" stroke="none" stroke-width="1"></path><path id="e67t7khsq0v22" d="M108.171327,228.145833C107.492306,228.145833,106.813284,228.145833,106.058816,228.145833C105.606135,228.145833,105.304348,227.772676,105.304348,227.399518C105.304348,226.951729,105.681582,226.653203,106.058816,226.653203C114.357966,226.877097,118.356647,225.832256,121.902648,224.264993C124.241499,223.220152,125.524095,221.876784,125.750436,220.160259C126.429457,215.682367,125.222308,213.070263,125.222308,212.995631C125.222308,212.921000,125.146861,212.846368,125.146861,212.771737C122.355329,190.158381,130.956266,165.977763,131.031713,165.679237C143.782225,138.513358,128.919202,101.720010,128.768308,101.346853C128.617415,100.973695,128.768308,100.525906,129.145542,100.376643C129.522776,100.227379,129.975457,100.376643,130.126351,100.749800C130.277245,101.122958,145.366608,138.513358,132.389756,166.201658C132.314309,166.350921,123.864265,190.233013,126.580351,212.398579C126.806691,212.995631,127.862946,215.831630,127.183925,220.309522C126.882138,222.473837,125.297755,224.264993,122.506222,225.533730C119.186562,227.100992,115.338775,228.145833,108.171327,228.145833Z" fill="rgb(36,38,45)" stroke="none" stroke-width="1"></path><path id="e67t7khsq0v23" d="M93.069800,210.518153C91.749054,205.833124,91.077438,202.716074,90.322727,197.877438C89.568014,193.038800,89.064872,188.200164,88.624624,183.361527C88.184375,178.522891,87.932804,173.607451,87.744126,168.768814C87.555448,163.853373,87.366770,159.014737,87.681233,154.099297C87.681233,153.868886,87.869911,153.715278,87.995697,153.715278C88.121482,153.715278,88.247268,153.868886,88.310161,154.099297C88.498838,156.557017,88.624624,158.937933,88.750409,161.395653C88.876195,163.853373,88.939087,166.234290,89.064872,168.692010C89.316443,173.530646,89.630907,178.369283,90.071156,183.207920C90.511404,188.046557,91.014546,192.885193,91.706365,197.647027C92.398185,202.408859,93.069800,205.525910,94.264761,210.057330L94.264761,210.590971C94.390546,210.974990,94.201868,210.902172,93.887405,211.055780C93.510049,211.132584,93.132693,210.902172,93.069800,210.518153Z" fill="rgb(36,38,45)" stroke="none" stroke-width="1"></path><path id="e67t7khsq0v24" d="M86.461129,215.939715C86.046953,215.939715,85.632776,215.632116,85.632776,215.170717C85.467106,212.786824,85.016322,212.282356,85.016322,212.282356C85.016322,212.205457,84.933487,212.128557,84.933487,212.051657C82.862605,196.440998,84.448139,182.936400,87.513044,172.554927C87.595879,172.170428,88.092891,171.939729,88.507067,172.016628C88.921243,172.093528,89.169749,172.554927,89.086914,172.939426C86.104844,183.167099,84.519310,196.440998,86.507357,211.667158C86.673027,212.128557,87.040976,212.709924,87.206646,215.016918C87.372317,215.555216,87.206523,215.939715,86.709511,215.939715C86.709511,214.752387,86.543964,215.939715,86.461129,215.939715Z" fill="rgb(36,38,45)" stroke="none" stroke-width="1"></path><path id="e67t7khsq0v25" d="M84.339903,160.187500C83.308628,160.187500,81.589838,160.051781,79.756462,159.418428C79.469997,159.327949,79.355411,159.056512,79.469997,158.830314C79.584583,158.604116,79.928341,158.513637,80.214806,158.604116C82.850284,159.554147,85.256591,159.282709,85.256591,159.282709C85.600349,159.237470,85.886814,159.418428,85.886814,159.644626C85.944107,159.870823,85.714935,160.142260,85.428470,160.142260C85.371177,160.142260,84.970126,160.187500,84.339903,160.187500Z" transform="matrix(1 0 0 1 -6.42608695999999 0.43055584999999)" fill="rgb(36,38,45)" stroke="none" stroke-width="1"></path><g id="e67t7khsq0v26" transform="matrix(1 0 0 1 0.17391300000000 59.86810000000000)"><path id="e67t7khsq0v27" d="M34.324935,172.073496C34.249749,172.073496,34.174563,172.073496,34.099378,172.073496C33.723448,171.922289,33.497890,171.544272,33.573076,171.090651C34.475307,168.142115,35.753467,165.269184,37.257185,162.623062C39.061646,159.372113,42.069082,155.591940,46.354678,155.667543C49.211742,155.743147,51.918434,157.557630,54.625126,161.337803L55.076242,162.018234C56.730331,164.437545,59.587395,168.368926,62.444459,168.746943C63.421876,168.898150,64.324107,168.520133,65.226337,167.764098C68.233773,165.193580,69.662305,160.430562,71.015651,156.196767C71.316395,155.289526,71.541952,154.457888,71.842696,153.701853C85.676900,112.497962,77.481638,65.850622,68.760074,29.787767L68.684888,29.560956C65.151151,14.818280,61.091113,6.577502,56.730331,4.838622C56.504774,4.763019,56.354402,4.687415,56.128844,4.687415C56.053658,4.687415,55.978472,4.687415,55.978472,4.687415C55.903287,4.687415,55.903287,4.687415,55.828101,4.611812C54.549940,4.385001,53.196594,4.763019,51.768062,5.745864C49.587671,7.257933,48.159140,9.677244,46.880979,12.020952C45.828377,13.986642,44.775774,16.103539,44.700588,18.296039C44.700588,18.674057,44.399845,18.976471,44.023915,19.052074C43.873544,19.052074,25.453000,20.564144,6.055039,17.237591C5.679110,17.161987,5.453552,16.859574,5.453552,16.481556C5.453552,16.330349,5.679110,3.402156,16.656250,0.604828C17.859224,0.302414,44.324659,0.075603,56.128844,3.175346C56.504774,3.250949,56.880703,3.326553,57.331818,3.477760C64.700036,6.275088,68.910446,23.588282,70.263792,29.258543L70.338978,29.485353C79.060542,65.699415,87.330990,112.649169,73.346414,154.231077C73.120856,154.987112,72.820112,155.818750,72.594555,156.725992C71.241209,161.110993,69.662305,166.100822,66.354126,168.973754C65.151151,170.032202,63.797805,170.485823,62.369273,170.334616C58.910722,169.880995,55.903287,165.722804,53.948453,163.001080L53.497338,162.320648C51.091389,158.918492,48.760627,157.330819,46.354678,157.255216C46.354678,157.255216,46.279492,157.255216,46.279492,157.255216C42.820941,157.255216,40.264621,160.657372,38.610531,163.454700C37.181999,166.025218,35.979025,168.822547,35.076794,171.619875C34.926422,171.846685,34.625679,172.073496,34.324935,172.073496ZM6.882084,15.801125C23.798910,18.674057,39.813505,17.766815,43.196871,17.540005C43.422428,15.271901,44.475031,13.230607,45.527633,11.340520C46.880979,8.845606,48.459883,6.199484,50.865832,4.536208C51.241761,4.233794,51.692876,4.006984,52.068806,3.780173C39.362390,1.512069,18.159968,1.814483,16.956994,2.041294C8.385802,4.233794,7.107642,13.306211,6.882084,15.801125Z" fill="rgb(36,38,45)" stroke="none" stroke-width="1"></path><path id="e67t7khsq0v28" d="M25.904115,156.725992C25.828929,156.725992,25.753743,156.725992,25.678557,156.725992C25.302628,156.574785,25.077070,156.196767,25.152256,155.743147C25.377814,154.987112,25.603372,154.306681,25.828929,153.626249C39.663134,112.422359,31.467871,65.775018,22.746308,29.712163L22.671122,29.485353C22.144820,27.217249,21.092218,23.059058,19.663686,18.749660C19.513314,18.371643,19.738872,17.918022,20.114801,17.766815C20.490731,17.615608,20.941846,17.842419,21.092218,18.220436C22.595936,22.605437,23.573352,26.763628,24.174840,29.031732L24.250025,29.258543C32.971589,65.472604,41.242037,112.422359,27.257461,154.004267C27.031903,154.684698,26.806346,155.365129,26.580788,156.121164C26.505602,156.499181,26.204859,156.725992,25.904115,156.725992Z" fill="rgb(36,38,45)" stroke="none" stroke-width="1"></path><path id="e67t7khsq0v29" d="M34.249749,172.829531C34.249749,172.829531,34.174563,172.829531,34.174563,172.829531C34.099378,172.829531,25.828929,171.695479,17.633667,171.695479C9.363219,171.695479,0.942399,172.073496,0.867213,172.073496C0.641655,172.073496,0.416097,171.997892,0.265725,171.771082C0.115354,171.544272,0.040168,171.317461,0.115354,171.090651C1.017584,168.142115,2.295745,165.269184,3.799462,162.623062C5.603924,159.372113,8.611360,155.516336,12.896956,155.667543L46.354678,155.667543C46.805793,155.667543,47.106537,155.969957,47.106537,156.423578C47.106537,156.877199,46.805793,157.179612,46.354678,157.179612L12.896956,157.179612C9.438404,157.104009,6.731712,160.506165,5.152809,163.379097C3.874648,165.647201,2.822046,168.066512,1.919815,170.561426C4.476136,170.485823,11.167680,170.259013,17.708853,170.259013C26.054487,170.259013,34.400121,171.393065,34.475307,171.393065C34.851236,171.468668,35.151980,171.846685,35.151980,172.224703C35.001608,172.527117,34.625679,172.829531,34.249749,172.829531Z" fill="rgb(36,38,45)" stroke="none" stroke-width="1"></path><path id="e67t7khsq0v30" d="M62.444459,170.410220L35.076794,170.410220C34.625679,170.410220,34.324935,170.107806,34.324935,169.654185C34.324935,169.200564,34.625679,168.898150,35.076794,168.898150L62.444459,168.898150C62.895575,168.898150,63.196318,169.200564,63.196318,169.654185C63.196318,170.107806,62.895575,170.410220,62.444459,170.410220Z" fill="rgb(36,38,45)" stroke="none" stroke-width="1"></path></g><path id="e67t7khsq0v31" d="M68.045858,225.236111C68.045858,224.744550,68.337519,224.416843,68.775010,224.416843C74.535309,224.416843,74.754055,224.575783,79.010633,223.674587C80.523462,223.173952,80.895510,222.901195,81.551746,222.245780C81.843407,221.918073,82.280898,221.918073,82.572559,222.245780C82.864220,222.573488,82.864220,223.065049,82.572559,223.392756C81.843407,224.293952,81.173913,224.637308,79.593955,225.231198C75.418581,226.055380,74.754055,226.055380,68.775010,226.055380C68.337519,226.055380,68.045858,225.727672,68.045858,225.236111Z" fill="rgb(36,38,45)" stroke="none" stroke-width="1"></path><path id="e67t7khsq0v32" d="M22.310065,108C19.804630,110.008325,19.637601,113.809796,21.976007,115.961573C24.314413,118.113349,28.740681,118.328527,31.246116,116.320202C33.835065,114.311878,34.002094,110.510406,31.747203,108.358630L22.310065,108Z" fill="rgb(255,255,255)" stroke="none" stroke-width="1"></path><path id="e67t7khsq0v33" d="M19.582609,101.810417C18.600852,103.849157,19.563984,107.194684,21.300937,108.553844C21.829575,108.931389,22.433733,109.233424,23.037891,109.459951C25.605561,110.366058,28.626350,110.290549,30.665382,108.478335C32.628895,106.741631,33.668841,103.042830,32.385006,100.853072C29.892856,96.473556,21.621641,97.581919,19.582609,101.810417Z" fill="rgb(255,255,255)" stroke="none" stroke-width="1"></path><path id="e67t7khsq0v34" d="M26.820607,118.118056C24.996277,118.118056,23.089023,117.529672,21.762237,116.352904C19.357438,114.293561,18.859893,110.616162,20.684224,108.041982C20.932996,107.674242,21.430541,107.600694,21.845161,107.821338C22.259782,108.041982,22.342706,108.483270,22.093933,108.851010C20.684224,110.836806,21.015920,113.778725,22.923174,115.323232C25.079201,117.161932,28.893710,117.088384,30.966812,115.176136C33.039915,113.263889,32.956991,109.880682,30.883888,108.041982C30.552192,107.747790,30.552192,107.306503,30.883888,107.012311C31.215585,106.718119,31.713129,106.718119,32.044826,107.012311C34.781321,109.439394,34.864245,113.778725,32.127750,116.205808C30.800964,117.529672,28.810786,118.118056,26.820607,118.118056Z" fill="rgb(36,38,45)" stroke="none" stroke-width="1"></path><path id="e67t7khsq0v35" d="M26.282807,110.027778C24.932004,110.027778,23.581201,109.798059,22.399249,109.415193C21.470572,109.108901,20.795171,108.802609,20.204194,108.419744C18.009140,106.888283,17.333739,103.748788,18.600116,101.375023L18.600116,101.375023C19.866494,98.924685,22.990225,97.240078,26.282807,97.086932C29.237688,97.010359,31.854868,98.158955,33.205671,100.226427C34.894174,102.829911,34.218773,106.352271,31.770443,108.343171C30.166365,109.568339,28.224586,110.027778,26.282807,110.027778ZM26.704933,98.541820C26.620508,98.541820,26.451657,98.541820,26.367232,98.541820C23.665627,98.618393,21.132871,99.996708,20.119769,101.911034C20.119769,101.911034,20.119769,101.911034,20.119769,101.911034C19.191092,103.748788,19.697644,105.969406,21.217297,107.118002C21.639422,107.424294,22.230399,107.654013,22.905800,107.883732C25.776256,108.802609,28.815562,108.496317,30.588491,107.041429C32.445844,105.586541,32.952396,102.753338,31.686018,100.839012C30.757341,99.460697,28.984412,98.541820,26.704933,98.541820Z" fill="rgb(36,38,45)" stroke="none" stroke-width="1"></path><g id="e67t7khsq0v36" transform="matrix(1 0 0 1 55.16520000000000 22.65280000000000)"><path id="e67t7khsq0v37" d="M0.793992,3.495000C0.705771,5.242500,1.676206,6.342778,3.264190,6.342778C4.763953,6.407500,6.351937,5.371944,6.440158,3.624444C6.528379,1.876944,5.381502,0.453056,3.793518,0.388333C2.205534,0.323611,0.882213,1.747500,0.793992,3.495000Z" fill="rgb(36,38,45)" stroke="none" stroke-width="1"></path><circle id="e67t7khsq0v38" r="1" transform="matrix(1 0 0 1 2.55842000000000 2.65361000000000)" fill="rgb(225,232,234)" stroke="none" stroke-width="1"></circle></g><g id="e67t7khsq0v39" transform="matrix(1 0 0 1 84.27830000000000 17.79860000000000)"><path id="e67t7khsq0v40" d="M0.705771,5.227564C0.627352,7.542628,1.646798,9.185577,3.136759,9.260256C4.705138,9.334936,6.195099,7.766667,6.273518,5.451603C6.351937,3.136538,5.175652,1.194872,3.607273,1.120192C2.038893,1.045513,0.784190,2.912500,0.705771,5.227564Z" fill="rgb(36,38,45)" stroke="none" stroke-width="1"></path><circle id="e67t7khsq0v41" r="1" transform="matrix(1 0 0 1 2.58783000000000 4.10737000000000)" fill="rgb(225,232,234)" stroke="none" stroke-width="1"></circle></g><path id="e67t7khsq0v42" d="M37.444434,224.019879C37.711141,223.739797,38.111201,223.515732,38.444585,223.459716C38.777969,223.403699,39.111353,223.403699,39.444736,223.403699C40.111503,223.459716,40.511564,223.627765,40.911624,223.627765C41.111655,223.627765,41.245008,223.627765,41.378361,223.571748C41.511715,223.515732,41.778422,223.403699,42.178482,223.347683C42.511866,223.291667,42.845250,223.291667,43.178633,223.291667L43.978754,223.347683C44.978905,223.403699,45.979056,223.515732,46.979207,223.571748L49.979660,223.739797C50.179690,223.739797,50.313043,223.907846,50.313043,224.019879C50.313043,224.131911,50.179690,224.243944,50.046337,224.299960C49.046186,224.411993,47.979358,224.524025,46.979207,224.524025C45.979056,224.524025,44.912228,224.524025,43.912077,224.468009C43.378663,224.468009,42.911926,224.411993,42.645219,224.468009C42.511866,224.468009,42.311836,224.580042,42.045129,224.692074C41.711745,224.804107,41.311685,224.860123,40.978301,224.804107C40.311534,224.748091,39.844797,224.580042,39.444736,224.580042C39.244706,224.580042,39.044676,224.580042,38.911322,224.580042C38.777969,224.580042,38.711292,224.636058,38.644615,224.692074L38.577939,224.748091C38.311232,224.972156,37.911171,224.972156,37.644464,224.692074C37.244404,224.524025,37.244404,224.243944,37.444434,224.019879Z" fill="rgb(36,38,45)" stroke="none" stroke-width="1"></path><path id="e67t7khsq0v43" d="M46.588854,220.892311C46.165396,220.763579,45.681443,220.956677,45.076503,221.149774C44.471562,221.342871,43.866622,221.471603,43.261682,221.535969C42.051801,221.729066,40.781426,221.729066,39.571545,221.471603C39.269075,221.407237,39.027099,221.085408,39.087593,220.763579C39.148087,220.441750,39.390063,220.184287,39.692533,220.248653L39.692533,220.248653C40.297474,220.248653,40.841920,220.313019,41.446860,220.313019C42.051801,220.313019,42.596247,220.313019,43.201188,220.248653C43.806128,220.248653,44.350574,220.184287,44.955515,220.119921C45.257985,220.119921,45.560455,220.055556,45.923419,220.055556C46.286384,220.055556,46.649348,220.119921,46.951818,220.377385C47.072806,220.506116,47.133300,220.699213,47.012312,220.827945C46.830830,220.892311,46.709842,220.956677,46.588854,220.892311L46.588854,220.892311Z" fill="rgb(36,38,45)" stroke="none" stroke-width="1"></path><path id="e67t7khsq0v44" d="M32.797361,65.361149C33.205690,65.209281,33.614018,65.057412,34.022347,64.981478C34.430676,64.905544,34.920670,64.829610,35.410664,64.753675C36.308987,64.677741,37.288976,64.753675,38.187299,64.829610C39.085622,64.905544,39.902279,64.905544,40.800603,64.981478C41.698926,64.981478,42.597249,65.133346,43.495572,65.285215C43.740569,65.285215,43.903900,65.513018,43.822235,65.740820C43.822235,65.892689,43.658903,66.044557,43.413906,66.044557C42.515583,66.120492,41.617260,66.120492,40.800603,66.196426C39.902279,66.272360,39.003957,66.348294,38.105634,66.272360C37.207310,66.272360,36.390653,66.196426,35.492330,66.272360C34.675673,66.348294,33.695684,66.424229,32.797361,66.120492C32.552364,66.044557,32.470698,65.816755,32.552364,65.588952C32.552364,65.513018,32.634029,65.437083,32.797361,65.361149L32.797361,65.361149Z" fill="rgb(36,38,45)" stroke="none" stroke-width="1"></path><path id="e67t7khsq0v45" d="M16.606073,63.191615C17.294732,63.086056,17.983390,63.086056,18.672049,63.138835C19.360708,63.191615,19.972849,63.297174,20.584990,63.349953C21.809272,63.455513,23.110071,63.508292,24.334353,63.455513C24.946494,63.402733,25.635153,63.297174,26.323812,63.297174C27.012470,63.297174,27.701129,63.297174,28.389787,63.349953C29.078446,63.402733,29.767105,63.508292,30.455763,63.719410C31.067904,63.877749,31.603528,64.088867,32.215669,64.194427C32.445222,64.247206,32.521739,64.352765,32.521739,64.511104C32.445222,64.616663,32.292186,64.722222,32.139151,64.722222L32.139151,64.722222C31.450492,64.669443,30.761834,64.563884,30.149693,64.405545C29.537552,64.299986,28.925411,64.247206,28.313270,64.194427C27.701129,64.194427,27.012470,64.194427,26.400329,64.194427C25.788188,64.247206,25.176047,64.299986,24.487389,64.405545C23.798730,64.458324,23.110071,64.511104,22.421413,64.458324C21.732754,64.458324,21.044095,64.405545,20.355437,64.352765C19.666778,64.299986,18.978119,64.141647,18.442496,64.036088C17.830355,63.930529,17.218214,63.824970,16.606073,63.666631C16.376520,63.613851,16.300003,63.455513,16.376520,63.349953C16.300003,63.297174,16.453038,63.244394,16.606073,63.191615Z" fill="rgb(36,38,45)" stroke="none" stroke-width="1"></path><path id="e67t7khsq0v46" d="M100.537131,9.506849C100.236386,7.823021,100.762690,6.065983,101.664924,4.601785C102.567158,3.137587,103.845323,1.819809,105.499419,1.014500C107.078329,0.209191,108.957984,-0.156858,110.762453,0.062772C112.566921,0.209191,114.371390,1.087710,115.649555,2.332278C116.927720,3.576847,117.754768,5.260674,118.130699,7.017712C118.281071,7.896231,118.281071,8.774750,118.130699,9.653268C118.055513,10.092528,117.905140,10.531787,117.829954,10.971046C117.679582,11.337096,117.529209,11.776355,117.303651,12.142405C116.927720,12.947714,116.476603,13.679813,115.875113,14.338702C115.273624,14.997591,114.521762,15.583270,113.769900,16.022530C112.266176,16.901048,110.687266,17.486728,109.033170,17.779567C108.807612,17.852777,108.582053,17.706357,108.582053,17.486728C108.582053,17.340308,108.582053,17.193888,108.732425,17.120678C110.085777,16.095739,111.589501,15.510060,112.942852,14.704751C114.221017,13.899442,115.198438,12.801294,115.799927,11.483516C115.950300,11.117466,116.100672,10.824627,116.175858,10.458577C116.251044,10.092528,116.401417,9.799688,116.401417,9.433639C116.476603,8.701540,116.476603,8.042651,116.401417,7.310552C116.100672,5.919564,115.423996,4.528575,114.371390,3.576847C113.318783,2.551908,112.040618,1.893019,110.536894,1.746599C109.108356,1.526970,107.529446,1.819809,106.176095,2.478698C104.822744,3.137587,103.694951,4.162526,102.943089,5.407094C102.191227,6.651662,101.740110,8.115860,101.288993,9.580058L101.288993,9.580058C101.213807,9.799688,100.988248,9.872898,100.837876,9.799688C100.687503,9.799688,100.537131,9.653268,100.537131,9.506849Z" fill="rgb(36,38,45)" stroke="none" stroke-width="1"></path><path id="e67t7khsq0v47" d="M71.918595,197.402778L77.050993,197.724419C77.547676,197.724419,77.878799,198.046059,77.796018,198.432028C77.796018,198.817997,77.382115,199.075310,76.885432,199.010982C76.802651,199.010982,76.802651,199.010982,76.719870,199.010982L71.670253,198.046059C71.421911,197.981731,71.339130,197.853075,71.339130,197.660090C71.587472,197.467106,71.753034,197.402778,71.918595,197.402778Z" fill="rgb(36,38,45)" stroke="none" stroke-width="1"></path><path id="e67t7khsq0v48" d="M37.890101,137.618055L32.757703,137.296414C32.261019,137.296414,31.929897,136.974774,32.012677,136.588805C32.012677,136.202836,32.426580,135.945523,32.923264,136.009851C33.006045,136.009851,33.006045,136.009851,33.088825,136.009851L38.138443,136.974774C38.386785,137.039102,38.469565,137.167758,38.469565,137.360743C38.304004,137.489399,38.055662,137.618055,37.890101,137.618055Z" fill="rgb(36,38,45)" stroke="none" stroke-width="1"></path><path id="e67t7khsq0v49" d="M75.003542,195.803501L77.275481,195.947885C77.625010,195.947885,77.858029,196.308844,77.799774,196.741995C77.799774,197.175147,77.508500,197.463914,77.158971,197.391722C77.100716,197.391722,77.042462,197.391722,76.984207,197.391722L74.770523,196.525420C74.595759,196.453228,74.537504,196.236653,74.595759,196.092269C74.770523,195.875693,74.887033,195.731310,75.003542,195.803501Z" fill="rgb(36,38,45)" stroke="none" stroke-width="1"></path><path id="e67t7khsq0v50" d="M66.916586,95.465278L69.188524,95.611357C69.538053,95.611357,69.771073,95.976555,69.712818,96.414792C69.712818,96.853029,69.421544,97.145187,69.072015,97.072148C69.013760,97.072148,68.955505,97.072148,68.897250,97.072148L66.683567,96.195673C66.508802,96.122634,66.450547,95.903515,66.508802,95.757436C66.683567,95.538317,66.800076,95.465278,66.916586,95.465278Z" fill="rgb(36,38,45)" stroke="none" stroke-width="1"></path><path id="e67t7khsq0v51" d="M64.132511,26.515334C61.576437,28.534916,58.947333,30.554499,56.537321,32.723680C55.368830,33.845671,54.200339,35.042460,53.177910,36.239250C52.666695,36.912444,52.155480,37.510839,51.717296,38.184033C51.206082,38.857228,50.913959,39.455622,50.694867,40.203616C50.475775,40.876810,50.475775,41.624804,50.548806,42.372797C50.621836,42.746794,50.694867,43.120791,50.767898,43.419988C50.913959,43.793985,51.060020,44.167982,51.206082,44.541979C51.863358,45.963167,52.666695,47.384354,53.689125,48.581144C54.711554,49.777934,55.880045,50.825125,57.267628,51.647918C58.582180,52.470711,60.042793,52.994306,61.576437,53.368303L61.357345,53.368303C63.402204,53.218704,65.593125,52.844707,67.637984,52.246313C69.682842,51.647918,71.727701,50.825125,73.626499,49.852733C74.575898,49.329138,75.525296,48.805542,76.474695,48.207147L77.789247,47.309555C78.227431,47.010358,78.738646,46.636361,79.176830,46.337163C81.075628,45.140374,83.193517,44.167982,85.457468,43.868785C85.676560,43.868785,85.822621,44.018383,85.895652,44.167982C85.895652,44.392380,85.822621,44.541979,85.603529,44.616778C83.558671,45.215173,81.586842,46.187565,79.834106,47.459154L77.131971,49.403937C76.182572,50.002332,75.233174,50.675526,74.210744,51.199122C72.238916,52.246313,70.121026,53.143905,67.930106,53.742300C65.739186,54.340695,63.548266,54.864290,61.211284,55.013889C61.138253,55.013889,61.065223,55.013889,61.065223,55.013889L61.065223,55.013889C59.385517,54.639892,57.778842,54.041497,56.245198,53.143905C54.711554,52.246313,53.397002,51.124322,52.228511,49.777934C51.060020,48.431545,50.183652,46.935558,49.526376,45.289972C49.380315,44.915976,49.234253,44.467179,49.015161,44.093183C48.869100,43.644387,48.723039,43.195590,48.723039,42.671995C48.650008,41.699603,48.723039,40.727212,48.942131,39.829619C49.088192,39.380823,49.234253,38.932027,49.453345,38.483231C49.526376,38.258833,49.672437,38.034435,49.818499,37.884836L50.183652,37.361240C50.621836,36.613247,51.206082,35.940053,51.717296,35.266858C52.812756,33.995269,53.981247,32.723680,55.222769,31.601690C57.705812,29.357709,60.407947,27.263327,63.475235,25.916939C63.694327,25.842139,63.913419,25.916939,63.986450,26.141337C64.278572,26.216136,64.278572,26.440534,64.132511,26.515334L64.132511,26.515334Z" fill="rgb(36,38,45)" stroke="none" stroke-width="1"></path><path id="e67t7khsq0v52" d="M64.854291,39.887161C65.103338,41.392629,62.280799,44.704659,58.296037,45.231573C54.311275,45.758486,50.575560,43.349738,50.326513,41.844270C50.077465,40.338801,53.315084,39.887161,57.299846,39.360247C61.284608,38.833333,64.605243,38.306419,64.854291,39.887161Z" fill="rgb(36,38,45)" stroke="none" stroke-width="1"></path><path id="e67t7khsq0v53" d="M60.789626,44.453502C60.789626,44.581168,60.789626,44.836502,60.827399,45.028003C60.827399,45.219503,60.865171,45.474837,60.865171,45.666337C60.902943,46.113172,60.978488,46.560006,61.054033,47.006840C61.129577,47.453674,61.205122,47.900509,61.318439,48.347343C61.431756,48.794177,61.507301,49.241011,61.620618,49.687846L61.620618,49.687846C61.658390,49.879346,61.620618,50.007013,61.507301,50.134680C61.431756,50.198513,61.318439,50.134680,61.280667,50.007013C61.129577,49.560179,60.978488,49.177178,60.827399,48.730344C60.714081,48.283510,60.562992,47.836675,60.449675,47.389841C60.336358,46.943007,60.223041,46.432339,60.147496,45.921671C60.109724,45.666337,60.071951,45.411004,60.034179,45.155670C60.034179,44.900336,59.996407,44.645002,60.034179,44.262001C60.071951,43.942834,60.260813,43.687500,60.449675,43.687500C60.638537,43.751334,60.751854,43.942834,60.789626,44.262001L60.789626,44.453502Z" fill="rgb(36,38,45)" stroke="none" stroke-width="1"></path><path id="e67t7khsq0v54" d="M63.144779,54.267837C63.455406,54.683140,63.999005,55.167661,64.542603,55.582964L64.930888,55.859833L65.396830,56.067485C65.707457,56.205919,66.018085,56.344353,66.328713,56.482788C67.648881,56.898091,69.124362,56.967308,70.599844,56.759657C71.298757,56.690439,72.075326,56.482788,72.774238,56.275136C73.473151,55.998267,74.172063,55.790616,74.870976,55.513747C75.569888,55.167661,76.268800,54.890792,76.890056,54.544706L78.831479,53.437230L78.831479,53.437230C78.986793,53.368013,79.219764,53.368013,79.375078,53.575665C79.452735,53.714099,79.452735,53.921751,79.297421,54.060185L77.355997,55.306095C76.734742,55.721398,76.035830,56.067485,75.336917,56.413571C74.638005,56.759657,73.861435,57.036526,73.162523,57.382612C72.385954,57.590263,71.609384,57.867132,70.832815,58.005567C69.202019,58.351653,67.415910,58.351653,65.785114,57.867132C65.008545,57.590263,64.154319,57.244177,63.533063,56.759657C62.834151,56.275136,62.290552,55.721398,61.746954,55.029226C61.513983,54.683140,61.669297,54.267837,61.979925,54.060185C62.368209,53.783317,62.834151,53.921751,63.144779,54.267837L63.144779,54.267837Z" fill="rgb(36,38,45)" stroke="none" stroke-width="1"></path><path id="e67t7khsq0v55" d="M111.667412,8.331091C111.936188,9.128657,111.667412,10.085736,111.183616,10.776960C110.699821,11.468183,109.947250,11.999894,109.194678,12.425262C106.453169,13.914051,104.410476,11.999894,105.700598,9.234999C106.238149,8.118407,106.990720,6.789131,108.280842,6.523276C109.570964,6.257420,111.291127,7.054986,111.667412,8.331091Z" fill="rgb(36,38,45)" stroke="none" stroke-width="1"></path><path id="e67t7khsq0v56" d="M58.469565,12.955196C58.254566,12.645811,58.039566,12.398303,57.752900,12.088917C57.251234,11.593901,56.606236,11.160761,55.817904,11.037007C55.316238,10.975130,54.814573,10.975130,54.312907,11.160761C50.657915,12.212672,52.019579,15.554033,53.739575,17.472222C53.596242,17.286591,58.039566,13.202705,58.469565,12.955196Z" fill="rgb(36,38,45)" stroke="none" stroke-width="1"></path><path id="e67t7khsq0v57" d="M85.965019,11.165106C86.381220,10.645860,86.866788,10.256426,87.491089,9.996803C88.115391,9.737180,88.878426,9.607369,89.641461,9.802086C90.404496,9.996803,90.959430,10.386237,91.444998,10.905483C91.653099,11.165106,91.861199,11.424729,91.999933,11.684351C92.138666,11.943974,92.277400,12.268503,92.346767,12.528125C92.416134,12.722843,92.277400,12.917560,92.138666,12.917560C91.999933,12.982465,91.861199,12.917560,91.791832,12.852654L91.791832,12.852654C91.583732,12.657937,91.375631,12.463220,91.167531,12.268503C90.959430,12.073785,90.751330,11.879068,90.543229,11.749257C90.127028,11.424729,89.710827,11.230011,89.294627,11.100200C88.878426,10.970389,88.392858,11.035294,87.907290,11.100200C87.421722,11.230011,86.866788,11.424729,86.450587,11.684351L86.381220,11.684351C86.242486,11.749257,85.965019,11.684351,85.895652,11.554540C85.895652,11.424729,85.895652,11.230011,85.965019,11.165106Z" fill="rgb(36,38,45)" stroke="none" stroke-width="1"></path><path id="e67t7khsq0v58" d="M56.782609,15.994426C56.782609,15.718286,56.964619,15.476663,57.328639,15.200523C57.692659,14.958900,58.329695,14.717277,59.148740,14.613725C59.967786,14.510172,60.877836,14.579207,61.514872,14.682760C61.878892,14.751795,62.151907,14.820830,62.424922,14.889865C62.697938,14.993418,62.879948,15.062453,63.152963,15.166005C63.334973,15.235041,63.243968,15.338593,63.061958,15.407628C62.970953,15.442146,62.788943,15.442146,62.697938,15.442146L62.606933,15.442146C62.333917,15.407628,62.060902,15.373111,61.787887,15.338593C61.514872,15.304076,61.241857,15.269558,60.968842,15.269558C60.422811,15.235041,60.058791,15.235041,59.694771,15.269558C59.330750,15.304076,58.966730,15.407628,58.602710,15.545698C58.238690,15.683769,57.965674,15.890874,57.601654,16.063461L57.601654,16.097979C57.510649,16.167014,57.146629,16.201532,56.964619,16.167014C56.873614,16.132497,56.782609,16.063461,56.782609,15.994426Z" fill="rgb(36,38,45)" stroke="none" stroke-width="1"></path></g><g id="e67t7khsq0v59_tr" transform="translate(189.233701,90.550341) rotate(0)"><g id="e67t7khsq0v59_ts" transform="scale(1,1)"><g id="e67t7khsq0v59" transform="translate(-77.390701,-89.078121)"><path id="e67t7khsq0v60" d="M75.670417,79.125000C74.316813,74.953105,70.279355,57.414553,72.076376,45.451389C73.873397,33.488224,78.039348,32.527778,77.024022,25.027778C76.008696,17.527778,60.652174,11.757993,56.608696,18.618056C52.565217,25.478118,42.205406,33.428200,48.156522,37.278047C52.123932,39.844612,53.182240,41.917055,51.331446,43.495376C42.353962,65.177468,39.111167,82.147684,41.603060,94.406024C43.022211,101.387236,44.799743,109.387694,51.331446,112.181032C59.537482,115.690413,72.076376,113.500000,80.274006,102.758668C86.399824,94.732024,77.024022,83.296895,75.670417,79.125000Z" fill="rgb(255,255,255)" fill-rule="evenodd" stroke="none" stroke-width="1"></path><path id="e67t7khsq0v61" d="M7.626087,21.527778L1.156522,22.281011C1.156522,22.281011,1.497025,24.205939,2.688787,26.381944L7.626087,21.527778Z" opacity="0.34747" fill="rgb(225,232,234)" stroke="none" stroke-width="1"></path><path id="e67t7khsq0v62" d="M12.156522,21.527778L9.756522,21.832540L4.156522,28.232540C4.423188,28.689682,4.756522,29.146825,5.156522,29.527778L12.156522,21.527778Z" opacity="0.34747" fill="rgb(225,232,234)" stroke="none" stroke-width="1"></path><path id="e67t7khsq0v63" d="M16.763884,20.849925L6.927369,30.888889C7.804670,31.372110,9.039957,31.432325,10.156522,31.593399C10.156522,31.593399,16.590279,25.616448,19.454499,23.055556L19.156522,20.527778L16.763884,20.849925Z" opacity="0.34747" fill="rgb(225,232,234)" stroke="none" stroke-width="1"></path><path id="e67t7khsq0v64" d="M32.266312,18.474932C32.198997,20.763889,32.691715,21.298950,33.297551,22.798611L38.728563,17.527778C37.601931,17.692905,36.756957,17.816751,36.193641,17.899314C35.320901,18.027230,34.011791,18.219102,32.266312,18.474932Z" opacity="0.34747" fill="rgb(225,232,234)" stroke="none" stroke-width="1"></path><path id="e67t7khsq0v65" d="M48.370026,16.527778L42.870896,17.221230L35.156522,24.618056C35.965217,25.465608,36.158721,26.741623,37.048287,27.280975L48.370026,16.527778Z" opacity="0.34747" fill="rgb(225,232,234)" stroke="none" stroke-width="1"></path><path id="e67t7khsq0v66" d="M57.068201,17.527778L51.090724,17.968609L40.156522,28.393780C40.965217,29.241333,42.766956,30.316234,43.656522,30.855586L57.068201,17.527778Z" opacity="0.34747" fill="rgb(225,232,234)" stroke="none" stroke-width="1"></path><path id="e67t7khsq0v67" d="M19.308805,22.381944C19.065389,22.381944,18.740834,22.308972,18.578556,22.163028C18.091724,21.798167,18.010585,21.068445,18.416279,20.630612C19.957915,18.879279,22.310940,17.784697,24.826242,17.565780C27.503821,17.346864,30.181401,18.076585,32.291009,19.681974C32.777842,20.046834,32.858980,20.776556,32.453286,21.214389C32.047593,21.652223,31.236205,21.725195,30.749372,21.360334C29.126597,20.119807,27.098127,19.609001,25.069658,19.754946C23.203466,19.900890,21.418413,20.776556,20.282470,22.017083C20.039054,22.308972,19.714499,22.381944,19.308805,22.381944Z" fill="rgb(36,38,45)" stroke="none" stroke-width="1"></path><path id="e67t7khsq0v68" d="M43.897264,30.888889C41.327884,30.888889,33.308304,30.037725,30.894644,19.436863C30.816785,19.282105,30.816785,19.204727,30.738924,19.049970C30.661064,18.430941,31.128225,17.811913,31.751104,17.734534L55.186963,14.716771C55.809843,14.639392,56.432723,15.103663,56.510583,15.722692C56.510583,15.954828,57.367043,21.448705,54.019063,25.859283C51.994703,28.567532,48.880304,30.269861,44.753724,30.888889C44.598004,30.888889,44.364424,30.888889,43.897264,30.888889ZM33.308304,19.823755C36.033404,29.341318,43.975124,28.567532,44.286564,28.567532C47.712404,28.103261,50.359644,26.710447,51.994703,24.466469C53.863343,21.912976,54.174783,18.817834,54.096923,17.192884L33.308304,19.823755Z" fill="rgb(36,38,45)" stroke="none" stroke-width="1"></path><path id="e67t7khsq0v69" d="M10.332498,32.527778C8.346754,32.527778,2.148827,31.791320,0.283431,22.619072C0.223257,22.485170,0.223257,22.418220,0.163083,22.284318C0.102909,21.748712,0.463953,21.213107,0.945346,21.146156L19.057736,18.535078C19.539129,18.468127,20.020521,18.869832,20.080695,19.405437C20.080695,19.606289,20.742610,24.359790,18.155125,28.175981C16.590600,30.519256,14.183638,31.992172,10.994413,32.527778C10.874065,32.527778,10.693543,32.527778,10.332498,32.527778ZM2.156522,22.837629C4.252819,31.193857,10.362030,30.514489,10.601607,30.514489C13.236953,30.106868,15.273357,28.884005,16.531135,26.913838C17.968596,24.671923,18.208173,21.954451,18.148279,20.527778L2.156522,22.837629Z" fill="rgb(36,38,45)" stroke="none" stroke-width="1"></path><path id="e67t7khsq0v70" d="M55.636619,42.215278C54.153023,42.215278,52.834272,41.635676,51.762786,40.983624C50.608879,40.331571,49.537393,39.607069,48.548330,38.737666C47.559266,37.868263,46.652624,36.926410,46.075671,35.767206C45.416295,34.608002,45.086607,33.231447,45.416295,31.854892C45.745983,30.478337,46.735046,29.319133,48.053798,28.594631C49.372549,27.870128,50.856145,27.652778,52.339740,27.652778C53.740913,27.652778,55.224509,27.942579,56.460838,28.377280C57.779590,28.811982,59.015919,29.536484,59.757717,30.623238C59.922561,30.768138,59.840139,31.057939,59.592873,31.130390C59.428029,31.202840,59.263185,31.202840,59.180763,31.130390L59.180763,31.130390C58.026856,30.623238,56.955370,30.116086,55.801463,29.753835C54.647555,29.391584,53.411226,29.174233,52.257318,29.174233C51.103411,29.174233,49.867081,29.464034,48.960439,29.971186C48.053798,30.478337,47.394422,31.347741,47.229578,32.217143C47.064734,33.158997,47.229578,34.100850,47.724110,35.042703C48.218642,35.984556,48.960439,36.853959,49.867081,37.650912C50.691301,38.447865,51.680364,39.172367,52.751850,39.751969C53.823335,40.331571,54.894821,40.911173,55.883885,41.563226L55.883885,41.563226C56.048728,41.708126,56.131150,41.925477,55.966307,42.070377C55.883885,42.142828,55.801463,42.215278,55.636619,42.215278Z" fill="rgb(36,38,45)" stroke="none" stroke-width="1"></path><path id="e67t7khsq0v71" d="M57.022988,6.881588C54.971880,6.362758,53.908342,6.585114,52.161101,7.771012C50.337894,9.031029,49.350323,11.328706,49.806125,13.478146C50.717729,17.999383,57.174922,19.704111,61.049237,17.925264L64.695652,14.145214C63.708082,10.587520,60.669402,7.771012,57.022988,6.881588Z" fill="rgb(255,255,255)" stroke="none" stroke-width="1"></path><path id="e67t7khsq0v72" d="M57.000973,19.562500C55.435068,19.562500,53.869162,19.161295,52.452391,18.439127C50.364517,17.315754,49.022313,15.550453,48.649478,13.383947C48.127510,10.816237,49.246014,7.927563,51.259320,6.402986C53.198060,4.958649,54.391131,4.717926,56.628138,5.279612C60.431051,6.242504,63.987181,10.616045,65.031118,14.708333C65.105685,15.109538,64.881984,15.590984,64.509150,15.671225C64.136315,15.831706,63.688914,15.510743,63.614347,15.109538C62.719544,11.659178,59.536248,7.606600,56.255304,6.804190C54.465698,6.322745,53.645462,6.483227,52.079556,7.686841C50.513651,8.810214,49.693415,11.056960,50.066250,13.062984C50.364517,14.748043,51.483021,16.112140,53.123493,16.994790C55.285934,18.198404,58.044910,18.278645,60.058216,17.235513C60.431051,17.075031,60.878453,17.235513,61.027586,17.636717C61.176720,18.037922,61.027586,18.519368,60.654752,18.679850C59.610815,19.321777,58.343177,19.562500,57.000973,19.562500Z" fill="rgb(36,38,45)" stroke="none" stroke-width="1"></path><path id="e67t7khsq0v73" d="M52.599048,41.721286C48.967414,49.942575,46.621984,58.696725,44.881826,67.526998C44.049576,71.942135,43.217327,76.433394,42.687714,80.848531C42.158100,85.263667,42.006782,89.754927,42.536396,94.170064C43.066009,98.509077,44.503531,102.848091,46.924620,106.425874C48.135164,108.176704,49.648345,109.775288,51.464162,110.993257C53.204320,112.211225,55.247114,112.972456,57.365567,113.276948C59.484020,113.657563,61.602473,113.429194,63.720926,112.820210C65.839379,112.211225,67.882173,111.373872,69.849308,110.384272C71.816443,109.394673,73.707919,108.252827,75.448077,106.882612C77.188235,105.512397,78.777075,103.989937,80.214596,102.239107C80.365914,102.086860,80.592891,102.086860,80.744209,102.162984C80.895528,102.315230,80.895528,102.467476,80.819869,102.695845C78.323120,106.578120,74.615827,109.623042,70.530239,111.678364C68.487445,112.744087,66.368992,113.581440,64.174880,114.266548C63.039995,114.571040,61.905109,114.875532,60.694565,114.951655C60.089292,115.027778,59.484020,115.027778,58.878748,115.027778C58.273475,115.027778,57.743862,114.875532,57.138590,114.799409C54.793160,114.418794,52.523389,113.581440,50.556254,112.287348C48.589119,110.993257,46.924620,109.242427,45.562757,107.339351C42.914691,103.457075,41.401510,98.965816,40.796238,94.322310C40.190965,89.754927,40.417943,85.111421,40.947556,80.544039C41.477169,75.976656,42.309419,71.561520,43.141668,67.070260C44.881826,58.163864,47.378574,49.333590,51.085867,41.036179C51.237185,40.655563,51.691139,40.503317,52.069434,40.655563C52.599048,40.883933,52.750366,41.340671,52.599048,41.721286Z" fill="rgb(36,38,45)" stroke="none" stroke-width="1"></path><path id="e67t7khsq0v74" d="M73.217902,44.668546C73.048764,47.515525,73.048764,49.956223,73.048764,52.899291C72.964195,55.805187,73.048764,58.638435,73.217902,61.544331C73.387041,64.450227,73.809888,67.283475,74.317306,70.116723C74.824722,72.949972,75.416709,75.783220,76.008696,78.689116C76.008696,78.907058,75.924126,79.052353,75.670417,79.125000C75.416709,79.125000,75.247570,79.052353,75.163000,78.907058C74.148167,76.146457,73.387041,73.313209,72.710486,70.407313C72.033929,67.501417,71.695651,64.595522,71.441943,61.689626C71.188236,58.783730,71.103666,55.805187,71.188236,52.899291C71.272805,49.993396,71.103666,47.574441,71.441943,44.668546C71.526512,44.305309,71.949360,44.014719,72.372208,44.014719C72.964193,44.014719,73.718540,42.488614,73.217902,44.668546Z" fill="rgb(36,38,45)" stroke="none" stroke-width="1"></path><path id="e67t7khsq0v75" d="M71.523256,44.405795C73.362503,40.228402,74.635828,35.823152,75.413971,31.265997C75.626192,30.126708,75.767673,28.987420,75.909153,27.848131C76.050634,26.708842,76.050634,25.645506,75.838413,24.582170C75.484712,22.455497,74.352867,20.556683,72.796581,19.189536C72.018438,18.505963,71.098814,17.898342,70.249931,17.442626C69.330307,16.986911,68.339944,16.683101,67.349580,16.531195C66.288475,16.379290,65.298112,16.227385,64.449228,16.531195C63.529605,16.759053,62.751462,17.366674,62.114799,18.126200C61.548877,18.885726,61.265916,19.873109,61.265916,20.860493C61.265916,21.847877,61.690357,22.759307,62.327020,23.518833C62.963682,24.278359,63.812566,24.885980,64.732189,25.493601L65.439592,25.949316L65.793294,26.177174C65.864034,26.253127,66.005514,26.329079,66.076255,26.329079C66.217735,26.405032,66.429956,26.480984,66.783657,26.556937C67.066619,26.632889,67.420320,26.784795,67.632541,26.936700C67.774021,27.088605,67.844762,27.316463,67.703281,27.468368C67.632541,27.620273,67.491060,27.620273,67.349580,27.620273L67.349580,27.620273C67.066619,27.544321,66.854398,27.544321,66.642177,27.620273C66.429956,27.620273,66.076255,27.696226,65.722553,27.544321C65.581073,27.468368,65.368852,27.468368,65.227371,27.392415C65.085891,27.316463,64.944410,27.240510,64.802930,27.240510C64.519969,27.088605,64.307748,27.012652,64.024787,26.860747C63.034423,26.253127,62.044059,25.569553,61.265916,24.582170C60.487773,23.594786,59.851110,22.303592,59.851110,20.936446C59.780370,19.569299,60.204812,18.202152,60.982955,17.138816C61.761098,16.075480,62.892942,15.315954,64.095527,14.936191C64.732189,14.784286,65.368852,14.708333,65.934774,14.708333C66.500696,14.708333,67.066619,14.784286,67.632541,14.860238C68.764385,15.088096,69.896230,15.391907,70.957334,15.923575C72.018438,16.455243,73.008802,17.138816,73.857685,17.898342C75.626192,19.493346,77.040998,21.771924,77.465439,24.278359C77.677660,25.493601,77.677660,26.784795,77.536180,28.000036C77.394699,29.215277,77.253219,30.354566,77.040998,31.493855C76.262855,36.202915,74.848049,40.684118,72.867321,45.013415C72.725841,45.393178,72.301399,45.545083,71.947698,45.393178C71.523256,45.241273,71.311035,44.785558,71.523256,44.405795Z" fill="rgb(36,38,45)" stroke="none" stroke-width="1"></path></g></g></g><g id="e67t7khsq0v76" transform="matrix(1 0 0 1 116.69600000000000 24.88890000000000)"><path id="e67t7khsq0v77" d="M2.773913,12.106011C9.823188,4.752930,14.289855,0.896991,16.173913,0.538194C18.057971,0.179398,20.141966,1.587963,22.425899,4.763889L5.929137,13.944444L2.773913,12.106011Z" fill="rgb(255,255,255)" fill-rule="evenodd" stroke="none" stroke-width="1"></path><path id="e67t7khsq0v78" d="M15.436859,1.626445C12.880785,3.646027,10.251681,5.665610,7.841669,7.834791C6.673178,8.956782,5.504687,10.153571,4.482258,11.350361C3.971043,12.023555,3.459828,12.621950,3.021644,13.295144C2.510429,13.968339,2.218307,14.566733,1.999215,15.314727C1.780123,15.987921,1.780123,16.735915,1.853153,17.483908C1.926184,17.857905,1.999215,18.231902,2.072245,18.531099C2.218307,18.905096,2.364368,19.279093,2.510429,19.653090C3.167706,21.074278,3.971043,22.495466,4.993472,23.692255C6.015902,24.889045,7.184393,25.936236,8.571975,26.759029C9.886528,27.581822,11.347141,28.105417,12.880785,28.479414L12.661693,28.479414C14.706552,28.329815,16.897472,27.955819,18.942331,27.357424C20.987190,26.759029,23.032049,25.936236,24.930847,24.963844C25.880245,24.440249,26.829644,23.916653,27.779043,23.318258L29.093595,22.420666C29.531779,22.121469,30.042994,21.747472,30.481178,21.448275C32.379975,20.251485,34.497865,19.279093,36.761816,18.979896C36.980908,18.979896,37.126969,19.129494,37.200000,19.279093C37.200000,19.503491,37.126969,19.653090,36.907877,19.727889C34.863018,20.326284,32.891190,21.298676,31.138454,22.570265L28.436319,24.515048C27.486920,25.113443,26.537521,25.786637,25.515092,26.310233C23.543264,27.357424,21.425374,28.255016,19.234454,28.853411C17.043534,29.451806,14.852614,29.975401,12.515632,30.125000C12.442601,30.125000,12.369571,30.125000,12.369571,30.125000L12.369571,30.125000C10.689865,29.751003,9.083190,29.152608,7.549546,28.255016C6.015902,27.357424,4.701350,26.235433,3.532859,24.889045C2.364368,23.542656,1.488000,22.046669,0.830724,20.401083C0.684663,20.027087,0.538601,19.578291,0.319509,19.204294C0.173448,18.755498,0.027387,18.306701,0.027387,17.783106C-0.045644,16.810714,0.027387,15.838323,0.246479,14.940730C0.392540,14.491934,0.538601,14.043138,0.757693,13.594342C0.830724,13.369944,0.976785,13.145546,1.122847,12.995947L1.488000,12.472352C1.926184,11.724358,2.510429,11.051164,3.021644,10.377970C4.117104,9.106380,5.285595,7.834791,6.527117,6.712801C9.010160,4.468820,11.712295,2.374438,14.779583,1.028050C14.998675,0.953250,15.217767,1.028050,15.290798,1.252448C15.582920,1.327247,15.582920,1.551645,15.436859,1.626445L15.436859,1.626445Z" fill="rgb(36,38,45)" stroke="none" stroke-width="1"></path></g></g></g></svg> 