<?xml version="1.0" encoding="UTF-8"?> <svg xmlns="http://www.w3.org/2000/svg" xmlns:xlink="http://www.w3.org/1999/xlink" id="e6d0sgb10a2f1" viewBox="0 0 464 298" shape-rendering="geometricPrecision" text-rendering="geometricPrecision"><style><![CDATA[#e6d0sgb10a2f104_tr {animation: e6d0sgb10a2f104_tr__tr 1200ms linear infinite normal forwards}@keyframes e6d0sgb10a2f104_tr__tr { 0% {transform: translate(23.904371px,11.656143px) rotate(0deg)} 16.666667% {transform: translate(23.904371px,11.656143px) rotate(0deg)} 58.333333% {transform: translate(23.904371px,11.656143px) rotate(-10deg)} 100% {transform: translate(23.904371px,11.656143px) rotate(0deg)} }#e6d0sgb10a2f107_tr {animation: e6d0sgb10a2f107_tr__tr 1200ms linear infinite normal forwards}@keyframes e6d0sgb10a2f107_tr__tr { 0% {transform: translate(38.565306px,8.041000px) rotate(-2deg)} 41.666667% {transform: translate(38.565306px,8.041000px) rotate(8deg)} 83.333333% {transform: translate(38.565306px,8.041000px) rotate(-1deg)} 100% {transform: translate(38.565306px,8.041000px) rotate(-1deg)} }#e6d0sgb10a2f110_tr {animation: e6d0sgb10a2f110_tr__tr 1200ms linear infinite normal forwards}@keyframes e6d0sgb10a2f110_tr__tr { 0% {transform: translate(45.826013px,12.691120px) rotate(0deg)} 16.666667% {transform: translate(45.826013px,12.691120px) rotate(0deg)} 58.333333% {transform: translate(45.826013px,12.691120px) rotate(10deg)} 100% {transform: translate(45.826013px,12.691120px) rotate(0deg)} }]]></style><g id="e6d0sgb10a2f2"><g id="e6d0sgb10a2f3"><g id="e6d0sgb10a2f4" transform="matrix(1 0 0 1 4 36)"><path id="e6d0sgb10a2f5" d="M0.050372,109.656517C-0.704447,166.040588,5.242253,231.764743,143.789591,186.836890C282.336929,141.909037,267.048836,219.078964,336.180727,245.671138C405.312617,272.263312,520.461330,130.640236,421.551223,135.932450C362.204278,139.107826,347.651830,93.703911,362.204278,64.458539C395.769038,-2.994983,223.912051,-14.165163,199.206929,27.836886C161.038617,92.728178,143.789591,-7.305400,79.625931,0.429969C15.462271,8.165338,0.805192,53.272445,0.050372,109.656517Z" fill="rgb(178,227,234)" stroke="none" stroke-width="1"></path></g><g id="e6d0sgb10a2f6"><ellipse id="e6d0sgb10a2f7" rx="192.300000" ry="3.300000" transform="matrix(1 0 0 1 193 294)" fill="rgb(118,196,204)" stroke="none" stroke-width="1"></ellipse><g id="e6d0sgb10a2f8" transform="matrix(1 0 0 1 22 1)"><polygon id="e6d0sgb10a2f9" points="143.400000,100.700000 140.600000,104.800000 48.700000,104.800000 51.500000,100.700000" fill="rgb(171,233,255)" stroke="none" stroke-width="1"></polygon><path id="e6d0sgb10a2f10" d="M194.100000,293.100000C190,293.400000,185.600000,293.400000,180.900000,292.900000C180.900000,292.900000,178.800000,292.900000,176.900000,291.700000C172.600000,293.200000,167.600000,293.500000,164.600000,291.400000C164,291,163.500000,290.500000,163.100000,289.900000L162.200000,290C156.900000,287.600000,154.200000,283.200000,158.900000,278.600000C160.600000,276.900000,162.900000,275.700000,165.300000,275.100000C165.300000,275.100000,167.800000,271.700000,172.100000,269.600000L172,269.500000C156.400000,242.700000,163.900000,224.500000,174.700000,213.200000C167.600000,206.400000,166.500000,196.900000,166.500000,191.800000C166.500000,189.700000,166.700000,188.300000,166.700000,188.300000L260.900000,188.300000L260.900000,230.300000L260.400000,230.300000C241.700000,243.400000,218.900000,242.400000,218.900000,242.400000C216.500000,245.600000,214.500000,249.500000,213.700000,255.700000C213.200000,260.200000,213.200000,265.900000,214.200000,273.600000C214.200000,273.600000,216,277.300000,215,283.700000C214.500000,286.700000,212.100000,288.700000,209.400000,289.900000C205.300000,291.600000,200.900000,292.800000,194.100000,293.100000Z" fill="rgb(247,247,247)" stroke="none" stroke-width="1"></path><path id="e6d0sgb10a2f11" d="M144,290.300000C138.900000,292.100000,132.600000,292.100000,130.200000,288.500000L129.300000,288.600000C124,286.200000,121.300000,281.800000,126,277.200000C127.800000,275.500000,130,274.300000,132.400000,273.700000C132.400000,273.700000,134.900000,270.300000,139.200000,268.200000L139.500000,268C111,217.400000,166.400000,191.800000,166.400000,191.800000L166.600000,191.800000C166.600000,196.900000,167.700000,206.400000,174.800000,213.200000C164,224.500000,156.500000,242.800000,172.100000,269.500000L172.200000,269.600000C167.900000,271.700000,165.400000,275.100000,165.400000,275.100000C163,275.700000,160.700000,276.900000,159,278.600000C154.300000,283.300000,157,287.700000,162.300000,290L163.200000,289.900000C163.600000,290.500000,164.100000,291,164.700000,291.400000L164.700000,291.500000C163.700000,291.600000,162.700000,291.700000,161.500000,291.700000C161.500000,291.700000,161.400000,291.700000,161.400000,291.700000C157.300000,292,152.900000,292,148.200000,291.500000C148,291.500000,145.900000,291.400000,144,290.300000L144,290.300000Z" fill="rgb(247,247,247)" stroke="none" stroke-width="1"></path><path id="e6d0sgb10a2f12" d="M22.800000,289.300000C22.800000,291,21.500000,292.300000,19.800000,292.300000L17.300000,292.300000C15.600000,292.300000,14.300000,291,14.300000,289.300000L14.300000,188.200000L22.800000,188.200000L22.800000,289.300000Z" fill="rgb(220,250,255)" stroke="none" stroke-width="1"></path><path id="e6d0sgb10a2f13" d="M18.400000,188.200000L18.400000,289.400000C18.400000,290.700000,17.500000,291.800000,16.300000,292.200000C16.600000,292.300000,16.900000,292.400000,17.200000,292.400000L19.700000,292.400000C21.400000,292.400000,22.700000,291.100000,22.700000,289.400000L22.700000,188.200000L18.400000,188.200000Z" fill="rgb(194,227,234)" stroke="none" stroke-width="1"></path><path id="e6d0sgb10a2f14" d="M89.600000,289.300000C89.600000,291,88.300000,292.300000,86.600000,292.300000L84.100000,292.300000C82.400000,292.300000,81.100000,291,81.100000,289.300000L81.100000,188.200000L89.600000,188.200000L89.600000,289.300000Z" fill="rgb(220,250,255)" stroke="none" stroke-width="1"></path><path id="e6d0sgb10a2f15" d="M269.400000,289.300000C269.400000,291,268,292.300000,266.400000,292.300000L263.900000,292.300000C262.200000,292.300000,260.900000,291,260.900000,289.300000L260.900000,253.500000L260.900000,230.100000L260.900000,188.100000L269.400000,188.100000L269.400000,222.100000L269.400000,247.600000L269.400000,289.300000Z" fill="rgb(220,250,255)" stroke="none" stroke-width="1"></path><path id="e6d0sgb10a2f16" d="M252.300000,258.700000L257.300000,290.200000C257.500000,291.200000,256.800000,292.200000,255.800000,292.500000C254.700000,292.800000,253.600000,292.100000,253.300000,291.100000L245,260.400000L244.800000,259.300000L244.800000,259.300000C245,259.300000,245.300000,259.200000,245.500000,259.200000C247,258.900000,248.500000,258.600000,249.900000,258.300000L252.300000,258.700000Z" fill="rgb(171,233,255)" stroke="none" stroke-width="1"></path><path id="e6d0sgb10a2f17" d="M336.200000,289.300000C336.200000,291,334.900000,292.300000,333.200000,292.300000L330.700000,292.300000C329,292.300000,327.700000,291,327.700000,289.300000L327.700000,188.200000L336.200000,188.200000L336.200000,289.300000Z" fill="rgb(220,250,255)" stroke="none" stroke-width="1"></path><path id="e6d0sgb10a2f18" d="M229.700000,260.400000L221.400000,291.100000C221.100000,292.200000,220,292.800000,218.900000,292.500000C217.900000,292.200000,217.300000,291.200000,217.400000,290.200000L222.400000,259.700000L222.600000,258.900000C224.900000,259.400000,227.200000,259.800000,229.600000,259.900000L229.700000,260.400000Z" fill="rgb(171,233,255)" stroke="none" stroke-width="1"></path><path id="e6d0sgb10a2f19" d="M260.900000,230.200000L260.900000,253.600000C257.300000,255.600000,253.400000,257.200000,249.100000,258.300000C247.700000,258.700000,246.200000,259,244.700000,259.200000C244.500000,259.200000,244.200000,259.300000,244,259.300000L244,259.300000C239.300000,260.100000,234.500000,260.400000,229.800000,260.100000C227.400000,259.900000,225.100000,259.600000,222.800000,259.100000C219.600000,258.400000,216.600000,257.200000,213.800000,255.600000L213.800000,255.600000C214.600000,249.400000,216.500000,245.600000,219,242.300000C219,242.300000,241.800000,243.300000,260.500000,230.200000L260.900000,230.200000L260.900000,230.200000Z" fill="rgb(75,145,188)" stroke="none" stroke-width="1"></path><path id="e6d0sgb10a2f20" d="M277.900000,188.200000L283.600000,188.200000C281.900000,203.400000,276.500000,214.300000,269.400000,222.200000L269.400000,188.200000L277.900000,188.200000Z" fill="rgb(247,247,247)" stroke="none" stroke-width="1"></path><polygon id="e6d0sgb10a2f21" points="277.900000,180 277.900000,188.200000 269.400000,188.200000 260.900000,188.200000 166.700000,188.200000 89.600000,188.200000 81.100000,188.200000 22.800000,188.200000 14.300000,188.200000 0.800000,188.200000 0.800000,179.800000 163.200000,179.800000 277.900000,179.800000" fill="rgb(171,233,255)" stroke="none" stroke-width="1"></polygon><path id="e6d0sgb10a2f22" d="M347.800000,179.800000L347.800000,188.200000L336.200000,188.200000L327.700000,188.200000L298,188.200000L283.600000,188.200000L277.900000,188.200000L277.900000,180L278.900000,180C279.400000,180,279.900000,179.900000,280.400000,179.800000L299.200000,179.800000L347.800000,179.800000Z" fill="rgb(116,207,247)" stroke="none" stroke-width="1"></path><path id="e6d0sgb10a2f23" d="M283.600000,188.200000L298,188.200000C294.200000,210.800000,285.700000,234.100000,269.400000,247.800000L269.400000,222.300000C276.400000,214.300000,281.900000,203.400000,283.600000,188.200000Z" fill="rgb(75,145,188)" stroke="none" stroke-width="1"></path><path id="e6d0sgb10a2f24" d="M284.200000,117.100000C298.400000,125.200000,300.600000,143,300.500000,158.100000C300.500000,164.900000,300.100000,172.200000,299.200000,179.700000L280.400000,179.700000C285.500000,178.900000,289.100000,175.300000,290.100000,169.900000C293.900000,149.800000,289.400000,131,283.800000,117.200000L284.200000,117.100000Z" fill="rgb(75,145,188)" stroke="none" stroke-width="1"></path><path id="e6d0sgb10a2f25" d="M184.900000,13.400000L185.200000,13.700000C183,15.900000,181.100000,18.400000,179.700000,21.400000C178.600000,23.600000,178,26.100000,177.600000,28.800000L177.600000,28.800000L176.900000,28.800000C171.500000,27.400000,167.500000,21,170.500000,15.300000C173.500000,9.300000,180.900000,9.500000,184.900000,13.400000Z" fill="rgb(247,247,247)" stroke="none" stroke-width="1"></path><g id="e6d0sgb10a2f26" transform="matrix(1 0 0 1 139 99)"><polygon id="e6d0sgb10a2f27" points="18.600000,47.500000 27.600000,76.400000 24.200000,80.800000 1.600000,5.800000 4.400000,1.700000" fill="rgb(75,145,188)" stroke="none" stroke-width="1"></polygon><path id="e6d0sgb10a2f28" d="M24.200000,81.800000C24.100000,81.800000,24.100000,81.800000,24,81.800000C23.600000,81.700000,23.300000,81.500000,23.200000,81.100000L0.600000,6.100000C0.500000,5.800000,0.600000,5.500000,0.700000,5.200000L3.600000,1.100000C3.800000,0.800000,4.200000,0.600000,4.600000,0.700000C5,0.800000,5.300000,1,5.400000,1.400000L28.600000,76.100000C28.700000,76.400000,28.600000,76.700000,28.400000,77L25,81.500000C24.800000,81.700000,24.500000,81.800000,24.200000,81.800000ZM2.600000,6L24.500000,78.700000L26.400000,76.200000L17.600000,47.800000L17.600000,47.800000L4,3.900000L2.600000,6Z" fill="rgb(36,38,45)" stroke="none" stroke-width="1"></path></g><polygon id="e6d0sgb10a2f29" points="140.600000,105.100000 163.200000,179.800000 71.300000,179.800000 48.700000,105.100000" fill="rgb(116,207,247)" stroke="none" stroke-width="1"></polygon><polygon id="e6d0sgb10a2f30" points="100.900000,105.100000 60.800000,145.200000 62.600000,151 108.400000,105.100000" opacity="0.15" fill="rgb(255,255,255)" stroke="none" stroke-width="1"></polygon><polygon id="e6d0sgb10a2f31" points="140.600000,105.100000 128.200000,105.100000 67.200000,166.200000 71.300000,179.800000 92.700000,179.800000 146.800000,125.700000" opacity="0.15" fill="rgb(255,255,255)" stroke="none" stroke-width="1"></polygon><polygon id="e6d0sgb10a2f32" points="219.400000,174.400000 217.400000,179.800000 166.600000,179.800000 166.600000,175.400000 166.600000,174.400000 167.500000,174.400000" fill="rgb(75,145,188)" stroke="none" stroke-width="1"></polygon><path id="e6d0sgb10a2f33" d="M198.500000,154.200000C198.600000,154.100000,198.800000,154,199,154.100000C199.100000,154.200000,199,154.300000,199,154.300000L199.100000,154.500000C197.500000,155.800000,195.800000,157.800000,194.600000,161C194.600000,161,192.700000,165.800000,195.200000,169.400000L194.100000,170C192.800000,170.100000,191.500000,170.200000,190.100000,170.300000C188.400000,170.400000,186.700000,170.500000,185.200000,169.700000C183.900000,169,183.100000,167.800000,182.400000,166.500000C181.400000,164.400000,180.900000,161.900000,181.500000,159.700000C182.100000,157.400000,183.800000,155.400000,186.100000,154.700000C188.200000,154.100000,190.300000,154.700000,192.400000,155C194.400000,155.300000,196.800000,155.500000,198.500000,154.200000Z" fill="rgb(247,247,247)" stroke="none" stroke-width="1"></path><path id="e6d0sgb10a2f34" d="M204.800000,152.200000C208.800000,151.900000,211.200000,153.100000,212.700000,154.300000L212.700000,154.400000C210.200000,156,206.700000,158.900000,204.800000,164.300000C204.800000,164.300000,203.800000,168.900000,206.900000,171.200000C205.100000,172.600000,202.300000,173.600000,198.700000,172.100000C196.900000,171.400000,195.800000,170.400000,195,169.300000C192.500000,165.700000,194.400000,160.900000,194.400000,160.900000C195.600000,157.700000,197.300000,155.700000,198.900000,154.400000C202,152.200000,204.800000,152.200000,204.800000,152.200000Z" fill="rgb(247,247,247)" stroke="none" stroke-width="1"></path><path id="e6d0sgb10a2f35" d="M167.500000,171.700000L167.500000,173.400000L166.500000,173.400000L166.500000,174.400000L157.500000,145.500000L158.200000,145.300000C168.500000,122.800000,187.100000,112.800000,187.100000,112.800000L187.600000,112.900000C187.400000,114.300000,187.200000,115.600000,187,116.900000C183.900000,136.500000,170.200000,152.300000,167.500000,171.700000Z" fill="rgb(247,247,247)" stroke="none" stroke-width="1"></path><path id="e6d0sgb10a2f36" d="M212.700000,154.300000L212.700000,154.300000C211.200000,153.100000,208.800000,151.900000,204.800000,152.200000C204.800000,152.200000,202,152.200000,199.100000,154.500000L199,154.300000C199.100000,154.300000,199.100000,154.100000,199,154.100000C198.900000,154,198.700000,154.100000,198.500000,154.200000C196.800000,155.500000,194.400000,155.400000,192.300000,155C190.200000,154.600000,188,154.100000,186,154.700000C183.700000,155.300000,182,157.400000,181.400000,159.700000C180.800000,162,181.200000,164.400000,182.300000,166.500000C182.900000,167.800000,183.800000,169,185.100000,169.700000C186.600000,170.500000,188.300000,170.400000,190,170.300000C191.300000,170.200000,192.600000,170.100000,194,170L195.100000,169.400000C195.900000,170.500000,197,171.500000,198.800000,172.200000C202.400000,173.600000,205.100000,172.700000,207,171.300000C203.900000,169.100000,204.900000,164.400000,204.900000,164.400000C206.700000,158.800000,210.100000,155.800000,212.700000,154.300000ZM219.400000,173.400000L167.500000,173.400000L167.500000,171.700000C170.200000,152.300000,183.900000,136.600000,187.100000,116.900000C187.300000,115.600000,187.500000,114.200000,187.700000,112.900000C189.700000,97.200000,188.300000,81.200000,186.100000,65.600000C186,65.300000,185.900000,64.900000,185.600000,64.800000C185.600000,64.800000,185.600000,64.800000,185.600000,64.800000L185.800000,64C179.400000,60.900000,176.700000,55.400000,175.400000,51.600000C174.600000,49.200000,175.100000,46.600000,176.500000,44.600000C177.100000,43.800000,177.700000,43,178.400000,42.200000L177.900000,41.200000C177.300000,37.200000,177,32.800000,177.500000,28.700000C177.800000,26.100000,178.500000,23.600000,179.600000,21.300000C181,18.300000,182.900000,15.800000,185.100000,13.600000C192.700000,6.200000,203.900000,3.400000,213.900000,2.700000C221.500000,2.200000,228.300000,4.400000,234.800000,8.900000C235.500000,6.500000,236.800000,4.400000,238.800000,2.800000C241.600000,0.600000,245.500000,-0.200000,248.800000,1C253.500000,2.700000,256.200000,8.200000,254.800000,13C253.200000,18.200000,250.300000,19.500000,246.400000,21.400000L248.300000,21.700000C263.400000,39.400000,268.200000,73.100000,271.200000,94.200000C271.200000,94.200000,277.900000,103.100000,283.600000,117.200000C289.200000,131,293.800000,149.800000,289.900000,169.900000C288.900000,175.200000,285.300000,178.800000,280.200000,179.700000L277.700000,179.700000L163.200000,179.700000L163.200000,178.700000L166.600000,174.200000L166.600000,178.600000L217.400000,178.600000L219.400000,173.400000Z" fill="rgb(247,247,247)" stroke="none" stroke-width="1"></path></g><g id="e6d0sgb10a2f37" transform="matrix(1 0 0 1 177 268)"><path id="e6d0sgb10a2f38" d="M39.600000,27.100000C35,27.600000,30.400000,27.500000,25.800000,27L25.900000,27C24.700000,26.900000,23.800000,26.700000,22.800000,26.300000C21.800000,25.900000,20.800000,25.400000,20,24.600000C19.200000,23.800000,18.600000,22.900000,18.100000,21.900000C17.700000,20.900000,17.500000,19.800000,17.500000,18.700000C17.500000,18.200000,17.500000,17.700000,17.600000,17.100000C17.600000,16.600000,17.800000,16.100000,17.900000,15.500000C18.200000,14.500000,18.800000,13.500000,19.500000,12.700000C21,11.100000,23,10.300000,25,10.100000C25.300000,10.100000,25.500000,10.300000,25.500000,10.600000C25.500000,10.800000,25.400000,11.100000,25.100000,11.100000L25,11.100000C23.300000,11.600000,21.700000,12.600000,20.700000,13.900000C20.200000,14.600000,19.900000,15.300000,19.600000,16.100000C19.500000,16.500000,19.400000,16.900000,19.400000,17.300000C19.300000,17.700000,19.400000,18.100000,19.400000,18.600000C19.400000,19.500000,19.600000,20.300000,19.900000,21C20.200000,21.700000,20.700000,22.400000,21.300000,22.900000C22.500000,23.900000,24.200000,24.500000,25.800000,24.600000L25.900000,24.600000C30.400000,25.100000,34.800000,25.200000,39.300000,24.900000C39.900000,24.900000,40.400000,25.300000,40.400000,25.900000C40.600000,26.500000,40.200000,27,39.600000,27.100000Z" fill="rgb(36,38,45)" stroke="none" stroke-width="1"></path><path id="e6d0sgb10a2f39" d="M22.200000,25.600000C19.700000,26.500000,17,27.100000,14.300000,26.900000C12.900000,26.800000,11.500000,26.600000,10.200000,26C8.900000,25.400000,7.600000,24.400000,6.900000,23.100000C6.200000,21.800000,5.900000,20.300000,6,18.900000C6,17.500000,6.300000,16.100000,6.900000,14.800000C7.500000,13.500000,8.500000,12.400000,9.700000,11.600000C10.900000,10.800000,12.200000,10.300000,13.600000,10.200000C13.900000,10.200000,14.100000,10.400000,14.100000,10.700000C14.100000,10.900000,14,11.100000,13.800000,11.200000L13.700000,11.200000C12.600000,11.600000,11.500000,12.200000,10.700000,12.900000C9.800000,13.700000,9.200000,14.600000,8.700000,15.600000C8.300000,16.600000,8,17.800000,8,18.900000C8,20,8.200000,21.100000,8.700000,22C9.700000,23.800000,12,24.600000,14.400000,24.800000C16.800000,24.900000,19.200000,24.500000,21.500000,23.800000L21.500000,23.800000C22,23.600000,22.600000,23.900000,22.800000,24.400000C23,24.900000,22.700000,25.400000,22.200000,25.600000Z" fill="rgb(36,38,45)" stroke="none" stroke-width="1"></path><path id="e6d0sgb10a2f40" d="M6.700000,23.800000C4.900000,23,3.200000,21.900000,1.900000,20.300000C1.300000,19.500000,0.700000,18.500000,0.500000,17.400000C0.300000,16.300000,0.400000,15.100000,0.800000,14.100000C1,13.600000,1.200000,13.100000,1.500000,12.700000C1.800000,12.300000,2.100000,11.800000,2.400000,11.500000C3,10.700000,3.800000,10,4.600000,9.500000C6.200000,8.300000,8.100000,7.500000,9.900000,7L9.900000,7L9.400000,7.400000C10.100000,6.300000,11,5.500000,11.900000,4.700000C12.800000,3.900000,13.800000,3.200000,14.800000,2.600000C15.800000,1.900000,17,1.500000,18.100000,1.100000C19.300000,0.700000,20.500000,0.500000,21.700000,0.500000C22,0.500000,22.200000,0.700000,22.200000,1C22.200000,1.200000,22.100000,1.400000,21.900000,1.500000L21.900000,1.500000C20.800000,1.900000,19.800000,2.200000,18.800000,2.700000C17.800000,3.100000,16.900000,3.700000,15.900000,4.300000C15,4.900000,14.100000,5.600000,13.300000,6.300000C12.500000,7,11.700000,7.800000,11,8.600000L10.900000,8.700000C10.800000,8.900000,10.600000,9,10.400000,9L10.400000,9C8.700000,9.500000,7.100000,10.200000,5.700000,11.100000C5,11.600000,4.400000,12.200000,3.800000,12.800000C3.500000,13.100000,3.300000,13.500000,3.100000,13.800000C2.900000,14.200000,2.700000,14.500000,2.600000,14.900000C2,16.300000,2.400000,17.900000,3.400000,19.100000C4.400000,20.400000,5.900000,21.300000,7.500000,22L7.500000,22C8,22.200000,8.200000,22.800000,8,23.300000C7.800000,23.800000,7.200000,24.100000,6.700000,23.800000L6.700000,23.800000Z" fill="rgb(36,38,45)" stroke="none" stroke-width="1"></path></g><path id="e6d0sgb10a2f41" d="M209.900000,293.100000C213.300000,293.200000,216.700000,293.100000,220,292.800000C223.300000,292.400000,226.600000,291.700000,229.600000,290.400000C231.100000,289.800000,232.600000,289.100000,233.800000,288C235,287,235.800000,285.700000,236,284.300000C236.200000,282.700000,236.300000,281,236.200000,279.400000C236.100000,278.600000,236,277.800000,235.900000,277C235.700000,276.200000,235.500000,275.400000,235.300000,274.800000L235.300000,274.800000L235.300000,274.800000C235.300000,274.700000,235.200000,274.600000,235.200000,274.500000C234.800000,271.400000,234.400000,268.200000,234.400000,265C234.300000,261.800000,234.300000,258.600000,234.900000,255.400000C235.400000,252.200000,236.200000,249,237.900000,246.200000C239.500000,243.300000,241.700000,241,244,238.800000C244.200000,238.600000,244.500000,238.600000,244.700000,238.800000C244.900000,239,244.900000,239.300000,244.700000,239.400000C243.800000,240.700000,242.800000,241.900000,241.900000,243.100000C241.100000,244.400000,240.200000,245.600000,239.500000,247C238.100000,249.700000,237.300000,252.600000,236.900000,255.600000C236.500000,258.600000,236.400000,261.700000,236.500000,264.800000C236.500000,266.300000,236.700000,267.900000,236.700000,269.400000C236.800000,270.900000,237,272.500000,237.100000,274L237,273.700000L237,273.700000C237.800000,275.500000,238,277.300000,238.200000,279.100000C238.300000,280.900000,238.200000,282.700000,238,284.400000C237.700000,286.400000,236.600000,288.200000,235.100000,289.300000C233.700000,290.500000,232,291.300000,230.400000,292C227.200000,293.400000,223.700000,294.200000,220.200000,294.500000C216.700000,294.900000,213.300000,294.900000,209.800000,294.800000C209.200000,294.800000,208.800000,294.300000,208.800000,293.800000C208.900000,293.500000,209.400000,293.100000,209.900000,293.100000L209.900000,293.100000L209.900000,293.100000Z" fill="rgb(36,38,45)" stroke="none" stroke-width="1"></path><path id="e6d0sgb10a2f42" d="M193.100000,270.900000C189.300000,264.500000,186.300000,257.500000,184.800000,250.100000L184.500000,248.700000L184.300000,247.300000C184.200000,246.400000,184.100000,245.400000,184,244.500000L183.900000,241.700000C183.800000,240.800000,184,239.800000,184,238.900000C184.300000,235.100000,185,231.400000,186.400000,227.800000C189.200000,220.700000,194,214.600000,199.600000,209.700000C205.300000,204.800000,211.700000,200.800000,218.900000,198.600000C219.200000,198.500000,219.400000,198.700000,219.500000,198.900000C219.600000,199.100000,219.500000,199.400000,219.200000,199.500000L219.200000,199.500000C215.900000,201.100000,212.700000,202.900000,209.700000,204.800000C206.600000,206.700000,203.700000,208.800000,201,211.200000C195.600000,216,191.100000,221.800000,188.500000,228.500000C187.200000,231.800000,186.500000,235.400000,186.200000,238.900000C186.200000,239.800000,186,240.700000,186.100000,241.600000L186.200000,244.300000C186.300000,245.200000,186.400000,246.100000,186.500000,247L186.700000,248.300000L187,249.600000C188.400000,256.700000,191.200000,263.500000,194.800000,269.800000C195.100000,270.300000,194.900000,270.900000,194.400000,271.200000C194,271.500000,193.400000,271.300000,193.100000,270.900000Z" fill="rgb(36,38,45)" stroke="none" stroke-width="1"></path><g id="e6d0sgb10a2f43" transform="matrix(1 0 0 1 144 268)"><path id="e6d0sgb10a2f44" d="M39.700000,25.700000C35.100000,26.200000,30.500000,26.100000,25.900000,25.600000L26,25.600000C24.800000,25.500000,23.900000,25.300000,22.900000,24.900000C21.900000,24.500000,20.900000,24,20.100000,23.200000C19.300000,22.400000,18.700000,21.500000,18.200000,20.500000C17.800000,19.500000,17.600000,18.400000,17.600000,17.300000C17.600000,16.800000,17.600000,16.300000,17.700000,15.700000C17.700000,15.200000,17.900000,14.700000,18,14.100000C18.300000,13.100000,18.900000,12.100000,19.600000,11.300000C21.100000,9.700000,23.100000,8.900000,25.100000,8.700000C25.400000,8.700000,25.600000,8.900000,25.600000,9.200000C25.600000,9.400000,25.500000,9.700000,25.200000,9.700000L25.100000,9.700000C23.400000,10.200000,21.800000,11.200000,20.800000,12.500000C20.300000,13.200000,20,13.900000,19.700000,14.700000C19.600000,15.100000,19.500000,15.500000,19.500000,15.900000C19.400000,16.300000,19.500000,16.700000,19.500000,17.200000C19.500000,18.100000,19.700000,18.900000,20,19.600000C20.300000,20.300000,20.800000,21,21.400000,21.500000C22.600000,22.500000,24.300000,23.100000,25.900000,23.200000L26,23.200000C30.500000,23.700000,34.900000,23.800000,39.400000,23.500000C40,23.500000,40.500000,23.900000,40.500000,24.500000C40.700000,25.100000,40.200000,25.600000,39.700000,25.700000Z" fill="rgb(36,38,45)" stroke="none" stroke-width="1"></path><path id="e6d0sgb10a2f45" d="M22.300000,24.200000C19.800000,25.100000,17.100000,25.700000,14.400000,25.500000C13,25.400000,11.600000,25.200000,10.300000,24.600000C9,24,7.700000,23,7,21.700000C6.300000,20.400000,6,18.900000,6.100000,17.500000C6.100000,16.100000,6.400000,14.700000,7,13.400000C7.600000,12.100000,8.600000,11,9.800000,10.200000C11,9.400000,12.300000,8.900000,13.700000,8.800000C14,8.800000,14.200000,9,14.200000,9.300000C14.200000,9.500000,14.100000,9.700000,13.900000,9.800000L13.800000,9.800000C12.700000,10.200000,11.600000,10.800000,10.800000,11.500000C9.900000,12.300000,9.300000,13.200000,8.800000,14.200000C8.400000,15.200000,8.100000,16.400000,8.100000,17.500000C8.100000,18.600000,8.300000,19.700000,8.800000,20.600000C9.800000,22.400000,12.100000,23.200000,14.500000,23.400000C16.900000,23.500000,19.300000,23.100000,21.600000,22.400000L21.600000,22.400000C22.100000,22.200000,22.700000,22.500000,22.900000,23C23.100000,23.500000,22.800000,24,22.300000,24.200000Z" fill="rgb(36,38,45)" stroke="none" stroke-width="1"></path><path id="e6d0sgb10a2f46" d="M6.800000,22.400000C5,21.600000,3.300000,20.500000,2,18.900000C1.300000,18.100000,0.800000,17.100000,0.600000,16C0.400000,14.900000,0.500000,13.700000,0.900000,12.700000C1.300000,11.700000,1.900000,10.800000,2.500000,10.100000C3.200000,9.300000,3.900000,8.700000,4.700000,8.100000C6.300000,6.900000,8.200000,6.100000,10,5.600000L10,5.600000L9.500000,6C10,5.300000,10.500000,4.700000,11,4.200000C11.500000,3.600000,12.100000,3.200000,12.700000,2.700000C13.900000,1.800000,15.300000,1,16.800000,0.600000C17.100000,0.500000,17.400000,0.700000,17.400000,1C17.500000,1.200000,17.400000,1.400000,17.200000,1.500000L17.200000,1.500000C16.600000,2,16.100000,2.400000,15.600000,2.900000C15.100000,3.300000,14.500000,3.800000,14,4.300000C13.500000,4.800000,13,5.300000,12.500000,5.700000C12,6.200000,11.500000,6.700000,11.100000,7.200000L11,7.300000C10.900000,7.400000,10.700000,7.500000,10.500000,7.600000L10.500000,7.600000C8.800000,8.100000,7.200000,8.800000,5.800000,9.800000C4.400000,10.800000,3.200000,12.100000,2.700000,13.600000C2.100000,15,2.500000,16.600000,3.500000,17.800000C4.500000,19.100000,6,20,7.600000,20.700000L7.600000,20.700000C8.100000,20.900000,8.300000,21.500000,8.100000,22C7.900000,22.400000,7.300000,22.700000,6.800000,22.400000L6.800000,22.400000Z" fill="rgb(36,38,45)" stroke="none" stroke-width="1"></path></g><path id="e6d0sgb10a2f47" d="M179.800000,293.700000C178.900000,293.700000,177.900000,293.700000,177,293.700000C176.400000,293.700000,176,293.200000,176,292.700000C176,292.100000,176.500000,291.700000,177,291.700000C180.600000,291.800000,183.700000,291.700000,186.400000,291.400000C187,291.400000,187.400000,291.700000,187.500000,292.300000C187.600000,292.800000,187.200000,293.300000,186.600000,293.400000C184.600000,293.600000,182.300000,293.700000,179.800000,293.700000Z" fill="rgb(36,38,45)" stroke="none" stroke-width="1"></path><path id="e6d0sgb10a2f48" d="M162.100000,270.900000C161.800000,270.900000,161.400000,270.700000,161.200000,270.400000C152.400000,255.400000,150.100000,241,154.300000,227.600000C161.800000,203.900000,187.600000,191.800000,187.900000,191.700000C188.400000,191.500000,189,191.700000,189.200000,192.200000C189.400000,192.700000,189.200000,193.300000,188.700000,193.500000C188.400000,193.600000,163.400000,205.400000,156.200000,228.200000C152.200000,241,154.400000,254.800000,162.900000,269.300000C163.200000,269.800000,163,270.400000,162.500000,270.700000C162.400000,270.900000,162.200000,270.900000,162.100000,270.900000Z" fill="rgb(36,38,45)" stroke="none" stroke-width="1"></path><path id="e6d0sgb10a2f49" d="M200,43.300000C199.500000,43.300000,199.100000,43,199,42.500000C198.100000,36.800000,197.600000,28.600000,200.700000,22.100000C206,11.200000,218.300000,4.900000,237.300000,3.500000C245.200000,2.900000,250.200000,4.300000,256.800000,8.900000C257.300000,9.200000,257.400000,9.800000,257.100000,10.300000C256.800000,10.800000,256.200000,10.900000,255.700000,10.600000C249.400000,6.200000,244.900000,5,237.400000,5.500000C219.100000,6.800000,207.400000,12.700000,202.400000,22.900000C199.500000,28.900000,200,36.700000,200.900000,42.100000C201,42.600000,200.600000,43.200000,200.100000,43.200000C200.100000,43.300000,200,43.300000,200,43.300000Z" fill="rgb(36,38,45)" stroke="none" stroke-width="1"></path><path id="e6d0sgb10a2f50" d="M303.600000,181.500000C303.200000,181.500000,302.800000,181.200000,302.600000,180.800000C302.500000,180.300000,302.800000,179.700000,303.300000,179.600000C307.400000,178.500000,310.200000,175.300000,311,170.900000C318.500000,131.200000,292.700000,96.300000,292.400000,96C292.300000,95.900000,292.200000,95.700000,292.200000,95.500000C289.300000,75.200000,284.500000,41.100000,269.600000,23.500000C269.200000,23.100000,269.300000,22.400000,269.700000,22.100000C270.100000,21.700000,270.800000,21.800000,271.100000,22.200000C286.400000,40.100000,291.300000,74.300000,294.200000,94.900000C296.400000,97.900000,320.400000,132.200000,313,171.200000C312,176.400000,308.700000,180.200000,303.900000,181.500000C303.800000,181.500000,303.700000,181.500000,303.600000,181.500000Z" fill="rgb(36,38,45)" stroke="none" stroke-width="1"></path><g id="e6d0sgb10a2f51" transform="matrix(1 0 0 1 203 29)"><path id="e6d0sgb10a2f52" d="M0.400000,5.900000C1.200000,8.400000,2.700000,9.500000,4.300000,9C5.900000,8.500000,6.900000,6.500000,6.100000,4C5.300000,1.500000,3.400000,-0.100000,1.800000,0.500000C0.300000,1,-0.300000,3.400000,0.400000,5.900000Z" fill="rgb(225,232,234)" stroke="none" stroke-width="1"></path><path id="e6d0sgb10a2f53" d="M7.200000,4.200000C6.400000,1.700000,4.500000,0.100000,2.900000,0.700000C1.300000,1.200000,0.700000,3.600000,1.400000,6.100000C1.900000,7.600000,2.700000,8.700000,3.600000,9.100000L7.400000,6.200000C7.400000,5.500000,7.400000,4.900000,7.200000,4.200000Z" fill="rgb(36,38,45)" stroke="none" stroke-width="1"></path><circle id="e6d0sgb10a2f54" r="1" transform="matrix(1 0 0 1 2.70000000000000 4.30000000000000)" fill="rgb(225,232,234)" stroke="none" stroke-width="1"></circle></g><g id="e6d0sgb10a2f55" transform="matrix(1 0 0 1 238 25)"><path id="e6d0sgb10a2f56" d="M1.300000,5.700000C2.100000,8.200000,3.600000,9.300000,5.200000,8.800000C6.800000,8.300000,7.800000,6.300000,7,3.800000C6.200000,1.300000,4.300000,-0.300000,2.700000,0.300000C1.100000,0.800000,0.500000,3.300000,1.300000,5.700000Z" fill="rgb(225,232,234)" stroke="none" stroke-width="1"></path><path id="e6d0sgb10a2f57" d="M2.200000,5.900000C3,8.400000,4.500000,9.500000,6.100000,9C7.700000,8.500000,8.700000,6.500000,7.900000,4C7.100000,1.500000,5.200000,-0.100000,3.600000,0.500000C2.100000,1,1.400000,3.400000,2.200000,5.900000Z" fill="rgb(36,38,45)" stroke="none" stroke-width="1"></path><circle id="e6d0sgb10a2f58" r="1" transform="matrix(1 0 0 1 3.50000000000000 4.10000000000000)" fill="rgb(225,232,234)" stroke="none" stroke-width="1"></circle></g><path id="e6d0sgb10a2f59" d="M189.100000,175.500000C189.100000,175.500000,189,175.500000,189,175.500000C188.500000,175.400000,188.100000,174.900000,188.100000,174.400000C189.500000,164.400000,193.900000,154.800000,198.200000,145.400000C202.300000,136.500000,206.600000,127.200000,208.100000,117.700000C210.400000,103.300000,210.100000,86.800000,207,65.600000C206.900000,65.100000,207.300000,64.500000,207.800000,64.500000C208.300000,64.400000,208.900000,64.800000,208.900000,65.300000C212,86.700000,212.300000,103.400000,210,118C208.400000,127.800000,204.100000,137.100000,199.900000,146.200000C195.700000,155.400000,191.300000,164.900000,189.900000,174.600000C190,175.200000,189.600000,175.500000,189.100000,175.500000Z" fill="rgb(36,38,45)" stroke="none" stroke-width="1"></path><path id="e6d0sgb10a2f60" d="M259.100000,128.100000C260.100000,129,261,130,261.800000,131.100000C262.600000,132.200000,263.300000,133.300000,263.900000,134.600000C264.500000,135.800000,265,137.100000,265.400000,138.500000C265.700000,139.900000,265.900000,141.300000,265.800000,142.700000C265.800000,143.300000,265.300000,143.700000,264.700000,143.600000C264.200000,143.600000,263.800000,143.100000,263.800000,142.600000L263.800000,142.500000C263.800000,141.300000,263.600000,140.100000,263.300000,138.900000C263,137.700000,262.600000,136.500000,262.100000,135.400000C261.600000,134.300000,261,133.100000,260.400000,132C259.800000,130.900000,259.100000,129.800000,258.400000,128.700000L258.400000,128.700000C258.300000,128.500000,258.300000,128.200000,258.600000,128C258.700000,128,258.900000,128,259.100000,128.100000Z" fill="rgb(36,38,45)" stroke="none" stroke-width="1"></path><path id="e6d0sgb10a2f61" d="M276.700000,141.900000C273.800000,142,270.900000,142.300000,268.100000,142.900000C265.300000,143.500000,262.600000,144.500000,260.100000,145.800000C257.600000,147.200000,255.200000,148.700000,253.100000,150.800000C252,151.700000,251.100000,152.900000,250.100000,153.900000C249.200000,155,248.300000,156.200000,247.400000,157.300000L247.300000,157.400000C247,157.800000,246.300000,157.900000,245.900000,157.600000C245.500000,157.300000,245.400000,156.700000,245.700000,156.200000C246.600000,155,247.400000,153.700000,248.400000,152.500000C249.400000,151.400000,250.400000,150.200000,251.500000,149.200000C252.100000,148.700000,252.600000,148.200000,253.200000,147.700000L255,146.300000C255.600000,145.800000,256.300000,145.400000,256.900000,145C257.600000,144.600000,258.200000,144.200000,258.900000,143.900000C261.600000,142.500000,264.600000,141.500000,267.500000,140.900000C270.500000,140.300000,273.600000,140.200000,276.600000,140.900000C276.900000,141,277,141.200000,277,141.500000C277.200000,141.800000,277,141.900000,276.700000,141.900000L276.700000,141.900000Z" fill="rgb(36,38,45)" stroke="none" stroke-width="1"></path><path id="e6d0sgb10a2f62" d="M179.900000,147.900000C179.800000,147.900000,179.600000,147.900000,179.500000,147.800000C179,147.600000,178.800000,147,179,146.500000C189.300000,124,208.500000,113.100000,208.700000,113C209.200000,112.700000,209.800000,112.900000,210.100000,113.400000C210.400000,113.900000,210.200000,114.500000,209.700000,114.800000C209.500000,114.900000,190.800000,125.500000,180.800000,147.400000C180.700000,147.700000,180.300000,147.900000,179.900000,147.900000Z" fill="rgb(36,38,45)" stroke="none" stroke-width="1"></path><path id="e6d0sgb10a2f63" d="M196.700000,215C196.500000,215,196.200000,214.900000,196,214.700000C185.700000,204.900000,187.600000,189.600000,187.700000,189C187.800000,188.500000,188.300000,188.100000,188.800000,188.100000C189.300000,188.200000,189.700000,188.700000,189.700000,189.200000C189.700000,189.300000,187.800000,204.100000,197.400000,213.200000C197.800000,213.600000,197.800000,214.200000,197.400000,214.600000C197.200000,214.900000,196.900000,215,196.700000,215Z" fill="rgb(36,38,45)" stroke="none" stroke-width="1"></path><path id="e6d0sgb10a2f64" d="M291.400000,224.200000C291.200000,224.200000,290.900000,224.100000,290.700000,223.900000C290.300000,223.500000,290.300000,222.900000,290.600000,222.500000C298.400000,213.900000,303.100000,202.600000,304.600000,189C304.700000,188.500000,305.200000,188.100000,305.700000,188.100000C306.200000,188.200000,306.600000,188.700000,306.600000,189.200000C305,203.200000,300.200000,214.800000,292.100000,223.800000C291.900000,224.100000,291.600000,224.200000,291.400000,224.200000Z" fill="rgb(36,38,45)" stroke="none" stroke-width="1"></path><path id="e6d0sgb10a2f65" d="M242.100000,244.300000C241.600000,244.300000,241.300000,244.300000,241.200000,244.300000C240.600000,244.300000,240.200000,243.800000,240.200000,243.300000C240.200000,242.700000,240.700000,242.300000,241.200000,242.300000C241.400000,242.300000,263.500000,243,281.600000,230.300000C282.100000,230,282.700000,230.100000,283,230.500000C283.300000,231,283.200000,231.600000,282.800000,231.900000C266.300000,243.700000,246.400000,244.300000,242.100000,244.300000Z" fill="rgb(36,38,45)" stroke="none" stroke-width="1"></path><path id="e6d0sgb10a2f66" d="M162.600000,106.800000L70.700000,106.800000C70.300000,106.800000,70,106.600000,69.800000,106.300000C69.600000,106,69.700000,105.600000,69.900000,105.300000L72.700000,101.200000C72.900000,100.900000,73.200000,100.800000,73.500000,100.800000L165.400000,100.800000C165.800000,100.800000,166.100000,101,166.300000,101.300000C166.500000,101.600000,166.400000,102,166.200000,102.300000L163.400000,106.400000C163.200000,106.600000,162.900000,106.800000,162.600000,106.800000ZM72.600000,104.800000L162,104.800000L163.500000,102.700000L74,102.700000L72.600000,104.800000Z" fill="rgb(36,38,45)" stroke="none" stroke-width="1"></path><path id="e6d0sgb10a2f67" d="M185.200000,181.800000C185.100000,181.800000,185.100000,181.800000,185,181.800000C184.600000,181.700000,184.300000,181.500000,184.200000,181.100000L161.600000,106.100000C161.500000,105.800000,161.600000,105.500000,161.700000,105.200000L164.500000,101.100000C164.700000,100.800000,165.100000,100.600000,165.500000,100.700000C165.900000,100.800000,166.200000,101,166.300000,101.400000L189.500000,176.100000C189.600000,176.400000,189.500000,176.700000,189.300000,177L185.900000,181.500000C185.800000,181.700000,185.500000,181.800000,185.200000,181.800000ZM163.700000,106L185.600000,178.700000L187.500000,176.200000L165.100000,104L163.700000,106Z" fill="rgb(36,38,45)" stroke="none" stroke-width="1"></path><path id="e6d0sgb10a2f68" d="M185.200000,181.800000L93.300000,181.800000C92.900000,181.800000,92.500000,181.500000,92.300000,181.100000L69.700000,106.400000C69.600000,106.100000,69.700000,105.800000,69.900000,105.500000C70.100000,105.200000,70.400000,105.100000,70.700000,105.100000L162.600000,105.100000C163,105.100000,163.400000,105.400000,163.600000,105.800000L186.200000,180.500000C186.300000,180.800000,186.200000,181.100000,186,181.400000C185.800000,181.700000,185.500000,181.800000,185.200000,181.800000ZM94,179.800000L183.800000,179.800000L161.800000,107.100000L72,107.100000L94,179.800000Z" fill="rgb(36,38,45)" stroke="none" stroke-width="1"></path><g id="e6d0sgb10a2f69" transform="matrix(1 0 0 1 108 128)"><path id="e6d0sgb10a2f70" d="M20.300000,3.200000C22.300000,3.200000,24.200000,3.200000,26.100000,3.200000C26.400000,4.600000,26.700000,6,27,7.400000C27.300000,8.700000,27.600000,10.100000,27.900000,11.500000C29.800000,11.500000,31.600000,11.500000,33.500000,11.600000C33.700000,12.700000,34,13.800000,34.200000,14.900000C32.300000,14.900000,30.600000,14.900000,28.700000,14.900000C28.900000,15.800000,29.100000,16.700000,29.300000,17.800000C31.200000,17.800000,33,17.800000,34.900000,17.900000C35.200000,19,35.400000,20,35.700000,21.200000C33.800000,21.200000,32,21.200000,30.100000,21.200000C30.700000,23.900000,31.300000,26.700000,31.900000,29.500000C30.500000,29.500000,29.200000,29.500000,27.900000,29.500000C27.600000,29.500000,27.200000,29.100000,27,28.900000C23.100000,24.700000,19.300000,20.500000,15.400000,16.300000C15.200000,16,14.900000,15.800000,14.400000,15.300000C15.500000,20.200000,16.500000,24.800000,17.500000,29.500000C15.600000,29.500000,13.600000,29.500000,11.700000,29.500000C11.100000,26.700000,10.500000,24,9.900000,21.200000C8.100000,21.200000,6.300000,21.200000,4.400000,21.100000C4.200000,20,3.900000,19,3.600000,17.800000C5.400000,17.800000,7.200000,17.800000,9.100000,17.800000C8.900000,16.800000,8.700000,16,8.500000,15C6.700000,15,4.900000,15,3,14.900000C2.800000,13.800000,2.500000,12.800000,2.300000,11.600000C4.100000,11.600000,5.900000,11.600000,7.800000,11.600000C7.200000,8.800000,6.600000,6.100000,6,3.300000C7.400000,3.300000,8.600000,3.300000,9.900000,3.400000C10.200000,3.400000,10.600000,3.700000,10.900000,4C14.800000,8.200000,18.600000,12.400000,22.500000,16.600000C22.700000,16.900000,23,17.100000,23.400000,17.600000C22.300000,12.600000,21.300000,8,20.300000,3.200000Z" fill="rgb(251,225,8)" stroke="none" stroke-width="1"></path><g id="e6d0sgb10a2f71" transform="matrix(1 0 0 1 2 3)" opacity="0.46"><path id="e6d0sgb10a2f72" d="M6.100000,10.400000C4.300000,10.400000,2.500000,10.400000,0.700000,10.300000C0.800000,10.800000,0.900000,11.300000,1,11.800000C2.800000,11.800000,4.600000,11.800000,6.400000,11.900000C6.300000,11.400000,6.200000,10.900000,6.100000,10.400000Z" fill="rgb(242,169,8)" stroke="none" stroke-width="1"></path><path id="e6d0sgb10a2f73" d="M24.100000,0.300000C24.100000,0.300000,24,0.300000,24,0.300000C24.200000,1.200000,24.400000,2.100000,24.600000,3C24.900000,4.300000,25.200000,5.700000,25.500000,7.100000C25.500000,7.100000,25.600000,7.100000,25.600000,7.100000C25.400000,6.200000,25.200000,5.300000,25,4.500000C24.700000,3.100000,24.400000,1.700000,24.100000,0.300000Z" fill="rgb(242,169,8)" stroke="none" stroke-width="1"></path><path id="e6d0sgb10a2f74" d="M7.400000,16.600000C5.600000,16.600000,3.900000,16.600000,2,16.500000C2.100000,17,2.200000,17.500000,2.300000,18C4.200000,18,5.900000,18,7.700000,18.100000C7.600000,17.600000,7.500000,17.100000,7.400000,16.600000Z" fill="rgb(242,169,8)" stroke="none" stroke-width="1"></path><path id="e6d0sgb10a2f75" d="M31.800000,10.500000C29.900000,10.500000,28.200000,10.500000,26.300000,10.500000C26.500000,11.400000,26.700000,12.300000,26.900000,13.400000C26.900000,13.400000,27,13.400000,27,13.400000C26.900000,12.900000,26.800000,12.500000,26.700000,12C28.600000,12,30.400000,12,32.200000,12C32,10.900000,31.700000,9.800000,31.500000,8.700000C31.500000,8.700000,31.400000,8.700000,31.400000,8.700000C31.600000,9.200000,31.700000,9.800000,31.800000,10.500000Z" fill="rgb(242,169,8)" stroke="none" stroke-width="1"></path><path id="e6d0sgb10a2f76" d="M33.200000,16.700000C31.300000,16.700000,29.500000,16.700000,27.600000,16.700000C28.200000,19.400000,28.800000,22.200000,29.400000,25C28,25,26.700000,25,25.400000,25C25.100000,25,24.700000,24.600000,24.500000,24.400000C20.600000,20.200000,16.800000,16,12.900000,11.800000C12.700000,11.500000,12.400000,11.300000,11.900000,10.800000C13,15.700000,14,20.300000,15,25C13.100000,25,11.200000,25,9.300000,25C9.400000,25.500000,9.500000,26,9.600000,26.500000C11.600000,26.500000,13.500000,26.500000,15.400000,26.500000C14.400000,21.700000,13.400000,17.100000,12.300000,12.300000C12.800000,12.800000,13,13,13.300000,13.300000C17.200000,17.500000,21,21.700000,24.900000,25.900000C25.100000,26.200000,25.500000,26.500000,25.800000,26.500000C27.100000,26.600000,28.400000,26.500000,29.800000,26.500000C29.200000,23.700000,28.600000,21,28,18.200000C29.900000,18.200000,31.700000,18.200000,33.600000,18.200000C33.300000,17,33.100000,16,32.800000,14.900000C32.800000,14.900000,32.700000,14.900000,32.700000,14.900000C32.900000,15.400000,33.100000,16,33.200000,16.700000Z" fill="rgb(242,169,8)" stroke="none" stroke-width="1"></path></g><path id="e6d0sgb10a2f77" d="M5.900000,3.200000C6.200000,3.200000,6.400000,3.200000,6.700000,3.200000C6.900000,3.200000,7.100000,3.200000,7.300000,3.200000C8.200000,3.200000,9,3.200000,9.800000,3.300000C10.100000,3.300000,10.500000,3.600000,10.800000,3.900000C14.700000,8.100000,18.500000,12.300000,22.400000,16.500000C22.600000,16.800000,22.900000,17,23.300000,17.500000C22.200000,12.600000,21.200000,8,20.200000,3.300000C22.200000,3.300000,24.100000,3.300000,26,3.300000C26.300000,4.700000,26.600000,6.100000,26.900000,7.500000C27.200000,8.800000,27.500000,10.200000,27.800000,11.600000C29.700000,11.600000,31.500000,11.600000,33.400000,11.700000C33.600000,12.800000,33.900000,13.900000,34.100000,15C32.200000,15,30.500000,15,28.600000,15C28.800000,15.900000,29,16.800000,29.200000,17.900000C31.100000,17.900000,32.900000,17.900000,34.800000,18C35.100000,19.100000,35.300000,20.100000,35.600000,21.300000C33.700000,21.300000,31.900000,21.300000,30,21.300000C30.600000,24,31.200000,26.800000,31.800000,29.600000C31.700000,29.600000,31.600000,29.600000,31.500000,29.600000C31,29.600000,30.500000,29.600000,30,29.600000C29.300000,29.600000,28.500000,29.600000,27.800000,29.600000C27.500000,29.600000,27.100000,29.200000,26.900000,29C23,24.800000,19.200000,20.600000,15.300000,16.400000C15.100000,16.100000,14.800000,15.900000,14.300000,15.400000C15.400000,20.300000,16.400000,24.900000,17.400000,29.600000C15.500000,29.600000,13.500000,29.600000,11.600000,29.600000C11,26.800000,10.400000,24.100000,9.800000,21.300000C8,21.300000,6.200000,21.300000,4.300000,21.200000C4.100000,20.100000,3.800000,19.100000,3.500000,17.900000C5.300000,17.900000,7.100000,17.900000,9,17.900000C8.800000,16.900000,8.600000,16.100000,8.400000,15.100000C6.600000,15.100000,4.800000,15.100000,2.900000,15C2.700000,13.900000,2.400000,12.900000,2.200000,11.700000C4,11.700000,5.800000,11.700000,7.700000,11.700000C7.100000,8.700000,6.600000,6,5.900000,3.200000L5.900000,3.200000ZM5.900000,1.200000C5.300000,1.200000,4.700000,1.500000,4.300000,1.900000C3.900000,2.400000,3.800000,3,3.900000,3.600000L4.900000,8.200000L5.200000,9.500000L2.200000,9.500000C1.600000,9.500000,1,9.800000,0.600000,10.200000C0.200000,10.700000,0.100000,11.300000,0.200000,11.900000L0.300000,12.500000L0.900000,15.100000C1,15.700000,1.400000,16.100000,1.900000,16.400000C1.600000,16.900000,1.400000,17.500000,1.600000,18L2.100000,20.400000L2.300000,21.300000C2.500000,22.200000,3.300000,22.800000,4.200000,22.900000L8.100000,22.900000L9.600000,29.600000C9.800000,30.500000,10.600000,31.200000,11.500000,31.200000L17.300000,31.200000C17.300000,31.200000,17.300000,31.200000,17.300000,31.200000C17.900000,31.200000,18.500000,30.900000,18.900000,30.500000C19.300000,30,19.400000,29.400000,19.300000,28.800000L18.200000,23.800000L17.800000,21.700000C20.300000,24.400000,22.800000,27.200000,25.300000,29.900000C25.800000,30.400000,26.600000,31.100000,27.600000,31.200000C28.400000,31.200000,29.200000,31.200000,29.900000,31.200000L30.600000,31.200000L31.400000,31.200000L31.700000,31.200000C31.700000,31.200000,31.700000,31.200000,31.700000,31.200000C32.300000,31.200000,32.900000,30.900000,33.300000,30.500000C33.700000,30,33.800000,29.400000,33.700000,28.800000L32.500000,23.100000L32.500000,23L35.600000,23C36.200000,23,36.800000,22.700000,37.200000,22.200000C37.600000,21.700000,37.700000,21.100000,37.600000,20.500000L36.800000,17.200000C36.700000,16.600000,36.300000,16.200000,35.800000,15.900000C36.100000,15.400000,36.300000,14.900000,36.100000,14.300000L35.500000,11.400000L35.400000,11C35.200000,10.100000,34.400000,9.400000,33.500000,9.400000L29.500000,9.400000C29.300000,8.500000,29.100000,7.700000,28.900000,6.900000C28.700000,5.900000,28.500000,5,28.300000,4L28,2.700000C27.800000,1.800000,27,1.100000,26.100000,1.100000L20.300000,1.100000C20.300000,1.100000,20.300000,1.100000,20.300000,1.100000C19.700000,1.100000,19.100000,1.400000,18.700000,1.800000C18.300000,2.300000,18.200000,2.900000,18.300000,3.500000L19.800000,10.500000C17.300000,7.800000,14.800000,5,12.300000,2.300000C12,1.900000,11.100000,1.100000,9.900000,1C9,0.900000,8.100000,0.900000,7.200000,0.900000L6.900000,0.900000L6.600000,0.900000C6.500000,1.200000,6.200000,1.200000,5.900000,1.200000C6,1.200000,6,1.200000,5.900000,1.200000L5.900000,1.200000Z" fill="rgb(36,38,45)" stroke="none" stroke-width="1"></path><polygon id="e6d0sgb10a2f78" points="12,26.700000 6.900000,4 7.700000,4 12.900000,26.900000" fill="rgb(255,236,121)" stroke="none" stroke-width="1"></polygon><polygon id="e6d0sgb10a2f79" points="21.100000,4 23.900000,17.700000 24.900000,18.900000 21.800000,3.900000" fill="rgb(255,236,121)" stroke="none" stroke-width="1"></polygon></g><path id="e6d0sgb10a2f80" d="M239.400000,181.800000L188.600000,181.800000C188,181.800000,187.600000,181.400000,187.600000,180.800000L187.600000,175.400000C187.600000,174.800000,188,174.400000,188.600000,174.400000L241.400000,174.400000C241.700000,174.400000,242,174.600000,242.200000,174.800000C242.400000,175.100000,242.400000,175.400000,242.300000,175.700000L240.300000,181.100000C240.200000,181.500000,239.800000,181.800000,239.400000,181.800000ZM189.600000,179.800000L238.700000,179.800000L240,176.400000L189.600000,176.400000L189.600000,179.800000L189.600000,179.800000Z" fill="rgb(36,38,45)" stroke="none" stroke-width="1"></path><path id="e6d0sgb10a2f81" d="M255.500000,262.100000C248.800000,262.100000,241.600000,260.900000,235.200000,257.300000C234.700000,257,234.500000,256.400000,234.800000,255.900000C235.100000,255.400000,235.700000,255.300000,236.200000,255.500000C246,261,258.100000,260.500000,266.500000,259C272.200000,258,277.500000,256.200000,282.400000,253.500000C282.900000,253.200000,283.500000,253.400000,283.800000,253.900000C284.100000,254.400000,283.900000,255,283.400000,255.300000C278.300000,258.100000,272.800000,260,266.900000,261C263.500000,261.700000,259.600000,262.100000,255.500000,262.100000Z" fill="rgb(36,38,45)" stroke="none" stroke-width="1"></path><path id="e6d0sgb10a2f82" d="M291.400000,249.700000C291.100000,249.700000,290.800000,249.600000,290.600000,249.300000C290.200000,248.900000,290.300000,248.200000,290.700000,247.900000C308.400000,233.100000,315.800000,207.600000,319,188.900000C319.100000,188.400000,319.600000,188,320.200000,188.100000C320.700000,188.200000,321.100000,188.700000,321,189.300000C317.800000,208.300000,310.200000,234.200000,292,249.500000C291.800000,249.700000,291.600000,249.700000,291.400000,249.700000Z" fill="rgb(36,38,45)" stroke="none" stroke-width="1"></path><path id="e6d0sgb10a2f83" d="M321.200000,181.800000C321.200000,181.800000,321.100000,181.800000,321.100000,181.800000C320.600000,181.700000,320.200000,181.200000,320.200000,180.700000C321,173.600000,321.500000,166.300000,321.500000,159.200000C321.600000,145.900000,320,127.300000,305.700000,119.100000C305.200000,118.800000,305.100000,118.200000,305.300000,117.700000C305.600000,117.200000,306.200000,117.100000,306.700000,117.300000C321.900000,126,323.600000,145.400000,323.500000,159.200000C323.500000,166.400000,323,173.800000,322.200000,181C322.100000,181.400000,321.700000,181.800000,321.200000,181.800000Z" fill="rgb(36,38,45)" stroke="none" stroke-width="1"></path><path id="e6d0sgb10a2f84" d="M241.500000,294.500000C241.200000,294.500000,241,294.500000,240.700000,294.400000C239.200000,294,238.300000,292.500000,238.500000,291L243.500000,260.500000C243.600000,260,244.100000,259.600000,244.600000,259.700000C245.100000,259.800000,245.500000,260.300000,245.400000,260.800000L240.400000,291.300000C240.300000,291.800000,240.600000,292.300000,241.100000,292.400000C241.600000,292.500000,242.200000,292.200000,242.300000,291.700000L250.600000,261C250.700000,260.500000,251.300000,260.200000,251.800000,260.300000C252.300000,260.400000,252.600000,261,252.500000,261.500000L244.200000,292.200000C244,293.600000,242.800000,294.500000,241.500000,294.500000Z" fill="rgb(36,38,45)" stroke="none" stroke-width="1"></path><path id="e6d0sgb10a2f85" d="M277.400000,294.500000C276.900000,294.500000,276.400000,294.400000,275.900000,294.100000C275.200000,293.700000,274.700000,293.100000,274.500000,292.300000L266.200000,261.600000C266.100000,261.100000,266.400000,260.500000,266.900000,260.400000C267.400000,260.300000,268,260.600000,268.100000,261.100000L276.400000,291.800000C276.500000,292.100000,276.600000,292.300000,276.900000,292.400000C277.100000,292.500000,277.400000,292.600000,277.700000,292.500000C278.200000,292.400000,278.500000,291.900000,278.400000,291.400000L273.400000,259.900000C273.300000,259.400000,273.700000,258.800000,274.200000,258.800000C274.700000,258.700000,275.300000,259.100000,275.300000,259.600000L280.300000,291.100000C280.500000,292.600000,279.600000,294.100000,278.100000,294.500000C277.900000,294.500000,277.600000,294.500000,277.400000,294.500000Z" fill="rgb(36,38,45)" stroke="none" stroke-width="1"></path><path id="e6d0sgb10a2f86" d="M255.900000,13.300000C255.500000,11.100000,256,8.800000,257.200000,6.800000C258.300000,4.800000,259.900000,3.100000,262,2C264,0.900000,266.400000,0.400000,268.700000,0.600000C271,0.800000,273.300000,1.800000,275,3.500000C276.700000,5.100000,277.800000,7.300000,278.300000,9.600000C278.500000,10.700000,278.600000,11.900000,278.400000,13.100000C278.300000,13.700000,278.200000,14.300000,278,14.800000C277.800000,15.300000,277.600000,15.900000,277.400000,16.400000C277,17.400000,276.400000,18.500000,275.600000,19.400000C274.800000,20.300000,273.900000,21.100000,273,21.700000C271.100000,22.900000,269.100000,23.700000,267.100000,24.100000C266.800000,24.200000,266.500000,24,266.500000,23.700000C266.500000,23.500000,266.500000,23.300000,266.700000,23.200000C268.400000,21.800000,270.300000,20.900000,271.900000,19.900000C273.500000,18.800000,274.700000,17.400000,275.400000,15.600000C275.600000,15.200000,275.700000,14.700000,275.900000,14.200000C276,13.700000,276.100000,13.300000,276.200000,12.800000C276.300000,11.900000,276.300000,11,276.100000,10C275.700000,8.200000,274.800000,6.500000,273.500000,5.200000C272.200000,3.900000,270.500000,3.100000,268.600000,2.900000C266.700000,2.700000,264.800000,3.100000,263.100000,4C261.400000,4.900000,260,6.300000,259.100000,7.900000C258.100000,9.600000,257.600000,11.400000,257.100000,13.400000L257.100000,13.400000C257,13.700000,256.700000,13.800000,256.500000,13.800000C256.100000,13.600000,256,13.400000,255.900000,13.300000Z" fill="rgb(36,38,45)" stroke="none" stroke-width="1"></path><path id="e6d0sgb10a2f87" d="M272.500000,10.300000C272.900000,11.800000,272.400000,13.400000,271.400000,14.600000C270.400000,15.800000,269.100000,16.700000,267.700000,17.400000C262.700000,19.800000,259.200000,16.200000,261.700000,11.400000C262.700000,9.400000,264.200000,7.100000,266.500000,6.800000C269,6.400000,271.900000,7.900000,272.500000,10.300000Z" fill="rgb(36,38,45)" stroke="none" stroke-width="1"></path><path id="e6d0sgb10a2f88" d="M238.400000,16.500000C239,15.800000,239.700000,15.200000,240.600000,14.900000C241.500000,14.500000,242.600000,14.400000,243.600000,14.700000C244.600000,15,245.400000,15.700000,246,16.400000C246.300000,16.800000,246.500000,17.200000,246.700000,17.600000C246.900000,18,247,18.400000,247.100000,18.900000C247.200000,19.200000,247,19.400000,246.700000,19.500000C246.500000,19.500000,246.300000,19.500000,246.200000,19.400000L246.200000,19.400000C245.900000,19.100000,245.700000,18.800000,245.400000,18.500000C245.100000,18.200000,244.900000,18,244.600000,17.700000C244.100000,17.200000,243.500000,16.900000,243,16.700000C242.400000,16.500000,241.800000,16.500000,241.100000,16.600000C240.400000,16.700000,239.700000,17,239,17.300000L238.900000,17.300000C238.600000,17.400000,238.300000,17.300000,238.200000,17C238.200000,16.800000,238.200000,16.600000,238.400000,16.500000Z" fill="rgb(36,38,45)" stroke="none" stroke-width="1"></path><path id="e6d0sgb10a2f89" d="M202.700000,25.800000C202.700000,25,202.900000,24.300000,203.400000,23.600000C203.800000,22.900000,204.500000,22.300000,205.400000,22C206.300000,21.800000,207.200000,22,207.900000,22.300000C208.200000,22.500000,208.500000,22.700000,208.800000,23C209.100000,23.300000,209.300000,23.500000,209.500000,23.800000C209.700000,24,209.600000,24.400000,209.400000,24.500000C209.300000,24.600000,209.100000,24.600000,209,24.600000L208.900000,24.600000C208.600000,24.500000,208.300000,24.400000,208,24.300000C207.700000,24.200000,207.400000,24.100000,207.200000,24C206.700000,23.900000,206.200000,23.800000,205.900000,23.900000C205.500000,24,205.200000,24.200000,204.800000,24.600000C204.400000,25,204.100000,25.500000,203.700000,26L203.700000,26.100000C203.500000,26.300000,203.200000,26.400000,203,26.200000C202.700000,26.200000,202.700000,26,202.700000,25.800000Z" fill="rgb(36,38,45)" stroke="none" stroke-width="1"></path><path id="e6d0sgb10a2f90" d="M216.800000,31.400000C213.300000,33.900000,209.800000,36.200000,206.500000,38.900000C204.900000,40.200000,203.300000,41.700000,201.900000,43.200000C201.200000,44,200.500000,44.800000,199.900000,45.600000C199.200000,46.400000,198.800000,47.200000,198.500000,48.100000C198.200000,49,198.100000,49.900000,198.200000,50.800000C198.200000,51.300000,198.300000,51.700000,198.500000,52.100000C198.600000,52.600000,198.800000,53.100000,199,53.500000C199.800000,55.400000,200.800000,57.200000,202,58.800000C203.300000,60.400000,204.700000,61.800000,206.500000,62.900000C208.200000,64,210.100000,64.800000,212.100000,65.400000L211.800000,65.400000C214.800000,65.400000,218,64.900000,220.900000,64.100000C223.900000,63.300000,226.800000,62.300000,229.600000,60.900000C232.400000,59.600000,235,57.800000,237.400000,55.900000C238.600000,54.900000,239.700000,53.800000,240.600000,52.600000C241.500000,51.400000,242.200000,50,242.300000,48.600000L242.300000,48.600000C242.300000,48.300000,242.600000,48.100000,242.900000,48.200000C243.200000,48.200000,243.300000,48.400000,243.300000,48.700000C243.300000,50.400000,242.600000,52.100000,241.700000,53.500000C240.800000,54.900000,239.700000,56.100000,238.500000,57.200000C237.300000,58.300000,236,59.300000,234.700000,60.200000L232.600000,61.500000L230.500000,62.700000C227.600000,64.200000,224.500000,65.300000,221.400000,66.200000C219.800000,66.600000,218.200000,67,216.600000,67.200000C215,67.400000,213.400000,67.600000,211.700000,67.600000C211.600000,67.600000,211.500000,67.600000,211.500000,67.600000L211.500000,67.600000C209.300000,67,207.200000,66.100000,205.300000,64.900000C203.400000,63.700000,201.700000,62.100000,200.300000,60.300000C198.900000,58.500000,197.800000,56.500000,197,54.400000C196.800000,53.900000,196.600000,53.400000,196.400000,52.800000C196.200000,52.200000,196.100000,51.600000,196.100000,51C196,49.800000,196.200000,48.500000,196.600000,47.400000C196.800000,46.800000,197.100000,46.300000,197.400000,45.700000C197.600000,45.400000,197.700000,45.200000,197.900000,44.900000L198.400000,44.200000C199.100000,43.300000,199.800000,42.500000,200.500000,41.700000C202,40.100000,203.600000,38.600000,205.300000,37.200000C208.700000,34.400000,212.300000,32,216.500000,30.400000C216.800000,30.300000,217,30.400000,217.100000,30.700000C217.100000,31,217,31.200000,216.800000,31.400000L216.800000,31.400000Z" fill="rgb(36,38,45)" stroke="none" stroke-width="1"></path><path id="e6d0sgb10a2f91" d="M217.200000,48.100000C217.400000,50.100000,214,54,209.400000,54.500000C204.800000,55,200.700000,51.700000,200.500000,49.800000C200.300000,47.800000,204,47.500000,208.700000,47C213.200000,46.500000,217,46.100000,217.200000,48.100000Z" fill="rgb(36,38,45)" stroke="none" stroke-width="1"></path><path id="e6d0sgb10a2f92" d="M210.300000,54.700000C210.300000,54.900000,210.300000,55.300000,210.300000,55.600000C210.300000,55.900000,210.400000,56.300000,210.400000,56.600000C210.500000,57.300000,210.600000,58,210.700000,58.700000C210.800000,59.400000,211,60.100000,211.200000,60.800000C211.400000,61.500000,211.600000,62.200000,211.800000,62.900000L211.800000,62.900000C211.900000,63.200000,211.700000,63.400000,211.500000,63.500000C211.300000,63.600000,211,63.500000,210.900000,63.300000C210.500000,62.700000,210.200000,62,209.900000,61.300000C209.600000,60.600000,209.300000,59.900000,209,59.200000C208.700000,58.500000,208.500000,57.800000,208.300000,57C208.200000,56.600000,208.100000,56.200000,208.100000,55.800000C208.100000,55.400000,208,55,208.100000,54.500000C208.200000,54,208.700000,53.600000,209.200000,53.700000C209.700000,53.800000,210,54.100000,210,54.600000L210.300000,54.700000Z" fill="rgb(36,38,45)" stroke="none" stroke-width="1"></path><path id="e6d0sgb10a2f93" d="M214,66.200000C214.400000,66.800000,215,67.500000,215.700000,68L216.200000,68.400000L216.700000,68.700000C217,69,217.500000,69.100000,217.800000,69.300000C219.400000,70,221.200000,70.100000,223,69.900000C223.900000,69.900000,224.800000,69.600000,225.700000,69.400000C226.600000,69.100000,227.500000,68.800000,228.300000,68.500000C229.100000,68.100000,230,67.700000,230.900000,67.300000L233.400000,65.900000L233.400000,65.900000C233.600000,65.800000,233.900000,65.900000,234.100000,66.100000C234.200000,66.300000,234.200000,66.600000,233.900000,66.800000L231.500000,68.500000C230.700000,69,229.800000,69.500000,228.900000,70C228,70.400000,227.100000,70.800000,226.100000,71.200000C225.100000,71.500000,224.200000,71.800000,223.100000,71.900000C221.100000,72.200000,218.900000,72.200000,216.900000,71.400000C215.900000,71,214.900000,70.500000,214.100000,69.800000C213.300000,69.100000,212.600000,68.300000,212,67.300000C211.700000,66.800000,211.900000,66.200000,212.400000,65.900000C213,65.500000,213.600000,65.700000,214,66.200000L214,66.200000Z" fill="rgb(36,38,45)" stroke="none" stroke-width="1"></path><path id="e6d0sgb10a2f94" display="none" d="M203,49.600000C203,50,205.400000,50.900000,208.100000,50.600000C210.800000,50.300000,213,49.200000,213,48.800000C213,48.400000,210.700000,48.200000,207.900000,48.400000C205.200000,48.600000,203,49.100000,203,49.600000Z" opacity="0.5" fill="rgb(225,232,234)" stroke="none" stroke-width="1"></path><path id="e6d0sgb10a2f95" d="M199.500000,30.800000C199.500000,30.800000,199.500000,30.800000,199.500000,30.800000L198.800000,30.800000C198.700000,30.800000,198.700000,30.800000,198.600000,30.800000C195.400000,30,192.700000,27.700000,191.300000,24.600000C190,21.700000,190.100000,18.600000,191.500000,15.900000C192.900000,13.100000,195.400000,11.300000,198.400000,10.800000C201.600000,10.300000,205.200000,11.400000,207.600000,13.800000L207.900000,14.200000C208.300000,14.600000,208.300000,15.200000,207.900000,15.600000C207.500000,16,206.900000,16,206.500000,15.600000L206.200000,15.300000C204.300000,13.400000,201.400000,12.500000,198.800000,12.900000C197.100000,13.200000,194.900000,14.100000,193.400000,16.900000C192.300000,19.100000,192.200000,21.600000,193.300000,23.900000C194.400000,26.400000,196.600000,28.300000,199.100000,28.900000L199.700000,28.900000C200.300000,28.900000,200.700000,29.400000,200.700000,29.900000C200.500000,30.400000,200.100000,30.800000,199.500000,30.800000Z" fill="rgb(36,38,45)" stroke="none" stroke-width="1"></path><path id="e6d0sgb10a2f96" d="M299.900000,190.200000L22.800000,190.200000C22.200000,190.200000,21.800000,189.800000,21.800000,189.200000L21.800000,180.900000C21.800000,180.300000,22.200000,179.900000,22.800000,179.900000L299.900000,179.900000C300.500000,179.900000,300.900000,180.300000,300.900000,180.900000L300.900000,189.200000C300.900000,189.700000,300.500000,190.200000,299.900000,190.200000ZM23.800000,188.200000L298.900000,188.200000L298.900000,181.900000L23.800000,181.900000L23.800000,188.200000Z" fill="rgb(36,38,45)" stroke="none" stroke-width="1"></path><path id="e6d0sgb10a2f97" d="M369.800000,190.200000L299.900000,190.200000C299.300000,190.200000,298.900000,189.800000,298.900000,189.200000L298.900000,180.900000C298.900000,180.300000,299.300000,179.900000,299.900000,179.900000L369.800000,179.900000C370.400000,179.900000,370.800000,180.300000,370.800000,180.900000L370.800000,189.200000C370.800000,189.700000,370.400000,190.200000,369.800000,190.200000ZM300.900000,188.200000L368.800000,188.200000L368.800000,181.900000L300.900000,181.900000L300.900000,188.200000Z" fill="rgb(36,38,45)" stroke="none" stroke-width="1"></path><path id="e6d0sgb10a2f98" d="M108.600000,294.300000L106.100000,294.300000C103.900000,294.300000,102.100000,292.500000,102.100000,290.300000L102.100000,189.200000C102.100000,188.600000,102.500000,188.200000,103.100000,188.200000L111.600000,188.200000C112.200000,188.200000,112.600000,188.600000,112.600000,189.200000L112.600000,290.400000C112.600000,292.600000,110.800000,294.300000,108.600000,294.300000ZM104.100000,190.200000L104.100000,290.400000C104.100000,291.500000,105,292.400000,106.100000,292.400000L108.600000,292.400000C109.700000,292.400000,110.600000,291.500000,110.600000,290.400000L110.600000,190.200000L104.100000,190.200000Z" fill="rgb(36,38,45)" stroke="none" stroke-width="1"></path><path id="e6d0sgb10a2f99" d="M288.400000,294.300000L285.900000,294.300000C283.700000,294.300000,281.900000,292.500000,281.900000,290.300000L281.900000,189.200000C281.900000,188.600000,282.300000,188.200000,282.900000,188.200000L291.400000,188.200000C292,188.200000,292.400000,188.600000,292.400000,189.200000L292.400000,290.400000C292.400000,292.600000,290.600000,294.300000,288.400000,294.300000ZM283.900000,190.200000L283.900000,290.400000C283.900000,291.500000,284.800000,292.400000,285.900000,292.400000L288.400000,292.400000C289.500000,292.400000,290.400000,291.500000,290.400000,290.400000L290.400000,190.200000L283.900000,190.200000Z" fill="rgb(36,38,45)" stroke="none" stroke-width="1"></path><path id="e6d0sgb10a2f100" d="M355.200000,294.300000L352.700000,294.300000C350.500000,294.300000,348.700000,292.500000,348.700000,290.300000L348.700000,189.200000C348.700000,188.600000,349.100000,188.200000,349.700000,188.200000L358.200000,188.200000C358.800000,188.200000,359.200000,188.600000,359.200000,189.200000L359.200000,290.400000C359.200000,292.600000,357.400000,294.300000,355.200000,294.300000ZM350.700000,190.200000L350.700000,290.400000C350.700000,291.500000,351.600000,292.400000,352.700000,292.400000L355.200000,292.400000C356.300000,292.400000,357.200000,291.500000,357.200000,290.400000L357.200000,190.200000L350.700000,190.200000Z" fill="rgb(36,38,45)" stroke="none" stroke-width="1"></path><path id="e6d0sgb10a2f101" d="M203.500000,19.500000C202.500000,18.200000,200.700000,17.300000,199.100000,17.800000C197.200000,18.300000,196,20.500000,196.300000,22.500000C196.600000,24.500000,198.200000,26.100000,200.100000,26.800000L203.500000,19.500000Z" fill="rgb(36,38,45)" stroke="none" stroke-width="1"></path><path id="e6d0sgb10a2f102" d="M41.800000,294.300000L39.300000,294.300000C37.100000,294.300000,35.300000,292.500000,35.300000,290.300000L35.300000,189.200000C35.300000,188.600000,35.700000,188.200000,36.300000,188.200000L44.800000,188.200000C45.400000,188.200000,45.800000,188.600000,45.800000,189.200000L45.800000,290.400000C45.800000,292.600000,44,294.300000,41.800000,294.300000ZM37.300000,190.200000L37.300000,290.400000C37.300000,291.500000,38.200000,292.400000,39.300000,292.400000L41.800000,292.400000C42.900000,292.400000,43.800000,291.500000,43.800000,290.400000L43.800000,190.200000L37.300000,190.200000Z" fill="rgb(36,38,45)" stroke="none" stroke-width="1"></path></g><g id="e6d0sgb10a2f103" transform="matrix(1 0 0 1 201.30000000000001 151.15899999999999)"><g id="e6d0sgb10a2f104_tr" transform="translate(23.904371,11.656143) rotate(0)"><g id="e6d0sgb10a2f104" transform="translate(-23.080030,-9.520993)"><path id="e6d0sgb10a2f105" d="M24.475659,1.500000L15.490897,2.915438L9.384741,2.207719C8.583177,1.735906,7.578675,1.735906,6.371234,2.207719C4.560073,2.915438,0.996957,4.465669,0.996957,9.918587C0.996957,13.553866,3.156524,16.271880,7.475659,18.072631L17.480756,16.971118L24.475659,15.405964L24.475659,1.500000Z" fill="rgb(247,247,247)" fill-rule="evenodd" stroke="none" stroke-width="1"></path><path id="e6d0sgb10a2f106" d="M8.175659,18.905964C6.975659,18.905964,5.675659,18.805964,4.475659,18.105964C3.175659,17.405964,2.075659,16.205964,1.275659,14.505964C0.075659,12.005964,-0.324341,9.305964,0.275659,7.005964C0.975659,4.305964,3.075659,2.005964,5.575659,1.305964C7.575659,0.705964,9.575659,1.105964,11.475659,1.505964L12.275659,1.705964C15.075659,2.205964,20.109400,1.108528,21.209400,0.308528C21.609400,0.008528,22.309400,0.108528,22.609400,0.508528C22.909400,0.908528,22.809400,1.608528,22.409400,1.908528C20.409400,3.408528,14.275659,4.105964,11.975659,3.705964L11.075659,3.505964C9.275659,3.205964,7.575659,2.805964,6.075659,3.305964C4.275659,3.805964,2.775659,5.505964,2.175659,7.505964C1.675659,9.405964,1.975659,11.605964,2.975659,13.705964C3.575659,15.005964,4.375659,15.905964,5.275659,16.405964C6.475659,17.005964,7.875659,17.005964,9.675659,16.905964C11.975659,17.005964,10.918701,16.948493,13.584401,16.505964C16.250102,16.063436,22.675659,14.505964,23.375659,14.505964C23.875659,14.505964,24.375659,14.905964,24.475659,15.405964C24.475659,16.005964,24.075659,16.405964,23.575659,16.505964C22.875659,16.505964,16.786308,18.105964,14.102831,18.531576C11.419353,18.957187,10.575659,18.905964,9.875659,18.905964C9.375659,18.905964,8.775659,18.905964,8.175659,18.905964Z" fill="rgb(36,38,45)" stroke="none" stroke-width="1"></path></g></g><g id="e6d0sgb10a2f107_tr" transform="translate(38.565306,8.041000) rotate(-2)"><g id="e6d0sgb10a2f107" transform="translate(-25.072806,-8.041000)"><path id="e6d0sgb10a2f108" d="M27,9.500000C22.810769,4.786126,19.109452,2.331178,15.896047,2.135154C11.075940,1.841118,6.800024,2.063963,3.184829,7.884275C0.774699,11.764483,0.645581,15.872320,2.797474,20.207785C5.785651,22.263014,8.034360,23.089561,9.543602,22.687428C11.807464,22.084229,20.497637,16.869157,22.007464,15.133139C23.014015,13.975794,24.678194,12.098081,27,9.500000Z" fill="rgb(247,247,247)" fill-rule="evenodd" stroke="none" stroke-width="1"></path><path id="e6d0sgb10a2f109" d="M9.407464,23.641118C8.307464,23.641118,7.007464,23.441118,5.607464,22.841118C3.207464,21.841118,1.607464,20.341118,0.707464,18.341118C-0.892536,14.641118,0.707464,10.541118,0.807464,10.441118C4.307464,1.141118,11.707464,1.041118,12.007464,1.041118C19.907464,0.434654,24.339319,5.415552,25.839319,6.615552C26.239319,7.015552,26.339319,7.615552,25.939319,8.015552C25.539319,8.415552,24.939319,8.515552,24.539319,8.115552C23.339319,7.115552,18.207846,2.269248,12.007464,3.041118C11.707464,3.041118,5.607464,3.241118,2.607464,11.141118C2.607464,11.241118,1.207464,14.641118,2.507464,17.541118C3.207464,19.041118,4.789157,20.435154,6.689157,21.135154C12.331805,22.323369,18.507464,16.533139,20.607464,14.933139C21.007464,14.633139,21.707464,14.633139,22.007464,15.133139C22.307464,15.533139,22.307464,16.233139,21.807464,16.533139C20.607464,17.533139,11.707464,23.641118,9.407464,23.641118Z" fill="rgb(36,38,45)" stroke="none" stroke-width="1"></path></g></g><g id="e6d0sgb10a2f110_tr" transform="translate(45.826013,12.691120) rotate(0)"><g id="e6d0sgb10a2f110" transform="translate(-21.626013,-10.850000)"><path id="e6d0sgb10a2f111" d="M27.300000,13.937422C26.130559,9.800524,24.099146,6.514751,21.205762,4.080102C16.865685,0.428130,12.518697,0.375707,10.509348,1.794036C8.500000,3.212364,0.575659,8.101079,1.100000,13.937422C1.624341,19.773764,6.490652,21.490191,8.500000,20.392113C10.509348,19.294036,13.513505,18.528131,14.500000,16.032660C15.157663,14.369013,19.424330,13.670601,27.300000,13.937422Z" fill="rgb(247,247,247)" fill-rule="evenodd" stroke="none" stroke-width="1"></path><path id="e6d0sgb10a2f112" d="M26.100000,11.800000C25.300000,10.500000,24.400000,9.200000,23.500000,8C22.600000,6.800000,21.600000,5.600000,20.500000,4.700000C19.400000,3.700000,18.100000,3,16.700000,2.500000C15.300000,2,13.900000,1.900000,12.400000,1.900000L12.600000,1.900000C11.500000,2.300000,10.300000,2.900000,9.200000,3.600000C8.100000,4.300000,7.100000,5.100000,6.200000,6.100000C5.300000,7.100000,4.500000,8.100000,3.900000,9.200000C3.200000,10.300000,2.700000,11.500000,2.200000,12.700000L2.200000,12.600000C2.100000,13.200000,2.100000,13.900000,2.100000,14.500000C2.100000,15.200000,2.300000,15.800000,2.500000,16.400000C2.700000,17,3,17.500000,3.400000,17.900000C3.800000,18.300000,4.300000,18.600000,4.900000,18.900000L4.900000,18.900000L5,18.900000C5.700000,19.200000,6.600000,19.400000,7.500000,19.400000C8.400000,19.400000,9.200000,19.100000,10,18.700000C10.800000,18.300000,11.400000,17.700000,12.100000,17C12.400000,16.700000,12.700000,16.300000,13.100000,16C13.400000,15.600000,13.700000,15.200000,14.100000,14.900000L14.100000,14.900000C14.300000,14.700000,14.600000,14.700000,14.800000,14.900000C14.900000,15,15,15.200000,14.900000,15.400000C14.800000,15.900000,14.600000,16.400000,14.400000,17C14.100000,17.500000,13.900000,18,13.500000,18.400000C12.800000,19.300000,11.900000,20.100000,10.900000,20.700000C9.900000,21.300000,8.700000,21.600000,7.500000,21.700000C6.300000,21.700000,5.200000,21.600000,4,21L4.100000,21C3.300000,20.600000,2.500000,20.200000,1.900000,19.500000C1.300000,18.800000,0.800000,18.100000,0.500000,17.200000C0.200000,16.400000,0,15.500000,0,14.700000C0,13.900000,0,13.100000,0.100000,12.200000C0.100000,12.200000,0.100000,12.100000,0.100000,12.100000L0.100000,12.100000C0.600000,10.700000,1.200000,9.400000,1.900000,8.200000C2.600000,6.900000,3.500000,5.800000,4.600000,4.700000C5.600000,3.600000,6.800000,2.700000,8,1.900000C9.300000,1.100000,10.500000,0.500000,12,0L12,0C12.100000,0,12.100000,0,12.200000,0C13.900000,0,15.700000,0.100000,17.300000,0.800000C18.900000,1.400000,20.400000,2.300000,21.700000,3.400000C23,4.500000,24.100000,5.800000,25,7.200000C25.900000,8.600000,26.600000,10.100000,26.900000,11.800000C27,12.100000,26.800000,12.300000,26.500000,12.400000C26.500000,12.100000,26.300000,12,26.100000,11.800000L26.100000,11.800000Z" fill="rgb(36,38,45)" stroke="none" stroke-width="1"></path></g></g></g></g></g></svg> 