<svg id="BEar" xmlns="http://www.w3.org/2000/svg" width="106.029" height="178.816" viewBox="0 0 106.029 178.816">
  <path id="Path_16" data-name="Path 16" d="M443.1,90.862s-1.1-8.391-2.026-11.169a5.989,5.989,0,0,0-.232-.579c-.926-1.968-8.739-3.935-5.208-11.632l1.447-1.852s-3.125-9.665,3.53-14.931c0,0,4.572-6.308,11.4-6.945,0,0,11.748-4.456,21.7,1.678,0,0,1.447-7.986,9.028-5.093,0,0,5.208,2.6,2.489,8.739a12.058,12.058,0,0,1-4.167,3.3s10.591.926,9.144,9.317c0,0-.405,7.871-2.894,11.632a45.256,45.256,0,0,1,3.646,17.94s9.665,1.331,8.1,13.716c0,0-.405,7.986-2.72,12.153,0,0,7.7,18.577,5.382,36.228a46.415,46.415,0,0,1-3.935,14.005s-6.308,18.693-4.167,35.3c0,0,3.125,8.391-4.051,10.706,0,0-10.07,3.009-17.651.116a7.227,7.227,0,0,1-7.871-1.042s-4.861-.521-3.3-4.977c0,0,1.563-3.009,4.456-3.3,0,0,2.488-3.009,4.051-3.3,0,0-6.945-26.795-5.208-38.832,0,0-5.093.637-5.9-.926,0,0-2.6-34.434-6.424-45.777C451.726,115.458,447.964,95.955,443.1,90.862Z" transform="translate(-396.609 -39.075)" fill="#fff"/>
  <path id="Path_17" data-name="Path 17" d="M441.6,57.037s-3.82,4.167-6.829,1.447c0,0-4.456-4.977-.405-8.739,0,0,3.935-3.646,7.986.116C442.348,49.8,446.573,52.986,441.6,57.037Z" transform="translate(-395.738 -42.635)" fill="#fff"/>
  <path id="Path_18" data-name="Path 18" d="M435.632,59.308a.348.348,0,0,1-.231-.058,7.231,7.231,0,0,1-3.7-4.861,6.379,6.379,0,0,1,1.331-5.44A5.892,5.892,0,0,1,438,46.692a6.989,6.989,0,0,1,5.324,3.125.586.586,0,1,1-.984.637,5.813,5.813,0,0,0-4.4-2.6,4.9,4.9,0,0,0-3.993,1.794,5.145,5.145,0,0,0-1.042,4.456,5.958,5.958,0,0,0,3.067,4.051.574.574,0,0,1,.289.752A.735.735,0,0,1,435.632,59.308Z" transform="translate(-395.272 -42.013)" fill="#24262d"/>
  <path id="Path_20" data-name="Path 20" d="M414.317,122.468s-6.134-.116-8.334,11.517a147.86,147.86,0,0,1-29.283-1.968s.637-9.9,8.565-11.516C385.323,120.558,408.472,120.269,414.317,122.468Z" transform="translate(-372.163 -73.111)" fill="#dcfaff"/>
  <path id="Path_21" data-name="Path 21" d="M392.5,127.955s12.732,43.4,12.442,68.868c0,0,.289,32.7-6.366,43.983l16.493.579s2.894-.868,5.787,4.63c0,0,2.6,4.63,6.077,4.919,0,0,3.762,0,6.077-6.945,0,0,8.333-26.91,7.35-47.05,0,0-2.72-40.047-11.112-62.617,0,0-3.183-10.417-9.259-9.838Z" transform="translate(-378.82 -74.779)" fill="#dcfaff"/>
  <path id="Path_22" data-name="Path 22" d="M403.245,325.932l-24.6-.231a6.084,6.084,0,0,0-5.208,3.877s-2.72,4.514-3.241,7.523l25.116.752C395.374,337.853,398.326,327.61,403.245,325.932Z" transform="translate(-369.425 -159.558)" fill="#dcfaff"/>
  <g id="Group_16" data-name="Group 16" transform="translate(1.412 166.142)">
    <path id="Path_23" data-name="Path 23" d="M372.978,331.719a6.028,6.028,0,0,1,5.208-3.877l22.57.231a6.919,6.919,0,0,1,2.952-2.141l-24.6-.231a6.085,6.085,0,0,0-5.208,3.877,39.489,39.489,0,0,0-2.6,5.324C372.168,333.108,372.978,331.719,372.978,331.719Z" transform="translate(-371.3 -325.7)" fill="#f8ffff"/>
    <path id="Path_24" data-name="Path 24" d="M413.4,344.8h.174s.347-1.1.926-2.6A23.148,23.148,0,0,0,413.4,344.8Z" transform="translate(-389.036 -332.651)" fill="#ffe0bb"/>
  </g>
  <path id="Path_25" data-name="Path 25" d="M415.2,336.107s2.2-10.243,8.912-10.128c0,0,4.514-.695,6.25,4.861.116.289,3.472,4.456,5.382,5.208C435.8,336.107,414.908,335.818,415.2,336.107Z" transform="translate(-388.38 -159.664)" fill="#bce0e4"/>
  <path id="Path_26" data-name="Path 26" d="M473.562,250.706l.347,9.433s-5.035,16.436-2.836,30.73a8.49,8.49,0,0,1,.521,3.125s-2.951,2.315-1.447,5.324c0,0-3.472,3.993-12.848,3.241a61.538,61.538,0,0,0,5.035-11.632s5.208-19.04,5.035-28.241l.232-12.79C467.659,249.78,471.016,251.632,473.562,250.706Z" transform="translate(-406.119 -127.621)" fill="#e1e8ea"/>
  <path id="Path_29" data-name="Path 29" d="M484.658,333.546A3.368,3.368,0,0,0,490.619,331a7.614,7.614,0,0,0,1.389,4.572,4.437,4.437,0,0,1-4.051,1.447,4.5,4.5,0,0,1-3.357-2.662Z" transform="translate(-417.62 -161.791)" fill="#e1e8ea"/>
  <path id="Path_30" data-name="Path 30" d="M433.1,69.9l-4.4.521a10.431,10.431,0,0,0,1.042,2.836Z" transform="translate(-394.07 -51.794)" fill="#e1e8ea"/>
  <path id="Path_31" data-name="Path 31" d="M438.745,69l-2.083.231L431.8,74.093a4.608,4.608,0,0,0,.868.984Z" transform="translate(-395.376 -51.415)" fill="#e1e8ea"/>
  <path id="Path_32" data-name="Path 32" d="M443.8,68.131l-7.7,7.7a6.538,6.538,0,0,0,2.2.694s4.4-4.051,7.234-5.44V67.9Z" transform="translate(-397.188 -50.952)" fill="#e1e8ea"/>
  <path id="Path_33" data-name="Path 33" d="M468.8,65.394a8.427,8.427,0,0,0,.81,4.051l4.746-4.745Z" transform="translate(-410.959 -49.604)" fill="#e1e8ea"/>
  <path id="Path_34" data-name="Path 34" d="M482.417,63.2l-3.935.521L472,70.2a9.085,9.085,0,0,0,1.91,1.5Z" transform="translate(-412.311 -48.972)" fill="#e1e8ea"/>
  <path id="Path_35" data-name="Path 35" d="M489.307,65.1,480.8,73.607a9.95,9.95,0,0,0,1.852.231,8.627,8.627,0,0,0,8.276-7.7A3.22,3.22,0,0,1,489.307,65.1Z" transform="translate(-416.019 -49.772)" fill="#e1e8ea"/>
  <path id="Path_36" data-name="Path 36" d="M396.879,137.272s12.385,2.141,19.966.521c0,0,2.141-12.79,8.97-12.037,0,0-1.794-4.688-7.581.347,0,0-4.109,4.109-4.109,8.623,0,0-13.831,1.1-17.825.347Z" transform="translate(-380.42 -74.489)" fill="#bce0e4"/>
  <path id="Path_37" data-name="Path 37" d="M412.671,185.522a7.736,7.736,0,0,1-4.8,4.514c.232-.058-1.563-9.144-1.678-10.012-.463-2.836-1.736-6.192,2.257-6.54,2.836-.231,3.3,1.447,3.588,3.762C412.266,180.14,413.828,182.57,412.671,185.522Z" transform="translate(-384.349 -95.424)" fill="#bce0e4"/>
  <path id="Path_38" data-name="Path 38" d="M469.426,205.217S466.185,160.656,456,141.5c0,0,10.243,33.8,11.111,62.617Z" transform="translate(-405.571 -81.958)" fill="#e1e8ea"/>
  <g id="Group_17" data-name="Group 17" transform="translate(63.045 160.818)">
    <path id="Path_39" data-name="Path 39" d="M507.69,335.838a36.843,36.843,0,0,1-7.986-.058h.058a5.817,5.817,0,0,1-1.794-.405,4.692,4.692,0,0,1-1.62-.984,5.874,5.874,0,0,1-1.1-1.563,5.012,5.012,0,0,1-.347-1.852,5.3,5.3,0,0,1,.058-.926,6.4,6.4,0,0,1,.174-.926,4.541,4.541,0,0,1,.926-1.62,4.985,4.985,0,0,1,3.183-1.5.273.273,0,0,1,.289.289c0,.116-.058.289-.231.289h-.058a4.938,4.938,0,0,0-2.488,1.62,5.242,5.242,0,0,0-.637,1.273,2.9,2.9,0,0,0-.116.694,3.264,3.264,0,0,0,0,.752,3.5,3.5,0,0,0,.289,1.389,3.021,3.021,0,0,0,.81,1.1,4.646,4.646,0,0,0,2.6.984h.058a43.42,43.42,0,0,0,7.755.174.6.6,0,0,1,.637.579C508.211,335.549,507.979,335.838,507.69,335.838Z" transform="translate(-485.004 -320.502)" fill="#24262d"/>
    <path id="Path_40" data-name="Path 40" d="M492.767,335.112a11.183,11.183,0,0,1-4.572.752,6.721,6.721,0,0,1-2.373-.521,4.139,4.139,0,0,1-1.91-1.678,4.517,4.517,0,0,1-.521-2.431,5.661,5.661,0,0,1,.521-2.373,4.553,4.553,0,0,1,1.62-1.852,4.638,4.638,0,0,1,2.257-.81.273.273,0,0,1,.289.289.318.318,0,0,1-.174.289h-.058a5.649,5.649,0,0,0-1.736.984,4.992,4.992,0,0,0-1.157,1.563,5.373,5.373,0,0,0-.405,1.91,3.721,3.721,0,0,0,.405,1.794,4,4,0,0,0,3.3,1.62,12.39,12.39,0,0,0,4.109-.579h0a.6.6,0,0,1,.752.347A.621.621,0,0,1,492.767,335.112Z" transform="translate(-480.151 -320.586)" fill="#24262d"/>
    <path id="Path_41" data-name="Path 41" d="M481.446,329.984a7.337,7.337,0,0,1-2.778-2.026,4.129,4.129,0,0,1-.81-1.678,3.816,3.816,0,0,1,.579-2.72,7.249,7.249,0,0,1,.521-.695,4.824,4.824,0,0,1,1.273-1.157,9.3,9.3,0,0,1,3.067-1.447h0l-.289.232a7.488,7.488,0,0,1,1.447-1.563,11.229,11.229,0,0,1,1.678-1.215,8.091,8.091,0,0,1,1.91-.868,6.553,6.553,0,0,1,2.083-.347.273.273,0,0,1,.289.289.318.318,0,0,1-.174.289h0a16.484,16.484,0,0,0-1.794.695,12.084,12.084,0,0,0-1.678.926,14.8,14.8,0,0,0-1.5,1.157,14.442,14.442,0,0,0-1.331,1.331l-.058.058a.318.318,0,0,1-.289.174h0a10.533,10.533,0,0,0-2.72,1.215,8.893,8.893,0,0,0-1.1.984,3.514,3.514,0,0,0-.405.579,3.105,3.105,0,0,0-.289.637,2.365,2.365,0,0,0,.463,2.431,5.906,5.906,0,0,0,2.373,1.678h0a.57.57,0,0,1-.463,1.042Z" transform="translate(-477.8 -316.5)" fill="#24262d"/>
  </g>
  <path id="Path_42" data-name="Path 42" d="M447.254,120.04a.615.615,0,0,1-.579-.521c-.463-4.167-1.389-8.391-2.083-11.632a.59.59,0,1,1,1.157-.231,102.835,102.835,0,0,1,2.141,11.748.575.575,0,0,1-.521.637Z" transform="translate(-400.76 -67.5)" fill="#24262d"/>
  <path id="Path_43" data-name="Path 43" d="M438.041,67.1a.564.564,0,0,1-.579-.463c-.637-2.894-1.215-7.234.752-11.227,4.167-8.391,14.352-11.343,22.165-12.327a22.59,22.59,0,0,1,14,2.894.6.6,0,1,1-.579,1.042,21.247,21.247,0,0,0-13.311-2.72c-7.523.926-17.362,3.762-21.239,11.69-1.389,2.778-1.563,6.134-.637,10.475a.586.586,0,0,1-.463.694C438.157,67.1,438.1,67.1,438.041,67.1Z" transform="translate(-397.508 -40.425)" fill="#24262d"/>
  <path id="Path_44" data-name="Path 44" d="M452.3,69.9a.808.808,0,0,1-.521-.174.9.9,0,0,1-.116-1.215,6.649,6.649,0,0,1,4.572-2.431,7.2,7.2,0,0,1,5.324,1.678.863.863,0,0,1-1.1,1.331,5.5,5.5,0,0,0-4.051-1.273A5.1,5.1,0,0,0,453,69.608.779.779,0,0,1,452.3,69.9Z" transform="translate(-403.667 -50.172)" fill="#24262d"/>
  <path id="Path_45" data-name="Path 45" d="M534.98,141.083a.212.212,0,0,1-.174-.058.579.579,0,0,1-.347-.752c3.125-9.375,3.3-16.493.521-20.6a8.366,8.366,0,0,0-5.9-3.646.534.534,0,0,1-.521-.579,50.936,50.936,0,0,0-3.183-17.419.586.586,0,0,1,1.1-.405,51.08,51.08,0,0,1,3.241,17.3,9.353,9.353,0,0,1,6.25,4.051c3.067,4.514,2.951,11.806-.347,21.644A.811.811,0,0,1,534.98,141.083Z" transform="translate(-434.781 -63.311)" fill="#24262d"/>
  <path id="Path_46" data-name="Path 46" d="M511.4,270.944h-1.62a.579.579,0,1,1,0-1.157c6.366.174,9.433-.637,12.153-1.852,1.794-.81,2.778-1.852,2.952-3.183a10.919,10.919,0,0,0-.405-5.556c0-.058-.058-.116-.058-.174-2.141-17.535,4.456-36.286,4.514-36.517,9.78-21.065-1.62-49.6-1.736-49.886a.57.57,0,0,1,1.042-.463c.116.289,11.69,29.283,1.736,50.754-.058.116-6.539,18.635-4.456,35.823a12.174,12.174,0,0,1,.463,6.134c-.231,1.678-1.447,3.067-3.588,4.051C519.848,270.134,516.9,270.944,511.4,270.944Z" transform="translate(-427.983 -94.733)" fill="#24262d"/>
  <path id="Path_47" data-name="Path 47" d="M489.538,286.541a77.14,77.14,0,0,1-2.72-10.764c-.694-3.646-1.157-7.292-1.562-10.938s-.637-7.35-.81-11a88.05,88.05,0,0,1-.058-11.053.31.31,0,0,1,.289-.289c.116,0,.231.116.289.289h0c.174,1.852.289,3.646.405,5.5s.174,3.646.289,5.5c.232,3.646.521,7.292.926,10.938s.868,7.292,1.5,10.88a80.7,80.7,0,0,0,2.546,10.591h0a.6.6,0,0,1-.347.752A.63.63,0,0,1,489.538,286.541Z" transform="translate(-417.465 -124.507)" fill="#24262d"/>
  <path id="Path_48" data-name="Path 48" d="M456.979,338.772a.579.579,0,0,1,0-1.157c4.572,0,7.581-.579,10.533-1.91a8.182,8.182,0,0,0,2.025-1.331.573.573,0,1,1,.81.81,7.442,7.442,0,0,1-2.373,1.62c-3.067,1.389-6.25,1.968-11,1.968Z" transform="translate(-405.739 -163.139)" fill="#24262d"/>
  <path id="Path_49" data-name="Path 49" d="M480.682,301.894a.58.58,0,0,1-.579-.579,9.024,9.024,0,0,0-.579-2.836c0-.058-.058-.116-.058-.174-1.447-11.748.81-23.5,2.951-31.309a.569.569,0,1,1,1.1.289c-2.083,7.7-4.34,19.271-2.951,30.73a11.682,11.682,0,0,1,.637,3.183.524.524,0,0,1-.521.694Z" transform="translate(-415.264 -134.652)" fill="#24262d"/>
  <path id="Path_50" data-name="Path 50" d="M479.587,251.193a11.81,11.81,0,0,1-4.63-.984.57.57,0,1,1,.463-1.042,10.049,10.049,0,0,0,5.093.868.515.515,0,0,1,.637.463.542.542,0,0,1-.463.637C480.628,251.135,480.223,251.193,479.587,251.193Z" transform="translate(-413.417 -127.298)" fill="#24262d"/>
  <g id="Group_18" data-name="Group 18" transform="translate(0 46.858)">
    <path id="Path_51" data-name="Path 51" d="M398.223,250.962h-.174a.663.663,0,0,1-.405-.752,32.372,32.372,0,0,1,2.836-6.482c1.389-2.488,3.7-5.382,7-5.324,2.2.058,4.283,1.447,6.366,4.34l.347.521c1.273,1.852,3.472,4.861,5.671,5.151a2.665,2.665,0,0,0,2.141-.752c2.315-1.968,3.414-5.614,4.456-8.854.232-.695.405-1.331.637-1.91,10.648-31.54,4.34-67.247-2.373-94.852l-.058-.174c-2.72-11.285-5.845-17.593-9.2-18.924a1.362,1.362,0,0,0-.463-.116h-.116c-.058,0-.058,0-.116-.058a4.207,4.207,0,0,0-3.125.868,13.386,13.386,0,0,0-3.762,4.8,11.386,11.386,0,0,0-1.678,4.8.615.615,0,0,1-.521.579,132.847,132.847,0,0,1-29.225-1.389.564.564,0,0,1-.463-.579c0-.116.174-10.012,8.623-12.153.926-.231,21.3-.405,30.383,1.968a7.2,7.2,0,0,1,.926.232c5.672,2.141,8.912,15.394,9.954,19.734l.058.174c6.713,27.721,13.079,63.659,2.315,95.489-.174.579-.405,1.215-.579,1.91-1.042,3.357-2.257,7.176-4.8,9.375a3.922,3.922,0,0,1-3.067,1.042c-2.662-.347-4.977-3.53-6.482-5.614l-.347-.521c-1.852-2.6-3.646-3.82-5.5-3.877h-.058c-2.662,0-4.63,2.6-5.9,4.746a35.226,35.226,0,0,0-2.72,6.25A.768.768,0,0,1,398.223,250.962ZM377.1,131.34a128.592,128.592,0,0,0,27.952,1.331,12.426,12.426,0,0,1,1.794-4.745,14.43,14.43,0,0,1,4.109-5.209,8.1,8.1,0,0,1,.926-.579c-9.78-1.736-26.1-1.5-27.026-1.331C378.257,122.486,377.273,129.431,377.1,131.34Z" transform="translate(-371.868 -119.582)" fill="#24262d"/>
    <path id="Path_52" data-name="Path 52" d="M399.677,248.842H399.5a.663.663,0,0,1-.405-.752c.174-.579.347-1.1.521-1.62,10.648-31.54,4.34-67.247-2.373-94.852l-.058-.174c-.405-1.736-1.215-4.919-2.315-8.218a.586.586,0,0,1,1.1-.405c1.157,3.357,1.91,6.54,2.373,8.276l.058.174c6.713,27.721,13.079,63.659,2.315,95.489-.174.521-.347,1.042-.521,1.62A.549.549,0,0,1,399.677,248.842Z" transform="translate(-379.804 -129.21)" fill="#24262d"/>
    <path id="Path_53" data-name="Path 53" d="M395.157,338.035H395.1a110.636,110.636,0,0,0-12.732-.868c-6.366,0-12.848.289-12.905.289a.526.526,0,0,1-.463-.231.59.59,0,0,1-.116-.521,32.372,32.372,0,0,1,2.836-6.482c1.389-2.488,3.7-5.44,7-5.324h25.753a.579.579,0,1,1,0,1.157H378.722c-2.662-.058-4.746,2.546-5.961,4.746a36.275,36.275,0,0,0-2.488,5.5c1.968-.058,7.118-.231,12.153-.231a112.929,112.929,0,0,1,12.905.868.678.678,0,0,1,.521.637A.858.858,0,0,1,395.157,338.035Z" transform="translate(-368.861 -206.076)" fill="#24262d"/>
    <path id="Path_54" data-name="Path 54" d="M436.044,343.557H414.979a.579.579,0,0,1,0-1.157h21.065a.579.579,0,0,1,0,1.157Z" transform="translate(-388.046 -213.451)" fill="#24262d"/>
  </g>
  <path id="Path_55" data-name="Path 55" d="M400.1,183.2a4.567,4.567,0,1,0,6.54.289Z" transform="translate(-381.44 -99.526)" fill="#fff"/>
  <path id="Path_56" data-name="Path 56" d="M407.345,183.589l-6.539-.289a2.9,2.9,0,0,0-.405.463l3.762.174a4.731,4.731,0,0,1-.347,6.424,5.246,5.246,0,0,1-.926.637,4.493,4.493,0,0,0,4.456-7.408Z" transform="translate(-382.148 -99.568)" fill="#e1e8ea"/>
  <path id="Path_57" data-name="Path 57" d="M396.215,173.473a3.866,3.866,0,0,0,.926,4.63,6.273,6.273,0,0,0,7.176-.058,4.415,4.415,0,0,0,.868-5.382C403.276,169.307,397.778,170.233,396.215,173.473Z" transform="translate(-380.22 -94.197)" fill="#fff"/>
  <path id="Path_58" data-name="Path 58" d="M407.424,172.689a4.805,4.805,0,0,0-5.556-1.852,4.228,4.228,0,0,1,1.968,1.678,4.4,4.4,0,0,1-.868,5.382,4.519,4.519,0,0,1-1.968.984,5.885,5.885,0,0,0,5.556-.81A4.5,4.5,0,0,0,407.424,172.689Z" transform="translate(-382.4 -94.223)" fill="#e1e8ea"/>
  <path id="Path_59" data-name="Path 59" d="M402.723,191.312a5.037,5.037,0,0,1-3.53-1.389,5.408,5.408,0,0,1-.752-6.54.586.586,0,1,1,.984.637,4.182,4.182,0,0,0,.579,5.093,4.113,4.113,0,0,0,5.614-.116,4.173,4.173,0,0,0-.058-5.614.573.573,0,1,1,.81-.81,5.283,5.283,0,0,1,.058,7.234A4.889,4.889,0,0,1,402.723,191.312Z" transform="translate(-380.998 -99.188)" fill="#24262d"/>
  <path id="Path_60" data-name="Path 60" d="M400.55,179.378a8.037,8.037,0,0,1-2.662-.463,6.066,6.066,0,0,1-1.5-.752,4.476,4.476,0,0,1-1.1-5.324h0a6.184,6.184,0,0,1,5.266-3.241,5.192,5.192,0,0,1,4.745,2.373,5.017,5.017,0,0,1-.984,6.134A5.7,5.7,0,0,1,400.55,179.378Zm.289-8.681h-.231a4.962,4.962,0,0,0-4.283,2.546h0a3.388,3.388,0,0,0,.752,3.935,4.315,4.315,0,0,0,1.157.579,5.339,5.339,0,0,0,5.266-.637,3.652,3.652,0,0,0-2.662-6.424ZM395.8,173.07Z" transform="translate(-379.809 -93.794)" fill="#24262d"/>
  <g id="Group_19" data-name="Group 19" transform="translate(42.96 16.483)">
    <path id="Path_61" data-name="Path 61" d="M443.1,69.876c-.058,1.563.579,2.546,1.62,2.546.984.058,2.026-.868,2.083-2.431s-.694-2.836-1.736-2.894S443.155,68.314,443.1,69.876Z" transform="translate(-443.094 -67.097)" fill="#e1e8ea"/>
    <path id="Path_62" data-name="Path 62" d="M443.9,70.376c-.058,1.563.579,2.546,1.62,2.546.984.058,2.026-.868,2.083-2.431s-.694-2.836-1.736-2.894S443.955,68.814,443.9,70.376Z" transform="translate(-443.431 -67.307)" fill="#24262d"/>
    <circle id="Ellipse_2" data-name="Ellipse 2" cx="0.637" cy="0.637" r="0.637" transform="translate(0.987 1.68)" fill="#e1e8ea"/>
  </g>
  <path id="Path_63" data-name="Path 63" d="M434.292,77.054h-.116c-5.382-.637-7.06-5.614-7.176-8.16a.936.936,0,0,1,.81-.926L441.7,66.7a.843.843,0,0,1,.926.694,10.285,10.285,0,0,1-.058,2.72.852.852,0,0,1-1.678-.289c.058-.521.116-.984.116-1.331l-12.1,1.1a6.509,6.509,0,0,0,5.556,5.729.865.865,0,0,1,.752.984A.976.976,0,0,1,434.292,77.054Z" transform="translate(-393.354 -50.442)" fill="#24262d"/>
  <g id="Group_20" data-name="Group 20" transform="translate(63.794 14.805)">
    <path id="Path_64" data-name="Path 64" d="M479.1,67.382c-.058,1.794.695,3.067,1.794,3.125,1.157.058,2.257-1.157,2.315-2.951s-.81-3.3-1.968-3.357C480.139,64.141,479.156,65.53,479.1,67.382Z" transform="translate(-479.095 -64.197)" fill="#e1e8ea"/>
    <path id="Path_65" data-name="Path 65" d="M479.9,68.682c-.058,1.794.694,3.067,1.794,3.125,1.157.058,2.257-1.157,2.315-2.951s-.81-3.3-1.968-3.357S479.956,66.888,479.9,68.682Z" transform="translate(-479.432 -64.745)" fill="#24262d"/>
    <circle id="Ellipse_3" data-name="Ellipse 3" cx="0.637" cy="0.637" r="0.637" transform="translate(1.218 2.432)" fill="#e1e8ea"/>
  </g>
  <path id="Path_66" data-name="Path 66" d="M475.976,72.891c-1.91,0-7.871-.637-9.665-8.565-.058-.116-.058-.174-.116-.289a.9.9,0,0,1,.752-.984L484.367,60.8a.9.9,0,0,1,.984.752,11.041,11.041,0,0,1-1.852,7.581,10.046,10.046,0,0,1-6.887,3.762Zm-7.871-8.276c2.026,7.118,7.929,6.54,8.16,6.54a8.123,8.123,0,0,0,5.729-3.067,8.963,8.963,0,0,0,1.563-5.44Z" transform="translate(-409.863 -47.956)" fill="#24262d"/>
  <path id="Path_67" data-name="Path 67" d="M416.117,338.052a1.651,1.651,0,0,1,.868-.579,4.379,4.379,0,0,1,.868-.058c.579.058.926.231,1.273.231a.859.859,0,0,0,.405-.058,2.33,2.33,0,0,1,.694-.232,4.377,4.377,0,0,1,.868-.058l.695.058c.868.058,1.736.174,2.6.232l2.6.174a.31.31,0,0,1,.289.289.385.385,0,0,1-.232.289,20.655,20.655,0,0,1-2.662.231c-.868,0-1.794,0-2.662-.058a6.806,6.806,0,0,0-1.1,0,1.782,1.782,0,0,0-.521.231,1.717,1.717,0,0,1-.926.116c-.579-.058-.984-.231-1.331-.231h-.463a.3.3,0,0,0-.232.116l-.058.058a.52.52,0,0,1-.81-.058A.425.425,0,0,1,416.117,338.052Z" transform="translate(-388.721 -164.445)" fill="#24262d"/>
  <path id="Path_68" data-name="Path 68" d="M426.67,333.152a2.786,2.786,0,0,0-1.447.232,9.233,9.233,0,0,1-1.736.347,10.335,10.335,0,0,1-3.53-.058.573.573,0,0,1-.463-.637.518.518,0,0,1,.579-.463h0c.579,0,1.1.058,1.678.058a48.895,48.895,0,0,0,3.357-.174c.289,0,.579-.058.926-.058a1.515,1.515,0,0,1,.984.289.286.286,0,0,1,.058.405c-.174.058-.289.116-.405.058Z" transform="translate(-390.188 -162.381)" fill="#24262d"/>
  <path id="Path_69" data-name="Path 69" d="M414.858,125.246a5.092,5.092,0,0,1,.868-.289c.289-.058.637-.116.984-.174a11.186,11.186,0,0,1,1.968.058c.637.058,1.215.058,1.852.116a10.759,10.759,0,0,1,1.91.231.255.255,0,0,1,.231.347.265.265,0,0,1-.289.231c-.637.058-1.273.058-1.852.116a10.54,10.54,0,0,1-1.91.058c-.637,0-1.215-.058-1.852,0a4.326,4.326,0,0,1-1.91-.116.3.3,0,0,1-.174-.405q0-.087.174-.174Z" transform="translate(-388.156 -74.905)" fill="#24262d"/>
  <path id="Path_70" data-name="Path 70" d="M391.158,123.43a4.728,4.728,0,0,1,1.563-.058c.521.058.984.174,1.447.231a15.508,15.508,0,0,0,2.836.116,11.928,11.928,0,0,1,1.5-.174,14.1,14.1,0,0,1,1.562.058,5.2,5.2,0,0,1,1.563.405,12.651,12.651,0,0,0,1.331.521.317.317,0,0,1,.231.347.384.384,0,0,1-.289.231h0a6.342,6.342,0,0,1-1.5-.347,11.587,11.587,0,0,0-1.389-.231h-1.447c-.463.058-.926.116-1.447.231a7.068,7.068,0,0,1-1.563.058,14.192,14.192,0,0,1-1.563-.116,8.855,8.855,0,0,1-1.447-.347,12.581,12.581,0,0,1-1.389-.405.258.258,0,0,1-.174-.347C390.926,123.546,391.042,123.488,391.158,123.43Z" transform="translate(-378.172 -74.305)" fill="#24262d"/>
  <path id="Path_71" data-name="Path 71" d="M501.152,46.129a5.765,5.765,0,0,1,.868-3.877,7.336,7.336,0,0,1,2.952-2.836,6.987,6.987,0,0,1,4.051-.752,6.223,6.223,0,0,1,3.762,1.794,7.359,7.359,0,0,1,1.91,3.7,6.288,6.288,0,0,1,0,2.083c-.058.347-.174.694-.232,1.042a6.424,6.424,0,0,1-.405.926,6.787,6.787,0,0,1-1.1,1.736,7.1,7.1,0,0,1-1.62,1.331,10.8,10.8,0,0,1-3.646,1.389.255.255,0,0,1-.347-.231c0-.116,0-.231.116-.289a31.558,31.558,0,0,1,3.241-1.91,5.848,5.848,0,0,0,2.2-2.546,4.532,4.532,0,0,0,.289-.81,4.06,4.06,0,0,0,.174-.81,8.143,8.143,0,0,0,0-1.678,5.642,5.642,0,0,0-1.563-2.951,4.784,4.784,0,0,0-2.951-1.447,5.7,5.7,0,0,0-3.357.579A6.008,6.008,0,0,0,503,42.889a15.012,15.012,0,0,0-1.273,3.3h0a.258.258,0,0,1-.347.174A.249.249,0,0,1,501.152,46.129Z" transform="translate(-424.565 -38.614)" fill="#24262d"/>
  <path id="Path_72" data-name="Path 72" d="M464.005,301.3l3.588.289a.582.582,0,1,1-.116,1.157h-.116l-3.53-.868a.317.317,0,0,1-.231-.347C463.774,301.358,463.889,301.3,464.005,301.3Z" transform="translate(-408.773 -149.279)" fill="#24262d"/>
  <path id="Path_73" data-name="Path 73" d="M415.4,222.34l-3.588-.289a.582.582,0,0,1,.116-1.157h.116l3.53.868a.317.317,0,0,1,.232.347A.735.735,0,0,1,415.4,222.34Z" transform="translate(-386.733 -115.401)" fill="#24262d"/>
  <path id="Path_74" data-name="Path 74" d="M466.689,298.989l2.257.116a.582.582,0,0,1-.116,1.157h-.174l-2.2-.695a.258.258,0,0,1-.174-.347C466.458,299.047,466.573,298.931,466.689,298.989Z" transform="translate(-409.894 -148.299)" fill="#24262d"/>
  <path id="Path_75" data-name="Path 75" d="M458.689,166.6l2.257.116a.582.582,0,1,1-.116,1.157h-.174l-2.2-.694a.258.258,0,0,1-.174-.347C458.458,166.658,458.574,166.6,458.689,166.6Z" transform="translate(-406.524 -92.532)" fill="#24262d"/>
  <path id="Path_76" data-name="Path 76" d="M445,72.447c-2.026,1.563-4.109,3.125-6.019,4.8-.926.868-1.852,1.794-2.662,2.72-.405.521-.81.984-1.157,1.5a4.491,4.491,0,0,0-.81,1.563,4.058,4.058,0,0,0-.116,1.678c.058.289.116.579.174.81l.347.868a13.535,13.535,0,0,0,1.968,3.125,11.256,11.256,0,0,0,2.836,2.373,11.653,11.653,0,0,0,3.414,1.331H442.8a24.936,24.936,0,0,0,4.977-.868,27.813,27.813,0,0,0,4.745-1.852c.752-.405,1.5-.81,2.257-1.273l1.042-.694c.347-.232.752-.521,1.1-.752a12.737,12.737,0,0,1,4.977-1.91.391.391,0,0,1,.347.231.317.317,0,0,1-.232.347,15.167,15.167,0,0,0-4.572,2.2l-2.141,1.5c-.752.463-1.5.984-2.315,1.389A24.762,24.762,0,0,1,448,93.513a27.025,27.025,0,0,1-5.324.984h-.116a13.323,13.323,0,0,1-3.819-1.447,12.556,12.556,0,0,1-3.183-2.6,11.983,11.983,0,0,1-2.141-3.472,6.423,6.423,0,0,0-.405-.926,3.383,3.383,0,0,1-.232-1.1,6.935,6.935,0,0,1,.174-2.2,7.732,7.732,0,0,1,.405-1.042,1.26,1.26,0,0,1,.289-.463l.289-.405a16.887,16.887,0,0,1,1.215-1.62,32.121,32.121,0,0,1,2.778-2.836,24.964,24.964,0,0,1,6.539-4.4.3.3,0,0,1,.405.174c.232.058.232.231.116.289Z" transform="translate(-395.781 -52.663)" fill="#24262d"/>
  <path id="Path_77" data-name="Path 77" d="M447.721,89.71c.174,1.157-1.794,3.7-4.572,4.109s-5.382-1.447-5.556-2.6,2.083-1.5,4.861-1.91S447.547,88.495,447.721,89.71Z" transform="translate(-397.813 -59.799)" fill="#24262d"/>
  <path id="Path_78" data-name="Path 78" d="M447.339,96.994a1.784,1.784,0,0,0,.058.521c0,.174.058.405.058.579a9.243,9.243,0,0,0,.289,1.215,9.954,9.954,0,0,0,.405,1.215c.174.405.289.81.463,1.215h0c.058.174,0,.289-.174.405a.278.278,0,0,1-.347-.116c-.232-.405-.463-.752-.695-1.157-.174-.405-.405-.81-.579-1.215a8.99,8.99,0,0,1-.463-1.331l-.174-.694a3.745,3.745,0,0,1,0-.81.678.678,0,0,1,.637-.521.614.614,0,0,1,.521.521Z" transform="translate(-401.424 -62.916)" fill="#24262d"/>
  <path id="Path_79" data-name="Path 79" d="M451.781,108.869a6.067,6.067,0,0,0,1.042,1.1l.289.231.347.174.694.347a6.528,6.528,0,0,0,3.183.231,8.3,8.3,0,0,0,1.62-.405c.521-.231,1.042-.405,1.563-.637.521-.289,1.042-.521,1.5-.81l1.447-.926h0a.305.305,0,0,1,.405.116.356.356,0,0,1-.058.405l-1.447,1.042a13.076,13.076,0,0,1-1.5.926c-.521.289-1.1.521-1.62.81-.579.174-1.157.405-1.736.521a6.931,6.931,0,0,1-3.762-.116,5.929,5.929,0,0,1-1.678-.926,6.392,6.392,0,0,1-1.331-1.447.623.623,0,0,1,.174-.81.6.6,0,0,1,.868.174Z" transform="translate(-403.319 -67.904)" fill="#24262d"/>
  <path id="Path_80" data-name="Path 80" d="M512.713,47.827a3.153,3.153,0,0,1-.521,2.662,6.458,6.458,0,0,1-2.141,1.794c-2.951,1.62-5.151-.463-3.762-3.472.579-1.215,1.389-2.662,2.778-2.951A3.307,3.307,0,0,1,512.713,47.827Z" transform="translate(-426.577 -41.643)" fill="#24262d"/>
  <path id="Path_81" data-name="Path 81" d="M443.3,54.669a7.022,7.022,0,0,0-.579-.81,2.8,2.8,0,0,0-1.563-.984,2.2,2.2,0,0,0-1.215.116c-2.951.984-1.852,4.109-.463,5.9A35.472,35.472,0,0,1,443.3,54.669Z" transform="translate(-398.018 -44.607)" fill="#24262d"/>
  <path id="Path_82" data-name="Path 82" d="M480.058,51.754a3.175,3.175,0,0,1,1.273-1.042,2.689,2.689,0,0,1,1.794-.174,2.989,2.989,0,0,1,1.5.984,4.829,4.829,0,0,1,.463.694,4.023,4.023,0,0,1,.289.752c.058.174-.058.347-.174.347a.254.254,0,0,1-.289-.058h0l-.521-.521a3.74,3.74,0,0,0-.521-.463,3.14,3.14,0,0,0-1.042-.579,2.6,2.6,0,0,0-1.157,0,4.536,4.536,0,0,0-1.215.521h-.058A.358.358,0,0,1,480,52.1C480,51.986,480,51.812,480.058,51.754Z" transform="translate(-415.682 -43.603)" fill="#24262d"/>
  <path id="Path_83" data-name="Path 83" d="M445.2,59.452a2.855,2.855,0,0,1,.347-1.331,1.988,1.988,0,0,1,2.662-.868,5.094,5.094,0,0,1,.579.347l.463.463a.286.286,0,0,1-.058.405.348.348,0,0,1-.231.058H448.9l-.521-.174a1.689,1.689,0,0,0-.521-.116,1.891,1.891,0,0,0-.81,0,1.623,1.623,0,0,0-.694.463c-.232.231-.405.579-.637.868v.058a.358.358,0,0,1-.405.116A.442.442,0,0,1,445.2,59.452Z" transform="translate(-401.021 -46.382)" fill="#24262d"/>
  <path id="Path_84" data-name="Path 84" d="M440.4,91.74c.058.289,1.447.694,3.125.463s2.951-.984,2.894-1.273-1.389-.289-3.067-.116C441.673,91.1,440.4,91.508,440.4,91.74Z" transform="translate(-398.999 -60.555)" fill="#e1e8ea" opacity="0.5"/>
  <path id="Path_85" data-name="Path 85" d="M492.91,88.132a4.849,4.849,0,0,1-2.72-.984,13.361,13.361,0,0,1-2.257-1.794,7.851,7.851,0,0,1-1.736-2.373,4.8,4.8,0,0,1-.463-3.125,4.085,4.085,0,0,1,1.852-2.6A5.551,5.551,0,0,1,490.6,76.5a8.059,8.059,0,0,1,2.894.579,4.456,4.456,0,0,1,2.315,1.794.3.3,0,0,1-.405.405h0a21.721,21.721,0,0,0-2.373-1.1,7.559,7.559,0,0,0-2.489-.463,4.481,4.481,0,0,0-2.315.637,2.748,2.748,0,0,0-1.215,1.794,3.882,3.882,0,0,0,.347,2.257,7.334,7.334,0,0,0,1.5,2.083,9.478,9.478,0,0,0,2.025,1.678c.752.463,1.5.926,2.2,1.447h0a.286.286,0,0,1,.058.405A.3.3,0,0,1,492.91,88.132Z" transform="translate(-418.059 -54.575)" fill="#24262d"/>
  <path id="Path_86" data-name="Path 86" d="M498.437,52.05a3.757,3.757,0,0,0-3.7.694,4.464,4.464,0,0,0-1.794,4.456c.695,3.53,5.614,4.861,8.565,3.472l2.778-2.951A8.154,8.154,0,0,0,498.437,52.05Z" transform="translate(-421.097 -44.188)" fill="#fff"/>
  <path id="Path_87" data-name="Path 87" d="M501.076,53.8a4.452,4.452,0,0,1,.405,3.009A6.265,6.265,0,0,1,493.9,59.3c1.5,2.546,5.5,3.357,8.044,2.141l2.778-2.951A7.98,7.98,0,0,0,501.076,53.8Z" transform="translate(-421.537 -45.012)" fill="#e1e8ea"/>
  <path id="Path_88" data-name="Path 88" d="M498.509,61.354a8.3,8.3,0,0,1-3.53-.81,5.14,5.14,0,0,1-2.951-3.646,5.056,5.056,0,0,1,2.026-5.035,4.376,4.376,0,0,1,4.167-.81,8.65,8.65,0,0,1,6.25,6.019.6.6,0,0,1-.405.694.549.549,0,0,1-.694-.405,7.606,7.606,0,0,0-5.44-5.208,3.2,3.2,0,0,0-3.241.637,3.872,3.872,0,0,0-1.563,3.877A4.106,4.106,0,0,0,495.5,59.5a6.282,6.282,0,0,0,5.382.174.57.57,0,1,1,.463,1.042A5.692,5.692,0,0,1,498.509,61.354Z" transform="translate(-420.707 -43.77)" fill="#24262d"/>
  <path id="Path_89" data-name="Path 89" d="M496.29,73.221a.822.822,0,0,1-.347-.116.622.622,0,0,1-.116-.81,6.2,6.2,0,0,0,1.1-5.208.569.569,0,0,1,1.1-.289,7.215,7.215,0,0,1-1.331,6.192A.387.387,0,0,1,496.29,73.221Z" transform="translate(-422.306 -50.312)" fill="#24262d"/>
  <path id="Path_90" data-name="Path 90" d="M490.727,95.578a92.4,92.4,0,0,0-5.9,19.619c-.637,3.357-1.273,6.771-1.678,10.128a42.366,42.366,0,0,0-.116,10.128,21.286,21.286,0,0,0,3.357,9.317,13.208,13.208,0,0,0,3.472,3.472,10.508,10.508,0,0,0,4.514,1.736,10.69,10.69,0,0,0,4.861-.347,27.231,27.231,0,0,0,4.688-1.852,25.191,25.191,0,0,0,4.283-2.662,23.349,23.349,0,0,0,3.646-3.53.356.356,0,0,1,.405-.058.343.343,0,0,1,.058.405,19.956,19.956,0,0,1-7.871,6.829,29.471,29.471,0,0,1-4.861,1.968,13.547,13.547,0,0,1-2.662.521,11.152,11.152,0,0,1-1.389.058,10.482,10.482,0,0,1-1.331-.174,13,13,0,0,1-5.035-1.91,14.754,14.754,0,0,1-3.82-3.762,22.562,22.562,0,0,1-3.646-9.9,42.3,42.3,0,0,1,.116-10.475c.405-3.472,1.042-6.829,1.678-10.243a91.062,91.062,0,0,1,6.077-19.792.574.574,0,0,1,.752-.289A.621.621,0,0,1,490.727,95.578Z" transform="translate(-416.281 -62.252)" fill="#24262d"/>
  <path id="Path_91" data-name="Path 91" d="M524.42,99.479c-.232,2.257-.347,4.572-.463,6.887-.058,2.315,0,4.572.116,6.887a66.6,66.6,0,0,0,.752,6.829c.347,2.257.752,4.514,1.157,6.829a.317.317,0,0,1-.232.347.35.35,0,0,1-.347-.174,64.288,64.288,0,0,1-1.678-6.771,56.916,56.916,0,0,1-.868-6.945c-.174-2.315-.232-4.688-.174-7s.289-4.63.521-6.945a.678.678,0,0,1,.637-.521A.545.545,0,0,1,524.42,99.479Z" transform="translate(-433.655 -64.011)" fill="#24262d"/>
  <path id="Path_92" data-name="Path 92" d="M516.644,83.128a40.378,40.378,0,0,0,3.183-10.012c.174-.868.289-1.736.405-2.6a7.161,7.161,0,0,0-.058-2.488,6.953,6.953,0,0,0-2.489-4.109,11.509,11.509,0,0,0-2.083-1.331,8.591,8.591,0,0,0-2.373-.694,5.454,5.454,0,0,0-2.373,0,3.752,3.752,0,0,0-1.91,1.215,3.346,3.346,0,0,0-.695,2.083,3.06,3.06,0,0,0,.868,2.026,8.826,8.826,0,0,0,1.968,1.5l.579.347.289.174a.439.439,0,0,0,.232.116,2.346,2.346,0,0,0,.579.174,2.5,2.5,0,0,1,.694.289.286.286,0,0,1,.058.405c-.058.116-.174.116-.289.116h0a.981.981,0,0,0-.579,0,1.775,1.775,0,0,1-.752-.058c-.116-.058-.289-.058-.405-.116a.823.823,0,0,0-.347-.116c-.232-.116-.405-.174-.637-.289a8.127,8.127,0,0,1-2.257-1.736,4.45,4.45,0,0,1-1.157-2.778,4.341,4.341,0,0,1,.926-2.894,5.07,5.07,0,0,1,2.546-1.678,7.07,7.07,0,0,1,1.5-.174,10.277,10.277,0,0,1,4.109.926,11.024,11.024,0,0,1,2.373,1.5,8.534,8.534,0,0,1,2.951,4.861,9.325,9.325,0,0,1,.058,2.836c-.116.926-.232,1.794-.405,2.662a38.5,38.5,0,0,1-3.414,10.3.574.574,0,0,1-.752.289A.521.521,0,0,1,516.644,83.128Z" transform="translate(-427.094 -47.834)" fill="#24262d"/>
</svg>
